<?xml version="1.0" encoding="UTF-8" standalone="no"?>
<svg xmlns:ffdec="https://www.free-decompiler.com/flash" xmlns:xlink="http://www.w3.org/1999/xlink" ffdec:objectType="shape" height="102.25px" width="107.75px" xmlns="http://www.w3.org/2000/svg">
  <g transform="matrix(5.0, 0.0, 0.0, 5.0, 49.25, 48.75)">
    <path d="M2.3 -8.6 L2.8 -8.65 Q4.6 -8.65 5.65 -7.0 L6.75 -4.9 8.15 -5.15 Q10.45 -5.15 11.7 0.0 11.7 1.75 9.3 1.75 7.55 1.75 6.8 0.1 L6.4 1.4 6.6 1.35 Q6.8 1.35 6.9 1.5 L7.85 2.4 7.85 2.5 8.55 3.35 8.95 5.25 Q8.95 6.3 7.7 7.25 6.35 8.25 4.55 8.25 3.05 8.25 2.4 7.55 L2.05 7.6 Q1.7 7.6 1.5 7.05 L1.5 6.95 1.05 7.2 1.35 7.35 Q2.45 7.9 2.45 8.55 2.45 9.05 1.75 9.8 0.85 10.7 -0.4 10.7 -4.8 10.7 -4.8 8.5 -4.8 8.05 -4.45 7.7 L-4.7 7.7 Q-6.8 7.7 -8.5 4.95 -9.85 2.75 -9.85 1.6 L-9.35 0.3 -8.45 -0.55 -8.5 -0.6 -9.25 -1.1 -9.85 -2.65 Q-9.85 -4.15 -8.05 -6.45 -5.3 -9.45 -3.4 -9.5 L-2.75 -9.75 Q-1.15 -9.75 -1.15 -7.9 L-1.25 -7.0 -1.05 -7.1 -0.15 -6.85 -0.25 -7.4 Q-0.25 -9.0 1.35 -9.0 2.15 -9.0 2.3 -8.6 M4.25 -3.95 L4.2 -3.95 3.35 -4.05 3.75 -3.45 Q3.8 -3.8 4.25 -3.95 M3.9 -3.2 L4.0 -2.95 4.05 -3.05 3.9 -3.2 M6.6 -3.5 L6.9 -4.05 6.9 -4.15 6.45 -4.0 6.25 -4.2 6.25 -4.25 5.45 -4.0 Q6.2 -3.95 6.6 -3.5 M6.25 2.2 L6.25 2.15 6.2 2.15 6.25 2.2 M6.7 1.9 L6.55 1.95 6.45 2.0 6.8 2.0 6.7 1.9 M1.6 2.55 L1.85 2.8 2.5 1.5 0.9 1.85 0.75 1.85 1.6 2.55 M2.6 4.6 L2.65 4.5 2.6 4.5 2.6 4.6 M-7.5 -0.3 L-5.9 0.9 -5.75 1.0 -6.1 0.15 -6.0 -0.75 -7.5 -0.3 M-2.85 -1.25 L-3.05 -3.15 -3.85 -1.95 Q-3.3 -1.75 -2.85 -1.25 M-1.45 1.95 L-1.55 2.1 -1.4 2.05 -1.45 1.95 M-4.25 2.45 L-4.2 2.5 Q-2.8 3.65 -2.8 6.05 L-3.0 7.0 -1.65 6.85 Q-2.55 6.15 -2.55 4.65 -2.55 3.2 -2.15 2.6 L-3.15 2.75 -4.25 2.45" fill="#000000" fill-rule="evenodd" stroke="none"/>
  </g>
</svg>
