<?xml version="1.0" encoding="UTF-8" standalone="no"?>
<svg xmlns:ffdec="https://www.free-decompiler.com/flash" xmlns:xlink="http://www.w3.org/1999/xlink" ffdec:objectType="shape" height="107.5px" width="111.75px" xmlns="http://www.w3.org/2000/svg">
  <g transform="matrix(5.0, 0.0, 0.0, 5.0, 51.75, 51.75)">
    <path d="M3.15 -9.55 L4.55 -9.25 Q5.95 -8.95 6.6 -8.3 7.65 -7.0 7.65 -5.75 7.65 -4.25 5.7 -4.25 4.05 -4.25 3.1 -5.25 2.35 -6.05 2.35 -6.7 0.3 -7.05 0.3 -8.7 0.3 -10.0 2.05 -10.0 L3.15 -9.55 M0.75 -0.45 L0.95 -0.15 0.9 -0.65 1.0 -1.25 0.15 -1.15 0.75 -0.45 M4.45 -1.45 Q4.45 -0.65 3.75 0.25 4.45 -0.6 5.5 -0.8 4.3 -1.05 4.3 -2.75 4.3 -4.05 5.4 -4.15 L5.6 -4.2 Q7.4 -4.2 7.4 -2.9 7.4 -1.1 6.4 -0.8 L6.85 -0.3 Q6.85 0.2 6.05 1.5 L6.9 1.4 Q7.7 1.75 7.7 2.45 L7.4 3.35 7.75 3.3 Q9.7 3.3 9.7 5.75 9.7 7.0 8.5 8.3 7.3 9.6 6.15 9.6 3.2 9.6 2.8 7.6 2.65 8.0 2.2 8.0 1.5 8.0 1.5 7.2 1.5 6.8 1.65 6.55 0.85 7.1 0.05 7.1 -2.15 7.1 -2.15 4.45 L-1.5 2.7 Q-1.0 1.85 -0.45 1.55 L-1.7 0.85 -1.7 0.9 Q-1.7 2.2 -3.55 2.2 L-4.05 2.1 Q-3.55 2.45 -3.55 3.4 L-3.65 3.85 Q-2.55 4.25 -2.55 5.7 -2.55 6.35 -2.8 6.8 -2.25 6.85 -2.1 7.25 L-1.4 7.75 Q-1.0 7.2 0.0 7.2 1.1 7.2 1.85 8.1 2.4 8.8 2.4 9.35 2.4 10.4 1.05 10.4 L0.35 10.4 0.35 10.6 Q0.35 11.15 -1.15 11.15 -3.3 11.15 -3.3 10.35 L-3.2 10.05 Q-5.15 9.85 -5.15 8.65 L-4.95 7.7 Q-7.65 7.65 -7.65 6.0 L-7.6 5.55 -7.7 5.55 Q-9.9 5.55 -10.35 2.2 -10.35 0.25 -8.5 -0.05 -10.0 -0.3 -10.0 -2.15 L-10.15 -3.05 Q-10.15 -5.25 -8.25 -5.4 -8.15 -7.05 -6.9 -8.45 -5.35 -10.15 -2.9 -10.3 L-2.55 -10.35 Q-1.45 -10.35 -1.35 -8.75 -1.35 -7.55 -2.7 -5.8 L-2.85 -5.55 -2.55 -5.4 Q-1.9 -7.1 0.15 -7.1 2.0 -7.1 2.85 -4.05 2.85 -2.95 2.45 -2.25 L3.4 -2.35 Q4.45 -2.35 4.45 -1.45 M9.25 -4.85 Q11.0 -4.85 12.0 -0.75 12.0 1.55 10.5 1.55 8.85 1.55 8.0 -0.05 7.4 -1.15 7.4 -2.15 7.4 -4.85 9.25 -4.85 M3.65 0.4 L3.45 0.6 3.5 0.65 3.55 0.5 3.65 0.4 M2.2 2.85 L2.65 3.95 2.9 3.65 Q2.4 3.35 2.4 2.3 L2.6 1.15 2.0 1.25 Q1.45 1.25 1.2 0.85 L0.95 1.55 Q1.65 1.85 2.2 2.85 M5.0 3.45 L5.05 2.95 4.8 3.25 5.0 3.45 M2.55 5.65 L2.0 6.3 2.45 6.2 Q2.7 6.2 2.85 6.5 L3.0 6.15 Q2.65 6.0 2.55 5.65 M-7.05 -5.75 L-7.0 -5.75 -7.1 -5.9 -7.05 -5.75 M-6.35 -3.6 L-6.25 -3.7 -6.3 -3.7 -6.35 -3.7 -6.35 -3.6 M-6.75 -0.9 Q-7.1 -0.25 -7.65 -0.1 L-5.95 1.2 Q-5.75 1.45 -5.7 2.0 L-4.85 1.9 -4.3 2.0 -5.15 1.3 Q-5.9 0.5 -5.9 -0.05 L-5.85 -0.55 -6.05 -0.55 Q-6.55 -0.55 -6.75 -0.9 M-2.85 -3.55 L-3.6 -2.45 -4.25 -1.6 Q-3.15 -1.5 -2.35 -0.5 -2.25 -1.2 -1.45 -1.35 -2.85 -1.9 -2.85 -3.55 M-5.6 3.9 L-5.7 3.75 -5.75 3.9 -5.6 3.9" fill="#000000" fill-rule="evenodd" stroke="none"/>
  </g>
</svg>
