<?xml version="1.0" encoding="UTF-8" standalone="no"?>
<svg xmlns:ffdec="https://www.free-decompiler.com/flash" xmlns:xlink="http://www.w3.org/1999/xlink" ffdec:objectType="shape" height="110.25px" width="113.0px" xmlns="http://www.w3.org/2000/svg">
  <g transform="matrix(5.0, 0.0, 0.0, 5.0, 52.25, 54.5)">
    <path d="M7.35 -7.45 Q8.1 -6.9 8.1 -5.65 8.1 -4.15 6.75 -4.15 5.9 -4.15 5.45 -4.75 L4.7 -5.35 4.2 -4.75 Q2.9 -4.75 2.9 -6.3 2.9 -7.15 3.55 -7.15 L3.8 -7.1 3.55 -7.8 Q3.55 -8.95 5.35 -8.95 6.45 -8.95 7.35 -7.45 M1.65 -10.65 Q3.6 -10.65 3.6 -9.25 3.6 -7.7 1.95 -7.7 0.5 -7.7 0.5 -9.35 0.5 -10.65 1.65 -10.65 M1.35 -7.15 Q2.75 -7.15 2.9 -4.15 L2.45 -2.7 Q1.85 -1.55 0.95 -1.55 0.15 -1.55 -0.35 -1.9 -0.5 -1.5 -1.05 -1.5 -2.35 -1.5 -2.35 -3.05 -2.35 -3.8 -1.75 -3.85 L-1.9 -3.9 Q-2.25 -3.9 -2.4 -4.3 L-3.2 -2.95 -4.3 -1.8 Q-3.7 -1.65 -3.5 -0.85 -3.35 -1.15 -2.95 -1.15 -2.4 -1.15 -2.2 -0.65 -1.9 -1.35 -0.5 -1.35 1.0 -1.35 1.0 0.2 1.0 1.6 0.4 1.85 L0.55 1.85 Q2.15 1.85 2.15 4.35 2.15 6.75 0.05 6.75 -1.6 6.75 -1.6 4.65 -1.6 2.25 0.0 1.9 -0.95 1.85 -1.7 1.05 L-1.75 0.95 -1.75 1.3 -2.25 1.85 -3.2 2.3 -3.65 2.3 Q-3.4 2.55 -3.4 3.0 -3.4 3.85 -4.55 3.85 -5.95 3.85 -5.95 2.55 -5.95 1.85 -4.9 1.85 L-4.3 1.9 -4.45 1.35 -4.4 1.15 -4.75 1.15 Q-5.8 1.15 -6.05 -0.6 L-5.75 -1.55 Q-6.4 -1.7 -6.5 -2.35 L-6.7 -1.75 Q-7.2 -0.1 -7.8 -0.1 -6.15 0.2 -6.15 1.9 -6.15 5.0 -8.15 5.0 -9.0 5.0 -9.75 4.1 -10.45 3.25 -10.45 2.55 -10.45 0.55 -9.35 0.05 -10.55 -0.2 -10.4 -2.25 -10.4 -5.75 -7.95 -5.75 L-7.45 -5.7 -7.6 -6.4 Q-7.6 -8.25 -5.65 -9.65 -3.9 -10.9 -2.2 -10.9 -1.05 -10.9 -1.05 -9.7 -1.05 -8.3 -2.05 -6.9 L-2.9 -5.95 -2.45 -5.35 Q-2.35 -7.35 -0.85 -7.35 -0.5 -7.35 -0.35 -6.7 0.1 -7.2 0.65 -7.2 L0.95 -7.05 1.35 -7.15 M3.7 -2.3 Q4.6 -2.3 4.6 -1.5 L3.85 -0.1 2.6 0.95 Q1.75 0.95 1.6 -0.1 1.6 -1.0 1.85 -1.4 2.45 -2.35 3.25 -2.35 L3.7 -2.3 M7.65 -2.5 Q7.05 -0.8 6.55 -0.8 4.9 -0.8 4.9 -2.55 4.9 -4.15 6.1 -4.15 7.65 -4.15 7.65 -2.5 M8.25 -1.15 Q7.85 -1.65 7.85 -2.85 7.85 -4.9 9.75 -4.9 10.5 -4.9 11.05 -3.9 L11.45 -2.7 11.9 -1.5 12.15 -0.4 Q12.15 1.4 10.4 1.4 L9.35 1.1 9.2 0.45 8.7 0.6 Q7.75 0.6 7.75 -0.7 7.75 -1.1 8.25 -1.15 M7.4 1.5 Q8.3 1.5 8.3 2.25 L7.5 3.9 7.55 3.9 8.5 4.1 9.15 3.9 Q9.45 3.9 9.85 4.55 L10.2 5.3 Q10.2 6.3 9.25 8.05 8.1 10.2 6.65 10.2 4.6 10.2 4.6 8.05 4.6 7.0 5.05 6.0 L4.2 6.25 Q2.95 6.25 3.0 4.6 3.0 3.4 4.75 3.4 5.65 3.4 5.65 4.3 L5.6 5.1 6.7 4.1 5.85 3.0 Q5.85 2.65 6.4 2.1 6.95 1.5 7.4 1.5 M6.4 0.55 Q6.4 1.15 5.75 2.15 5.0 3.25 4.25 3.25 3.55 3.25 3.55 1.9 3.55 1.3 4.2 0.45 4.95 -0.55 5.75 -0.55 6.45 -0.55 6.45 0.05 L6.4 0.55 M2.55 8.0 Q2.15 8.0 1.95 7.15 1.95 6.6 2.65 6.6 3.05 6.6 3.15 7.4 3.15 8.0 2.55 8.0 M2.4 8.85 Q2.4 10.0 0.7 10.0 L0.05 10.0 0.15 10.4 Q0.15 11.15 -1.55 11.15 -3.3 11.15 -3.3 10.25 -3.3 9.35 -1.75 9.35 L-1.65 9.35 -1.85 8.75 Q-1.85 7.55 0.5 7.55 1.05 7.55 1.75 8.05 L2.4 8.85 M-6.3 -3.9 L-5.9 -4.9 -5.85 -4.95 -6.6 -5.0 -6.3 -3.9 M-7.8 -0.1 L-8.35 -0.25 -8.7 -0.15 -8.5 -0.15 -7.8 -0.1 M-2.2 0.2 L-2.25 0.3 -2.15 0.3 -2.2 0.2 M-3.45 0.2 L-3.3 0.2 -3.4 0.0 -3.45 0.2 M-3.2 5.9 L-3.05 6.4 Q-3.05 6.75 -4.1 7.15 L-5.45 7.5 Q-6.65 7.3 -7.1 6.8 L-7.45 5.8 Q-7.45 5.05 -6.35 4.45 -5.3 3.9 -4.25 3.9 -3.05 3.9 -3.05 5.45 L-3.2 5.9 M-2.95 7.1 Q-1.8 7.1 -1.9 8.1 -1.9 9.35 -3.8 9.35 -4.65 9.35 -4.65 8.3 L-4.15 7.65 Q-3.55 7.1 -2.95 7.1 M-3.05 9.6 Q-3.05 9.75 -3.55 9.85 L-3.6 9.65 -3.1 9.45 -3.05 9.6" fill="#000000" fill-rule="evenodd" stroke="none"/>
  </g>
</svg>
