<?xml version="1.0" encoding="UTF-8" standalone="no"?>
<svg xmlns:ffdec="https://www.free-decompiler.com/flash" xmlns:xlink="http://www.w3.org/1999/xlink" ffdec:objectType="shape" height="112.25px" width="113.5px" xmlns="http://www.w3.org/2000/svg">
  <g transform="matrix(5.0, 0.0, 0.0, 5.0, 53.5, 56.75)">
    <path d="M7.15 -7.75 L7.6 -6.0 Q7.6 -5.1 7.0 -5.1 6.0 -5.1 5.1 -6.45 4.35 -7.55 4.35 -8.0 4.35 -9.15 5.6 -9.15 6.55 -9.15 7.15 -7.75 M3.5 -10.35 Q4.3 -10.35 4.3 -9.25 4.3 -7.85 3.3 -7.85 2.15 -7.85 2.1 -8.85 L1.95 -8.8 2.25 -8.05 Q2.25 -7.5 1.75 -7.5 0.75 -7.5 0.75 -8.25 L1.0 -8.7 Q0.4 -8.9 0.4 -9.7 0.4 -11.15 1.95 -11.15 2.75 -11.15 2.65 -10.05 L2.65 -9.9 Q3.05 -10.35 3.5 -10.35 M3.95 -6.7 Q4.85 -6.7 4.85 -5.85 4.85 -5.35 4.45 -5.35 3.55 -5.35 3.55 -6.25 3.55 -6.7 3.95 -6.7 M4.55 -1.35 Q4.55 0.55 2.8 0.55 1.95 0.55 1.95 -0.35 1.95 -2.55 3.85 -2.55 4.6 -2.55 4.55 -1.35 M1.05 -2.05 Q0.0 -2.05 -0.3 -4.9 -0.3 -6.95 1.2 -6.95 2.9 -6.95 2.9 -4.45 2.9 -2.05 1.05 -2.05 M7.2 -3.35 L7.05 -2.35 Q7.45 -2.35 7.55 -1.5 7.55 -0.55 6.85 -0.55 L6.25 -1.35 6.35 -1.85 6.2 -1.85 Q5.65 -1.85 5.35 -2.4 L5.1 -3.0 Q5.1 -3.35 5.7 -3.8 6.25 -4.25 6.65 -4.25 7.2 -4.25 7.2 -3.35 M5.7 -1.0 Q5.4 -1.0 5.4 -1.3 5.4 -1.65 5.8 -1.65 L6.1 -1.3 Q6.1 -1.0 5.7 -1.0 M6.6 -0.3 L5.95 1.9 Q5.2 3.4 4.55 3.4 3.7 3.4 3.7 2.1 3.7 -0.7 6.2 -0.7 6.6 -0.7 6.6 -0.3 M8.5 -2.8 Q8.5 -4.85 9.85 -4.85 11.35 -4.85 11.35 -3.4 11.35 -0.95 9.9 -0.95 9.05 -0.95 8.7 -1.85 L8.5 -2.8 M8.95 -1.05 Q9.6 -1.05 9.65 0.0 9.65 0.55 9.1 0.55 8.2 0.55 8.2 -0.3 8.2 -1.05 8.95 -1.05 M10.35 -0.6 Q10.65 -1.15 11.15 -1.15 11.85 -1.15 12.0 0.15 L11.6 0.9 Q11.15 1.45 10.7 1.45 10.0 1.45 10.0 0.75 L10.15 -0.05 10.35 -0.6 M6.2 4.4 Q6.2 6.6 5.05 6.6 3.4 6.6 3.4 5.35 3.4 4.05 5.5 3.7 L6.2 4.4 M7.8 1.45 Q8.6 1.45 8.6 2.2 8.6 3.7 7.5 3.7 6.55 3.7 6.55 2.95 6.55 1.45 7.8 1.45 M9.8 3.8 Q10.45 3.8 10.9 5.7 10.9 6.65 10.0 8.15 L8.45 9.45 7.25 10.1 Q6.55 10.1 6.0 9.05 5.5 8.15 5.5 7.75 5.5 6.75 6.6 5.45 7.95 3.8 9.8 3.8 M0.05 1.4 Q-1.0 1.4 -1.55 -0.1 -1.55 -1.2 -0.3 -1.2 1.1 -1.2 1.1 0.2 1.1 1.4 0.05 1.4 M2.0 4.2 Q2.0 6.55 1.1 6.55 L0.1 6.3 -0.75 6.55 Q-1.95 6.55 -1.95 4.25 -1.95 1.75 -0.15 1.75 0.3 1.75 0.6 2.25 L1.2 2.05 Q2.0 2.05 2.0 4.2 M3.3 7.3 Q3.3 7.85 2.75 7.85 2.3 7.85 2.3 7.5 2.3 6.85 2.85 6.85 L3.3 7.3 M2.2 8.95 Q2.2 9.75 0.9 9.75 -1.5 9.75 -1.5 8.6 -1.5 7.95 0.0 7.95 2.2 7.95 2.2 8.95 M-10.5 -3.95 Q-9.85 -5.55 -9.0 -5.55 -8.6 -5.55 -8.3 -5.15 -8.05 -5.5 -7.65 -5.5 -7.2 -5.5 -7.45 -5.15 L-7.3 -5.2 Q-6.4 -5.2 -6.15 -4.2 L-5.75 -5.0 Q-4.95 -6.25 -3.5 -6.25 -2.85 -6.25 -2.45 -5.35 L-2.45 -5.55 -2.0 -6.95 Q-1.45 -7.95 -0.8 -7.95 -0.3 -7.95 -0.3 -7.25 -0.3 -6.05 -0.45 -5.75 -1.15 -4.55 -1.75 -4.55 -2.15 -4.55 -2.3 -4.85 -2.35 -4.05 -3.3 -3.05 -4.25 -2.0 -5.0 -2.0 -5.8 -2.0 -6.1 -2.4 -6.3 -1.7 -6.85 -1.45 L-6.8 -1.05 Q-6.8 0.15 -8.0 0.15 -9.1 0.15 -9.1 -0.75 L-9.1 -0.9 Q-9.45 -0.55 -9.85 -0.55 -10.7 -0.55 -10.7 -2.2 L-10.5 -3.95 M-2.7 -11.3 Q-2.1 -11.3 -1.25 -9.95 -1.25 -9.15 -2.4 -7.75 -3.8 -6.0 -5.5 -6.0 L-6.05 -6.2 -6.55 -6.1 Q-7.65 -6.1 -7.65 -7.7 -7.65 -9.0 -5.85 -10.25 -4.2 -11.35 -3.05 -11.35 L-2.7 -11.3 M-8.3 -1.85 L-8.45 -2.1 -8.6 -1.7 -8.3 -1.85 M-2.7 -1.0 Q-2.2 -1.0 -2.05 0.0 -2.05 0.5 -2.6 0.5 -3.1 0.5 -3.4 -0.3 -3.4 -1.0 -2.7 -1.0 M-3.8 -0.65 Q-3.8 0.45 -4.6 0.45 -5.75 0.45 -5.75 -0.55 -5.75 -1.8 -4.75 -1.8 -3.8 -1.8 -3.8 -0.65 M-2.35 -2.95 Q-2.35 -4.3 -0.9 -4.3 -0.3 -4.3 -0.05 -3.05 -0.05 -1.9 -1.2 -1.9 -2.35 -1.9 -2.35 -2.95 M-4.3 1.4 Q-4.3 0.65 -2.7 0.65 -2.2 0.65 -2.15 1.25 -2.15 2.25 -3.4 2.25 -4.2 2.25 -4.3 1.4 M-3.8 3.0 Q-3.8 3.6 -4.5 3.6 -5.45 3.6 -5.45 2.6 -5.45 2.05 -4.75 2.05 -3.8 2.05 -3.8 3.0 M-3.75 6.0 L-3.4 5.9 Q-3.0 5.9 -3.0 6.35 -3.0 7.75 -5.4 7.75 -6.1 7.75 -6.2 7.3 L-6.7 7.35 Q-7.55 7.35 -7.55 6.55 -7.55 5.85 -6.95 5.85 L-6.45 5.9 -6.6 5.4 -6.4 4.65 -6.5 4.65 -7.0 4.5 -7.35 4.65 -7.65 4.4 -8.25 4.6 Q-10.7 4.6 -10.7 2.0 -10.7 0.15 -8.55 0.15 L-7.45 0.2 Q-5.85 0.2 -5.85 1.45 -5.85 1.9 -6.2 2.35 L-5.75 3.25 -5.85 4.15 -4.3 3.85 Q-3.1 3.85 -3.1 4.95 -3.1 5.4 -3.75 5.9 L-3.8 5.95 -3.75 6.0 M-5.75 6.5 L-5.6 6.35 -5.8 6.3 -5.75 6.5 M-2.9 7.5 Q-2.1 7.5 -2.1 8.0 -2.1 9.0 -3.3 9.0 -4.2 9.0 -4.2 8.1 -4.2 7.5 -2.9 7.5 M-2.35 10.65 L-2.85 10.1 Q-2.85 9.5 -1.65 9.6 L-1.8 9.6 Q0.0 9.8 0.0 10.45 0.0 11.1 -1.2 11.1 -1.75 11.1 -2.35 10.65" fill="#000000" fill-rule="evenodd" stroke="none"/>
  </g>
</svg>
