<?xml version="1.0" encoding="UTF-8" standalone="no"?>
<svg xmlns:ffdec="https://www.free-decompiler.com/flash" xmlns:xlink="http://www.w3.org/1999/xlink" ffdec:objectType="shape" height="113.25px" width="114.25px" xmlns="http://www.w3.org/2000/svg">
  <g transform="matrix(5.0, 0.0, 0.0, 5.0, 54.25, 57.5)">
    <path d="M7.35 -6.6 Q7.35 -6.15 6.65 -6.15 5.3 -6.15 4.75 -8.3 4.75 -9.05 5.85 -9.05 7.35 -9.05 7.35 -6.6 M4.05 -9.3 Q4.05 -8.3 3.4 -8.3 2.65 -8.3 2.55 -9.1 2.55 -10.0 3.45 -10.0 4.05 -10.0 4.05 -9.3 M2.25 -10.7 Q2.25 -9.5 1.2 -9.5 0.25 -9.5 0.25 -10.45 0.25 -11.5 1.4 -11.5 2.25 -11.5 2.25 -10.7 M1.95 -8.4 Q1.95 -7.95 1.55 -7.95 1.15 -7.95 1.15 -8.25 1.15 -8.75 1.6 -8.75 L1.95 -8.4 M4.65 -2.1 Q4.65 -1.45 4.35 -1.25 L4.35 -0.95 Q4.35 0.45 3.2 0.45 2.3 0.45 2.3 -0.55 2.3 -1.85 3.2 -2.05 L3.1 -2.15 Q3.1 -2.9 3.95 -2.9 4.65 -2.9 4.65 -2.1 M0.1 -3.7 Q0.1 -6.95 1.8 -6.95 2.95 -6.95 2.95 -5.15 2.95 -1.95 1.7 -1.95 0.1 -1.95 0.1 -3.7 M7.0 -3.25 Q7.0 -2.35 6.25 -2.35 5.55 -2.35 5.55 -3.1 5.55 -4.25 6.3 -4.25 7.0 -4.25 7.0 -3.25 M7.55 -1.15 Q7.55 -0.75 7.05 -0.75 6.65 -0.75 6.65 -1.5 6.65 -2.15 7.2 -2.15 7.5 -2.15 7.55 -1.15 M5.7 -1.5 L6.0 -1.15 5.7 -0.85 Q5.35 -0.85 5.35 -1.15 5.35 -1.5 5.7 -1.5 M9.1 -1.0 Q9.65 -1.0 9.65 -0.15 9.65 0.45 9.25 0.45 L8.55 -0.4 Q8.55 -1.0 9.1 -1.0 M11.45 -0.95 Q11.9 -0.95 12.0 0.0 12.0 0.9 11.3 0.9 10.45 0.9 10.45 -0.15 10.45 -0.95 11.45 -0.95 M11.4 -3.25 Q10.95 -1.35 10.25 -1.35 9.0 -1.35 9.0 -3.05 9.0 -4.75 10.3 -4.75 11.4 -4.75 11.4 -3.25 M10.15 8.15 Q9.7 9.0 7.9 9.7 7.1 9.7 6.95 8.7 L6.95 8.6 6.25 7.8 Q6.25 7.35 6.55 6.5 6.9 5.55 7.35 5.4 7.95 4.15 9.55 4.15 10.95 4.15 10.95 5.95 L10.15 8.15 M10.85 1.15 Q10.85 1.6 10.5 1.6 L10.2 1.1 Q10.2 0.7 10.55 0.7 10.8 0.7 10.85 1.15 M8.95 2.45 Q8.95 3.45 8.05 3.45 7.5 3.45 7.35 3.05 L7.25 2.6 Q7.25 1.5 8.3 1.5 8.95 1.5 8.95 2.45 M6.2 2.3 Q6.05 2.7 5.15 3.1 4.65 3.1 4.45 2.45 L4.35 1.7 Q4.35 -0.4 5.65 -0.4 6.45 -0.4 6.45 0.85 L6.2 2.3 M6.1 4.55 L6.1 4.6 6.2 5.0 Q6.2 6.6 4.55 6.6 L3.65 5.4 Q3.65 4.15 4.95 4.15 L5.25 4.2 5.25 4.15 Q5.25 3.75 5.6 3.75 5.85 3.75 6.1 4.55 M1.95 4.05 Q1.95 6.45 1.1 6.45 0.35 6.45 0.25 4.6 -0.05 6.3 -0.6 6.3 -1.5 6.3 -1.6 4.05 -1.6 2.15 -0.25 2.15 0.3 2.15 0.4 3.3 0.65 2.4 1.3 2.4 1.95 2.4 1.95 4.05 M3.5 7.45 Q3.5 7.95 3.05 7.95 L2.65 7.55 Q2.65 7.1 3.15 7.1 L3.5 7.45 M2.15 8.85 Q2.15 9.75 0.95 9.75 L0.0 9.05 -0.4 9.3 -1.15 8.85 -1.3 8.65 Q-1.3 8.2 -0.55 8.2 L-0.4 8.2 1.0 7.9 Q2.15 7.9 2.15 8.85 M0.2 1.25 L-1.05 0.55 -1.5 -0.25 -1.05 -1.0 Q-0.55 -1.6 -0.1 -1.6 1.2 -1.6 1.2 -0.05 1.2 1.25 0.2 1.25 M-10.55 -2.95 L-10.55 -3.85 -10.15 -4.7 -9.45 -5.35 -9.15 -5.2 -8.65 -5.3 -8.35 -4.8 -7.95 -5.3 Q-7.5 -5.7 -7.2 -5.7 -6.9 -5.7 -6.9 -5.35 L-7.15 -4.95 -7.1 -4.95 Q-6.6 -4.95 -6.3 -4.1 L-6.2 -3.75 Q-6.1 -5.4 -5.0 -6.0 L-5.35 -6.45 -6.2 -6.2 Q-7.4 -6.2 -7.4 -7.95 -7.4 -9.25 -6.1 -10.35 -4.85 -11.4 -3.65 -11.4 L-2.0 -10.85 Q-1.2 -10.55 -1.2 -9.85 -1.2 -9.35 -1.85 -8.3 -2.6 -7.05 -3.4 -7.0 L-3.4 -6.9 -3.5 -6.3 Q-2.7 -6.3 -2.55 -5.5 -2.55 -4.75 -3.05 -3.75 -3.7 -2.35 -4.8 -2.35 -5.85 -2.35 -6.1 -2.95 -6.2 -2.2 -6.95 -2.2 -7.6 -2.2 -7.8 -2.8 L-8.1 -2.2 Q-8.3 -2.2 -8.5 -2.85 L-8.65 -2.5 Q-9.25 -0.95 -10.05 -0.95 -10.3 -0.95 -10.85 -2.05 L-10.55 -2.95 M-0.45 -7.2 Q-0.45 -5.1 -1.9 -5.1 -2.6 -5.1 -2.6 -6.2 L-2.05 -7.2 Q-1.4 -7.9 -0.9 -7.9 -0.55 -7.9 -0.45 -7.2 M-7.9 -4.1 L-7.85 -4.4 -7.9 -4.4 -8.15 -4.45 -8.15 -4.05 -7.9 -4.1 M-8.55 -0.1 Q-9.15 -0.1 -9.15 -0.55 -9.15 -2.0 -7.8 -2.0 -6.95 -2.0 -6.95 -1.5 L-6.9 -0.8 Q-6.9 -0.35 -7.6 -0.25 L-7.5 0.0 Q-7.5 0.15 -7.8 0.15 L-8.25 -0.1 -8.2 -0.15 -8.55 -0.1 M-1.9 -3.5 Q-1.9 -4.55 -0.8 -4.55 -0.15 -4.55 -0.15 -3.4 -0.15 -2.35 -0.8 -2.35 -0.8 -1.95 -1.1 -1.95 L-1.55 -2.2 -1.85 -2.15 -2.55 -2.9 Q-2.55 -3.3 -1.9 -3.3 L-1.9 -3.5 M-2.7 -0.7 L-2.3 -0.1 Q-2.3 0.65 -2.75 0.65 -3.25 0.65 -3.25 -0.3 -3.25 -0.7 -2.7 -0.7 M-4.0 -0.75 Q-4.0 0.1 -4.65 0.1 -5.55 0.1 -5.55 -0.75 -5.55 -1.75 -4.7 -1.75 -4.0 -1.75 -4.0 -0.75 M-3.1 0.8 Q-2.3 0.95 -2.3 1.5 -2.3 2.4 -3.45 2.4 L-3.6 2.4 -3.5 2.85 Q-3.5 3.45 -4.5 3.45 -5.45 3.45 -5.45 2.55 -5.45 2.05 -4.5 2.05 L-4.05 2.1 -4.4 1.45 Q-4.4 0.8 -3.1 0.8 M-3.25 4.9 Q-3.25 5.75 -4.2 5.75 L-5.15 6.1 Q-6.25 6.1 -6.25 5.3 L-5.95 4.5 -6.65 4.65 -7.55 4.15 Q-7.55 4.55 -8.05 4.55 L-8.5 4.1 -8.45 3.95 -9.45 4.25 Q-10.35 4.25 -10.65 2.85 -10.65 0.2 -8.35 0.2 -5.9 0.2 -5.9 1.3 -5.9 1.65 -6.45 2.3 -5.5 2.3 -5.5 3.5 -5.5 4.05 -5.75 4.35 -5.25 4.0 -4.25 4.0 -3.25 4.0 -3.25 4.9 M-7.75 3.7 L-7.65 3.4 -8.0 3.65 -7.95 3.65 -7.75 3.7 M-5.9 6.55 Q-5.9 7.25 -6.85 7.25 -7.35 7.25 -7.55 6.7 -7.55 6.2 -6.25 6.2 -5.9 6.2 -5.9 6.55 M-4.7 7.8 Q-5.9 7.8 -5.9 7.1 -5.9 6.05 -3.8 6.05 L-3.25 6.75 Q-3.25 7.8 -4.7 7.8 M-3.0 7.6 Q-2.45 7.6 -2.45 8.25 -2.45 8.9 -3.05 8.9 -3.7 8.9 -3.7 8.45 -3.7 7.6 -3.0 7.6 M-0.15 10.75 Q-0.15 11.15 -0.5 11.15 L-2.05 10.15 Q-2.05 9.75 -1.35 9.75 -0.15 9.75 -0.15 10.75" fill="#000000" fill-rule="evenodd" stroke="none"/>
  </g>
</svg>
