<?xml version="1.0" encoding="UTF-8" standalone="no"?>
<svg xmlns:ffdec="https://www.free-decompiler.com/flash" xmlns:xlink="http://www.w3.org/1999/xlink" ffdec:objectType="shape" height="116.0px" width="113.0px" xmlns="http://www.w3.org/2000/svg">
  <g transform="matrix(5.0, 0.0, 0.0, 5.0, 54.0, 59.5)">
    <path d="M7.45 -7.35 Q7.45 -6.6 6.95 -6.6 5.4 -6.6 5.4 -8.35 5.4 -9.05 5.95 -9.05 7.45 -9.05 7.45 -7.35 M4.15 -9.3 Q4.15 -8.65 3.6 -8.65 3.2 -8.65 3.2 -9.3 3.2 -10.0 3.65 -10.0 4.05 -10.0 4.15 -9.3 M2.0 -10.6 Q2.0 -9.8 1.4 -9.8 0.65 -9.8 0.65 -10.45 0.65 -10.8 1.55 -11.25 2.0 -11.25 2.0 -10.6 M1.9 -8.5 L1.85 -8.35 1.7 -8.3 1.55 -8.4 1.55 -8.65 1.8 -8.65 1.9 -8.5 M0.5 -5.55 Q0.5 -6.6 1.85 -6.6 3.05 -6.6 3.05 -4.35 3.05 -2.35 1.8 -2.35 1.2 -2.35 0.45 -4.35 L0.6 -5.05 0.5 -5.55 M1.35 -0.25 Q1.35 0.95 0.1 0.95 -0.9 0.95 -0.9 -0.3 -0.9 -1.55 0.3 -1.55 1.15 -1.55 1.35 -0.25 M4.15 -1.55 L4.25 -0.85 Q4.25 0.15 3.3 0.15 2.7 0.15 2.7 -0.65 2.7 -1.9 3.65 -1.9 L3.75 -1.9 3.7 -2.15 3.55 -2.65 Q3.55 -3.25 4.15 -3.25 4.6 -3.25 4.7 -2.5 4.7 -1.6 4.15 -1.55 M6.95 -3.15 Q6.95 -2.55 6.15 -2.55 5.65 -2.55 5.65 -3.2 5.65 -4.35 6.35 -4.35 7.0 -4.35 6.95 -3.15 M7.55 -1.25 Q7.55 -0.85 7.25 -0.85 6.95 -0.85 6.95 -1.45 6.95 -1.95 7.25 -1.95 7.5 -1.95 7.55 -1.25 M5.85 -1.3 L6.0 -1.1 5.8 -0.9 5.6 -1.1 Q5.6 -1.3 5.85 -1.3 M9.65 -0.7 Q9.95 -0.7 9.9 -0.3 9.9 0.05 9.55 0.05 L9.2 -0.15 Q9.2 -0.7 9.65 -0.7 M9.6 -3.1 Q9.6 -4.6 10.65 -4.6 11.35 -4.6 11.3 -3.45 11.3 -1.45 10.5 -1.45 10.0 -1.45 9.75 -2.25 9.6 -2.7 9.6 -3.1 M11.8 -0.15 Q11.8 0.55 11.35 0.55 10.95 0.55 10.95 -0.2 L11.35 -0.65 Q11.8 -0.65 11.8 -0.15 M10.65 1.15 L10.65 1.3 10.5 1.35 10.35 1.2 10.5 1.05 10.65 1.15 M7.9 2.55 L7.9 2.4 Q7.9 1.4 8.8 1.4 9.3 1.4 9.3 2.15 9.3 3.2 8.5 3.2 L8.35 3.2 8.0 3.5 7.6 2.95 Q7.6 2.6 7.9 2.55 M5.6 2.75 Q5.15 2.75 4.95 1.85 L4.85 0.8 Q4.85 -0.35 5.65 -0.35 6.6 -0.35 6.6 1.05 6.6 2.75 5.6 2.75 M6.1 4.2 L5.8 4.5 5.3 3.95 Q5.3 3.75 5.6 3.75 L6.1 4.2 M7.4 6.15 Q7.75 4.35 9.45 4.35 10.55 4.35 10.55 5.85 10.05 9.15 8.45 9.2 L8.45 9.25 Q8.45 9.9 7.95 9.9 6.7 9.9 6.7 8.45 L6.75 8.15 Q6.5 8.0 6.5 7.5 6.5 6.15 7.35 6.15 L7.4 6.15 M4.95 4.4 Q6.25 4.4 6.25 5.65 6.25 6.6 5.15 6.6 3.95 6.6 3.95 5.35 3.95 4.4 4.95 4.4 M2.0 3.85 Q2.0 6.2 1.3 6.2 0.6 6.2 0.5 4.55 L0.65 3.35 Q0.9 2.4 1.55 2.4 2.0 2.4 2.0 3.85 M3.65 7.6 L3.2 8.05 Q2.95 8.05 2.95 7.7 2.95 7.25 3.3 7.25 3.65 7.25 3.65 7.6 M2.6 8.9 Q2.6 9.45 2.1 9.45 0.65 9.45 0.65 8.35 0.65 7.55 1.4 7.55 2.6 7.55 2.6 8.9 M-10.8 -2.6 Q-10.8 -5.45 -9.15 -5.45 L-8.6 -4.65 Q-8.6 -1.65 -10.2 -1.65 -10.8 -1.65 -10.8 -2.6 M-1.1 -10.7 Q-1.8 -7.1 -2.95 -7.1 -4.0 -7.1 -4.2 -8.5 L-4.7 -7.8 Q-5.75 -6.2 -6.5 -6.2 -7.95 -6.2 -7.95 -8.4 -7.95 -9.25 -7.25 -10.4 -6.35 -11.85 -5.0 -11.85 -3.9 -11.85 -3.7 -10.6 L-3.65 -10.75 Q-2.9 -11.9 -1.85 -11.9 -0.95 -11.9 -1.1 -10.7 M-3.1 -6.3 L-2.5 -6.15 Q-2.5 -7.9 -1.05 -7.9 -0.5 -7.9 -0.5 -7.0 -0.5 -5.55 -1.8 -5.55 L-2.2 -5.65 -2.15 -5.3 Q-2.15 -4.8 -2.8 -4.05 -3.4 -3.35 -4.05 -3.2 L-4.05 -3.05 Q-4.05 -2.15 -5.7 -2.15 -6.45 -2.15 -6.5 -2.9 L-6.8 -2.8 Q-7.55 -2.8 -7.55 -4.1 -7.55 -4.65 -7.0 -4.65 -6.35 -4.65 -6.35 -3.55 -6.15 -3.9 -5.6 -4.0 L-5.65 -4.35 Q-5.65 -5.5 -4.75 -5.95 L-5.0 -6.6 Q-5.0 -7.25 -4.05 -7.25 -3.45 -7.25 -3.45 -6.6 L-3.45 -6.3 -3.1 -6.3 M-7.2 -5.35 Q-7.2 -4.8 -7.9 -4.8 L-8.1 -4.85 -8.15 -4.95 Q-8.15 -5.55 -7.35 -5.55 L-7.2 -5.35 M-7.85 -3.4 L-7.85 -3.3 Q-7.85 -2.65 -8.1 -2.65 L-8.4 -2.85 -8.4 -2.9 -8.45 -3.1 -8.35 -3.6 -8.1 -4.0 -7.9 -3.95 -7.85 -3.55 -7.85 -3.4 M-7.65 -0.3 L-7.5 -0.1 -7.75 0.15 -7.95 -0.1 Q-7.95 -0.3 -7.65 -0.3 M-7.7 -2.1 Q-6.85 -2.1 -6.85 -1.1 -6.85 -0.45 -7.5 -0.45 -7.9 -0.45 -8.2 -1.7 -8.2 -2.1 -7.7 -2.1 M-8.05 -1.1 L-8.7 0.25 Q-9.05 0.25 -9.05 -0.25 L-9.15 -0.6 Q-9.15 -1.6 -8.35 -1.6 L-8.05 -1.1 M-0.8 -4.55 Q-0.05 -4.55 -0.05 -3.5 -0.05 -2.7 -0.85 -2.7 -1.75 -2.7 -1.75 -3.85 -1.75 -4.55 -0.8 -4.55 M-2.7 -0.35 L-2.4 -0.05 Q-2.4 0.3 -2.7 0.3 L-3.15 -0.1 Q-3.15 -0.35 -2.7 -0.35 M-4.1 -0.8 Q-4.1 0.0 -4.7 0.0 -5.0 0.0 -5.35 -0.95 -5.35 -1.7 -4.7 -1.7 -4.1 -1.7 -4.1 -0.8 M-0.6 -2.0 L-0.65 -1.85 -0.85 -1.8 Q-1.3 -1.8 -1.3 -2.15 L-1.05 -2.4 Q-0.7 -2.4 -0.6 -2.0 M-2.0 -2.35 Q-2.7 -2.35 -2.7 -3.0 -2.7 -3.4 -2.25 -3.4 -1.75 -3.4 -1.6 -2.65 -1.6 -2.35 -2.0 -2.35 M-0.1 2.0 Q0.25 2.0 0.25 2.75 0.0 5.9 -0.9 5.9 -1.5 5.9 -1.55 4.1 L-1.25 2.9 Q-0.65 2.0 -0.1 2.0 M-3.55 3.05 Q-3.55 3.5 -3.95 3.5 -5.2 3.5 -5.2 2.7 -5.2 2.15 -4.3 2.15 L-4.15 2.15 -4.35 1.7 Q-4.35 0.9 -3.5 0.9 -2.55 0.9 -2.55 1.7 -2.55 2.35 -3.5 2.35 L-3.75 2.35 -3.55 3.05 M-3.4 4.7 Q-3.4 5.85 -5.15 5.85 -6.1 5.85 -6.1 5.2 -6.1 4.2 -3.85 4.2 -3.4 4.2 -3.4 4.7 M-7.4 2.65 Q-8.6 3.55 -9.25 3.55 -10.5 3.55 -10.5 2.4 -10.5 0.4 -8.45 0.4 -6.25 0.4 -6.25 1.4 -6.25 1.75 -7.4 2.65 M-7.75 3.65 L-7.5 3.95 Q-7.5 4.25 -7.8 4.25 L-8.05 3.9 -7.75 3.65 M-7.4 3.5 Q-7.4 2.5 -6.4 2.5 -5.6 2.5 -5.6 3.7 -5.6 4.5 -6.6 4.5 -7.4 4.5 -7.4 3.5 M-5.95 6.85 Q-5.95 7.35 -6.5 7.35 -7.25 7.35 -7.25 6.95 -7.25 6.2 -6.75 6.2 -5.95 6.2 -5.95 6.85 M-0.6 8.2 Q0.0 8.2 0.0 8.65 0.0 9.1 -0.5 9.1 -0.9 9.1 -1.1 8.6 -1.1 8.2 -0.6 8.2 M-4.6 7.65 L-5.7 6.8 Q-5.7 5.8 -3.9 5.8 -3.4 5.8 -3.4 6.25 -3.4 7.65 -4.6 7.65 M-2.65 7.6 L-2.25 8.05 Q-2.25 8.85 -2.95 8.85 -3.4 8.85 -3.6 8.15 -3.6 7.6 -2.65 7.6 M-0.25 10.9 Q-0.25 11.3 -0.7 11.3 L-1.2 10.9 Q-1.3 10.45 -1.7 10.45 L-1.85 10.35 Q-1.8 9.95 -1.35 9.95 -0.25 9.95 -0.25 10.9" fill="#000000" fill-rule="evenodd" stroke="none"/>
  </g>
</svg>
