<?xml version="1.0" encoding="UTF-8" standalone="no"?>
<svg xmlns:ffdec="https://www.free-decompiler.com/flash" xmlns:xlink="http://www.w3.org/1999/xlink" ffdec:objectType="shape" height="117.0px" width="113.75px" xmlns="http://www.w3.org/2000/svg">
  <g transform="matrix(5.0, 0.0, 0.0, 5.0, 55.0, 60.25)">
    <path d="M7.6 -7.45 Q7.6 -7.05 7.05 -7.05 5.85 -7.05 5.85 -8.2 5.85 -8.95 6.45 -8.95 7.0 -8.95 7.6 -7.45 M1.45 -11.15 Q1.75 -11.15 1.8 -10.55 1.8 -10.15 1.3 -10.15 0.9 -10.15 0.9 -10.55 0.9 -11.15 1.45 -11.15 M3.95 -9.9 L4.2 -9.55 Q4.2 -9.2 3.85 -9.2 L3.55 -9.5 Q3.55 -9.9 3.95 -9.9 M2.65 -3.3 L3.0 -2.7 Q3.0 -2.15 2.4 -2.15 1.3 -2.15 1.3 -3.05 1.3 -3.45 1.75 -3.5 L1.3 -4.05 Q0.8 -4.8 0.8 -5.1 L0.85 -5.6 Q0.85 -6.75 1.95 -6.75 2.95 -6.75 3.1 -4.55 3.1 -3.6 2.65 -3.3 M4.35 -2.15 Q3.8 -2.15 3.8 -3.0 L4.25 -3.55 Q4.75 -3.55 4.75 -2.8 4.75 -2.15 4.35 -2.15 M4.3 -1.0 Q4.3 -0.1 3.75 -0.1 3.05 -0.1 3.05 -0.95 3.05 -1.65 3.75 -1.65 4.3 -1.65 4.3 -1.0 M6.7 -3.7 Q6.7 -2.95 6.25 -2.95 5.9 -2.95 5.9 -3.5 5.9 -4.25 6.4 -4.25 6.65 -4.25 6.7 -3.7 M5.6 -1.05 L5.85 -1.05 5.95 -0.9 5.9 -0.75 5.75 -0.7 5.6 -0.8 5.6 -1.05 M6.95 -1.35 Q6.95 -1.85 7.25 -1.85 7.55 -1.85 7.5 -1.45 L7.25 -1.1 Q6.95 -1.1 6.95 -1.35 M9.9 -0.45 L10.1 -0.2 9.8 0.1 9.55 -0.2 9.9 -0.45 M11.75 -0.05 L11.4 0.3 11.15 0.0 Q11.15 -0.4 11.5 -0.4 L11.75 -0.05 M11.3 -3.05 Q11.3 -1.95 10.6 -1.95 L10.0 -3.05 Q10.0 -4.3 10.75 -4.3 11.2 -4.3 11.3 -3.05 M10.45 6.2 Q10.45 8.4 8.65 8.4 7.85 8.4 7.85 6.75 7.85 5.6 8.2 5.15 8.65 4.3 9.85 4.3 10.45 4.3 10.3 5.35 L10.45 6.2 M8.5 2.9 Q8.5 3.4 8.1 3.4 L7.85 3.0 Q7.85 2.55 8.2 2.55 8.45 2.55 8.5 2.9 M9.85 1.85 L9.8 2.25 Q9.8 3.05 9.15 3.05 8.4 3.05 8.4 2.25 8.4 1.35 9.3 1.35 9.85 1.35 9.85 1.85 M6.15 2.45 Q5.0 2.45 5.0 1.0 5.0 -0.15 5.9 -0.15 6.45 -0.15 6.65 1.45 6.65 2.45 6.15 2.45 M6.35 4.35 L6.1 4.6 5.6 3.9 Q5.6 3.65 5.85 3.65 6.1 3.65 6.35 4.35 M6.25 5.4 Q6.25 6.5 5.2 6.5 4.25 6.5 4.2 5.4 4.2 4.55 5.1 4.55 6.25 4.55 6.25 5.4 M0.5 0.85 Q-0.85 0.85 -0.85 -0.5 -0.85 -1.6 0.3 -1.6 1.1 -1.6 1.6 0.0 1.6 0.85 0.5 0.85 M2.25 5.55 Q2.25 6.1 1.85 6.1 0.85 6.1 0.85 4.2 0.85 2.75 1.55 2.75 2.05 2.75 2.25 5.55 M3.8 7.6 Q3.8 8.0 3.45 8.0 L3.15 7.7 Q3.15 7.35 3.5 7.35 L3.8 7.6 M2.65 8.6 Q2.65 9.1 2.05 9.1 1.15 9.1 1.15 8.25 1.15 7.55 1.75 7.55 2.25 7.55 2.65 8.6 M8.45 9.25 Q8.45 9.95 8.0 9.95 7.55 9.95 7.35 9.25 L7.2 8.5 Q7.2 8.05 7.6 8.05 8.45 8.05 8.45 9.25 M7.4 6.35 L7.65 6.65 7.15 7.8 Q6.85 7.8 6.85 7.35 6.85 6.35 7.4 6.35 M-11.0 -2.6 Q-11.0 -5.3 -9.6 -5.3 -8.85 -5.3 -8.85 -4.05 L-9.3 -2.9 Q-9.8 -1.85 -10.3 -1.85 -11.0 -1.85 -11.0 -2.6 M-2.5 -9.9 L-2.5 -9.75 -2.45 -9.75 -2.5 -9.9 M-2.15 -10.7 L-2.25 -10.55 -2.2 -10.5 -2.15 -10.7 M-0.95 -11.0 Q-0.95 -9.3 -1.65 -8.75 L-1.65 -8.65 Q-1.65 -7.2 -2.95 -7.2 -4.15 -7.2 -4.15 -8.25 L-3.6 -9.05 -3.55 -9.1 -3.8 -9.95 Q-3.8 -12.05 -1.95 -12.05 -0.95 -12.05 -0.95 -11.0 M-4.05 -10.7 Q-4.05 -10.15 -4.95 -8.5 -5.9 -6.65 -6.5 -6.65 -7.6 -6.65 -7.95 -9.1 L-7.8 -9.95 -7.4 -10.7 -5.3 -11.95 Q-4.7 -11.95 -4.25 -11.5 L-4.05 -10.7 M-3.9 -6.25 L-3.6 -6.25 Q-2.45 -6.25 -2.45 -5.25 -2.45 -4.85 -2.95 -4.2 -3.55 -3.4 -4.25 -3.4 -5.65 -3.4 -5.65 -4.75 -5.65 -5.85 -4.5 -6.15 L-4.8 -6.7 Q-4.8 -7.1 -4.3 -7.1 L-3.85 -6.55 -3.9 -6.25 M-0.4 -6.95 Q-0.4 -5.7 -1.5 -5.7 -2.15 -5.7 -2.15 -6.35 -2.15 -7.6 -1.0 -7.6 -0.4 -7.6 -0.4 -6.95 M-7.3 -5.5 Q-7.3 -5.05 -7.85 -5.1 L-7.9 -5.25 -7.35 -5.6 -7.3 -5.5 M-6.25 -3.5 L-6.3 -3.3 -5.4 -3.55 -4.3 -2.45 Q-4.3 -1.75 -6.45 -1.75 -6.8 -1.75 -6.8 -2.15 L-6.55 -2.7 -6.35 -3.2 -6.7 -3.15 Q-7.45 -3.15 -7.45 -4.0 -7.45 -4.55 -6.95 -4.55 L-6.25 -3.5 M-7.85 -3.6 Q-7.85 -2.9 -8.15 -2.9 -8.35 -2.9 -8.35 -3.2 L-8.05 -3.8 -7.85 -3.6 M-8.35 -0.85 Q-8.35 0.25 -8.75 0.25 -9.05 0.25 -9.2 -0.8 -9.2 -1.4 -8.85 -1.4 L-8.35 -0.85 M-6.85 -0.9 Q-6.85 -0.5 -7.3 -0.5 -7.7 -0.5 -7.9 -1.2 -7.9 -1.75 -7.5 -1.75 L-6.85 -0.9 M-7.5 -0.05 L-7.75 0.2 -7.9 0.15 -7.95 0.0 -7.7 -0.25 -7.5 -0.05 M-0.85 -4.65 Q-0.05 -4.65 -0.05 -3.65 -0.05 -3.1 -0.6 -3.1 -1.6 -3.1 -1.6 -3.9 -1.6 -4.65 -0.85 -4.65 M-2.6 -0.3 Q-2.35 -0.3 -2.35 0.05 L-2.5 0.25 -2.85 -0.1 -2.6 -0.3 M-4.2 -1.1 Q-4.2 -0.35 -4.65 -0.35 -5.2 -0.35 -5.2 -1.0 -5.2 -1.6 -4.55 -1.6 L-4.2 -1.1 M-0.65 -2.3 L-0.65 -2.0 -0.9 -1.95 Q-1.15 -1.95 -1.15 -2.3 L-0.95 -2.35 -0.65 -2.3 M-2.05 -2.55 L-2.7 -3.05 Q-2.7 -3.4 -2.25 -3.4 -1.85 -3.4 -1.75 -2.85 -1.75 -2.55 -2.05 -2.55 M-4.25 1.75 Q-4.25 1.0 -3.45 1.0 -2.7 1.0 -2.7 1.75 -2.7 2.3 -3.6 2.3 -4.05 2.3 -4.25 1.75 M-4.3 2.4 L-3.6 2.95 Q-3.6 3.55 -4.05 3.55 -4.8 3.55 -4.8 2.95 -4.8 2.4 -4.3 2.4 M-4.5 5.65 L-5.15 5.85 Q-5.95 5.85 -5.95 5.2 -5.95 4.1 -4.1 4.1 -3.65 4.1 -3.65 4.45 L-3.9 5.0 -3.8 5.0 -3.45 5.3 Q-3.45 5.95 -4.2 5.95 L-4.5 5.65 M-0.9 6.15 Q-1.2 6.15 -1.35 5.0 L-1.2 4.5 -1.35 3.85 Q-1.35 2.05 -0.05 2.05 0.3 2.05 0.3 2.7 0.3 4.25 -0.35 4.6 L-0.35 4.8 Q-0.35 6.15 -0.9 6.15 M-7.95 0.4 Q-6.5 0.4 -6.5 1.05 -6.5 1.55 -7.75 2.4 -9.05 3.25 -10.0 3.25 -10.45 3.25 -10.55 2.55 L-10.0 1.25 Q-9.7 0.4 -7.95 0.4 M-7.6 3.8 L-7.65 4.0 -7.85 4.05 -8.05 3.95 -8.05 3.7 -7.8 3.6 -7.6 3.8 M-6.0 4.3 L-6.45 4.2 -6.9 4.3 -7.15 4.05 Q-7.15 3.9 -6.85 3.85 L-6.95 3.3 Q-6.95 2.4 -6.0 2.4 L-5.25 3.2 Q-5.25 4.3 -6.0 4.3 M-6.95 6.95 L-7.15 7.2 -7.45 6.95 -7.4 6.8 -7.45 6.6 Q-7.1 5.9 -6.8 5.9 -6.3 5.9 -6.3 6.35 L-6.35 6.7 Q-6.2 6.7 -6.2 7.0 -6.2 7.4 -6.55 7.4 L-6.85 7.1 -6.8 6.95 -6.95 6.95 M-1.0 8.35 Q-1.0 8.1 -0.7 8.1 L-0.5 8.35 -0.75 8.55 -0.95 8.5 -1.0 8.35 M-0.5 8.8 Q-0.5 8.35 -0.1 8.35 L0.2 8.65 Q0.2 9.05 -0.2 9.05 L-0.45 9.0 -0.5 8.8 M-4.35 7.85 Q-5.75 7.85 -5.75 7.0 -5.75 6.2 -4.3 6.2 -3.25 6.2 -3.25 6.9 -3.25 7.85 -4.35 7.85 M-2.65 7.7 L-2.35 8.05 Q-2.35 8.65 -2.9 8.65 L-3.25 8.2 Q-3.25 7.7 -2.65 7.7 M-0.3 11.0 L-0.7 11.35 -1.7 10.3 Q-1.7 10.05 -1.05 10.05 -0.3 10.05 -0.3 11.0" fill="#000000" fill-rule="evenodd" stroke="none"/>
  </g>
</svg>
