<?xml version="1.0" encoding="UTF-8" standalone="no"?>
<svg xmlns:ffdec="https://www.free-decompiler.com/flash" xmlns:xlink="http://www.w3.org/1999/xlink" ffdec:objectType="shape" height="117.5px" width="114.75px" xmlns="http://www.w3.org/2000/svg">
  <g transform="matrix(5.0, 0.0, 0.0, 5.0, 56.25, 60.75)">
    <path d="M6.45 -8.85 Q7.45 -8.85 7.45 -7.9 7.45 -7.4 6.95 -7.4 L6.0 -8.55 Q6.0 -8.85 6.45 -8.85 M1.6 -11.1 L1.95 -10.8 Q1.95 -10.4 1.4 -10.4 L1.1 -10.7 Q1.1 -11.1 1.6 -11.1 M1.25 -5.8 Q1.25 -6.6 2.1 -6.6 2.8 -6.6 3.35 -4.7 3.35 -3.75 2.5 -3.75 1.6 -3.75 1.25 -5.8 M1.9 -2.9 Q1.9 -3.3 2.2 -3.3 2.7 -3.3 2.8 -2.75 2.8 -2.35 2.5 -2.35 L1.9 -2.9 M4.45 -2.55 Q4.1 -2.55 4.1 -2.9 4.1 -3.4 4.55 -3.4 L4.85 -2.95 Q4.85 -2.55 4.45 -2.55 M4.3 -1.0 Q4.3 -0.15 3.75 -0.15 3.35 -0.15 3.35 -0.85 3.35 -1.5 3.8 -1.5 4.3 -1.5 4.3 -1.0 M6.7 -3.75 Q6.7 -3.0 6.2 -3.0 5.9 -3.0 5.9 -3.35 5.9 -4.15 6.45 -4.15 L6.7 -3.75 M5.65 -0.9 L5.9 -0.9 6.0 -0.75 5.95 -0.6 5.8 -0.55 5.65 -0.65 5.65 -0.9 M7.4 -1.3 L7.35 -1.25 7.25 -1.25 7.2 -1.5 7.35 -1.5 7.4 -1.3 M11.4 -3.1 Q11.4 -2.4 10.85 -2.4 10.35 -2.4 10.35 -3.05 L10.45 -3.55 10.35 -3.75 10.65 -4.05 Q11.4 -4.05 11.4 -3.1 M11.5 0.2 L11.3 0.0 11.55 -0.2 11.7 0.0 11.5 0.2 M10.1 0.05 L10.25 0.25 10.05 0.45 9.85 0.25 Q9.85 0.05 10.1 0.05 M8.25 3.05 L8.1 3.1 7.9 2.9 8.1 2.7 8.3 2.9 8.25 3.05 M9.3 2.95 L8.75 2.3 Q8.75 1.5 9.45 1.5 10.0 1.5 10.0 2.25 10.0 2.95 9.3 2.95 M6.6 1.3 Q6.6 2.0 6.05 2.0 5.5 2.0 5.25 1.3 L5.05 0.5 Q5.05 0.05 5.95 0.05 6.4 0.05 6.6 1.3 M6.25 4.15 L6.0 4.5 Q5.7 4.5 5.7 4.0 5.7 3.7 5.95 3.7 6.25 3.7 6.25 4.15 M5.65 4.7 Q6.15 4.7 6.25 5.75 6.25 6.45 5.4 6.45 L4.9 6.25 4.5 6.45 Q4.1 6.45 4.1 6.05 4.1 5.4 4.55 5.4 L4.7 5.4 4.7 5.3 4.35 4.8 Q4.35 4.45 4.75 4.45 5.1 4.45 5.2 4.8 L5.65 4.7 M0.8 0.95 Q-0.35 0.95 -0.35 -0.45 -0.35 -1.4 0.55 -1.4 1.75 -1.4 1.75 0.05 1.75 0.95 0.8 0.95 M1.05 4.0 Q1.0 2.95 1.6 2.95 2.45 2.95 2.45 4.9 2.45 5.7 2.0 5.7 1.25 5.7 1.05 4.0 M0.2 8.7 L0.0 9.0 -0.25 8.65 Q-0.25 8.45 0.0 8.45 0.25 8.45 0.2 8.7 M2.6 8.7 Q2.6 9.1 2.25 9.1 1.45 9.1 1.45 8.3 1.45 7.85 1.95 7.85 2.25 7.85 2.6 8.7 M8.45 9.2 Q8.45 9.8 8.05 9.8 L7.5 8.75 Q7.5 8.3 8.0 8.3 8.45 8.3 8.45 9.2 M8.5 6.3 Q8.5 4.4 9.7 4.4 10.6 4.4 10.6 5.8 10.6 7.9 9.6 7.9 8.9 7.9 8.65 7.15 L8.5 6.3 M7.2 6.6 L7.45 6.85 Q7.45 7.4 7.05 7.4 L6.85 7.2 7.2 6.6 M-10.75 -2.35 Q-11.25 -2.5 -11.25 -3.05 L-10.8 -4.35 Q-10.25 -5.45 -9.6 -5.45 L-9.25 -4.95 Q-9.25 -3.15 -9.8 -2.6 L-9.65 -2.35 Q-9.65 -1.9 -10.1 -1.9 -10.75 -1.9 -10.75 -2.3 L-10.75 -2.35 M-1.0 -11.15 Q-1.0 -9.0 -2.25 -8.95 L-1.8 -8.1 Q-1.8 -7.2 -2.95 -7.2 -4.0 -7.2 -4.0 -8.15 -4.0 -9.15 -3.1 -9.2 -3.45 -9.55 -3.45 -10.3 -3.45 -12.15 -1.7 -12.15 -1.0 -12.15 -1.0 -11.15 M-4.0 -11.05 L-4.65 -9.15 Q-5.25 -7.7 -6.15 -7.65 L-6.1 -7.2 Q-6.1 -6.6 -6.65 -6.6 -7.35 -6.6 -7.35 -7.5 L-7.2 -7.95 Q-7.7 -8.45 -7.7 -9.5 -7.7 -12.05 -4.8 -12.05 -4.0 -12.05 -4.0 -11.05 M-3.75 -6.85 Q-3.75 -6.3 -4.2 -6.3 -4.75 -6.3 -4.75 -6.65 -4.75 -7.25 -4.05 -7.25 L-3.75 -6.85 M-0.4 -6.95 Q-0.4 -6.05 -1.15 -6.05 -1.75 -6.05 -1.75 -6.55 -1.75 -7.55 -0.8 -7.55 -0.4 -7.55 -0.4 -6.95 M-6.85 -4.3 Q-6.4 -4.3 -6.4 -3.7 -6.4 -3.35 -6.7 -3.35 -7.0 -3.35 -7.15 -3.9 L-6.85 -4.3 M-7.85 -3.45 L-8.1 -2.95 -8.3 -3.3 -7.9 -3.65 -7.85 -3.45 M-7.6 -5.5 L-7.45 -5.4 -7.65 -5.1 -7.8 -5.1 -7.85 -5.25 -7.6 -5.5 M-8.45 -0.45 Q-8.45 0.1 -8.7 0.1 -9.05 0.1 -9.05 -0.65 -9.05 -1.1 -8.7 -1.1 L-8.45 -0.45 M-6.7 -1.0 Q-6.7 -0.6 -7.3 -0.6 -7.55 -0.6 -7.7 -1.1 L-7.3 -1.45 Q-6.7 -1.45 -6.7 -1.0 M-6.7 -2.4 Q-6.7 -3.2 -5.75 -3.2 -4.85 -3.2 -4.85 -2.5 -4.85 -1.7 -5.8 -1.7 -6.7 -1.7 -6.7 -2.4 M-0.65 -4.7 Q0.15 -4.7 0.15 -3.75 0.15 -3.25 -0.4 -3.25 -1.25 -3.25 -1.25 -4.0 -1.25 -4.7 -0.65 -4.7 M-1.9 -3.1 Q-1.9 -2.75 -2.2 -2.75 -2.65 -2.75 -2.65 -3.15 -2.65 -3.4 -2.25 -3.4 L-1.9 -3.1 M-4.35 -3.75 Q-5.45 -3.75 -5.45 -4.5 -5.45 -6.2 -3.5 -6.2 -2.55 -6.2 -2.6 -5.45 -2.6 -3.75 -4.35 -3.75 M-4.35 -1.25 Q-4.35 -0.6 -4.75 -0.6 -5.2 -0.6 -5.1 -0.95 -5.1 -1.65 -4.75 -1.65 -4.35 -1.65 -4.35 -1.25 M-0.7 -2.1 L-0.75 -1.95 -1.1 -2.25 -0.9 -2.3 -0.7 -2.1 M-3.5 2.95 Q-3.5 3.5 -3.95 3.5 -4.35 3.5 -4.45 2.9 -4.45 2.5 -3.85 2.5 -3.5 2.5 -3.5 2.95 M-3.0 1.6 Q-3.0 2.25 -3.6 2.25 L-4.25 1.7 Q-4.25 1.05 -3.6 1.05 -3.0 1.05 -3.0 1.6 M-3.45 5.5 Q-3.45 5.95 -3.95 5.95 -4.25 5.95 -4.25 5.5 L-4.2 5.3 -5.1 5.55 Q-5.75 5.55 -5.75 5.05 -5.75 4.25 -4.45 4.25 -3.95 4.25 -3.95 4.6 L-4.05 5.15 -3.85 5.1 -3.45 5.5 M-0.95 5.75 Q-1.35 5.75 -1.35 5.4 -1.35 4.45 -0.8 4.45 -0.45 4.45 -0.45 4.8 L-0.5 5.15 Q-0.5 5.75 -0.95 5.75 M-1.3 3.2 Q-1.3 2.05 -0.2 2.05 0.05 2.05 0.1 2.5 0.1 4.1 -0.65 4.1 -1.2 4.1 -1.3 3.2 M-6.6 1.05 Q-6.6 2.3 -8.45 2.3 L-8.7 2.3 -8.55 2.4 -9.0 3.0 -9.75 3.4 Q-11.0 3.4 -11.0 2.35 -11.0 1.35 -9.95 1.25 L-9.95 1.2 Q-9.95 0.4 -7.1 0.4 -6.6 0.4 -6.6 1.05 M-6.45 3.9 L-6.4 4.05 Q-6.4 4.3 -6.8 4.3 L-6.95 4.2 -6.7 3.85 -6.45 3.9 M-6.0 4.0 Q-6.6 4.0 -6.75 3.4 -6.75 2.55 -5.85 2.55 -5.3 2.55 -5.3 3.2 L-6.0 4.0 M-5.05 6.7 L-4.4 6.5 Q-4.15 6.5 -4.0 6.65 -3.35 6.7 -3.35 7.25 -3.35 7.85 -4.05 8.05 L-4.35 8.1 -4.5 8.1 -4.7 8.1 Q-5.8 8.1 -5.8 7.4 -5.8 6.85 -5.05 6.7 M-6.3 7.35 L-6.6 7.05 -6.35 6.8 -6.1 7.1 -6.3 7.35 M-7.15 7.4 L-7.3 7.2 -6.95 6.85 -6.75 7.05 -7.15 7.4 M-7.3 6.85 L-7.65 6.55 Q-7.65 6.0 -6.9 6.0 L-6.65 6.3 Q-6.65 6.85 -7.3 6.85 M-3.2 8.05 L-2.85 7.75 Q-2.45 7.75 -2.45 8.3 -2.45 8.75 -2.75 8.75 -3.2 8.75 -3.2 8.05 M-0.45 11.0 Q-0.45 11.35 -0.75 11.35 L-1.45 10.4 -1.25 10.2 Q-0.45 10.2 -0.45 11.0" fill="#000000" fill-rule="evenodd" stroke="none"/>
  </g>
</svg>
