<?xml version="1.0" encoding="UTF-8" standalone="no"?>
<svg xmlns:ffdec="https://www.free-decompiler.com/flash" xmlns:xlink="http://www.w3.org/1999/xlink" ffdec:objectType="shape" height="117.75px" width="115.5px" xmlns="http://www.w3.org/2000/svg">
  <g transform="matrix(5.0, 0.0, 0.0, 5.0, 56.5, 61.25)">
    <path d="M7.55 -7.95 Q7.55 -7.55 7.05 -7.55 6.3 -7.55 6.3 -8.5 6.3 -8.75 6.6 -8.75 7.55 -8.75 7.55 -7.95 M1.45 -11.05 L1.65 -10.8 1.6 -10.65 1.4 -10.6 1.2 -10.7 1.2 -10.95 1.45 -11.05 M2.8 -4.3 Q2.3 -4.3 1.65 -5.9 1.65 -6.6 2.25 -6.6 2.65 -6.6 3.05 -5.85 L3.4 -4.9 Q3.4 -4.3 2.8 -4.3 M0.15 -3.5 L-0.15 -3.25 Q-0.5 -3.25 -0.5 -3.55 L-0.45 -3.65 -0.8 -4.1 Q-0.8 -4.75 -0.15 -4.75 0.25 -4.75 0.15 -4.2 L0.05 -3.75 0.15 -3.5 M1.2 -1.35 Q1.9 -1.35 1.9 0.0 1.9 0.7 1.05 0.7 0.05 0.7 0.05 -0.5 0.05 -1.35 1.2 -1.35 M4.5 -2.8 L4.3 -3.0 4.55 -3.3 4.8 -3.0 4.5 -2.8 M4.35 -0.9 Q4.35 -0.3 3.9 -0.3 3.55 -0.3 3.55 -0.6 3.55 -1.25 4.05 -1.25 L4.35 -0.9 M2.6 -2.2 Q2.15 -2.2 2.15 -2.95 2.15 -3.15 2.45 -3.15 L2.8 -2.45 2.6 -2.2 M6.35 -4.15 L6.6 -3.8 Q6.6 -3.25 6.2 -3.25 L5.95 -3.45 Q5.95 -4.15 6.35 -4.15 M7.1 -1.0 L7.05 -1.15 7.3 -1.5 7.45 -1.35 7.3 -1.0 7.1 -1.0 M11.45 -3.35 Q11.45 -2.55 11.0 -2.55 L10.7 -2.85 Q10.7 -3.85 11.0 -3.85 11.45 -3.85 11.45 -3.35 M11.8 0.25 L11.75 0.4 11.55 0.4 11.5 0.25 11.65 0.1 11.8 0.25 M8.3 3.0 L8.05 3.05 8.0 2.8 8.25 2.75 8.3 3.0 M9.95 2.15 Q9.95 2.7 9.4 2.7 9.0 2.7 9.0 2.35 9.0 1.65 9.55 1.65 9.95 1.65 9.95 2.15 M6.65 1.3 Q6.65 1.8 6.1 1.8 5.2 1.8 5.2 0.75 5.2 0.2 5.75 0.2 6.65 0.2 6.65 1.3 M6.3 5.45 Q6.3 6.35 5.5 6.35 L5.1 5.75 Q5.1 4.95 5.95 4.95 6.3 4.95 6.3 5.45 M9.8 4.4 Q10.7 4.4 10.7 5.7 10.7 7.35 9.8 7.35 9.4 7.35 9.05 6.5 L8.75 5.6 Q8.75 4.4 9.8 4.4 M1.4 3.85 Q1.4 3.25 1.8 3.25 L2.7 4.95 Q2.7 5.35 2.25 5.35 1.35 5.35 1.35 4.45 L1.4 3.85 M5.05 6.0 Q5.05 6.4 4.6 6.4 4.3 6.4 4.3 6.05 4.3 5.7 4.75 5.7 L5.05 6.0 M4.9 4.6 L5.15 5.0 4.9 5.25 Q4.6 5.25 4.6 4.9 4.6 4.6 4.9 4.6 M2.7 8.45 L2.2 8.9 Q1.65 8.9 1.65 8.3 1.65 8.05 2.2 8.05 2.7 8.05 2.7 8.45 M8.45 9.0 L8.1 9.3 7.75 8.7 Q7.75 8.45 8.0 8.45 8.45 8.45 8.45 9.0 M7.35 6.75 L7.5 6.9 7.35 7.45 7.1 7.5 7.05 7.3 Q7.05 6.95 7.35 6.75 M-10.45 -2.1 Q-10.45 -2.55 -10.05 -2.55 L-9.7 -2.25 Q-9.7 -1.8 -10.2 -1.8 -10.5 -1.8 -10.45 -2.1 M-11.3 -3.15 L-10.9 -4.35 Q-10.4 -5.3 -9.75 -5.3 L-9.25 -4.55 -9.85 -3.55 -10.75 -2.7 Q-11.3 -2.7 -11.3 -3.15 M-2.15 -9.5 Q-3.2 -9.5 -3.2 -10.6 -3.2 -12.05 -1.8 -12.05 -0.9 -12.05 -0.95 -10.85 -0.95 -9.5 -2.15 -9.5 M-4.05 -10.9 Q-4.05 -10.3 -4.65 -9.5 -5.35 -8.45 -6.45 -8.45 -7.35 -8.45 -7.35 -9.9 -7.35 -12.25 -4.95 -12.25 -4.05 -12.25 -4.05 -10.9 M-3.55 -8.05 Q-3.55 -8.9 -2.7 -8.9 -2.05 -8.9 -2.05 -8.05 -2.05 -7.35 -2.6 -7.35 -3.15 -7.35 -3.55 -8.05 M-4.0 -6.7 Q-4.0 -6.45 -4.25 -6.45 L-4.55 -6.75 -4.3 -7.1 -4.0 -6.7 M-0.35 -6.8 Q-0.35 -6.0 -1.0 -6.0 -1.6 -6.0 -1.6 -6.65 -1.6 -7.5 -0.8 -7.5 -0.45 -7.5 -0.35 -6.8 M-6.5 -7.9 Q-5.85 -7.9 -5.85 -7.0 -5.85 -6.65 -6.25 -6.65 -7.1 -6.65 -7.1 -7.3 -7.1 -7.9 -6.5 -7.9 M-7.25 -7.0 L-7.0 -6.75 Q-7.0 -6.45 -7.25 -6.45 L-7.55 -6.7 -7.25 -7.0 M-6.9 -4.15 Q-6.4 -4.15 -6.4 -3.6 -6.4 -3.25 -6.75 -3.25 -6.95 -3.25 -7.2 -3.95 -7.2 -4.15 -6.9 -4.15 M-8.4 -0.2 Q-8.4 0.15 -8.65 0.15 -9.0 0.15 -9.0 -0.35 L-8.7 -0.65 Q-8.4 -0.65 -8.4 -0.2 M-5.4 -2.2 Q-5.4 -1.65 -5.85 -1.65 -6.75 -1.65 -6.75 -2.3 -6.75 -2.8 -6.1 -2.8 -5.4 -2.8 -5.4 -2.2 M-7.3 -0.8 L-7.35 -0.95 -7.1 -1.2 -6.65 -0.95 -6.8 -0.7 -7.3 -0.8 M-2.65 -5.2 Q-2.65 -3.95 -4.6 -3.95 -5.3 -3.95 -5.3 -4.5 -5.3 -6.15 -3.45 -6.15 -2.65 -6.15 -2.65 -5.2 M-4.45 -1.25 Q-4.45 -0.85 -4.8 -0.85 -5.15 -0.85 -5.15 -1.2 L-4.7 -1.65 -4.45 -1.25 M-2.35 -2.85 Q-2.8 -2.85 -2.8 -3.2 -2.8 -3.4 -2.45 -3.4 L-2.15 -3.05 -2.35 -2.85 M-0.15 2.5 Q-0.15 3.9 -0.8 3.9 L-1.15 3.55 Q-1.15 2.1 -0.45 2.1 -0.15 2.1 -0.15 2.5 M-3.15 1.6 Q-3.15 2.15 -3.65 2.15 L-4.25 1.6 Q-4.25 1.15 -3.5 1.15 -3.15 1.15 -3.15 1.6 M-3.4 5.55 L-3.75 5.8 -4.0 5.55 Q-4.0 5.35 -3.6 5.35 L-3.4 5.55 M-4.4 4.8 Q-4.4 5.5 -5.3 5.5 L-5.75 5.05 Q-5.75 4.4 -4.65 4.4 L-4.4 4.8 M-3.9 3.6 Q-4.3 3.6 -4.3 3.25 -4.3 2.8 -3.95 2.8 -3.5 2.8 -3.5 3.25 L-3.9 3.6 M-0.7 4.9 Q-0.8 5.5 -1.15 5.5 L-1.45 5.15 Q-1.45 4.55 -1.0 4.55 -0.7 4.55 -0.7 4.9 M-6.5 1.0 Q-6.5 2.2 -8.4 2.2 -9.35 2.2 -9.35 1.35 -9.35 0.35 -7.1 0.35 -6.5 0.35 -6.5 1.0 M-5.45 2.9 Q-5.45 3.65 -6.25 3.65 -6.55 3.65 -6.5 3.25 -6.5 2.45 -5.8 2.45 -5.45 2.45 -5.45 2.9 M-9.9 3.3 Q-11.05 3.3 -11.05 2.1 -11.05 1.55 -10.25 1.55 -9.05 1.55 -9.05 2.6 -9.05 3.3 -9.9 3.3 M-6.3 7.05 L-6.35 7.2 -6.5 7.25 -6.65 7.15 -6.65 6.9 -6.4 6.9 -6.3 7.05 M-7.25 6.65 L-7.65 6.35 Q-7.65 6.0 -7.3 6.0 -6.8 6.0 -6.8 6.3 -6.8 6.65 -7.25 6.65 M-4.45 6.75 L-4.1 6.8 Q-3.6 6.85 -3.6 7.4 -3.6 8.2 -4.5 8.2 -5.65 8.2 -5.65 7.6 -5.65 7.05 -5.05 6.9 L-4.45 6.75 M-2.85 7.85 L-2.55 8.2 Q-2.55 8.6 -2.85 8.6 -3.25 8.6 -3.15 8.2 -3.15 7.85 -2.85 7.85 M-0.6 10.85 Q-0.6 11.3 -0.9 11.3 -1.3 11.3 -1.3 10.5 L-1.0 10.25 Q-0.6 10.25 -0.6 10.85" fill="#000000" fill-rule="evenodd" stroke="none"/>
  </g>
</svg>
