<?xml version="1.0" encoding="UTF-8" standalone="no"?>
<svg xmlns:ffdec="https://www.free-decompiler.com/flash" xmlns:xlink="http://www.w3.org/1999/xlink" ffdec:objectType="shape" height="118.0px" width="113.5px" xmlns="http://www.w3.org/2000/svg">
  <g transform="matrix(5.0, 0.0, 0.0, 5.0, 55.25, 61.0)">
    <path d="M7.0 -8.65 Q7.5 -8.65 7.5 -8.05 L7.2 -7.75 Q6.65 -7.75 6.65 -8.35 6.65 -8.65 7.0 -8.65 M4.75 -3.1 L4.55 -2.9 4.35 -3.1 4.6 -3.3 4.75 -3.1 M3.1 -4.7 Q2.0 -4.7 2.0 -5.9 2.0 -6.6 2.35 -6.6 3.85 -6.6 3.85 -5.35 L3.1 -4.7 M1.25 -1.1 Q1.75 -1.1 1.85 0.0 1.85 0.85 1.15 0.85 0.2 0.85 0.2 -0.1 0.2 -1.1 1.25 -1.1 M2.45 -2.7 L2.75 -2.75 2.8 -2.5 2.75 -2.45 2.5 -2.45 2.45 -2.7 M4.45 -0.75 Q4.45 -0.4 4.05 -0.4 3.75 -0.4 3.75 -0.7 3.75 -1.1 4.15 -1.1 L4.45 -0.75 M6.5 -4.0 L6.6 -3.85 6.3 -3.45 6.1 -3.65 6.5 -4.0 M11.65 -3.3 Q11.65 -2.75 11.25 -2.75 L10.95 -3.45 11.25 -3.7 11.65 -3.3 M8.2 2.95 L8.05 2.85 8.05 2.6 8.3 2.6 8.4 2.75 8.35 2.9 8.2 2.95 M9.65 1.7 Q10.0 1.7 10.0 2.1 10.0 2.7 9.5 2.7 L9.1 2.3 Q9.1 1.7 9.65 1.7 M6.55 1.1 Q6.55 1.55 6.0 1.55 5.2 1.55 5.2 0.5 5.2 0.2 5.8 0.2 6.55 0.2 6.55 1.1 M6.4 5.65 Q6.25 6.2 5.95 6.2 5.4 6.2 5.4 5.75 5.4 5.2 5.95 5.2 6.4 5.2 6.4 5.65 M10.05 4.4 Q10.75 4.4 10.7 5.8 10.7 6.75 10.0 6.75 9.0 6.75 9.0 5.4 9.0 4.4 10.05 4.4 M2.05 3.7 L2.55 4.15 2.9 4.7 2.45 5.15 Q1.55 5.15 1.55 4.35 1.55 3.7 2.05 3.7 M4.45 5.9 L4.7 5.8 4.9 6.0 4.85 6.2 4.65 6.25 4.45 6.15 4.45 5.9 M2.75 8.8 L2.5 9.05 Q2.1 9.05 2.0 8.55 L2.3 8.3 Q2.75 8.3 2.75 8.8 M8.15 8.5 Q8.45 8.5 8.5 9.0 L8.3 9.2 7.9 8.75 Q7.9 8.5 8.15 8.5 M7.2 7.2 Q7.2 6.85 7.55 6.85 L7.65 6.95 7.4 7.35 7.25 7.35 7.2 7.2 M-10.4 -2.0 Q-10.4 -2.35 -10.0 -2.35 L-9.8 -2.1 Q-9.8 -1.8 -10.15 -1.8 L-10.4 -2.0 M-11.05 -3.9 Q-10.5 -5.2 -9.8 -5.2 -9.55 -5.2 -9.55 -4.75 -9.55 -4.55 -9.9 -4.0 -10.25 -3.4 -10.6 -3.4 -11.05 -3.4 -11.05 -3.9 M-1.05 -10.8 Q-1.05 -9.55 -2.15 -9.55 -2.65 -9.55 -2.95 -10.5 -2.95 -11.9 -1.8 -11.9 -1.05 -11.9 -1.05 -10.8 M-4.1 -11.0 Q-4.1 -10.65 -4.6 -10.0 -5.25 -9.15 -6.0 -9.15 -7.25 -9.15 -7.25 -10.05 L-6.6 -11.3 Q-5.8 -12.2 -4.95 -12.2 L-4.1 -11.0 M-2.75 -8.85 Q-2.0 -8.85 -2.0 -7.9 -2.0 -7.4 -2.65 -7.4 -3.25 -7.4 -3.4 -8.15 -3.4 -8.85 -2.75 -8.85 M-0.45 -6.65 Q-0.45 -5.95 -1.1 -5.95 -1.4 -5.95 -1.4 -6.35 -1.4 -7.0 -0.8 -7.0 -0.45 -7.0 -0.45 -6.65 M-6.95 -6.7 Q-6.95 -6.35 -7.2 -6.35 L-7.45 -6.55 -7.1 -6.9 -6.95 -6.7 M-6.35 -7.7 L-5.85 -7.05 Q-5.85 -6.55 -6.25 -6.55 L-6.75 -7.15 -6.35 -7.7 M-6.9 -4.05 L-6.45 -3.7 -6.65 -3.5 Q-7.1 -3.5 -7.1 -3.85 L-6.9 -4.05 M-8.95 -0.3 L-8.8 -0.3 Q-8.55 -0.3 -8.55 0.05 L-8.7 0.1 -9.0 -0.1 -8.95 -0.3 M-6.05 -2.65 L-5.55 -2.05 Q-5.55 -1.6 -6.05 -1.6 -6.45 -1.6 -6.55 -2.3 -6.55 -2.65 -6.05 -2.65 M-0.6 -4.45 Q-0.6 -4.8 -0.1 -4.8 L0.25 -4.35 Q0.25 -4.0 -0.1 -4.0 -0.6 -4.0 -0.6 -4.45 M-0.35 -3.4 Q-0.35 -3.75 -0.05 -3.75 L0.2 -3.45 Q0.2 -3.2 -0.1 -3.2 L-0.35 -3.4 M-2.2 -3.3 L-2.2 -3.05 -2.55 -3.05 -2.7 -3.1 -2.75 -3.25 -2.45 -3.4 -2.2 -3.3 M-2.65 -5.25 Q-2.65 -4.1 -4.2 -4.1 -5.0 -4.1 -5.0 -4.8 -5.0 -6.1 -3.65 -6.1 -2.65 -6.1 -2.65 -5.25 M-4.55 -1.35 Q-4.55 -0.95 -4.95 -0.95 -5.3 -0.95 -5.3 -1.2 -5.3 -1.65 -4.9 -1.65 L-4.55 -1.35 M-0.2 2.5 Q-0.2 3.55 -0.8 3.55 -1.25 3.55 -1.15 3.15 -1.15 2.15 -0.55 2.15 -0.2 2.15 -0.2 2.5 M-3.4 1.6 Q-3.4 2.2 -3.8 2.2 -4.25 2.2 -4.25 1.65 -4.25 1.2 -3.7 1.2 L-3.4 1.6 M-3.2 5.6 Q-3.2 5.75 -3.7 5.9 L-3.85 5.7 Q-3.85 5.4 -3.45 5.4 -3.2 5.4 -3.2 5.6 M-3.8 3.7 Q-4.2 3.7 -4.2 3.25 L-3.95 2.95 -3.55 3.45 -3.8 3.7 M-0.8 4.9 Q-0.8 5.3 -1.1 5.3 L-1.35 5.25 -1.4 5.05 Q-1.4 4.65 -1.05 4.65 L-0.8 4.9 M-5.55 2.9 Q-5.55 3.45 -6.05 3.45 -6.35 3.45 -6.4 3.05 -6.4 2.9 -5.85 2.55 L-5.55 2.9 M-6.55 1.0 Q-6.55 2.15 -8.15 2.15 -9.1 2.15 -9.1 1.2 -9.1 0.45 -7.5 0.45 -6.55 0.45 -6.55 1.0 M-9.25 2.45 Q-9.25 3.2 -10.15 3.2 -11.0 3.2 -11.0 2.45 -11.0 1.75 -10.1 1.75 L-9.25 2.45 M-5.65 5.05 Q-5.65 4.65 -5.1 4.65 -4.8 4.65 -4.8 4.9 -4.8 5.35 -5.4 5.35 L-5.65 5.05 M-7.5 6.65 L-7.7 6.45 Q-7.7 6.0 -7.1 6.0 L-6.9 6.25 Q-6.9 6.65 -7.5 6.65 M-3.3 7.4 Q-3.3 7.7 -3.6 7.7 -3.6 8.25 -4.5 8.25 -5.4 8.25 -5.4 7.65 -5.4 6.95 -4.45 6.95 L-4.05 7.3 Q-4.05 7.0 -3.7 7.0 -3.3 7.0 -3.3 7.4 M-0.7 10.65 Q-0.7 11.4 -1.1 11.4 L-1.35 11.15 -1.3 10.55 Q-1.3 10.4 -1.0 10.4 -0.7 10.4 -0.7 10.65" fill="#000000" fill-rule="evenodd" stroke="none"/>
  </g>
</svg>
