<?xml version="1.0" encoding="UTF-8" standalone="no"?>
<svg xmlns:ffdec="https://www.free-decompiler.com/flash" xmlns:xlink="http://www.w3.org/1999/xlink" ffdec:objectType="shape" height="117.5px" width="114.75px" xmlns="http://www.w3.org/2000/svg">
  <g transform="matrix(5.0, 0.0, 0.0, 5.0, 55.75, 61.25)">
    <path d="M6.95 -8.45 L7.25 -8.15 7.05 -7.95 Q6.7 -7.95 6.7 -8.25 L6.95 -8.45 M3.45 -5.25 Q2.35 -5.25 2.35 -6.15 2.35 -6.45 2.75 -6.45 3.95 -6.45 3.95 -5.75 3.95 -5.25 3.45 -5.25 M0.2 -3.35 L0.0 -3.2 -0.15 -3.25 -0.2 -3.5 0.0 -3.6 0.2 -3.35 M0.4 -4.4 L0.1 -4.1 Q-0.25 -4.1 -0.25 -4.45 L0.05 -4.75 0.4 -4.4 M1.0 -0.95 Q1.85 -0.95 1.85 0.05 1.85 0.85 1.15 0.85 0.25 0.85 0.25 -0.1 0.25 -0.95 1.0 -0.95 M2.75 -2.65 L2.85 -2.55 2.7 -2.45 2.65 -2.5 2.75 -2.65 M11.8 -3.2 L11.5 -2.9 Q11.2 -2.9 11.2 -3.25 L11.6 -3.5 11.8 -3.2 M10.25 6.3 Q9.35 6.3 9.35 5.0 9.35 4.35 10.1 4.35 10.7 4.35 10.7 5.45 10.7 6.3 10.25 6.3 M9.85 2.15 L9.6 2.5 Q9.3 2.5 9.3 2.05 9.3 1.75 9.6 1.75 L9.85 2.15 M5.85 1.1 Q5.15 1.1 5.15 0.25 5.15 -0.1 5.55 -0.1 6.4 -0.1 6.4 0.55 6.4 1.1 5.85 1.1 M6.35 5.6 Q6.35 6.0 5.85 6.0 L5.6 5.7 Q5.6 5.3 6.1 5.3 6.3 5.3 6.35 5.6 M3.0 4.5 Q3.0 4.95 2.45 4.95 1.85 4.95 1.85 4.25 1.85 3.85 2.45 3.85 3.0 3.85 3.0 4.5 M8.45 9.0 Q7.9 9.0 8.05 8.65 L8.1 8.6 8.15 8.6 Q8.45 8.6 8.45 9.0 M-10.4 -2.0 L-10.05 -2.3 -9.9 -2.1 Q-9.9 -1.8 -10.2 -1.8 L-10.4 -2.0 M-11.15 -4.15 Q-10.7 -5.35 -10.05 -5.35 L-9.7 -4.95 Q-9.7 -3.75 -10.75 -3.75 -11.15 -3.75 -11.15 -4.15 M-1.6 -9.95 Q-2.4 -9.95 -2.5 -10.85 -2.5 -11.7 -1.6 -11.7 -1.0 -11.7 -1.0 -10.6 -1.0 -9.95 -1.6 -9.95 M-4.1 -11.3 Q-4.1 -10.8 -4.75 -10.1 -5.45 -9.3 -6.25 -9.3 -6.7 -9.3 -6.9 -10.1 -6.9 -12.25 -4.95 -12.25 -4.1 -12.25 -4.1 -11.3 M-2.65 -8.65 Q-2.05 -8.65 -2.1 -8.05 -2.1 -7.55 -2.6 -7.55 -3.25 -7.55 -3.25 -8.05 -3.25 -8.65 -2.65 -8.65 M-0.6 -6.55 Q-0.6 -6.0 -1.0 -6.0 L-1.35 -6.25 Q-1.35 -6.85 -0.85 -6.85 L-0.6 -6.55 M-7.25 -6.35 L-7.5 -6.35 -7.55 -6.5 -7.35 -6.65 -7.2 -6.55 -7.25 -6.35 M-5.9 -7.1 Q-5.9 -6.7 -6.2 -6.7 L-6.45 -7.05 Q-6.4 -7.45 -6.15 -7.45 -5.9 -7.45 -5.9 -7.1 M-6.65 -3.9 Q-6.15 -3.9 -6.4 -3.55 L-6.55 -3.5 -6.8 -3.8 -6.65 -3.9 M-5.15 -1.2 Q-5.15 -1.4 -4.75 -1.5 L-4.55 -1.45 -4.5 -1.3 -4.95 -1.05 -5.1 -1.1 -5.15 -1.2 M-6.1 -2.55 Q-5.7 -2.55 -5.7 -2.2 -5.7 -1.65 -6.05 -1.65 -6.5 -1.65 -6.4 -2.1 L-6.1 -2.55 M-2.55 -5.35 Q-2.55 -4.05 -4.1 -4.05 -4.75 -4.05 -4.75 -4.85 -4.75 -6.0 -3.2 -6.0 -2.55 -6.0 -2.55 -5.35 M-0.35 2.45 Q-0.35 3.15 -0.85 3.15 L-1.15 2.85 Q-1.15 2.15 -0.65 2.15 -0.35 2.15 -0.35 2.45 M-3.8 1.65 Q-3.8 1.9 -4.1 1.9 L-4.3 1.7 -4.0 1.45 -3.8 1.65 M-3.75 3.6 L-4.1 3.25 -3.9 3.05 Q-3.55 3.05 -3.55 3.4 L-3.75 3.6 M-0.9 4.85 L-0.85 5.0 Q-0.85 5.35 -1.2 5.35 L-1.35 5.3 -1.4 5.15 Q-1.4 4.8 -1.05 4.8 L-0.9 4.85 M-6.7 1.0 Q-6.7 1.95 -8.0 1.95 -8.9 1.95 -8.9 1.25 -8.9 0.5 -7.35 0.5 -6.7 0.5 -6.7 1.0 M-5.9 2.6 L-5.65 2.85 -6.1 3.15 -6.3 2.95 -5.9 2.6 M-5.85 5.1 Q-5.85 4.6 -5.15 4.6 -4.85 4.6 -4.85 4.9 -4.85 5.4 -5.55 5.4 L-5.85 5.1 M-7.15 6.55 L-7.35 6.6 -7.55 6.5 -7.55 6.25 -7.3 6.15 -7.1 6.35 -7.15 6.55 M-3.8 7.4 L-3.8 7.35 -3.5 7.05 -3.3 7.25 Q-3.3 7.55 -3.6 7.55 L-3.65 7.55 Q-3.65 8.35 -4.8 8.35 -5.25 8.35 -5.25 7.8 -5.25 7.2 -3.95 7.2 L-3.8 7.4 M-0.85 10.85 Q-0.85 11.25 -1.15 11.25 L-1.4 10.95 Q-1.35 10.55 -1.1 10.55 L-0.85 10.85 M-10.7 2.4 Q-10.7 1.9 -10.25 1.9 -9.5 1.9 -9.5 2.65 -9.5 3.2 -10.15 3.2 -10.7 3.2 -10.7 2.4" fill="#000000" fill-rule="evenodd" stroke="none"/>
  </g>
</svg>
