<?xml version="1.0" encoding="UTF-8" standalone="no"?>
<svg xmlns:ffdec="https://www.free-decompiler.com/flash" xmlns:xlink="http://www.w3.org/1999/xlink" ffdec:objectType="shape" height="115.5px" width="113.75px" xmlns="http://www.w3.org/2000/svg">
  <g transform="matrix(5.0, 0.0, 0.0, 5.0, 54.5, 60.5)">
    <path d="M0.5 -4.35 L0.25 -4.1 0.0 -4.3 Q0.0 -4.6 0.3 -4.6 L0.5 -4.35 M3.95 -6.2 Q3.95 -5.6 3.5 -5.6 L2.75 -6.4 Q2.75 -6.7 3.4 -6.7 3.95 -6.7 3.95 -6.2 M11.85 -3.2 L11.65 -3.05 11.5 -3.1 11.45 -3.35 11.65 -3.45 11.85 -3.2 M10.0 2.25 L9.65 2.55 9.3 2.25 Q9.3 1.95 9.65 1.95 L10.0 2.25 M5.75 0.95 Q5.1 0.95 5.1 0.25 5.1 -0.1 5.55 -0.1 6.3 -0.1 6.3 0.45 6.3 0.95 5.75 0.95 M6.45 5.65 L6.1 6.0 5.9 5.95 5.85 5.75 Q5.85 5.4 6.2 5.4 L6.45 5.65 M9.35 5.2 Q9.35 4.55 9.95 4.55 10.65 4.55 10.65 5.4 10.65 5.9 10.0 5.9 9.35 5.9 9.35 5.2 M0.75 1.0 Q0.2 1.0 0.2 0.3 0.2 -0.6 0.9 -0.6 1.5 -0.6 1.5 0.35 1.5 1.0 0.75 1.0 M3.0 4.35 L2.7 4.8 2.05 4.35 Q2.05 3.85 2.65 3.85 3.0 3.85 3.0 4.35 M-10.25 -1.85 L-10.3 -1.95 -10.1 -2.1 -10.05 -1.95 -10.15 -1.85 -10.25 -1.85 M-10.2 -4.55 L-10.25 -4.55 -10.2 -4.5 -10.2 -4.55 M-10.9 -4.1 Q-10.9 -4.55 -10.55 -4.65 L-10.65 -4.9 Q-10.65 -5.5 -10.05 -5.5 L-9.85 -5.05 -9.85 -4.95 -9.55 -4.65 Q-9.55 -4.15 -10.0 -4.15 L-10.05 -4.15 Q-10.15 -3.8 -10.55 -3.8 -10.9 -3.8 -10.9 -4.1 M-0.9 -10.4 Q-0.9 -9.8 -1.65 -9.8 -2.45 -9.8 -2.45 -10.55 -2.45 -11.65 -1.55 -11.65 -0.95 -11.65 -0.9 -10.4 M-4.05 -11.45 Q-4.05 -11.1 -4.6 -10.5 -5.2 -9.8 -5.75 -9.8 -6.65 -9.8 -6.65 -10.45 -6.65 -12.1 -4.65 -12.1 L-4.05 -11.45 M-3.05 -8.05 Q-3.05 -8.35 -2.6 -8.35 -2.3 -8.35 -2.3 -7.9 -2.3 -7.6 -2.6 -7.6 -3.05 -7.6 -3.05 -8.05 M-0.75 -6.3 Q-0.75 -5.85 -1.1 -5.85 -1.4 -5.85 -1.35 -6.15 -1.35 -6.6 -0.95 -6.6 -0.65 -6.6 -0.75 -6.3 M-5.85 -6.85 L-6.05 -6.65 -6.25 -6.85 Q-6.25 -7.05 -6.0 -7.05 L-5.85 -6.85 M-6.15 -2.35 Q-5.85 -2.35 -5.85 -2.05 -5.85 -1.8 -6.35 -1.8 L-6.65 -2.0 Q-6.65 -2.35 -6.15 -2.35 M-2.75 -5.3 Q-2.75 -4.25 -3.65 -4.25 -4.3 -4.25 -4.3 -4.9 -4.3 -5.85 -3.1 -5.85 L-2.75 -5.3 M-0.65 2.15 Q-0.5 2.15 -0.5 2.4 L-0.95 2.95 -1.15 2.7 Q-1.15 2.15 -0.65 2.15 M-6.0 2.65 L-5.8 2.7 -5.8 2.95 -6.25 3.2 -6.4 3.15 -6.45 3.0 -6.0 2.65 M-6.7 1.1 Q-6.7 1.9 -8.0 1.9 -8.75 1.9 -8.75 1.35 L-8.3 0.9 Q-7.75 0.5 -7.3 0.5 -6.7 0.5 -6.7 1.1 M-9.65 2.75 Q-9.65 3.25 -9.95 3.25 -10.65 3.25 -10.65 2.75 -10.65 2.15 -10.0 2.15 -9.65 2.15 -9.65 2.75 M-7.1 6.35 L-7.55 6.65 -7.65 6.4 -7.2 6.25 -7.1 6.35 M-4.7 8.35 L-5.25 8.0 Q-5.25 7.55 -4.5 7.55 -4.1 7.55 -4.1 7.95 -4.1 8.35 -4.7 8.35 M-3.55 7.5 L-3.7 7.35 -3.55 7.2 -3.4 7.3 -3.4 7.45 -3.55 7.5 M-0.95 10.85 L-1.25 11.0 -1.3 10.9 -1.05 10.75 -0.95 10.85" fill="#000000" fill-rule="evenodd" stroke="none"/>
  </g>
</svg>
