<?xml version="1.0" encoding="UTF-8" standalone="no"?>
<svg xmlns:ffdec="https://www.free-decompiler.com/flash" xmlns:xlink="http://www.w3.org/1999/xlink" ffdec:objectType="shape" height="117.0px" width="114.25px" xmlns="http://www.w3.org/2000/svg">
  <g transform="matrix(5.0, 0.0, 0.0, 5.0, 54.5, 61.5)">
    <path d="M0.4 -4.65 L0.2 -4.45 Q-0.05 -4.45 0.0 -4.65 0.0 -4.85 0.25 -4.85 L0.4 -4.65 M3.95 -6.3 Q3.95 -5.95 3.6 -5.95 L2.9 -6.55 Q2.9 -6.9 3.55 -6.9 3.95 -6.9 3.95 -6.3 M11.95 -3.0 L11.8 -3.0 11.75 -3.2 11.9 -3.2 11.95 -3.0 M10.5 4.95 Q10.5 5.45 10.15 5.45 9.65 5.45 9.65 4.85 9.65 4.4 10.15 4.4 10.45 4.4 10.5 4.95 M6.45 5.8 L6.2 6.15 Q5.85 6.15 5.85 5.8 5.85 5.45 6.15 5.45 L6.45 5.8 M5.15 0.3 Q5.15 -0.15 5.6 -0.15 L5.95 0.2 Q5.95 0.7 5.45 0.7 5.15 0.7 5.15 0.3 M2.7 3.75 L2.95 4.05 Q2.95 4.45 2.6 4.45 L2.2 4.2 Q2.2 3.75 2.7 3.75 M0.35 1.05 Q0.0 1.05 -0.05 0.45 -0.05 -0.6 0.7 -0.6 1.15 -0.6 1.25 0.2 1.25 1.05 0.35 1.05 M-10.85 -3.8 L-10.9 -4.0 Q-10.9 -4.55 -10.3 -4.55 L-10.1 -4.3 -10.6 -3.75 -10.85 -3.8 M-10.45 -5.15 Q-10.45 -5.8 -9.85 -5.8 L-9.6 -5.5 Q-9.6 -4.85 -10.15 -4.85 L-10.45 -5.15 M-0.75 -10.3 Q-0.75 -9.9 -1.2 -9.9 -2.05 -9.9 -2.05 -10.8 -2.05 -11.2 -1.35 -11.2 -0.75 -11.2 -0.75 -10.3 M-4.0 -11.15 Q-4.0 -10.15 -5.55 -10.15 -6.55 -10.15 -6.55 -10.95 -6.55 -12.3 -4.7 -12.3 -4.0 -12.3 -4.0 -11.15 M-2.85 -7.9 L-2.55 -8.25 -2.25 -7.85 -2.55 -7.65 Q-2.95 -7.65 -2.85 -7.9 M-0.9 -6.35 Q-0.9 -6.05 -1.15 -6.05 -1.55 -6.05 -1.55 -6.35 L-1.2 -6.65 Q-0.9 -6.65 -0.9 -6.35 M-9.8 -4.2 L-10.05 -4.25 -10.1 -4.45 -9.65 -4.9 -9.45 -4.85 -9.4 -4.65 Q-9.4 -4.2 -9.8 -4.2 M-6.35 -2.25 L-6.1 -1.95 Q-6.1 -1.65 -6.4 -1.65 L-6.65 -1.9 Q-6.65 -2.25 -6.35 -2.25 M-3.05 -5.1 Q-3.05 -4.35 -3.75 -4.35 -4.1 -4.35 -4.1 -4.7 -4.1 -5.65 -3.35 -5.65 L-3.05 -5.1 M-1.3 2.7 L-1.35 2.5 Q-1.35 2.05 -0.7 2.05 L-0.5 2.3 Q-0.5 2.75 -1.05 2.75 L-1.3 2.7 M-6.7 1.0 Q-6.7 1.8 -7.85 1.8 -8.35 1.8 -8.35 1.3 -8.35 0.4 -7.15 0.4 L-6.7 1.0 M-9.55 2.3 L-9.3 2.55 Q-9.3 2.95 -9.65 2.95 L-9.9 2.65 Q-9.9 2.3 -9.55 2.3 M-0.95 10.85 L-1.4 11.1 -1.45 10.9 Q-1.45 10.7 -1.15 10.7 L-0.95 10.85 M-4.25 7.9 Q-4.25 8.4 -4.75 8.4 L-5.05 8.1 -4.55 7.55 -4.25 7.9 M-10.7 2.7 Q-10.7 2.45 -10.4 2.45 -9.95 2.45 -9.95 2.9 -9.95 3.25 -10.3 3.25 -10.7 3.25 -10.7 2.7" fill="#000000" fill-rule="evenodd" stroke="none"/>
  </g>
</svg>
