<?xml version="1.0" encoding="UTF-8" standalone="no"?>
<svg xmlns:ffdec="https://www.free-decompiler.com/flash" xmlns:xlink="http://www.w3.org/1999/xlink" ffdec:objectType="shape" height="102.5px" width="106.5px" xmlns="http://www.w3.org/2000/svg">
  <g transform="matrix(5.0, 0.0, 0.0, 5.0, 54.25, 60.5)">
    <path d="M3.4 -7.0 L3.75 -6.75 3.45 -6.45 Q3.05 -6.45 3.05 -6.75 L3.4 -7.0 M0.4 -4.7 L0.35 -4.55 0.2 -4.5 0.05 -4.6 0.05 -4.85 0.3 -4.85 0.4 -4.7 M6.45 5.9 L6.15 6.2 5.95 6.0 Q5.95 5.7 6.25 5.7 L6.45 5.9 M5.35 0.5 Q5.0 0.5 5.0 0.2 5.0 -0.15 5.35 -0.15 L5.7 0.15 5.35 0.5 M10.1 4.4 Q10.45 4.4 10.45 4.85 L10.05 5.4 Q9.65 5.4 9.65 4.95 9.65 4.4 10.1 4.4 M0.45 0.9 Q0.0 0.9 0.0 0.2 0.0 -0.45 0.55 -0.45 0.8 -0.45 1.05 0.15 1.05 0.9 0.45 0.9 M2.7 3.5 L2.95 3.75 Q2.95 4.05 2.6 4.05 L2.4 3.8 Q2.4 3.5 2.7 3.5 M-10.25 -4.3 Q-10.25 -3.85 -10.65 -3.85 L-10.85 -4.05 -10.35 -4.4 -10.25 -4.3 M-0.8 -10.15 Q-0.8 -9.85 -1.15 -9.85 -1.9 -9.85 -1.9 -10.25 L-1.8 -10.45 -1.9 -10.4 -2.1 -10.45 -2.15 -10.55 Q-2.15 -10.9 -1.25 -10.9 -1.05 -10.9 -0.8 -10.15 M-3.75 -11.5 Q-3.75 -10.3 -5.15 -10.3 -6.0 -10.3 -6.0 -11.0 -6.0 -12.1 -4.4 -12.1 -3.75 -12.1 -3.75 -11.5 M-1.15 -6.3 Q-1.15 -6.15 -1.4 -6.15 L-1.65 -6.35 Q-1.65 -6.55 -1.4 -6.55 L-1.15 -6.3 M-2.05 -7.8 L-2.25 -7.6 Q-2.5 -7.6 -2.55 -7.95 L-2.35 -8.05 Q-2.05 -8.05 -2.05 -7.8 M-9.9 -4.75 L-9.65 -4.8 -9.55 -4.65 -9.6 -4.5 -9.85 -4.45 -9.9 -4.75 M-10.1 -4.95 L-10.35 -5.25 Q-10.35 -5.85 -9.9 -5.85 L-9.6 -5.5 Q-9.6 -4.95 -10.1 -4.95 M-6.15 -2.05 L-5.95 -1.8 -6.2 -1.6 -6.4 -1.8 -6.15 -2.05 M-2.95 -5.05 Q-2.95 -4.35 -3.55 -4.35 -4.0 -4.35 -4.0 -4.85 -4.0 -5.55 -3.3 -5.55 L-2.95 -5.05 M-0.85 1.95 L-0.65 2.15 Q-0.65 2.5 -1.15 2.5 L-1.35 2.3 -0.85 1.95 M-6.75 0.95 Q-6.75 1.75 -7.85 1.75 -8.4 1.75 -8.4 1.3 -8.4 0.4 -7.35 0.4 -6.75 0.4 -6.75 0.95 M-9.5 2.55 L-9.25 2.8 -9.5 3.05 -9.75 2.8 -9.5 2.55 M-4.65 8.15 L-4.9 8.4 -5.2 8.15 -4.9 7.9 -4.65 8.15 M-10.7 2.95 Q-10.7 2.65 -10.2 2.65 L-10.0 2.9 Q-10.0 3.25 -10.35 3.25 L-10.7 2.95" fill="#000000" fill-rule="evenodd" stroke="none"/>
  </g>
</svg>
