<?xml version="1.0" encoding="UTF-8" standalone="no"?>
<svg xmlns:ffdec="https://www.free-decompiler.com/flash" xmlns:xlink="http://www.w3.org/1999/xlink" ffdec:objectType="shape" height="85.5px" width="105.5px" xmlns="http://www.w3.org/2000/svg">
  <g transform="matrix(5.0, 0.0, 0.0, 5.0, 54.25, 60.25)">
    <path d="M3.35 -6.85 L3.2 -6.85 3.2 -6.95 3.35 -6.95 3.35 -6.85 M9.9 4.45 L10.25 4.75 9.9 5.05 9.5 4.75 9.9 4.45 M4.7 0.15 L5.0 -0.1 5.25 0.15 Q5.25 0.4 4.95 0.4 L4.7 0.15 M2.75 3.35 L2.9 3.55 2.55 3.9 2.4 3.65 Q2.4 3.35 2.75 3.35 M0.25 0.75 Q-0.15 0.75 -0.15 0.35 -0.15 -0.4 0.4 -0.4 0.8 -0.4 0.8 0.1 0.8 0.75 0.25 0.75 M-10.7 -4.05 L-10.3 -4.45 -10.1 -4.25 -10.55 -3.85 -10.7 -4.05 M-10.25 -5.55 Q-10.25 -5.8 -9.85 -5.8 L-9.7 -5.6 Q-9.7 -5.3 -10.0 -5.3 L-10.2 -5.35 -10.25 -5.55 M-1.3 -10.65 Q-0.9 -10.65 -0.9 -10.15 -0.9 -9.9 -1.2 -9.9 -1.6 -9.9 -1.6 -10.3 L-1.3 -10.65 M-4.65 -10.5 Q-5.35 -10.5 -5.4 -11.2 -5.4 -12.05 -4.3 -12.05 -3.55 -12.05 -3.55 -11.35 -3.55 -10.5 -4.65 -10.5 M-3.05 -4.8 Q-3.05 -4.4 -3.4 -4.4 -3.8 -4.4 -3.8 -4.75 -3.8 -5.2 -3.3 -5.2 L-3.05 -4.8 M-6.85 0.75 Q-6.85 1.65 -7.85 1.65 -8.3 1.65 -8.3 1.3 -8.3 0.4 -7.1 0.4 -6.85 0.4 -6.85 0.75 M-9.0 2.65 L-9.45 2.9 -9.5 2.7 Q-9.5 2.4 -9.05 2.5 L-9.0 2.65 M-10.3 3.0 Q-10.3 3.25 -10.6 3.25 L-10.85 3.05 -10.55 2.8 -10.3 3.0" fill="#000000" fill-rule="evenodd" stroke="none"/>
  </g>
</svg>
