<?xml version="1.0" encoding="UTF-8" standalone="no"?>
<svg xmlns:ffdec="https://www.free-decompiler.com/flash" xmlns:xlink="http://www.w3.org/1999/xlink" ffdec:objectType="shape" height="85.5px" width="102.75px" xmlns="http://www.w3.org/2000/svg">
  <g transform="matrix(5.0, 0.0, 0.0, 5.0, 53.75, 60.25)">
    <path d="M-10.4 -4.1 L-10.65 -3.75 -10.75 -3.9 -10.5 -4.15 -10.4 -4.1 M-1.35 -10.45 Q-0.85 -10.45 -0.8 -10.05 -0.8 -9.8 -1.05 -9.8 L-1.6 -10.15 -1.35 -10.45 M-3.9 -12.05 Q-3.25 -12.05 -3.25 -11.4 -3.25 -10.8 -3.85 -10.8 -4.8 -10.8 -4.8 -11.55 -4.8 -12.05 -3.9 -12.05 M-9.8 -5.65 L-9.85 -5.5 -10.05 -5.5 -10.1 -5.65 -9.95 -5.8 -9.8 -5.65 M-3.15 -4.65 Q-3.15 -4.15 -3.7 -4.15 -4.05 -4.15 -4.05 -4.45 -4.05 -5.05 -3.5 -5.05 -3.15 -5.05 -3.15 -4.65 M-6.75 0.55 Q-6.75 1.5 -7.6 1.5 L-7.9 1.05 Q-7.9 0.3 -7.0 0.3 L-6.75 0.55 M-9.05 2.65 L-9.25 2.85 -9.4 2.8 -9.45 2.55 -9.25 2.45 -9.05 2.65 M9.55 5.05 L9.35 4.95 9.35 4.7 9.6 4.6 9.8 4.8 9.75 5.0 9.55 5.05 M0.2 0.65 Q-0.25 0.65 -0.25 0.15 -0.25 -0.45 0.35 -0.45 0.7 -0.45 0.7 0.0 0.7 0.65 0.2 0.65 M5.05 0.0 Q5.25 0.0 5.25 0.25 L5.0 0.5 4.75 0.25 5.05 0.0" fill="#000000" fill-rule="evenodd" stroke="none"/>
  </g>
</svg>
