<?xml version="1.0" encoding="UTF-8" standalone="no"?>
<svg xmlns:ffdec="https://www.free-decompiler.com/flash" xmlns:xlink="http://www.w3.org/1999/xlink" ffdec:objectType="shape" height="307px" width="307px" viewBox="0 0 61.4 61.4" xmlns="http://www.w3.org/2000/svg">
  <g transform="matrix(1.0, 0.0, 0.0, 1.0, 30.7, 30.7)">
    <path d="M2.35 -27.3 Q2.75 -25.35 2.75 -22.5 2.75 -19.7 2.35 -17.8 1.65 -13.85 0.0 -14.35 -1.6 -13.85 -2.35 -17.7 L-2.4 -17.75 Q-2.75 -19.7 -2.75 -22.5 -2.75 -25.3 -2.4 -27.25 L-2.35 -27.35 Q-1.6 -31.15 0.0 -30.6 1.65 -31.2 2.35 -27.3 M0.05 -26.55 L0.0 -26.75 -0.05 -26.5 -0.05 -26.55 -0.35 -22.5 -0.05 -18.55 0.0 -18.3 0.05 -18.5 0.05 -18.55 0.35 -22.5 0.05 -26.55 M15.3 -26.5 Q17.0 -26.2 15.7 -22.45 L15.7 -22.5 Q15.05 -20.55 13.65 -18.1 12.25 -15.7 10.95 -14.25 8.35 -11.2 7.2 -12.45 5.55 -12.8 6.85 -16.55 L6.8 -16.6 Q7.45 -18.45 8.9 -20.85 10.25 -23.3 11.6 -24.8 L11.65 -24.85 Q14.2 -27.8 15.3 -26.5 M16.1 -9.25 Q17.65 -9.75 19.7 -10.95 21.75 -12.15 23.05 -13.25 L23.2 -13.4 23.0 -13.3 Q21.4 -12.75 19.35 -11.55 17.3 -10.4 16.05 -9.3 L15.85 -9.15 16.05 -9.2 16.1 -9.25 M13.25 -23.0 L13.25 -23.05 Q12.15 -21.75 10.95 -19.7 L9.25 -16.1 9.15 -15.85 9.3 -16.0 9.3 -16.05 11.6 -19.3 Q12.75 -21.4 13.3 -23.0 L13.35 -23.0 13.4 -23.2 13.25 -23.0 M14.2 -10.9 L14.2 -10.95 Q15.7 -12.25 18.15 -13.6 20.55 -15.0 22.45 -15.7 L22.5 -15.7 Q26.2 -16.95 26.55 -15.3 27.8 -14.15 24.85 -11.6 L24.85 -11.65 20.9 -8.85 Q18.45 -7.5 16.6 -6.85 12.8 -5.5 12.5 -7.2 11.2 -8.3 14.2 -10.9 M17.75 -2.4 L22.5 -2.75 27.3 -2.4 27.35 -2.35 Q31.15 -1.6 30.65 0.0 31.2 1.65 27.3 2.35 L27.35 2.35 22.5 2.75 17.8 2.35 Q13.85 1.65 14.4 0.0 13.85 -1.6 17.75 -2.35 L17.75 -2.4 M18.55 -0.05 L18.3 0.0 18.55 0.05 18.6 0.05 22.55 0.35 26.55 0.05 26.6 0.05 26.75 0.0 26.55 -0.05 26.6 -0.05 22.55 -0.35 18.55 -0.05 M24.85 11.6 L24.9 11.65 Q27.8 14.2 26.55 15.3 26.2 17.0 22.5 15.7 20.55 15.05 18.15 13.65 L14.25 10.95 Q11.2 8.35 12.5 7.2 12.8 5.55 16.55 6.85 L16.6 6.8 Q18.45 7.45 20.9 8.9 L24.85 11.6 M23.05 13.35 L23.2 13.4 23.0 13.25 23.05 13.25 Q21.75 12.15 19.7 10.95 17.65 9.8 16.1 9.25 L15.9 9.15 16.05 9.3 16.1 9.3 19.35 11.6 Q21.4 12.75 23.0 13.3 L23.05 13.35 M7.2 12.5 Q8.3 11.2 10.95 14.2 12.25 15.7 13.65 18.15 L15.7 22.45 15.75 22.5 Q16.95 26.2 15.3 26.55 14.15 27.8 11.6 24.85 L11.65 24.85 Q10.3 23.3 8.9 20.9 7.5 18.45 6.85 16.6 5.5 12.8 7.2 12.5 M0.05 18.55 L0.05 18.3 0.0 18.55 0.0 18.6 Q-0.35 20.2 -0.35 22.55 -0.35 24.9 0.0 26.55 L0.0 26.6 0.05 26.75 0.05 26.55 0.05 26.6 0.35 22.55 0.05 18.55 M9.35 16.05 L9.15 15.85 9.25 16.05 9.25 16.1 Q9.75 17.65 10.95 19.7 12.15 21.75 13.25 23.05 L13.3 23.05 13.4 23.2 13.35 23.0 Q12.75 21.4 11.55 19.35 L9.35 16.05 M2.4 17.75 Q2.75 19.7 2.75 22.5 2.75 25.3 2.4 27.3 L2.4 27.35 Q1.6 31.15 0.0 30.65 -1.65 31.2 -2.35 27.3 L-2.3 27.35 Q-2.75 25.35 -2.75 22.5 -2.75 19.7 -2.35 17.8 -1.65 13.85 0.0 14.4 1.6 13.85 2.4 17.75 M-11.6 -24.8 L-11.65 -24.8 Q-10.3 -23.3 -8.85 -20.85 -7.5 -18.45 -6.85 -16.6 -5.5 -12.8 -7.2 -12.45 -8.3 -11.2 -10.9 -14.2 L-10.95 -14.2 Q-12.25 -15.7 -13.6 -18.1 L-15.7 -22.4 -15.7 -22.5 Q-16.95 -26.2 -15.3 -26.5 -14.15 -27.8 -11.6 -24.8 M-23.0 -13.2 L-23.05 -13.25 Q-21.75 -12.15 -19.7 -10.95 -17.65 -9.8 -16.1 -9.2 L-15.85 -9.15 -16.0 -9.25 -16.05 -9.3 Q-17.3 -10.4 -19.3 -11.55 -21.4 -12.75 -23.0 -13.3 L-23.2 -13.35 -23.0 -13.2 M-22.45 -15.65 L-22.5 -15.65 Q-20.55 -15.05 -18.1 -13.6 -15.7 -12.25 -14.25 -10.9 -11.2 -8.35 -12.45 -7.2 -12.8 -5.55 -16.55 -6.8 L-16.6 -6.8 Q-18.45 -7.45 -20.85 -8.85 -23.3 -10.25 -24.8 -11.55 L-24.85 -11.6 Q-27.8 -14.2 -26.5 -15.3 -26.2 -17.0 -22.45 -15.65 M-22.5 -2.75 L-17.8 -2.35 Q-13.85 -1.65 -14.35 0.0 -13.85 1.6 -17.7 2.4 L-17.75 2.4 -22.5 2.75 -27.25 2.4 -27.35 2.4 Q-31.15 1.6 -30.6 0.0 -31.2 -1.65 -27.3 -2.35 L-27.3 -2.3 -22.5 -2.75 M-16.05 9.35 L-15.85 9.15 -16.05 9.25 -16.1 9.25 Q-17.65 9.75 -19.7 10.95 L-23.0 13.25 -23.05 13.3 -23.15 13.4 -23.0 13.35 Q-21.4 12.75 -19.3 11.55 L-16.05 9.35 M-9.15 -15.85 L-9.2 -16.05 -9.25 -16.1 Q-9.75 -17.65 -10.95 -19.7 -12.15 -21.75 -13.25 -23.0 L-13.25 -23.05 -13.4 -23.15 -13.3 -23.0 -11.55 -19.3 Q-10.4 -17.3 -9.3 -16.05 L-9.15 -15.85 M-22.5 -0.35 L-26.55 0.0 -26.75 0.05 -26.5 0.05 -26.55 0.05 -22.5 0.35 -18.55 0.05 -18.3 0.05 -18.5 0.0 -18.55 0.0 -22.5 -0.35 M-14.2 10.95 Q-15.7 12.25 -18.1 13.65 -20.55 15.0 -22.4 15.7 L-22.5 15.75 Q-26.2 16.95 -26.5 15.3 -27.8 14.15 -24.8 11.6 L-24.8 11.65 Q-23.3 10.3 -20.85 8.9 -18.45 7.5 -16.6 6.85 -12.8 5.5 -12.45 7.2 -11.2 8.3 -14.2 10.95 M-10.9 14.25 Q-8.35 11.2 -7.2 12.5 -5.55 12.8 -6.8 16.55 L-6.8 16.6 Q-7.45 18.45 -8.85 20.9 L-11.55 24.85 -11.6 24.9 Q-14.2 27.8 -15.3 26.55 -17.0 26.2 -15.65 22.5 -15.05 20.55 -13.6 18.15 -12.25 15.7 -10.9 14.25 M-13.3 23.05 L-13.35 23.2 -13.2 23.0 -13.25 23.05 Q-12.15 21.75 -10.95 19.7 -9.8 17.65 -9.2 16.1 L-9.15 15.9 -9.25 16.05 -9.3 16.1 Q-10.4 17.3 -11.55 19.35 -12.75 21.4 -13.3 23.0 L-13.3 23.05" fill="#ffffff" fill-opacity="0.3019608" fill-rule="evenodd" stroke="none"/>
    <path d="M0.05 -26.55 L0.35 -22.5 0.05 -18.55 0.05 -18.5 0.0 -18.3 -0.05 -18.55 -0.35 -22.5 -0.05 -26.55 -0.05 -26.5 0.0 -26.75 0.05 -26.55 M13.25 -23.0 L13.4 -23.2 13.35 -23.0 13.3 -23.0 Q12.75 -21.4 11.6 -19.3 L9.3 -16.05 9.3 -16.0 9.15 -15.85 9.25 -16.1 10.95 -19.7 Q12.15 -21.75 13.25 -23.05 L13.25 -23.0 M16.1 -9.25 L16.05 -9.2 15.85 -9.15 16.05 -9.3 Q17.3 -10.4 19.35 -11.55 21.4 -12.75 23.0 -13.3 L23.2 -13.4 23.05 -13.25 Q21.75 -12.15 19.7 -10.95 17.65 -9.75 16.1 -9.25 M18.55 -0.05 L22.55 -0.35 26.6 -0.05 26.55 -0.05 26.75 0.0 26.6 0.05 26.55 0.05 22.55 0.35 18.6 0.05 18.55 0.05 18.3 0.0 18.55 -0.05 M23.05 13.35 L23.0 13.3 Q21.4 12.75 19.35 11.6 L16.1 9.3 16.05 9.3 15.9 9.15 16.1 9.25 Q17.65 9.8 19.7 10.95 21.75 12.15 23.05 13.25 L23.0 13.25 23.2 13.4 23.05 13.35 M9.35 16.05 L11.55 19.35 Q12.75 21.4 13.35 23.0 L13.4 23.2 13.3 23.05 13.25 23.05 Q12.15 21.75 10.95 19.7 9.75 17.65 9.25 16.1 L9.25 16.05 9.15 15.85 9.35 16.05 M0.05 18.55 L0.35 22.55 0.05 26.6 0.05 26.55 0.05 26.75 0.0 26.6 0.0 26.55 Q-0.35 24.9 -0.35 22.55 -0.35 20.2 0.0 18.6 L0.0 18.55 0.05 18.3 0.05 18.55 M-23.0 -13.2 L-23.2 -13.35 -23.0 -13.3 Q-21.4 -12.75 -19.3 -11.55 -17.3 -10.4 -16.05 -9.3 L-16.0 -9.25 -15.85 -9.15 -16.1 -9.2 Q-17.65 -9.8 -19.7 -10.95 -21.75 -12.15 -23.05 -13.25 L-23.0 -13.2 M-22.5 -0.35 L-18.55 0.0 -18.5 0.0 -18.3 0.05 -18.55 0.05 -22.5 0.35 -26.55 0.05 -26.5 0.05 -26.75 0.05 -26.55 0.0 -22.5 -0.35 M-9.15 -15.85 L-9.3 -16.05 Q-10.4 -17.3 -11.55 -19.3 L-13.3 -23.0 -13.4 -23.15 -13.25 -23.05 -13.25 -23.0 Q-12.15 -21.75 -10.95 -19.7 -9.75 -17.65 -9.25 -16.1 L-9.2 -16.05 -9.15 -15.85 M-16.05 9.35 L-19.3 11.55 Q-21.4 12.75 -23.0 13.35 L-23.15 13.4 -23.05 13.3 -23.0 13.25 -19.7 10.95 Q-17.65 9.75 -16.1 9.25 L-16.05 9.25 -15.85 9.15 -16.05 9.35 M-13.3 23.05 L-13.3 23.0 Q-12.75 21.4 -11.55 19.35 -10.4 17.3 -9.3 16.1 L-9.25 16.05 -9.15 15.9 -9.2 16.1 Q-9.8 17.65 -10.95 19.7 -12.15 21.75 -13.25 23.05 L-13.2 23.0 -13.35 23.2 -13.3 23.05" fill="#ffffff" fill-rule="evenodd" stroke="none"/>
    <path d="M2.4 -16.05 Q3.6 -18.25 4.75 -17.6 6.1 -17.6 6.0 -15.05 L5.55 -12.0 4.45 -9.2 Q3.2 -6.95 2.05 -7.6 0.75 -7.6 0.8 -10.15 0.8 -11.45 1.3 -13.15 1.75 -14.9 2.35 -16.0 L2.4 -16.05 M4.05 -15.1 Q3.55 -14.15 3.15 -12.65 2.75 -11.2 2.75 -10.15 L2.75 -10.0 2.8 -10.1 2.8 -10.15 3.7 -12.5 Q4.1 -14.0 4.1 -15.05 L4.15 -15.1 4.1 -15.2 4.05 -15.05 4.05 -15.1 M10.1 -12.75 Q12.25 -14.05 12.9 -12.9 14.05 -12.25 12.75 -10.05 L12.75 -10.1 Q12.05 -8.95 10.8 -7.7 L8.45 -5.8 Q6.25 -4.4 5.6 -5.6 4.45 -6.25 5.8 -8.45 L7.7 -10.8 10.05 -12.75 10.1 -12.75 M7.5 -7.45 L9.45 -9.0 11.1 -11.05 11.15 -11.15 11.0 -11.05 11.05 -11.1 9.05 -9.45 7.4 -7.45 7.35 -7.35 7.45 -7.4 7.5 -7.45 M9.2 -4.45 Q10.3 -5.05 12.05 -5.5 L15.05 -6.0 15.1 -6.0 Q17.6 -6.05 17.6 -4.75 18.25 -3.6 16.05 -2.35 L16.05 -2.4 Q14.9 -1.75 13.2 -1.25 L10.2 -0.8 Q7.6 -0.7 7.6 -2.05 6.95 -3.2 9.2 -4.45 M15.1 -4.05 L15.15 -4.05 15.25 -4.1 15.1 -4.1 12.55 -3.65 10.15 -2.8 10.05 -2.7 10.15 -2.7 10.2 -2.75 12.7 -3.1 Q14.15 -3.5 15.1 -4.05 M16.1 2.4 Q18.25 3.6 17.6 4.75 17.6 6.1 15.1 6.0 L12.05 5.55 Q10.3 5.05 9.25 4.45 6.95 3.2 7.6 2.05 7.6 0.75 10.15 0.8 L10.2 0.8 13.2 1.3 Q14.9 1.75 16.05 2.35 L16.1 2.4 M11.05 11.1 L11.15 11.15 11.1 11.0 11.1 11.05 9.45 9.05 Q8.4 7.95 7.5 7.4 L7.35 7.35 7.45 7.45 7.45 7.5 9.05 9.45 11.05 11.1 M10.15 2.8 L12.55 3.7 15.1 4.1 15.1 4.15 15.25 4.1 15.1 4.05 Q14.15 3.55 12.7 3.15 L10.15 2.75 10.0 2.75 10.15 2.8 M12.8 10.1 Q14.05 12.25 12.9 12.9 12.25 14.05 10.1 12.75 L7.7 10.8 5.8 8.45 Q4.4 6.25 5.6 5.6 6.25 4.45 8.45 5.8 L10.8 7.7 Q12.05 8.95 12.75 10.05 L12.8 10.1 M2.8 10.15 L2.75 10.05 2.75 10.15 2.75 10.2 Q2.75 11.25 3.15 12.7 3.5 14.15 4.05 15.1 L4.1 15.15 4.15 15.25 4.15 15.1 3.7 12.55 2.8 10.15 M2.05 7.6 Q3.2 6.95 4.45 9.2 L5.55 12.05 Q6.0 13.75 6.05 15.05 L6.05 15.1 Q6.05 17.6 4.75 17.6 3.6 18.25 2.4 16.05 1.75 14.9 1.3 13.2 0.85 11.45 0.85 10.2 0.7 7.6 2.05 7.6 M-10.1 -12.7 Q-8.95 -12.05 -7.7 -10.8 L-5.8 -8.45 Q-4.4 -6.25 -5.6 -5.6 -6.25 -4.45 -8.45 -5.75 L-10.8 -7.7 Q-12.05 -8.95 -12.75 -10.05 L-12.75 -10.1 Q-14.05 -12.25 -12.9 -12.9 -12.25 -14.05 -10.05 -12.7 L-10.1 -12.7 M-6.0 -15.1 Q-6.05 -17.6 -4.75 -17.6 -3.6 -18.25 -2.35 -16.0 L-2.4 -16.05 Q-1.75 -14.9 -1.25 -13.15 -0.85 -11.45 -0.8 -10.15 -0.7 -7.6 -2.05 -7.6 -3.2 -6.95 -4.45 -9.15 L-4.45 -9.2 Q-5.05 -10.3 -5.5 -12.0 -6.0 -13.75 -6.0 -15.05 L-6.0 -15.1 M-11.15 -11.1 L-11.05 -11.0 -11.1 -11.0 -9.45 -9.0 -7.45 -7.4 -7.35 -7.3 -7.4 -7.45 -7.45 -7.45 -9.05 -9.45 Q-10.1 -10.5 -11.05 -11.05 L-11.15 -11.1 M-3.1 -12.7 Q-3.5 -14.15 -4.05 -15.1 L-4.1 -15.2 -4.1 -15.1 -3.65 -12.55 -2.8 -10.15 -2.7 -10.0 -2.7 -10.15 -2.75 -10.2 Q-2.75 -11.25 -3.1 -12.7 M-16.05 -2.35 Q-18.25 -3.6 -17.6 -4.75 -17.6 -6.1 -15.05 -6.0 L-12.0 -5.5 Q-10.3 -5.05 -9.2 -4.4 -6.95 -3.2 -7.6 -2.05 -7.6 -0.75 -10.15 -0.8 L-10.15 -0.75 -13.15 -1.25 -16.0 -2.35 -16.05 -2.35 M-15.05 -4.05 L-15.1 -4.05 Q-14.15 -3.55 -12.65 -3.15 L-10.15 -2.7 -10.0 -2.7 -10.1 -2.75 -10.15 -2.8 -12.5 -3.7 -15.05 -4.1 -15.1 -4.1 -15.2 -4.1 -15.05 -4.05 M-5.6 5.6 Q-4.45 6.25 -5.75 8.45 -6.45 9.55 -7.7 10.8 L-10.05 12.75 -10.1 12.8 -12.9 12.9 Q-14.05 12.25 -12.7 10.1 -12.05 8.95 -10.8 7.7 L-8.45 5.8 Q-6.25 4.4 -5.6 5.6 M-9.2 4.45 L-12.0 5.55 -15.05 6.05 -15.1 6.05 Q-17.6 6.05 -17.6 4.75 -18.25 3.6 -16.0 2.4 L-16.05 2.4 Q-14.9 1.75 -13.15 1.3 L-10.15 0.85 Q-7.6 0.7 -7.6 2.05 -6.95 3.2 -9.15 4.45 L-9.2 4.45 M-2.7 10.15 L-2.7 10.0 -2.75 10.15 -2.8 10.15 -3.7 12.55 Q-4.1 14.0 -4.1 15.1 L-4.1 15.2 -4.05 15.1 Q-3.55 14.15 -3.15 12.7 -2.75 11.2 -2.7 10.15 M-7.4 7.5 L-7.3 7.35 -7.45 7.45 -9.45 9.05 -11.05 11.05 -11.1 11.15 -11.0 11.1 -9.0 9.45 -7.4 7.5 M-2.05 7.6 Q-0.75 7.6 -0.8 10.15 L-0.75 10.2 -1.25 13.2 Q-1.75 14.9 -2.35 16.05 L-2.35 16.1 Q-3.6 18.25 -4.75 17.6 -6.1 17.6 -6.0 15.1 -6.0 13.75 -5.5 12.05 -5.05 10.3 -4.4 9.25 -3.2 6.95 -2.05 7.6 M-10.15 2.75 L-10.2 2.75 -12.7 3.15 Q-14.15 3.5 -15.1 4.05 L-15.1 4.1 -15.2 4.15 -15.1 4.15 -12.55 3.7 -10.15 2.8 -10.0 2.75 -10.15 2.75" fill="#ffffff" fill-opacity="0.3019608" fill-rule="evenodd" stroke="none"/>
    <path d="M4.05 -15.1 L4.05 -15.05 4.1 -15.2 4.15 -15.1 4.1 -15.05 Q4.1 -14.0 3.7 -12.5 L2.8 -10.15 2.8 -10.1 2.75 -10.0 2.75 -10.15 Q2.75 -11.2 3.15 -12.65 3.55 -14.15 4.05 -15.1 M7.5 -7.45 L7.45 -7.4 7.35 -7.35 7.4 -7.45 9.05 -9.45 11.05 -11.1 11.0 -11.05 11.15 -11.15 11.1 -11.05 9.45 -9.0 7.5 -7.45 M15.1 -4.05 Q14.15 -3.5 12.7 -3.1 L10.2 -2.75 10.15 -2.7 10.05 -2.7 10.15 -2.8 12.55 -3.65 15.1 -4.1 15.25 -4.1 15.15 -4.05 15.1 -4.05 M10.15 2.8 L10.0 2.75 10.15 2.75 12.7 3.15 Q14.15 3.55 15.1 4.05 L15.25 4.1 15.1 4.15 15.1 4.1 12.55 3.7 10.15 2.8 M11.05 11.1 L9.05 9.45 7.45 7.5 7.45 7.45 7.35 7.35 7.5 7.4 Q8.4 7.95 9.45 9.05 L11.1 11.05 11.1 11.0 11.15 11.15 11.05 11.1 M2.8 10.15 L3.7 12.55 4.15 15.1 4.15 15.25 4.1 15.15 4.05 15.1 Q3.5 14.15 3.15 12.7 2.75 11.25 2.75 10.2 L2.75 10.15 2.75 10.05 2.8 10.15 M-3.1 -12.7 Q-2.75 -11.25 -2.75 -10.2 L-2.7 -10.15 -2.7 -10.0 -2.8 -10.15 -3.65 -12.55 -4.1 -15.1 -4.1 -15.2 -4.05 -15.1 Q-3.5 -14.15 -3.1 -12.7 M-11.15 -11.1 L-11.05 -11.05 Q-10.1 -10.5 -9.05 -9.45 L-7.45 -7.45 -7.4 -7.45 -7.35 -7.3 -7.45 -7.4 -9.45 -9.0 -11.1 -11.0 -11.05 -11.0 -11.15 -11.1 M-15.05 -4.05 L-15.2 -4.1 -15.1 -4.1 -15.05 -4.1 -12.5 -3.7 -10.15 -2.8 -10.1 -2.75 -10.0 -2.7 -10.15 -2.7 -12.65 -3.15 Q-14.15 -3.55 -15.1 -4.05 L-15.05 -4.05 M-7.4 7.5 L-9.0 9.45 -11.0 11.1 -11.1 11.15 -11.05 11.05 -9.45 9.05 -7.45 7.45 -7.3 7.35 -7.4 7.5 M-2.7 10.15 Q-2.75 11.2 -3.15 12.7 -3.55 14.15 -4.05 15.1 L-4.1 15.2 -4.1 15.1 Q-4.1 14.0 -3.7 12.55 L-2.8 10.15 -2.75 10.15 -2.7 10.0 -2.7 10.15 M-10.15 2.75 L-10.0 2.75 -10.15 2.8 -12.55 3.7 -15.1 4.15 -15.2 4.15 -15.1 4.1 -15.1 4.05 Q-14.15 3.5 -12.7 3.15 L-10.2 2.75 -10.15 2.75" fill="#ffffff" fill-rule="evenodd" stroke="none"/>
  </g>
</svg>
