<?xml version="1.0" encoding="UTF-8" standalone="no"?>
<svg xmlns:ffdec="https://www.free-decompiler.com/flash" xmlns:xlink="http://www.w3.org/1999/xlink" ffdec:objectType="shape" height="526.25px" width="526.25px" viewBox="0 0 105.25 105.25" xmlns="http://www.w3.org/2000/svg">
  <g transform="matrix(1.0, 0.0, 0.0, 1.0, 52.6, 52.6)">
    <path d="M23.4 -40.55 L23.4 -40.6 20.55 -35.75 17.85 -30.9 17.7 -30.65 17.85 -30.9 17.85 -30.95 20.65 -35.7 23.4 -40.55 23.45 -40.6 23.55 -40.8 23.4 -40.55 M24.25 -41.3 L20.95 -35.5 17.65 -29.85 Q14.8 -25.15 14.95 -25.9 14.35 -25.4 17.0 -30.15 L20.25 -35.9 23.6 -41.6 23.65 -41.7 Q26.4 -46.25 26.25 -45.45 26.85 -46.0 24.25 -41.3 M0.0 -47.1 L0.0 -46.85 -0.05 -41.2 0.0 -35.7 0.0 -35.35 0.05 -35.65 0.05 -35.7 0.1 -41.2 0.05 -46.85 0.0 -47.1 M0.4 -41.25 L0.35 -34.7 Q0.25 -29.2 0.0 -29.95 -0.25 -29.2 -0.35 -34.6 L-0.35 -34.65 -0.4 -41.25 -0.35 -47.85 -0.35 -47.95 Q-0.25 -53.3 0.0 -52.5 0.25 -53.3 0.35 -47.95 L0.4 -41.25 M30.6 -17.65 L30.9 -17.8 30.95 -17.8 35.7 -20.55 40.55 -23.35 40.6 -23.4 40.8 -23.5 40.5 -23.35 40.6 -23.4 35.65 -20.6 30.9 -17.8 30.6 -17.65 M25.95 -14.95 L29.8 -17.6 29.85 -17.6 35.5 -20.95 41.25 -24.2 41.35 -24.25 Q46.0 -26.85 45.5 -26.25 46.25 -26.4 41.65 -23.6 L41.7 -23.65 35.9 -20.25 30.2 -17.0 Q25.4 -14.35 25.95 -14.95 M34.65 -0.35 L41.25 -0.4 47.9 -0.35 48.0 -0.35 52.55 0.0 47.95 0.35 41.25 0.4 34.7 0.35 30.0 0.0 34.65 -0.35 M40.6 23.45 L40.85 23.55 40.55 23.4 40.65 23.4 35.75 20.55 30.95 17.85 30.65 17.7 30.9 17.85 30.95 17.85 35.7 20.65 40.6 23.4 40.6 23.45 M41.25 0.1 L46.85 0.05 46.9 0.05 47.15 0.0 46.9 0.0 41.25 -0.05 35.7 0.0 35.4 0.0 35.7 0.05 35.75 0.05 41.25 0.1 M41.35 24.25 L35.5 20.95 29.85 17.65 Q25.15 14.8 25.95 14.95 25.4 14.35 30.15 17.0 L30.2 17.0 35.9 20.25 41.65 23.6 41.7 23.65 Q46.25 26.4 45.5 26.25 46.0 26.85 41.3 24.25 L41.35 24.25 M17.65 29.85 L20.95 35.5 24.25 41.25 24.3 41.35 Q26.85 46.0 26.25 45.5 26.4 46.25 23.65 41.65 L23.65 41.7 20.25 35.9 17.05 30.2 Q14.35 25.4 14.95 25.95 14.8 25.15 17.6 29.8 L17.65 29.85 M17.65 30.6 L17.8 30.9 17.85 30.95 20.55 35.7 23.4 40.55 23.4 40.6 23.55 40.8 23.4 40.5 23.45 40.6 20.65 35.65 17.85 30.9 17.65 30.6 M0.35 34.65 L0.4 41.25 0.35 47.9 0.35 48.0 Q0.25 53.3 0.0 52.55 -0.25 53.3 -0.35 47.95 L-0.4 41.25 -0.35 34.7 Q-0.25 29.2 0.0 30.0 0.25 29.2 0.35 34.65 M-40.55 -23.4 L-40.6 -23.4 -40.8 -23.55 -40.55 -23.35 -40.6 -23.4 -35.75 -20.55 -30.9 -17.8 -30.65 -17.65 -30.9 -17.8 -30.95 -17.85 -35.7 -20.65 -40.55 -23.4 M0.0 46.9 L0.05 41.25 0.0 35.7 0.0 35.4 0.0 35.7 0.0 35.75 -0.05 41.25 0.0 46.85 0.0 46.9 0.0 47.15 0.0 46.9 M-41.7 -23.65 Q-46.25 -26.4 -45.45 -26.25 -46.0 -26.85 -41.3 -24.2 L-41.3 -24.25 -35.5 -20.95 -29.85 -17.6 Q-25.15 -14.8 -25.9 -14.95 -25.4 -14.35 -30.15 -16.95 L-30.15 -17.0 -35.9 -20.25 -41.6 -23.6 -41.7 -23.65 M-41.25 -0.4 L-34.7 -0.35 -29.95 0.0 -34.6 0.35 -34.65 0.35 -41.25 0.4 -47.85 0.35 -47.95 0.35 -52.5 0.0 -47.95 -0.35 -41.25 -0.4 M-17.8 -30.85 L-17.8 -30.9 -20.55 -35.7 -23.35 -40.55 -23.4 -40.55 -23.5 -40.8 -23.35 -40.5 -23.4 -40.55 -20.6 -35.65 -17.8 -30.9 -17.65 -30.6 -17.8 -30.85 M-46.85 0.0 L-47.1 0.0 -46.85 0.0 -41.2 0.05 -35.7 0.0 -35.35 0.0 -35.65 0.0 -35.7 0.0 -41.2 -0.05 -46.85 0.0 M-17.6 -29.8 L-20.95 -35.5 -24.2 -41.25 -24.25 -41.35 Q-26.85 -46.0 -26.25 -45.45 -26.4 -46.25 -23.6 -41.65 L-23.65 -41.65 -20.25 -35.9 -17.0 -30.2 Q-14.35 -25.4 -14.95 -25.9 -14.8 -25.15 -17.6 -29.75 L-17.6 -29.8 M-35.65 20.65 L-30.9 17.85 -30.6 17.65 -30.85 17.8 -30.9 17.85 -35.7 20.55 -40.55 23.4 -40.8 23.55 -40.5 23.4 -40.55 23.45 -35.65 20.65 M-25.9 14.95 Q-25.15 14.8 -29.75 17.6 L-29.8 17.65 -35.5 20.95 -41.25 24.25 -41.35 24.3 Q-46.0 26.85 -45.45 26.25 -46.25 26.4 -41.65 23.65 L-35.9 20.25 -30.2 17.05 Q-25.4 14.35 -25.9 14.95 M-23.4 40.6 L-23.55 40.85 -23.35 40.55 -23.4 40.65 -20.55 35.75 -17.8 30.95 -17.65 30.65 -17.8 30.9 -17.85 30.95 -20.65 35.7 -23.4 40.6 M-26.25 45.5 Q-26.85 46.0 -24.2 41.3 L-24.25 41.35 -20.95 35.5 -17.6 29.85 Q-14.8 25.15 -14.95 25.95 -14.35 25.4 -16.95 30.15 L-17.0 30.2 -20.25 35.9 -23.6 41.65 -23.65 41.7 Q-26.4 46.25 -26.25 45.5" fill="#ffffff" fill-opacity="0.3019608" fill-rule="evenodd" stroke="none"/>
    <path d="M23.4 -40.55 L23.55 -40.8 23.45 -40.6 23.4 -40.55 20.65 -35.7 17.85 -30.95 17.85 -30.9 17.7 -30.65 17.85 -30.9 20.55 -35.75 23.4 -40.6 23.4 -40.55 M0.0 -47.1 L0.05 -46.85 0.1 -41.2 0.05 -35.7 0.05 -35.65 0.0 -35.35 0.0 -35.7 -0.05 -41.2 0.0 -46.85 0.0 -47.1 M30.6 -17.65 L30.9 -17.8 35.65 -20.6 40.6 -23.4 40.5 -23.35 40.8 -23.5 40.6 -23.4 40.55 -23.35 35.7 -20.55 30.95 -17.8 30.9 -17.8 30.6 -17.65 M41.25 0.1 L35.75 0.05 35.7 0.05 35.4 0.0 35.7 0.0 41.25 -0.05 46.9 0.0 47.15 0.0 46.9 0.05 46.85 0.05 41.25 0.1 M40.6 23.45 L40.6 23.4 35.7 20.65 30.95 17.85 30.9 17.85 30.65 17.7 30.95 17.85 35.75 20.55 40.65 23.4 40.55 23.4 40.85 23.55 40.6 23.45 M17.65 30.6 L17.85 30.9 20.65 35.65 23.45 40.6 23.4 40.5 23.55 40.8 23.4 40.6 23.4 40.55 20.55 35.7 17.85 30.95 17.8 30.9 17.65 30.6 M0.0 46.9 L0.0 47.15 0.0 46.9 0.0 46.85 -0.05 41.25 0.0 35.75 0.0 35.7 0.0 35.4 0.0 35.7 0.05 41.25 0.0 46.9 M-40.55 -23.4 L-35.7 -20.65 -30.95 -17.85 -30.9 -17.8 -30.65 -17.65 -30.9 -17.8 -35.75 -20.55 -40.6 -23.4 -40.55 -23.35 -40.8 -23.55 -40.6 -23.4 -40.55 -23.4 M-46.85 0.0 L-41.2 -0.05 -35.7 0.0 -35.65 0.0 -35.35 0.0 -35.7 0.0 -41.2 0.05 -46.85 0.0 -47.1 0.0 -46.85 0.0 M-17.8 -30.85 L-17.65 -30.6 -17.8 -30.9 -20.6 -35.65 -23.4 -40.55 -23.35 -40.5 -23.5 -40.8 -23.4 -40.55 -23.35 -40.55 -20.55 -35.7 -17.8 -30.9 -17.8 -30.85 M-35.65 20.65 L-40.55 23.45 -40.5 23.4 -40.8 23.55 -40.55 23.4 -35.7 20.55 -30.9 17.85 -30.85 17.8 -30.6 17.65 -30.9 17.85 -35.65 20.65 M-23.4 40.6 L-20.65 35.7 -17.85 30.95 -17.8 30.9 -17.65 30.65 -17.8 30.95 -20.55 35.75 -23.4 40.65 -23.35 40.55 -23.55 40.85 -23.4 40.6" fill="#ffffff" fill-rule="evenodd" stroke="none"/>
    <path d="M7.95 -30.9 Q8.95 -34.35 9.1 -33.75 9.45 -34.2 8.6 -30.7 L7.5 -26.35 6.3 -22.1 Q5.25 -18.55 5.15 -19.1 4.75 -18.7 5.6 -22.2 L5.65 -22.25 6.7 -26.55 7.95 -30.85 7.95 -30.9 M16.7 -16.65 L16.75 -16.7 19.4 -19.25 22.0 -21.95 19.3 -19.35 16.7 -16.7 16.55 -16.5 16.7 -16.65 M8.15 -30.25 L8.1 -30.05 8.1 -30.1 7.05 -26.45 6.15 -22.85 6.1 -22.6 6.15 -22.8 6.15 -22.85 7.15 -26.4 8.1 -30.05 8.1 -30.1 8.15 -30.25 M16.0 -16.45 L19.1 -19.6 22.25 -22.75 22.3 -22.8 Q24.9 -25.25 24.75 -24.7 25.25 -24.9 22.8 -22.25 L22.8 -22.3 19.65 -19.05 16.5 -16.0 Q13.8 -13.45 14.0 -13.95 13.45 -13.8 15.95 -16.45 L16.0 -16.45 M30.0 -8.05 L26.4 -7.15 22.85 -6.15 22.65 -6.05 22.8 -6.1 22.85 -6.1 26.45 -7.05 30.0 -8.05 M30.05 -8.05 L30.1 -8.05 30.25 -8.1 30.05 -8.05 M22.15 -22.1 L22.0 -21.95 22.05 -22.0 22.15 -22.1 M22.1 -6.3 L26.35 -7.5 30.7 -8.6 30.75 -8.6 33.8 -9.05 Q34.35 -8.95 30.9 -7.9 L26.55 -6.7 22.3 -5.6 19.15 -5.1 Q18.55 -5.2 22.05 -6.25 L22.1 -6.3 M30.95 7.95 Q34.35 8.95 33.8 9.1 L30.75 8.6 26.35 7.5 22.1 6.3 Q18.55 5.25 19.15 5.15 L22.25 5.6 22.25 5.65 26.55 6.7 30.85 7.95 30.95 7.95 M22.0 22.0 L22.0 22.05 22.15 22.15 22.0 22.0 19.35 19.3 16.7 16.7 16.55 16.55 16.7 16.7 16.7 16.75 19.3 19.4 22.0 22.0 M22.8 6.15 L22.85 6.15 26.45 7.15 30.1 8.1 30.3 8.15 30.05 8.1 30.1 8.1 26.45 7.05 22.85 6.15 22.65 6.1 22.8 6.15 M22.8 22.3 Q25.25 24.9 24.75 24.75 24.9 25.25 22.3 22.8 L19.1 19.65 16.0 16.5 Q13.45 13.8 14.0 14.0 13.8 13.45 16.45 15.95 L16.5 16.0 19.65 19.1 22.75 22.25 22.8 22.3 M6.1 22.65 L6.15 22.8 6.15 22.85 7.05 26.45 8.1 30.1 8.15 30.25 8.1 30.1 8.1 30.05 7.15 26.4 6.15 22.85 6.1 22.65 M6.3 22.1 L7.5 26.35 8.6 30.7 8.6 30.75 Q9.4 34.2 9.1 33.8 8.95 34.35 7.95 30.9 L6.7 26.55 5.65 22.3 Q4.75 18.7 5.15 19.15 5.2 18.55 6.3 22.05 L6.3 22.1 M-8.6 -30.7 Q-9.4 -34.2 -9.05 -33.75 -8.95 -34.35 -7.9 -30.85 L-7.9 -30.9 -6.7 -26.55 -5.6 -22.25 Q-4.75 -18.7 -5.1 -19.1 -5.2 -18.55 -6.25 -22.05 L-6.3 -22.05 -7.5 -26.35 -8.6 -30.65 -8.6 -30.7 M-22.0 -22.0 L-22.1 -22.15 -21.95 -21.95 -22.0 -22.0 M-8.05 -30.05 L-7.15 -26.4 -6.15 -22.8 -6.05 -22.6 -6.1 -22.8 -6.1 -22.85 -7.05 -26.45 -8.05 -30.05 -8.05 -30.1 -8.1 -30.25 -8.05 -30.05 M-22.3 -22.75 L-19.05 -19.6 -16.0 -16.45 Q-13.45 -13.8 -13.95 -13.95 -13.8 -13.45 -16.45 -15.95 L-19.6 -19.05 -22.75 -22.25 -22.8 -22.3 Q-25.25 -24.9 -24.7 -24.7 -24.9 -25.25 -22.25 -22.75 L-22.3 -22.75 M-30.7 -8.6 L-26.35 -7.5 -22.1 -6.3 Q-18.55 -5.25 -19.1 -5.1 L-22.2 -5.6 -22.25 -5.6 -26.55 -6.7 -30.85 -7.9 -30.9 -7.9 Q-34.35 -8.95 -33.75 -9.05 L-30.7 -8.6 M-16.7 16.7 L-19.35 19.3 -22.0 22.0 -19.3 19.35 -16.7 16.7 -16.55 16.55 -16.7 16.7 M-16.7 -16.7 L-16.5 -16.55 -16.65 -16.7 -16.7 -16.7 -19.25 -19.35 -21.95 -22.0 -19.35 -19.3 -16.7 -16.7 M-26.4 -7.15 L-30.05 -8.1 -30.1 -8.1 -30.25 -8.1 -30.05 -8.05 -30.1 -8.05 -26.45 -7.05 -22.85 -6.1 -22.6 -6.05 -22.8 -6.15 -22.85 -6.15 -26.4 -7.15 M-15.95 16.5 L-19.05 19.65 -22.25 22.75 -22.3 22.8 -24.7 24.75 Q-25.25 24.9 -22.75 22.3 L-19.6 19.1 -16.45 16.0 Q-13.8 13.45 -13.95 14.0 -13.45 13.8 -15.95 16.45 L-15.95 16.5 M-6.1 22.85 L-6.05 22.65 -6.15 22.8 -6.15 22.85 -7.15 26.45 -8.1 30.1 -8.1 30.3 -8.05 30.05 -8.05 30.1 -7.05 26.45 -6.1 22.85 M-5.1 19.15 Q-4.75 18.7 -5.6 22.25 L-6.7 26.55 -7.9 30.85 -7.9 30.95 Q-8.95 34.35 -9.05 33.8 -9.45 34.2 -8.6 30.75 L-7.5 26.35 -6.3 22.1 Q-5.25 18.55 -5.1 19.15 M-22.8 6.15 L-22.6 6.1 -22.8 6.15 -22.85 6.15 -26.45 7.05 Q-28.6 7.6 -30.05 8.1 L-30.1 8.1 -30.25 8.15 -30.05 8.1 -26.4 7.15 -22.8 6.15 M-22.05 6.3 L-26.35 7.5 -30.65 8.6 -30.7 8.6 -33.75 9.1 Q-34.35 8.95 -30.85 7.95 L-30.9 7.95 -26.55 6.7 -22.25 5.65 Q-18.7 4.75 -19.1 5.15 -18.55 5.2 -22.05 6.3 M-22.0 22.0 L-22.15 22.15 -21.95 22.0 -22.0 22.0" fill="#ffffff" fill-opacity="0.3019608" fill-rule="evenodd" stroke="none"/>
    <path d="M8.15 -30.25 L8.1 -30.1 8.1 -30.05 7.15 -26.4 6.15 -22.85 6.15 -22.8 6.1 -22.6 6.15 -22.85 7.05 -26.45 8.1 -30.1 8.1 -30.05 8.15 -30.25 M16.7 -16.65 L16.55 -16.5 16.7 -16.7 19.3 -19.35 22.0 -21.95 19.4 -19.25 16.75 -16.7 16.7 -16.65 M22.15 -22.1 L22.05 -22.0 22.0 -21.95 22.15 -22.1 M30.05 -8.05 L30.25 -8.1 30.1 -8.05 30.05 -8.05 M30.0 -8.05 L26.45 -7.05 22.85 -6.1 22.8 -6.1 22.65 -6.05 22.85 -6.15 26.4 -7.15 30.0 -8.05 M22.8 6.15 L22.65 6.1 22.85 6.15 26.45 7.05 30.1 8.1 30.05 8.1 30.3 8.15 30.1 8.1 26.45 7.15 22.85 6.15 22.8 6.15 M22.0 22.0 L22.15 22.15 22.0 22.05 22.0 22.0 19.3 19.4 16.7 16.75 16.7 16.7 16.55 16.55 16.7 16.7 19.35 19.3 22.0 22.0 M6.1 22.65 L6.15 22.85 7.15 26.4 8.1 30.05 8.1 30.1 8.15 30.25 8.1 30.1 7.05 26.45 6.15 22.85 6.15 22.8 6.1 22.65 M-8.05 -30.05 L-8.1 -30.25 -8.05 -30.1 -8.05 -30.05 -7.05 -26.45 -6.1 -22.85 -6.1 -22.8 -6.05 -22.6 -6.15 -22.8 -7.15 -26.4 -8.05 -30.05 M-22.0 -22.0 L-21.95 -21.95 -22.1 -22.15 -22.0 -22.0 M-26.4 -7.15 L-22.85 -6.15 -22.8 -6.15 -22.6 -6.05 -22.85 -6.1 -26.45 -7.05 -30.1 -8.05 -30.05 -8.05 -30.25 -8.1 -30.1 -8.1 -30.05 -8.1 -26.4 -7.15 M-16.7 -16.7 L-19.35 -19.3 -21.95 -22.0 -19.25 -19.35 -16.7 -16.7 -16.65 -16.7 -16.5 -16.55 -16.7 -16.7 M-16.7 16.7 L-16.55 16.55 -16.7 16.7 -19.3 19.35 -22.0 22.0 -19.35 19.3 -16.7 16.7 M-6.1 22.85 L-7.05 26.45 -8.05 30.1 -8.05 30.05 -8.1 30.3 -8.1 30.1 -7.15 26.45 -6.15 22.85 -6.15 22.8 -6.05 22.65 -6.1 22.85 M-22.8 6.15 L-26.4 7.15 -30.05 8.1 -30.25 8.15 -30.1 8.1 -30.05 8.1 Q-28.6 7.6 -26.45 7.05 L-22.85 6.15 -22.8 6.15 -22.6 6.1 -22.8 6.15 M-22.0 22.0 L-21.95 22.0 -22.15 22.15 -22.0 22.0" fill="#ffffff" fill-rule="evenodd" stroke="none"/>
  </g>
</svg>
