<?xml version="1.0" encoding="UTF-8" standalone="no"?>
<svg xmlns:ffdec="https://www.free-decompiler.com/flash" xmlns:xlink="http://www.w3.org/1999/xlink" ffdec:objectType="shape" height="358.5px" width="358.5px" viewBox="0 0 71.7 71.7" xmlns="http://www.w3.org/2000/svg">
  <g transform="matrix(1.0, 0.0, 0.0, 1.0, 35.85, 35.85)">
    <path d="M8.6 -31.95 L8.65 -32.15 8.55 -31.9 8.6 -31.95 7.55 -28.15 6.55 -24.45 7.6 -28.15 8.6 -31.95 M8.9 -32.6 L7.75 -28.1 6.55 -23.65 5.5 -20.5 6.2 -23.7 6.2 -23.75 7.4 -28.2 8.6 -32.65 8.65 -32.75 Q9.65 -36.3 9.6 -35.75 L8.9 -32.6 M17.25 -17.4 L17.25 -17.45 20.5 -20.7 23.8 -24.0 23.85 -24.05 26.2 -26.15 24.05 -23.8 24.0 -23.75 20.75 -20.45 17.5 -17.25 15.05 -15.0 17.25 -17.4 M24.95 -6.7 L28.15 -7.5 31.75 -8.5 28.15 -7.55 24.95 -6.7 M17.85 -17.85 L17.7 -17.65 17.85 -17.8 17.9 -17.85 20.65 -20.55 23.35 -23.3 20.6 -20.6 17.85 -17.85 M20.55 -5.5 L23.65 -6.5 28.1 -7.7 32.6 -8.9 32.65 -8.9 35.8 -9.6 32.7 -8.6 32.75 -8.6 28.2 -7.35 23.75 -6.2 20.55 -5.5 M31.95 8.6 L32.0 8.6 32.15 8.65 31.95 8.55 32.0 8.6 28.2 7.55 24.65 6.6 28.15 7.6 31.95 8.6 M32.1 -8.6 L31.9 -8.55 31.95 -8.55 32.1 -8.6 M35.8 9.6 L32.6 8.9 32.65 8.9 28.1 7.75 23.7 6.55 20.55 5.5 23.75 6.2 28.2 7.4 32.7 8.6 32.75 8.65 Q36.3 9.65 35.8 9.6 M20.55 20.65 L23.35 23.35 20.6 20.6 17.85 17.85 17.7 17.7 17.85 17.85 17.85 17.9 20.55 20.65 M24.05 23.85 L26.2 26.2 23.8 24.05 23.8 24.0 20.5 20.75 17.25 17.5 15.05 15.05 17.45 17.25 20.75 20.5 24.0 23.8 24.05 23.85 M5.5 20.55 L6.5 23.65 7.75 28.1 8.9 32.6 8.95 32.65 Q9.85 36.25 9.6 35.8 L8.6 32.7 8.65 32.75 7.4 28.2 6.25 23.75 5.5 20.55 M-8.6 -32.1 L-8.55 -31.9 -8.55 -31.95 -8.6 -32.1 M8.65 32.1 L8.6 31.95 8.65 32.1 M6.8 25.2 L7.55 28.15 8.5 31.65 7.6 28.15 6.8 25.2 M-8.9 -32.65 Q-9.85 -36.25 -9.6 -35.75 -9.65 -36.35 -8.6 -32.7 L-7.35 -28.2 -6.2 -23.75 -5.5 -20.5 -6.5 -23.6 -6.5 -23.65 -7.7 -28.1 -8.9 -32.55 -8.9 -32.65 M-20.55 -20.6 L-23.3 -23.35 -20.6 -20.55 -17.85 -17.85 -17.65 -17.7 -17.8 -17.85 -17.85 -17.85 -20.55 -20.6 M-6.7 -24.95 L-7.5 -28.1 -8.5 -31.7 -7.55 -28.1 -6.7 -24.95 M-20.45 -20.7 L-17.25 -17.45 -15.0 -15.0 -17.4 -17.2 -17.45 -17.2 -20.7 -20.45 -24.0 -23.75 -24.05 -23.8 -26.15 -26.15 -23.8 -24.0 -23.75 -24.0 -20.45 -20.7 M-31.95 -8.55 L-32.15 -8.6 -31.9 -8.55 -31.95 -8.55 -28.15 -7.5 -24.6 -6.6 -28.15 -7.55 -31.95 -8.55 M-35.75 -9.6 L-32.6 -8.9 -28.1 -7.7 -23.65 -6.5 -20.5 -5.5 -23.7 -6.2 -23.75 -6.2 -28.2 -7.35 -32.65 -8.6 -32.75 -8.6 Q-36.3 -9.65 -35.75 -9.6 M-15.0 15.05 L-17.2 17.45 -20.45 20.75 -23.75 24.0 -23.8 24.05 -26.15 26.2 -24.0 23.8 -20.7 20.5 -17.45 17.25 -15.0 15.05 M-17.7 17.7 L-17.85 17.85 -20.6 20.55 -23.35 23.35 -20.55 20.6 -17.85 17.85 -17.7 17.7 M-6.2 23.75 L-7.35 28.2 -8.6 32.7 -8.6 32.75 -9.6 35.8 -8.9 32.6 -7.7 28.1 -6.5 23.7 -5.5 20.55 -6.2 23.75 M-25.15 6.8 L-28.1 7.55 -31.6 8.5 -28.1 7.6 -25.15 6.8 M-20.5 5.5 L-23.6 6.5 -23.65 6.5 -28.1 7.75 -32.55 8.9 -32.65 8.95 -35.75 9.6 Q-36.35 9.65 -32.7 8.6 L-32.7 8.65 -28.2 7.4 -23.75 6.25 -20.5 5.5 M-8.6 32.15 L-8.55 31.95 -8.55 32.0 -7.5 28.2 -6.55 24.45 -7.55 28.15 -8.55 31.95 -8.55 32.0 -8.6 32.15 M-31.95 8.6 L-32.1 8.65 -31.9 8.6 -31.95 8.6" fill="#ffffff" fill-opacity="0.3019608" fill-rule="evenodd" stroke="none"/>
    <path d="M8.6 -31.95 L7.6 -28.15 6.55 -24.45 7.55 -28.15 8.6 -31.95 8.55 -31.9 8.65 -32.15 8.6 -31.95 M17.85 -17.85 L20.6 -20.6 23.35 -23.3 20.65 -20.55 17.9 -17.85 17.85 -17.8 17.7 -17.65 17.85 -17.85 M24.95 -6.7 L28.15 -7.55 31.75 -8.5 28.15 -7.5 24.95 -6.7 M32.1 -8.6 L31.95 -8.55 31.9 -8.55 32.1 -8.6 M31.95 8.6 L28.15 7.6 24.65 6.6 28.2 7.55 32.0 8.6 31.95 8.55 32.15 8.65 32.0 8.6 31.95 8.6 M20.55 20.65 L17.85 17.9 17.85 17.85 17.7 17.7 17.85 17.85 20.6 20.6 23.35 23.35 20.55 20.65 M6.8 25.2 L7.6 28.15 8.5 31.65 7.55 28.15 6.8 25.2 M8.65 32.1 L8.6 31.95 8.65 32.1 M-8.6 -32.1 L-8.55 -31.95 -8.55 -31.9 -8.6 -32.1 M-6.7 -24.95 L-7.55 -28.1 -8.5 -31.7 -7.5 -28.1 -6.7 -24.95 M-20.55 -20.6 L-17.85 -17.85 -17.8 -17.85 -17.65 -17.7 -17.85 -17.85 -20.6 -20.55 -23.3 -23.35 -20.55 -20.6 M-31.95 -8.55 L-28.15 -7.55 -24.6 -6.6 -28.15 -7.5 -31.95 -8.55 -31.9 -8.55 -32.15 -8.6 -31.95 -8.55 M-17.7 17.7 L-17.85 17.85 -20.55 20.6 -23.35 23.35 -20.6 20.55 -17.85 17.85 -17.7 17.7 M-25.15 6.8 L-28.1 7.6 -31.6 8.5 -28.1 7.55 -25.15 6.8 M-31.95 8.6 L-31.9 8.6 -32.1 8.65 -31.95 8.6 M-8.6 32.15 L-8.55 32.0 -8.55 31.95 -7.55 28.15 -6.55 24.45 -7.5 28.2 -8.55 32.0 -8.55 31.95 -8.6 32.15" fill="#ffffff" fill-rule="evenodd" stroke="none"/>
  </g>
</svg>
