<?xml version="1.0" encoding="UTF-8" standalone="no"?>
<svg xmlns:ffdec="https://www.free-decompiler.com/flash" xmlns:xlink="http://www.w3.org/1999/xlink" ffdec:objectType="shape" height="221.75px" width="221.75px" viewBox="0 0 44.35 44.35" xmlns="http://www.w3.org/2000/svg">
  <g transform="matrix(1.0, 0.0, 0.0, 1.0, 22.15, 22.15)">
    <path d="M12.35 -15.15 L12.35 -15.2 Q11.95 -13.45 10.8 -11.35 L9.65 -9.65 11.4 -10.75 Q13.4 -11.95 15.1 -12.35 L15.2 -12.35 Q18.5 -13.1 19.15 -11.05 20.65 -9.4 18.3 -6.95 L18.3 -6.9 Q17.1 -5.6 15.05 -4.4 14.15 -3.9 13.35 -3.55 L15.25 -3.65 19.3 -3.15 19.35 -3.15 Q22.6 -2.1 22.15 0.0 22.6 2.15 19.35 3.15 L19.35 3.1 15.25 3.65 13.35 3.55 15.05 4.45 Q17.1 5.6 18.3 6.9 L18.35 6.95 Q20.6 9.45 19.15 11.05 18.45 13.15 15.15 12.35 L15.2 12.35 Q13.45 11.95 11.4 10.8 L9.65 9.65 10.8 11.4 Q11.95 13.4 12.4 15.1 L12.4 15.2 Q13.1 18.5 11.05 19.15 9.4 20.65 6.95 18.3 5.6 17.1 4.45 15.05 L3.55 13.35 3.65 15.25 Q3.65 17.6 3.2 19.3 L3.15 19.35 Q2.1 22.6 0.0 22.15 -2.15 22.6 -3.1 19.35 -3.65 17.65 -3.65 15.25 L-3.55 13.35 -4.4 15.05 Q-5.6 17.1 -6.85 18.3 L-6.9 18.35 Q-9.45 20.6 -11.05 19.15 -13.15 18.45 -12.35 15.15 L-12.3 15.2 Q-11.95 13.45 -10.75 11.4 L-9.65 9.65 -11.35 10.8 Q-13.4 11.95 -15.1 12.4 L-15.15 12.4 Q-18.5 13.1 -19.15 11.05 -20.65 9.4 -18.3 6.95 L-18.25 6.95 Q-17.1 5.6 -15.0 4.45 L-13.3 3.55 -15.25 3.65 -19.3 3.2 -19.35 3.15 Q-22.6 2.1 -22.1 0.0 -22.6 -2.15 -19.3 -3.1 L-15.25 -3.65 -13.35 -3.55 -15.0 -4.4 -18.3 -6.85 -18.3 -6.9 Q-20.6 -9.45 -19.15 -11.05 -18.45 -13.15 -15.15 -12.35 L-15.2 -12.3 Q-13.45 -11.95 -11.35 -10.75 L-9.65 -9.65 -10.75 -11.35 Q-11.95 -13.4 -12.35 -15.1 L-12.35 -15.15 Q-13.1 -18.5 -11.05 -19.15 -9.4 -20.65 -6.95 -18.3 L-6.9 -18.25 Q-5.6 -17.1 -4.4 -15.0 L-3.55 -13.3 -3.65 -15.25 Q-3.65 -17.6 -3.15 -19.3 L-3.15 -19.35 Q-2.1 -22.6 0.0 -22.1 2.15 -22.6 3.15 -19.3 L3.1 -19.3 Q3.65 -17.65 3.65 -15.25 L3.55 -13.35 4.45 -15.0 Q5.6 -17.1 6.9 -18.3 L6.95 -18.3 Q9.45 -20.6 11.05 -19.15 13.15 -18.45 12.35 -15.15 M9.2 -16.2 Q8.15 -15.15 7.15 -13.45 6.15 -11.7 5.85 -10.3 L5.8 -10.1 5.9 -10.25 5.95 -10.3 Q7.0 -11.25 8.0 -12.95 8.95 -14.7 9.3 -16.15 L9.35 -16.15 9.35 -16.35 9.25 -16.2 9.2 -16.2 M0.05 -18.65 L0.05 -18.7 -0.05 -18.85 -0.1 -18.65 -0.1 -18.7 Q-0.5 -17.25 -0.5 -15.25 -0.5 -13.25 -0.1 -11.85 L-0.05 -11.65 0.05 -11.85 0.05 -11.9 Q0.45 -13.25 0.5 -15.25 0.45 -17.25 0.05 -18.65 M2.65 -9.95 Q1.7 -8.0 0.0 -8.35 -1.65 -8.0 -2.65 -9.95 -2.5 -7.8 -4.15 -7.25 -5.45 -6.05 -7.4 -7.4 -6.0 -5.5 -7.25 -4.15 -7.75 -2.55 -9.95 -2.65 -8.0 -1.7 -8.35 0.0 -8.0 1.65 -9.95 2.7 -7.8 2.5 -7.25 4.15 -6.05 5.45 -7.4 7.4 -5.5 6.0 -4.15 7.25 -2.55 7.75 -2.65 10.0 -1.7 8.0 0.0 8.4 1.65 8.0 2.7 10.0 2.5 7.8 4.15 7.25 5.45 6.05 7.4 7.4 6.0 5.5 7.25 4.15 7.75 2.55 10.0 2.65 8.0 1.7 8.4 0.0 8.0 -1.65 10.0 -2.65 7.8 -2.5 7.25 -4.15 6.05 -5.45 7.4 -7.4 5.5 -6.0 4.15 -7.25 2.55 -7.75 2.65 -9.95 M-10.25 5.85 L-10.3 5.9 Q-11.7 6.2 -13.45 7.2 -15.2 8.2 -16.15 9.3 L-16.2 9.3 -16.3 9.4 -16.1 9.35 -16.15 9.4 Q-14.7 9.0 -12.95 8.0 -11.25 7.0 -10.25 6.0 L-10.1 5.85 -10.25 5.85 M-5.8 10.35 L-5.75 10.15 -5.9 10.25 -5.9 10.3 Q-7.0 11.25 -7.95 13.0 -8.95 14.7 -9.3 16.15 L-9.3 16.2 -9.35 16.35 -9.2 16.25 -9.2 16.2 Q-8.15 15.15 -7.15 13.45 -6.15 11.7 -5.8 10.35 M-18.65 0.0 L-18.7 0.0 -18.85 0.05 -18.65 0.1 -18.7 0.1 -15.25 0.5 -11.85 0.1 -11.65 0.05 -11.85 0.0 -11.9 0.0 -15.25 -0.45 -18.65 0.0 M-16.15 -9.3 L-16.35 -9.35 -16.2 -9.2 -13.45 -7.15 Q-11.7 -6.15 -10.3 -5.8 L-10.1 -5.75 -10.25 -5.9 -10.3 -5.9 Q-11.25 -7.0 -12.95 -7.95 -14.7 -8.95 -16.15 -9.3 M-7.15 -13.45 Q-8.2 -15.15 -9.25 -16.15 L-9.25 -16.2 -9.4 -16.3 -9.35 -16.1 -9.35 -16.15 Q-9.0 -14.7 -8.0 -12.95 L-5.95 -10.25 -5.8 -10.1 -5.85 -10.25 -5.85 -10.3 Q-6.2 -11.7 -7.15 -13.45 M6.0 10.25 L5.85 10.1 5.85 10.3 5.9 10.3 Q6.2 11.7 7.2 13.45 8.2 15.2 9.3 16.2 L9.4 16.3 9.35 16.1 9.4 16.15 Q9.0 14.7 8.0 13.0 7.0 11.25 6.0 10.25 M0.1 11.9 L0.05 11.7 0.0 11.85 0.0 11.9 Q-0.45 13.25 -0.45 15.25 -0.45 17.25 0.0 18.7 L0.05 18.85 0.1 18.65 0.1 18.7 Q0.5 17.25 0.5 15.25 0.5 13.25 0.1 11.9 M10.35 5.85 L10.15 5.8 10.25 5.9 10.3 5.95 13.0 8.0 Q14.7 8.95 16.15 9.3 L16.2 9.35 16.35 9.35 16.25 9.25 16.2 9.2 13.45 7.15 Q11.7 6.15 10.35 5.85 M11.9 -0.1 L11.7 -0.05 11.85 0.05 11.9 0.05 15.25 0.5 18.7 0.05 18.85 -0.05 18.65 -0.1 18.7 -0.1 15.25 -0.5 11.9 -0.1 M16.2 -9.25 L16.3 -9.4 16.1 -9.35 16.15 -9.35 Q14.7 -9.0 13.0 -8.0 11.25 -7.0 10.25 -5.95 L10.1 -5.8 10.3 -5.85 Q11.7 -6.2 13.45 -7.15 15.15 -8.2 16.2 -9.25" fill="#ffffff" fill-opacity="0.3019608" fill-rule="evenodd" stroke="none"/>
    <path d="M0.05 -18.65 Q0.45 -17.25 0.5 -15.25 0.45 -13.25 0.05 -11.9 L0.05 -11.85 -0.05 -11.65 -0.1 -11.85 Q-0.5 -13.25 -0.5 -15.25 -0.5 -17.25 -0.1 -18.7 L-0.1 -18.65 -0.05 -18.85 0.05 -18.7 0.05 -18.65 M9.2 -16.2 L9.25 -16.2 9.35 -16.35 9.35 -16.15 9.3 -16.15 Q8.95 -14.7 8.0 -12.95 7.0 -11.25 5.95 -10.3 L5.9 -10.25 5.8 -10.1 5.85 -10.3 Q6.15 -11.7 7.15 -13.45 8.15 -15.15 9.2 -16.2 M16.2 -9.25 Q15.15 -8.2 13.45 -7.15 11.7 -6.2 10.3 -5.85 L10.1 -5.8 10.25 -5.95 Q11.25 -7.0 13.0 -8.0 14.7 -9.0 16.15 -9.35 L16.1 -9.35 16.3 -9.4 16.2 -9.25 M11.9 -0.1 L15.25 -0.5 18.7 -0.1 18.65 -0.1 18.85 -0.05 18.7 0.05 15.25 0.5 11.9 0.05 11.85 0.05 11.7 -0.05 11.9 -0.1 M10.35 5.85 Q11.7 6.15 13.45 7.15 L16.2 9.2 16.25 9.25 16.35 9.35 16.2 9.35 16.15 9.3 Q14.7 8.95 13.0 8.0 L10.3 5.95 10.25 5.9 10.15 5.8 10.35 5.85 M0.1 11.9 Q0.5 13.25 0.5 15.25 0.5 17.25 0.1 18.7 L0.1 18.65 0.05 18.85 0.0 18.7 Q-0.45 17.25 -0.45 15.25 -0.45 13.25 0.0 11.9 L0.0 11.85 0.05 11.7 0.1 11.9 M6.0 10.25 Q7.0 11.25 8.0 13.0 9.0 14.7 9.4 16.15 L9.35 16.1 9.4 16.3 9.3 16.2 Q8.2 15.2 7.2 13.45 6.2 11.7 5.9 10.3 L5.85 10.3 5.85 10.1 6.0 10.25 M-7.15 -13.45 Q-6.2 -11.7 -5.85 -10.3 L-5.85 -10.25 -5.8 -10.1 -5.95 -10.25 -8.0 -12.95 Q-9.0 -14.7 -9.35 -16.15 L-9.35 -16.1 -9.4 -16.3 -9.25 -16.2 -9.25 -16.15 Q-8.2 -15.15 -7.15 -13.45 M-16.15 -9.3 Q-14.7 -8.95 -12.95 -7.95 -11.25 -7.0 -10.3 -5.9 L-10.25 -5.9 -10.1 -5.75 -10.3 -5.8 Q-11.7 -6.15 -13.45 -7.15 L-16.2 -9.2 -16.35 -9.35 -16.15 -9.3 M-18.65 0.0 L-15.25 -0.45 -11.9 0.0 -11.85 0.0 -11.65 0.05 -11.85 0.1 -15.25 0.5 -18.7 0.1 -18.65 0.1 -18.85 0.05 -18.7 0.0 -18.65 0.0 M-5.8 10.35 Q-6.15 11.7 -7.15 13.45 -8.15 15.15 -9.2 16.2 L-9.2 16.25 -9.35 16.35 -9.3 16.2 -9.3 16.15 Q-8.95 14.7 -7.95 13.0 -7.0 11.25 -5.9 10.3 L-5.9 10.25 -5.75 10.15 -5.8 10.35 M-10.25 5.85 L-10.1 5.85 -10.25 6.0 Q-11.25 7.0 -12.95 8.0 -14.7 9.0 -16.15 9.4 L-16.1 9.35 -16.3 9.4 -16.2 9.3 -16.15 9.3 Q-15.2 8.2 -13.45 7.2 -11.7 6.2 -10.3 5.9 L-10.25 5.85" fill="#ffffff" fill-rule="evenodd" stroke="none"/>
    <path d="M7.0 -6.95 L7.0 -7.05 6.9 -7.0 6.95 -7.0 5.2 -5.7 Q4.3 -4.85 3.95 -4.0 L3.9 -3.9 4.0 -3.95 Q4.85 -4.35 5.75 -5.2 6.6 -6.1 6.95 -6.95 L7.0 -6.95 M8.5 -8.45 Q9.85 -7.45 8.95 -5.5 L8.75 -5.05 9.25 -5.05 9.3 -5.05 Q11.4 -4.75 11.6 -3.1 12.3 -1.55 10.55 -0.3 L10.1 0.0 10.5 0.25 10.55 0.3 Q12.25 1.6 11.6 3.1 11.4 4.8 9.25 5.05 L9.3 5.0 8.75 5.05 9.0 5.45 9.0 5.5 Q9.85 7.5 8.5 8.5 7.45 9.85 5.5 8.95 L5.55 8.95 5.1 8.75 5.05 9.25 5.05 9.3 Q4.75 11.4 3.1 11.6 1.55 12.3 0.3 10.55 L0.35 10.55 0.05 10.1 -0.25 10.5 -0.25 10.55 Q-1.6 12.25 -3.1 11.6 -4.8 11.4 -5.0 9.25 L-5.0 9.3 -5.0 8.75 -5.45 9.0 -5.5 9.0 Q-7.5 9.85 -8.45 8.5 -9.85 7.45 -8.95 5.5 L-8.95 5.55 -8.7 5.1 -9.2 5.05 -9.25 5.05 Q-11.4 4.75 -11.55 3.1 -12.3 1.55 -10.5 0.3 L-10.5 0.35 -10.05 0.05 -10.5 -0.25 -10.55 -0.25 Q-12.25 -1.6 -11.55 -3.1 -11.4 -4.8 -9.25 -5.0 L-8.75 -5.0 -8.95 -5.45 -9.0 -5.5 Q-9.85 -7.5 -8.45 -8.45 -7.45 -9.85 -5.5 -8.95 L-5.05 -8.7 -5.05 -9.2 -5.05 -9.25 Q-4.75 -11.4 -3.1 -11.55 -1.55 -12.3 -0.3 -10.5 L0.0 -10.05 0.25 -10.5 0.3 -10.55 Q1.6 -12.25 3.1 -11.55 4.8 -11.4 5.05 -9.25 L5.0 -9.25 5.05 -8.75 5.45 -8.95 5.5 -9.0 Q7.5 -9.85 8.5 -8.45 M2.6 -9.5 L2.55 -9.6 2.5 -9.5 Q1.95 -8.75 1.65 -7.55 1.35 -6.35 1.4 -5.45 L1.4 -5.3 1.5 -5.4 1.5 -5.45 Q2.05 -6.2 2.4 -7.35 2.7 -8.55 2.6 -9.5 M0.9 -3.3 L0.0 -3.6 -0.9 -3.3 -1.8 -3.1 -2.4 -2.4 -3.1 -1.8 -3.3 -0.9 -3.6 0.0 -3.3 0.9 -3.1 1.8 -2.4 2.45 -1.8 3.15 -0.9 3.35 Q-0.4 3.35 0.0 3.65 L0.9 3.35 1.8 3.15 2.45 2.45 3.15 1.8 Q3.1 1.35 3.35 0.9 3.35 0.4 3.65 0.0 L3.35 -0.9 Q3.1 -1.35 3.15 -1.8 L2.45 -2.4 1.8 -3.1 0.9 -3.3 M-5.4 1.55 L-5.3 1.45 -5.45 1.45 -7.55 1.65 -9.5 2.55 -9.6 2.6 -9.45 2.65 -7.35 2.4 Q-6.2 2.05 -5.4 1.55 M-1.4 5.45 L-1.4 5.35 -1.45 5.45 Q-2.05 6.2 -2.35 7.4 -2.7 8.55 -2.55 9.5 L-2.55 9.55 -2.55 9.65 -2.5 9.5 -2.5 9.55 Q-1.95 8.75 -1.65 7.55 -1.35 6.35 -1.4 5.45 M-3.85 3.9 L-3.95 3.95 -4.0 4.0 Q-4.85 4.35 -5.7 5.2 -6.6 6.1 -6.95 6.95 L-7.0 7.05 -6.9 7.0 -5.15 5.75 -3.9 4.05 -3.85 3.9 M-9.5 -2.5 Q-8.75 -1.95 -7.55 -1.65 L-5.45 -1.4 -5.3 -1.4 -5.4 -1.45 -5.45 -1.45 Q-6.15 -2.05 -7.35 -2.35 L-9.5 -2.55 -9.6 -2.55 -9.5 -2.5 M-6.95 -6.95 L-7.05 -7.0 -7.0 -6.9 Q-6.6 -6.05 -5.7 -5.15 L-4.0 -3.9 -3.9 -3.85 -3.95 -3.95 -3.95 -4.0 -5.2 -5.7 Q-6.1 -6.6 -6.95 -6.95 M-2.55 -9.5 L-2.6 -9.6 -2.6 -9.45 -2.35 -7.35 -1.5 -5.4 -1.45 -5.3 -1.45 -5.45 Q-1.35 -6.35 -1.65 -7.55 -2.0 -8.75 -2.55 -9.5 M3.95 4.0 L4.0 4.0 Q4.35 4.85 5.2 5.75 6.1 6.6 6.95 6.95 L6.95 7.0 7.05 7.0 7.0 6.9 7.0 6.95 5.75 5.2 4.05 3.95 3.9 3.9 3.95 4.0 M1.45 5.35 L1.45 5.45 1.45 5.5 Q1.35 6.35 1.65 7.55 L2.55 9.55 2.6 9.6 2.65 9.5 2.4 7.4 Q2.05 6.2 1.55 5.45 L1.45 5.35 M9.5 2.6 L9.55 2.6 9.65 2.55 9.5 2.5 9.55 2.5 Q8.75 1.95 7.55 1.65 L5.45 1.4 5.35 1.4 5.45 1.5 Q6.2 2.05 7.4 2.4 L9.5 2.6 M5.45 -1.5 L5.35 -1.45 5.45 -1.45 5.5 -1.45 7.55 -1.65 Q8.75 -2.0 9.55 -2.55 L9.6 -2.6 9.5 -2.6 7.4 -2.35 Q6.2 -2.05 5.45 -1.5" fill="#ffffff" fill-opacity="0.3019608" fill-rule="evenodd" stroke="none"/>
    <path d="M7.0 -6.95 L6.95 -6.95 Q6.6 -6.1 5.75 -5.2 4.85 -4.35 4.0 -3.95 L3.9 -3.9 3.95 -4.0 Q4.3 -4.85 5.2 -5.7 L6.95 -7.0 6.9 -7.0 7.0 -7.05 7.0 -6.95 M2.6 -9.5 Q2.7 -8.55 2.4 -7.35 2.05 -6.2 1.5 -5.45 L1.5 -5.4 1.4 -5.3 1.4 -5.45 Q1.35 -6.35 1.65 -7.55 1.95 -8.75 2.5 -9.5 L2.55 -9.6 2.6 -9.5 M5.45 -1.5 Q6.2 -2.05 7.4 -2.35 L9.5 -2.6 9.6 -2.6 9.55 -2.55 Q8.75 -2.0 7.55 -1.65 L5.5 -1.45 5.45 -1.45 5.35 -1.45 5.45 -1.5 M9.5 2.6 L7.4 2.4 Q6.2 2.05 5.45 1.5 L5.35 1.4 5.45 1.4 7.55 1.65 Q8.75 1.95 9.55 2.5 L9.5 2.5 9.65 2.55 9.55 2.6 9.5 2.6 M1.45 5.35 L1.55 5.45 Q2.05 6.2 2.4 7.4 L2.65 9.5 2.6 9.6 2.55 9.55 1.65 7.55 Q1.35 6.35 1.45 5.5 L1.45 5.45 1.45 5.35 M3.95 4.0 L3.9 3.9 4.05 3.95 5.75 5.2 7.0 6.95 7.0 6.9 7.05 7.0 6.95 7.0 6.95 6.95 Q6.1 6.6 5.2 5.75 4.35 4.85 4.0 4.0 L3.95 4.0 M-2.55 -9.5 Q-2.0 -8.75 -1.65 -7.55 -1.35 -6.35 -1.45 -5.45 L-1.45 -5.3 -1.5 -5.4 -2.35 -7.35 -2.6 -9.45 -2.6 -9.6 -2.55 -9.5 M-6.95 -6.95 Q-6.1 -6.6 -5.2 -5.7 L-3.95 -4.0 -3.95 -3.95 -3.9 -3.85 -4.0 -3.9 -5.7 -5.15 Q-6.6 -6.05 -7.0 -6.9 L-7.05 -7.0 -6.95 -6.95 M-9.5 -2.5 L-9.6 -2.55 -9.5 -2.55 -7.35 -2.35 Q-6.15 -2.05 -5.45 -1.45 L-5.4 -1.45 -5.3 -1.4 -5.45 -1.4 -7.55 -1.65 Q-8.75 -1.95 -9.5 -2.5 M-3.85 3.9 L-3.9 4.05 -5.15 5.75 -6.9 7.0 -7.0 7.05 -6.95 6.95 Q-6.6 6.1 -5.7 5.2 -4.85 4.35 -4.0 4.0 L-3.95 3.95 -3.85 3.9 M-1.4 5.45 Q-1.35 6.35 -1.65 7.55 -1.95 8.75 -2.5 9.55 L-2.5 9.5 -2.55 9.65 -2.55 9.55 -2.55 9.5 Q-2.7 8.55 -2.35 7.4 -2.05 6.2 -1.45 5.45 L-1.4 5.35 -1.4 5.45 M-5.4 1.55 Q-6.2 2.05 -7.35 2.4 L-9.45 2.65 -9.6 2.6 -9.5 2.55 -7.55 1.65 -5.45 1.45 -5.3 1.45 -5.4 1.55" fill="#ffffff" fill-rule="evenodd" stroke="none"/>
  </g>
</svg>
