<?xml version="1.0" encoding="UTF-8" standalone="no"?>
<svg xmlns:ffdec="https://www.free-decompiler.com/flash" xmlns:xlink="http://www.w3.org/1999/xlink" ffdec:objectType="shape" height="265.75px" width="265.75px" viewBox="0 0 53.15 53.15" xmlns="http://www.w3.org/2000/svg">
  <g transform="matrix(1.0, 0.0, 0.0, 1.0, 26.55, 26.55)">
    <path d="M11.3 -19.65 L11.3 -19.7 Q10.2 -18.55 9.15 -16.6 8.05 -14.75 7.6 -13.25 L7.5 -13.05 7.65 -13.15 7.7 -13.2 Q8.75 -14.3 9.85 -16.2 L11.4 -19.6 11.4 -19.65 11.45 -19.8 11.3 -19.65 M19.0 -14.1 Q22.5 -15.1 23.0 -13.25 24.35 -11.85 21.65 -9.35 L21.7 -9.4 Q20.3 -8.05 18.05 -6.75 15.8 -5.45 14.05 -4.95 10.45 -3.85 9.95 -5.75 8.55 -7.1 11.25 -9.65 L11.25 -9.7 Q12.6 -10.95 14.85 -12.25 17.1 -13.55 18.9 -14.1 L19.0 -14.1 M12.25 -14.85 Q10.95 -12.6 9.7 -11.3 7.15 -8.55 5.75 -9.9 3.9 -10.4 4.95 -14.0 L4.9 -14.0 Q5.45 -15.8 6.75 -18.05 8.05 -20.3 9.3 -21.65 L9.4 -21.7 Q11.9 -24.3 13.25 -22.95 15.15 -22.45 14.1 -18.9 L14.1 -18.95 Q13.55 -17.1 12.25 -14.85 M2.7 -23.45 Q3.2 -21.6 3.2 -19.0 3.2 -16.4 2.75 -14.6 1.9 -10.95 0.0 -11.45 -1.85 -10.95 -2.75 -14.55 L-2.75 -14.6 Q-3.2 -16.4 -3.15 -19.0 -3.2 -21.6 -2.75 -23.4 L-2.75 -23.5 Q-1.85 -27.05 0.0 -26.5 1.9 -27.05 2.75 -23.45 L2.7 -23.45 M19.75 -11.35 L19.85 -11.5 19.65 -11.4 19.7 -11.45 Q18.15 -10.95 16.25 -9.85 L13.25 -7.7 13.1 -7.55 13.25 -7.6 13.3 -7.65 Q14.8 -8.05 16.7 -9.15 L19.7 -11.35 19.75 -11.35 M0.45 -19.0 L0.05 -22.7 0.05 -22.75 0.0 -22.9 -0.05 -22.7 -0.05 -22.75 Q-0.4 -21.2 -0.4 -19.0 -0.4 -16.8 -0.05 -15.3 L0.0 -15.05 0.05 -15.25 0.05 -15.3 0.45 -19.0 M14.6 -2.75 L19.0 -3.15 23.45 -2.75 23.5 -2.75 Q27.05 -1.85 26.55 0.0 27.05 1.9 23.45 2.75 L23.5 2.7 19.0 3.2 14.65 2.75 Q10.95 1.9 11.5 0.0 10.95 -1.85 14.6 -2.75 M19.0 -0.4 L15.3 -0.05 15.1 0.0 15.3 0.05 15.35 0.05 19.0 0.45 22.75 0.05 22.95 0.0 22.7 -0.05 22.75 -0.05 19.0 -0.4 M23.0 13.25 Q22.45 15.15 18.95 14.1 L19.0 14.1 Q17.1 13.55 14.85 12.25 12.6 10.95 11.3 9.7 8.55 7.15 9.95 5.75 10.4 3.9 14.0 4.95 L14.05 4.9 Q15.8 5.45 18.05 6.75 L21.65 9.3 21.7 9.4 Q24.3 11.9 23.0 13.25 M13.25 7.6 L13.05 7.5 13.2 7.65 13.25 7.7 16.2 9.85 Q18.1 10.95 19.65 11.4 L19.85 11.45 19.65 11.3 19.7 11.3 Q18.55 10.2 16.65 9.15 14.75 8.05 13.25 7.6 M9.7 11.25 Q10.95 12.6 12.25 14.85 13.55 17.1 14.1 18.9 L14.15 19.0 Q15.1 22.5 13.25 23.0 11.85 24.35 9.35 21.65 L9.4 21.7 Q8.05 20.3 6.75 18.05 5.45 15.8 4.95 14.05 3.85 10.45 5.75 9.95 7.1 8.55 9.7 11.25 M7.65 13.25 L7.65 13.3 Q8.05 14.8 9.15 16.7 L11.35 19.7 11.4 19.75 11.5 19.85 11.45 19.65 11.45 19.7 9.9 16.25 Q8.8 14.35 7.75 13.25 L7.6 13.1 7.65 13.25 M2.8 14.6 Q3.2 16.4 3.2 19.0 3.2 21.6 2.8 23.45 L2.75 23.5 Q1.85 27.05 0.0 26.55 -1.9 27.05 -2.7 23.45 L-2.7 23.5 Q-3.2 21.6 -3.15 19.0 -3.2 16.4 -2.7 14.65 -1.9 10.95 0.0 11.5 1.85 10.95 2.75 14.6 L2.8 14.6 M-22.7 0.0 L-22.75 0.0 -22.9 0.05 -22.7 0.1 -22.75 0.1 -18.95 0.45 -15.3 0.1 -15.05 0.05 -15.25 0.0 -15.3 0.0 -18.95 -0.4 -22.7 0.0 M0.1 15.3 L0.05 15.1 0.0 15.3 0.0 15.35 Q-0.4 16.8 -0.4 19.0 -0.4 21.2 0.0 22.75 L0.05 22.95 0.1 22.7 0.1 22.75 0.45 19.0 0.1 15.3 M-23.45 -2.7 L-19.0 -3.15 -14.6 -2.7 Q-10.95 -1.9 -11.45 0.0 -10.95 1.85 -14.55 2.75 L-14.6 2.8 -19.0 3.2 -23.4 2.8 -23.5 2.75 Q-27.05 1.85 -26.5 0.0 -27.05 -1.9 -23.45 -2.7 M-22.95 -13.25 Q-22.45 -15.15 -18.9 -14.05 L-18.95 -14.05 Q-17.1 -13.55 -14.85 -12.25 -12.6 -10.95 -11.3 -9.65 -8.55 -7.15 -9.9 -5.75 -10.4 -3.9 -14.0 -4.9 -15.8 -5.45 -18.05 -6.75 L-21.65 -9.3 -21.7 -9.35 Q-24.3 -11.9 -22.95 -13.25 M-9.4 -21.65 Q-8.05 -20.3 -6.75 -18.05 -5.45 -15.8 -4.95 -14.0 -3.85 -10.45 -5.75 -9.9 -7.1 -8.55 -9.65 -11.25 L-9.7 -11.25 Q-10.95 -12.6 -12.25 -14.85 -13.55 -17.1 -14.1 -18.9 L-14.1 -18.95 Q-15.1 -22.5 -13.25 -22.95 -11.85 -24.35 -9.35 -21.65 L-9.4 -21.65 M-13.15 -7.65 L-13.2 -7.65 Q-14.3 -8.75 -16.2 -9.85 -18.1 -10.95 -19.6 -11.35 L-19.65 -11.35 -19.8 -11.4 -19.65 -11.25 -19.7 -11.3 -16.6 -9.1 Q-14.75 -8.05 -13.25 -7.55 L-13.05 -7.5 -13.15 -7.65 M-7.7 -13.2 L-7.55 -13.05 -7.6 -13.25 -7.65 -13.3 Q-8.05 -14.8 -9.15 -16.65 -10.25 -18.55 -11.35 -19.7 L-11.5 -19.85 -11.4 -19.65 -11.45 -19.65 -9.85 -16.25 Q-8.8 -14.35 -7.7 -13.2 M-5.75 9.95 Q-3.9 10.4 -4.9 14.0 L-4.9 14.05 Q-5.45 15.8 -6.75 18.05 -8.05 20.3 -9.3 21.65 L-9.35 21.7 Q-11.9 24.3 -13.25 23.0 -15.15 22.45 -14.05 18.95 L-14.05 19.0 Q-13.55 17.1 -12.25 14.85 -10.95 12.6 -9.65 11.3 -7.15 8.55 -5.75 9.95 M-19.7 11.4 L-19.85 11.5 -19.65 11.45 Q-18.15 10.95 -16.25 9.9 -14.35 8.8 -13.2 7.75 L-13.05 7.6 -13.25 7.65 -13.3 7.65 Q-14.8 8.05 -16.65 9.15 -18.55 10.25 -19.7 11.35 L-19.7 11.4 M-11.25 9.7 Q-12.6 10.95 -14.85 12.25 -17.1 13.55 -18.9 14.1 L-18.95 14.15 Q-22.5 15.1 -22.95 13.25 -24.35 11.85 -21.65 9.35 L-21.65 9.4 Q-20.3 8.05 -18.05 6.75 -15.8 5.45 -14.0 4.95 -10.45 3.85 -9.9 5.75 -8.55 7.1 -11.25 9.7 M-11.35 19.65 L-11.4 19.85 -11.25 19.65 -11.3 19.7 -9.1 16.65 Q-8.05 14.75 -7.55 13.25 L-7.5 13.05 -7.65 13.2 -7.65 13.25 Q-8.75 14.3 -9.85 16.2 -10.95 18.1 -11.35 19.65" fill="#ffffff" fill-opacity="0.3019608" fill-rule="evenodd" stroke="none"/>
    <path d="M11.3 -19.65 L11.45 -19.8 11.4 -19.65 11.4 -19.6 9.85 -16.2 Q8.75 -14.3 7.7 -13.2 L7.65 -13.15 7.5 -13.05 7.6 -13.25 Q8.05 -14.75 9.15 -16.6 10.2 -18.55 11.3 -19.7 L11.3 -19.65 M0.45 -19.0 L0.05 -15.3 0.05 -15.25 0.0 -15.05 -0.05 -15.3 Q-0.4 -16.8 -0.4 -19.0 -0.4 -21.2 -0.05 -22.75 L-0.05 -22.7 0.0 -22.9 0.05 -22.75 0.05 -22.7 0.45 -19.0 M19.75 -11.35 L19.7 -11.35 16.7 -9.15 Q14.8 -8.05 13.3 -7.65 L13.25 -7.6 13.1 -7.55 13.25 -7.7 16.25 -9.85 Q18.15 -10.95 19.7 -11.45 L19.65 -11.4 19.85 -11.5 19.75 -11.35 M19.0 -0.4 L22.75 -0.05 22.7 -0.05 22.95 0.0 22.75 0.05 19.0 0.45 15.35 0.05 15.3 0.05 15.1 0.0 15.3 -0.05 19.0 -0.4 M13.25 7.6 Q14.75 8.05 16.65 9.15 18.55 10.2 19.7 11.3 L19.65 11.3 19.85 11.45 19.65 11.4 Q18.1 10.95 16.2 9.85 L13.25 7.7 13.2 7.65 13.05 7.5 13.25 7.6 M7.65 13.25 L7.6 13.1 7.75 13.25 Q8.8 14.35 9.9 16.25 L11.45 19.7 11.45 19.65 11.5 19.85 11.4 19.75 11.35 19.7 9.15 16.7 Q8.05 14.8 7.65 13.3 L7.65 13.25 M0.1 15.3 L0.45 19.0 0.1 22.75 0.1 22.7 0.05 22.95 0.0 22.75 Q-0.4 21.2 -0.4 19.0 -0.4 16.8 0.0 15.35 L0.0 15.3 0.05 15.1 0.1 15.3 M-22.7 0.0 L-18.95 -0.4 -15.3 0.0 -15.25 0.0 -15.05 0.05 -15.3 0.1 -18.95 0.45 -22.75 0.1 -22.7 0.1 -22.9 0.05 -22.75 0.0 -22.7 0.0 M-7.7 -13.2 Q-8.8 -14.35 -9.85 -16.25 L-11.45 -19.65 -11.4 -19.65 -11.5 -19.85 -11.35 -19.7 Q-10.25 -18.55 -9.15 -16.65 -8.05 -14.8 -7.65 -13.3 L-7.6 -13.25 -7.55 -13.05 -7.7 -13.2 M-13.15 -7.65 L-13.05 -7.5 -13.25 -7.55 Q-14.75 -8.05 -16.6 -9.1 L-19.7 -11.3 -19.65 -11.25 -19.8 -11.4 -19.65 -11.35 -19.6 -11.35 Q-18.1 -10.95 -16.2 -9.85 -14.3 -8.75 -13.2 -7.65 L-13.15 -7.65 M-19.7 11.4 L-19.7 11.35 Q-18.55 10.25 -16.65 9.15 -14.8 8.05 -13.3 7.65 L-13.25 7.65 -13.05 7.6 -13.2 7.75 Q-14.35 8.8 -16.25 9.9 -18.15 10.95 -19.65 11.45 L-19.85 11.5 -19.7 11.4 M-11.35 19.65 Q-10.95 18.1 -9.85 16.2 -8.75 14.3 -7.65 13.25 L-7.65 13.2 -7.5 13.05 -7.55 13.25 Q-8.05 14.75 -9.1 16.65 L-11.3 19.7 -11.25 19.65 -11.4 19.85 -11.35 19.65" fill="#ffffff" fill-rule="evenodd" stroke="none"/>
    <path d="M3.95 -14.65 Q5.45 -14.6 5.5 -12.25 L5.15 -9.45 4.75 -8.15 5.65 -9.15 7.85 -10.9 7.9 -10.9 Q9.95 -12.0 10.75 -10.75 12.05 -9.9 10.9 -7.85 10.35 -6.8 9.2 -5.6 L8.2 -4.7 9.45 -5.1 12.25 -5.5 12.3 -5.5 Q14.6 -5.4 14.7 -3.9 15.35 -2.55 13.35 -1.35 L13.4 -1.35 Q12.35 -0.7 10.75 -0.25 L9.5 0.0 10.75 0.3 13.35 1.3 13.4 1.35 Q15.35 2.6 14.7 3.95 14.6 5.45 12.25 5.5 L9.45 5.15 8.2 4.75 9.2 5.65 10.9 7.85 10.95 7.9 Q12.0 9.95 10.75 10.75 9.9 12.05 7.85 10.9 L7.9 10.9 Q6.8 10.35 5.65 9.2 L4.75 8.2 5.15 9.45 Q5.55 11.0 5.55 12.25 L5.55 12.3 Q5.4 14.6 3.95 14.7 2.55 15.35 1.35 13.35 L1.4 13.4 Q0.7 12.35 0.3 10.75 L0.0 9.5 -0.25 10.75 Q-0.7 12.3 -1.3 13.35 L-1.3 13.4 Q-2.6 15.35 -3.9 14.7 -5.45 14.6 -5.5 12.25 L-5.45 12.25 Q-5.55 11.05 -5.1 9.45 L-4.7 8.2 -5.6 9.2 -7.8 10.9 -7.85 10.95 Q-9.95 12.0 -10.75 10.75 -12.05 9.9 -10.9 7.85 L-10.9 7.9 Q-10.35 6.8 -9.15 5.65 L-8.15 4.75 -9.45 5.15 -12.2 5.55 -12.25 5.55 Q-14.6 5.4 -14.65 3.95 -15.35 2.55 -13.35 1.35 L-13.35 1.4 Q-12.35 0.7 -10.75 0.3 L-9.45 0.0 -10.75 -0.25 Q-12.3 -0.7 -13.35 -1.3 L-13.4 -1.3 Q-15.35 -2.6 -14.65 -3.9 -14.6 -5.45 -12.25 -5.5 L-12.25 -5.45 -9.45 -5.1 -8.15 -4.7 -9.15 -5.6 -10.9 -7.8 -10.9 -7.85 Q-12.0 -9.95 -10.75 -10.75 -9.9 -12.05 -7.85 -10.9 L-5.6 -9.15 -4.7 -8.15 -5.1 -9.45 Q-5.55 -11.0 -5.5 -12.2 L-5.5 -12.25 Q-5.4 -14.6 -3.9 -14.65 -2.55 -15.35 -1.35 -13.35 -0.7 -12.35 -0.25 -10.75 L0.0 -9.5 0.3 -10.75 Q0.7 -12.3 1.3 -13.35 L1.35 -13.4 Q2.6 -15.35 3.95 -14.65 M3.05 -10.0 L3.35 -12.35 3.35 -12.45 3.3 -12.35 2.4 -10.15 Q2.05 -8.85 2.05 -7.85 L2.05 -7.7 2.15 -7.8 2.15 -7.85 3.05 -10.0 M9.15 -9.15 L9.05 -9.1 Q8.15 -8.65 7.2 -7.65 6.25 -6.7 5.75 -5.8 L5.7 -5.7 5.8 -5.75 7.65 -7.2 9.1 -9.05 9.15 -9.15 M3.55 -6.1 Q2.55 -5.0 1.5 -5.5 0.35 -5.6 0.0 -7.0 -0.3 -5.6 -1.45 -5.5 -2.5 -5.0 -3.5 -6.1 -3.05 -4.7 -4.05 -4.05 -4.7 -3.05 -6.1 -3.55 -5.0 -2.55 -5.5 -1.45 -5.6 -0.3 -7.05 0.0 -5.6 0.3 -5.5 1.5 -5.0 2.5 -6.1 3.55 -4.7 3.05 -4.05 4.05 -3.05 4.7 -3.55 6.15 -2.55 5.0 -1.45 5.55 -0.3 5.6 0.0 7.05 0.3 5.6 1.5 5.55 2.5 5.0 3.55 6.15 3.05 4.7 4.05 4.05 4.7 3.05 6.15 3.55 5.0 2.55 5.55 1.5 5.6 0.3 7.05 0.0 5.6 -0.3 5.55 -1.45 5.0 -2.5 6.15 -3.5 4.7 -3.05 4.05 -4.05 3.05 -4.7 3.55 -6.1 M-2.1 7.85 Q-2.65 8.7 -3.0 10.0 -3.35 11.35 -3.3 12.35 L-3.35 12.4 -3.3 12.5 -3.25 12.35 -3.25 12.4 Q-2.75 11.5 -2.4 10.2 -2.05 8.85 -2.05 7.85 L-2.05 7.75 -2.1 7.85 M-5.75 5.85 L-5.65 5.7 -5.75 5.75 -5.8 5.8 -7.65 7.2 -9.1 9.1 -9.15 9.2 -9.0 9.15 -9.05 9.15 -7.2 7.65 -5.75 5.85 M-7.7 2.1 L-7.8 2.1 -7.85 2.1 -10.15 2.4 Q-11.5 2.75 -12.35 3.3 L-12.45 3.4 -12.3 3.4 -10.0 3.05 -7.8 2.2 -7.7 2.1 M-9.15 -9.15 L-9.1 -9.0 -9.1 -9.05 Q-8.65 -8.15 -7.65 -7.2 L-5.8 -5.75 -5.7 -5.65 -5.75 -5.75 -5.75 -5.8 Q-6.25 -6.7 -7.2 -7.65 L-9.05 -9.1 -9.15 -9.15 M-3.3 -12.35 L-3.35 -12.45 -3.35 -12.3 -3.0 -10.0 Q-2.7 -8.65 -2.15 -7.8 L-2.1 -7.7 -2.1 -7.8 -2.1 -7.85 Q-2.05 -8.85 -2.4 -10.15 L-3.3 -12.35 M-12.35 -3.3 L-12.35 -3.35 -12.45 -3.3 -12.35 -3.25 Q-11.5 -2.75 -10.15 -2.4 L-7.85 -2.05 -7.7 -2.05 -7.8 -2.1 -7.85 -2.1 Q-8.7 -2.65 -10.0 -3.0 L-12.35 -3.3 M2.4 10.2 L3.3 12.35 3.3 12.4 3.4 12.5 3.4 12.35 3.05 10.0 Q2.7 8.65 2.2 7.85 L2.1 7.7 2.1 7.85 2.1 7.9 Q2.05 8.85 2.4 10.2 M5.85 5.75 L5.7 5.7 5.75 5.8 5.8 5.8 7.2 7.65 9.1 9.1 9.2 9.15 9.15 9.05 7.65 7.2 5.85 5.75 M12.35 3.35 L12.4 3.35 12.5 3.35 12.4 3.3 12.35 3.25 Q11.5 2.75 10.2 2.4 L7.85 2.05 7.75 2.05 7.85 2.15 10.0 3.05 12.35 3.35 M10.0 -3.0 Q8.65 -2.7 7.85 -2.15 L7.7 -2.1 7.85 -2.1 7.9 -2.1 10.2 -2.4 Q11.5 -2.75 12.35 -3.3 L12.4 -3.3 12.5 -3.35 12.35 -3.35 10.0 -3.0" fill="#ffffff" fill-opacity="0.3019608" fill-rule="evenodd" stroke="none"/>
    <path d="M9.15 -9.15 L9.1 -9.05 7.65 -7.2 5.8 -5.75 5.7 -5.7 5.75 -5.8 Q6.25 -6.7 7.2 -7.65 8.15 -8.65 9.05 -9.1 L9.15 -9.15 M3.05 -10.0 L2.15 -7.85 2.15 -7.8 2.05 -7.7 2.05 -7.85 Q2.05 -8.85 2.4 -10.15 L3.3 -12.35 3.35 -12.45 3.35 -12.35 3.05 -10.0 M10.0 -3.0 L12.35 -3.35 12.5 -3.35 12.4 -3.3 12.35 -3.3 Q11.5 -2.75 10.2 -2.4 L7.9 -2.1 7.85 -2.1 7.7 -2.1 7.85 -2.15 Q8.65 -2.7 10.0 -3.0 M12.35 3.35 L10.0 3.05 7.85 2.15 7.75 2.05 7.85 2.05 10.2 2.4 Q11.5 2.75 12.35 3.25 L12.4 3.3 12.5 3.35 12.4 3.35 12.35 3.35 M5.85 5.75 L7.65 7.2 9.15 9.05 9.2 9.15 9.1 9.1 7.2 7.65 5.8 5.8 5.75 5.8 5.7 5.7 5.85 5.75 M2.4 10.2 Q2.05 8.85 2.1 7.9 L2.1 7.85 2.1 7.7 2.2 7.85 Q2.7 8.65 3.05 10.0 L3.4 12.35 3.4 12.5 3.3 12.4 3.3 12.35 2.4 10.2 M-12.35 -3.3 L-10.0 -3.0 Q-8.7 -2.65 -7.85 -2.1 L-7.8 -2.1 -7.7 -2.05 -7.85 -2.05 -10.15 -2.4 Q-11.5 -2.75 -12.35 -3.25 L-12.45 -3.3 -12.35 -3.35 -12.35 -3.3 M-3.3 -12.35 L-2.4 -10.15 Q-2.05 -8.85 -2.1 -7.85 L-2.1 -7.8 -2.1 -7.7 -2.15 -7.8 Q-2.7 -8.65 -3.0 -10.0 L-3.35 -12.3 -3.35 -12.45 -3.3 -12.35 M-9.15 -9.15 L-9.05 -9.1 -7.2 -7.65 Q-6.25 -6.7 -5.75 -5.8 L-5.75 -5.75 -5.7 -5.65 -5.8 -5.75 -7.65 -7.2 Q-8.65 -8.15 -9.1 -9.05 L-9.1 -9.0 -9.15 -9.15 M-7.7 2.1 L-7.8 2.2 -10.0 3.05 -12.3 3.4 -12.45 3.4 -12.35 3.3 Q-11.5 2.75 -10.15 2.4 L-7.85 2.1 -7.8 2.1 -7.7 2.1 M-5.75 5.85 L-7.2 7.65 -9.05 9.15 -9.0 9.15 -9.15 9.2 -9.1 9.1 -7.65 7.2 -5.8 5.8 -5.75 5.75 -5.65 5.7 -5.75 5.85 M-2.1 7.85 L-2.05 7.75 -2.05 7.85 Q-2.05 8.85 -2.4 10.2 -2.75 11.5 -3.25 12.4 L-3.25 12.35 -3.3 12.5 -3.35 12.4 -3.3 12.35 Q-3.35 11.35 -3.0 10.0 -2.65 8.7 -2.1 7.85" fill="#ffffff" fill-rule="evenodd" stroke="none"/>
  </g>
</svg>
