<?xml version="1.0" encoding="UTF-8" standalone="no"?>
<svg xmlns:ffdec="https://www.free-decompiler.com/flash" xmlns:xlink="http://www.w3.org/1999/xlink" ffdec:objectType="shape" height="345px" width="345px" viewBox="0 0 69 69" xmlns="http://www.w3.org/2000/svg">
  <g transform="matrix(1.0, 0.0, 0.0, 1.0, 34.5, 34.5)">
    <path d="M2.35 -25.75 Q2.35 -22.8 2.0 -20.7 1.4 -16.5 0.0 -17.05 -1.35 -16.5 -2.0 -20.65 L-2.0 -20.7 Q-2.35 -22.75 -2.35 -25.75 -2.35 -28.7 -2.0 -30.8 L-2.0 -30.9 Q-1.35 -35.0 0.0 -34.4 1.4 -35.0 2.0 -30.85 L2.0 -30.9 Q2.35 -28.75 2.35 -25.75 M15.1 -26.0 L15.15 -26.05 15.2 -26.25 15.05 -26.05 15.05 -26.1 12.7 -22.45 Q11.4 -20.3 10.8 -18.65 L10.7 -18.4 10.8 -18.6 10.85 -18.65 13.2 -22.15 15.1 -26.0 M0.3 -25.75 L0.05 -30.05 0.0 -30.25 -0.05 -30.05 -0.3 -25.75 -0.05 -21.5 0.0 -21.25 0.05 -21.45 0.05 -21.5 0.3 -25.75 M17.25 -29.8 Q18.75 -29.6 17.2 -25.7 L17.2 -25.75 Q16.45 -23.75 14.95 -21.1 13.45 -18.55 12.15 -16.95 9.5 -13.6 8.6 -14.8 7.1 -14.95 8.6 -18.9 9.35 -20.85 10.9 -23.45 12.35 -26.05 13.7 -27.7 L13.75 -27.8 Q16.35 -31.0 17.25 -29.8 M18.55 -10.8 L18.35 -10.65 18.6 -10.75 18.65 -10.8 Q20.25 -11.4 22.45 -12.65 24.6 -13.9 26.0 -15.05 L26.05 -15.05 26.2 -15.2 26.0 -15.1 25.95 -15.1 Q24.25 -14.45 22.1 -13.15 19.9 -11.9 18.55 -10.8 M16.9 -12.1 Q18.55 -13.4 21.15 -14.9 23.7 -16.4 25.7 -17.2 L25.8 -17.2 Q29.65 -18.7 29.8 -17.2 31.0 -16.3 27.75 -13.75 L27.75 -13.7 23.5 -10.85 Q20.9 -9.4 18.95 -8.65 L14.8 -8.55 Q13.6 -9.45 16.9 -12.1 M30.1 -0.05 L25.75 -0.3 21.5 -0.05 21.25 0.0 21.5 0.05 21.55 0.05 25.75 0.3 30.05 0.05 30.1 0.05 30.3 0.0 30.05 -0.05 30.1 -0.05 M25.75 -2.35 L30.85 -2.0 30.95 -2.0 Q35.0 -1.35 34.45 0.0 35.0 1.4 30.9 2.0 L25.75 2.35 20.75 2.0 Q16.5 1.4 17.1 0.0 16.5 -1.35 20.7 -2.0 L25.75 -2.35 M26.05 15.05 L26.1 15.05 22.5 12.7 Q20.3 11.4 18.65 10.8 L18.45 10.7 18.6 10.8 18.65 10.85 22.15 13.2 Q24.35 14.45 26.05 15.1 L26.05 15.15 26.25 15.2 26.05 15.05 M29.8 17.25 Q29.6 18.75 25.75 17.2 23.75 16.45 21.15 14.95 L16.95 12.15 Q13.6 9.5 14.8 8.6 14.95 7.1 18.9 8.6 L18.95 8.6 23.5 10.9 27.75 13.7 27.8 13.75 Q31.0 16.35 29.8 17.25 M2.05 20.7 L2.35 25.75 2.05 30.85 2.05 30.95 Q1.35 35.0 0.0 34.45 -1.4 35.0 -2.0 30.9 L-1.95 30.9 Q-2.35 28.75 -2.35 25.75 -2.35 22.8 -2.0 20.75 -1.4 16.5 0.0 17.1 1.35 16.5 2.05 20.7 M0.05 21.5 L0.05 21.25 0.0 21.5 0.0 21.55 -0.3 25.75 0.0 30.05 0.0 30.1 0.05 30.3 0.05 30.05 0.05 30.1 0.3 25.75 0.05 21.5 M8.6 14.8 Q9.45 13.6 12.1 16.9 L12.15 16.9 14.95 21.15 17.2 25.7 17.25 25.8 Q18.7 29.65 17.25 29.8 16.3 31.0 13.75 27.75 12.35 26.05 10.9 23.5 9.4 20.9 8.65 18.95 7.05 15.0 8.6 14.8 M-15.1 -26.0 L-15.1 -25.95 Q-14.4 -24.25 -13.15 -22.1 L-10.8 -18.55 -10.65 -18.35 -10.75 -18.55 -10.8 -18.6 Q-11.4 -20.25 -12.65 -22.4 -13.9 -24.6 -15.05 -26.0 L-15.2 -26.15 -15.1 -26.0 M10.85 18.55 L10.7 18.35 10.75 18.6 10.8 18.65 Q11.4 20.25 12.65 22.45 L15.05 26.0 15.1 26.05 15.2 26.2 15.15 26.0 15.1 25.95 Q14.45 24.25 13.2 22.1 L10.85 18.55 M-17.2 -25.75 Q-18.7 -29.65 -17.2 -29.8 -16.3 -31.0 -13.75 -27.75 L-13.7 -27.7 Q-12.35 -26.05 -10.85 -23.45 -9.4 -20.9 -8.65 -18.95 -7.05 -15.0 -8.55 -14.8 -9.45 -13.6 -12.1 -16.85 L-12.1 -16.9 Q-13.4 -18.55 -14.9 -21.1 L-17.2 -25.7 -17.2 -25.75 M-26.0 -15.1 L-26.05 -15.1 -26.25 -15.15 -26.05 -15.0 -26.1 -15.05 Q-24.65 -13.95 -22.45 -12.65 -20.3 -11.4 -18.65 -10.75 L-18.4 -10.65 -18.6 -10.8 -18.65 -10.8 Q-20.0 -11.95 -22.15 -13.2 -24.35 -14.45 -26.0 -15.1 M-27.8 -13.7 Q-31.0 -16.35 -29.8 -17.2 -29.6 -18.75 -25.7 -17.2 L-25.75 -17.2 Q-23.75 -16.45 -21.1 -14.9 L-16.95 -12.1 Q-13.6 -9.5 -14.8 -8.55 -14.95 -7.1 -18.9 -8.6 -20.85 -9.35 -23.45 -10.85 L-27.7 -13.65 -27.8 -13.7 M-30.9 -1.95 L-25.75 -2.35 -20.7 -2.0 Q-16.5 -1.4 -17.05 0.0 -16.5 1.35 -20.65 2.05 L-20.7 2.05 -25.75 2.35 -30.8 2.05 -30.9 2.05 Q-35.0 1.35 -34.4 0.0 -35.0 -1.4 -30.85 -2.0 L-30.9 -1.95 M-18.35 10.7 L-18.55 10.75 -18.6 10.8 Q-20.25 11.4 -22.4 12.65 -24.6 13.9 -26.0 15.05 L-26.0 15.1 -26.15 15.2 -26.0 15.15 -25.95 15.1 Q-24.25 14.45 -22.1 13.2 -19.9 11.9 -18.55 10.85 L-18.35 10.7 M-25.75 -0.3 L-30.05 0.0 -30.25 0.05 -30.0 0.05 -30.05 0.05 -25.75 0.3 -21.5 0.05 -21.25 0.05 -21.45 0.0 -21.5 0.0 -25.75 -0.3 M-14.8 8.6 Q-13.6 9.45 -16.85 12.1 L-16.9 12.15 -21.1 14.95 -25.7 17.2 -25.75 17.25 Q-29.65 18.7 -29.8 17.25 -31.0 16.3 -27.75 13.75 L-27.7 13.75 Q-26.05 12.35 -23.45 10.9 -20.9 9.4 -18.95 8.65 -15.0 7.05 -14.8 8.6 M-10.8 18.65 L-13.2 22.15 Q-14.45 24.35 -15.1 26.05 L-15.15 26.25 -15.0 26.05 -15.05 26.1 -12.65 22.5 -10.75 18.65 -10.65 18.45 -10.8 18.6 -10.8 18.65 M-12.1 16.95 Q-9.5 13.6 -8.55 14.8 -7.1 14.95 -8.6 18.9 L-8.6 18.95 Q-9.35 20.85 -10.85 23.5 L-13.65 27.75 -13.7 27.8 Q-16.35 31.0 -17.2 29.8 -18.75 29.6 -17.2 25.75 -16.45 23.75 -14.9 21.15 -13.45 18.55 -12.1 16.95" fill="#ffffff" fill-opacity="0.3019608" fill-rule="evenodd" stroke="none"/>
    <path d="M0.3 -25.75 L0.05 -21.5 0.05 -21.45 0.0 -21.25 -0.05 -21.5 -0.3 -25.75 -0.05 -30.05 0.0 -30.25 0.05 -30.05 0.3 -25.75 M15.1 -26.0 L13.2 -22.15 10.85 -18.65 10.8 -18.6 10.7 -18.4 10.8 -18.65 Q11.4 -20.3 12.7 -22.45 L15.05 -26.1 15.05 -26.05 15.2 -26.25 15.15 -26.05 15.1 -26.0 M18.55 -10.8 Q19.9 -11.9 22.1 -13.15 24.25 -14.45 25.95 -15.1 L26.0 -15.1 26.2 -15.2 26.05 -15.05 26.0 -15.05 Q24.6 -13.9 22.45 -12.65 20.25 -11.4 18.65 -10.8 L18.6 -10.75 18.35 -10.65 18.55 -10.8 M30.1 -0.05 L30.05 -0.05 30.3 0.0 30.1 0.05 30.05 0.05 25.75 0.3 21.55 0.05 21.5 0.05 21.25 0.0 21.5 -0.05 25.75 -0.3 30.1 -0.05 M26.05 15.05 L26.25 15.2 26.05 15.15 26.05 15.1 Q24.35 14.45 22.15 13.2 L18.65 10.85 18.6 10.8 18.45 10.7 18.65 10.8 Q20.3 11.4 22.5 12.7 L26.1 15.05 26.05 15.05 M0.05 21.5 L0.3 25.75 0.05 30.1 0.05 30.05 0.05 30.3 0.0 30.1 0.0 30.05 -0.3 25.75 0.0 21.55 0.0 21.5 0.05 21.25 0.05 21.5 M10.85 18.55 L13.2 22.1 Q14.45 24.25 15.1 25.95 L15.15 26.0 15.2 26.2 15.1 26.05 15.05 26.0 12.65 22.45 Q11.4 20.25 10.8 18.65 L10.75 18.6 10.7 18.35 10.85 18.55 M-15.1 -26.0 L-15.2 -26.15 -15.05 -26.0 Q-13.9 -24.6 -12.65 -22.4 -11.4 -20.25 -10.8 -18.6 L-10.75 -18.55 -10.65 -18.35 -10.8 -18.55 -13.15 -22.1 Q-14.4 -24.25 -15.1 -25.95 L-15.1 -26.0 M-26.0 -15.1 Q-24.35 -14.45 -22.15 -13.2 -20.0 -11.95 -18.65 -10.8 L-18.6 -10.8 -18.4 -10.65 -18.65 -10.75 Q-20.3 -11.4 -22.45 -12.65 -24.65 -13.95 -26.1 -15.05 L-26.05 -15.0 -26.25 -15.15 -26.05 -15.1 -26.0 -15.1 M-25.75 -0.3 L-21.5 0.0 -21.45 0.0 -21.25 0.05 -21.5 0.05 -25.75 0.3 -30.05 0.05 -30.0 0.05 -30.25 0.05 -30.05 0.0 -25.75 -0.3 M-18.35 10.7 L-18.55 10.85 Q-19.9 11.9 -22.1 13.2 -24.25 14.45 -25.95 15.1 L-26.0 15.15 -26.15 15.2 -26.0 15.1 -26.0 15.05 Q-24.6 13.9 -22.4 12.65 -20.25 11.4 -18.6 10.8 L-18.55 10.75 -18.35 10.7 M-10.8 18.65 L-10.8 18.6 -10.65 18.45 -10.75 18.65 -12.65 22.5 -15.05 26.1 -15.0 26.05 -15.15 26.25 -15.1 26.05 Q-14.45 24.35 -13.2 22.15 L-10.8 18.65" fill="#ffffff" fill-rule="evenodd" stroke="none"/>
    <path d="M12.9 -12.95 L12.9 -12.9 10.8 -11.1 9.0 -9.05 8.9 -8.9 9.0 -9.0 9.05 -9.0 11.15 -10.75 12.95 -12.9 13.0 -13.0 12.9 -12.95 M14.9 -14.9 Q15.95 -14.35 14.45 -12.1 L14.45 -12.15 12.3 -9.6 9.8 -7.5 Q7.55 -5.95 7.0 -7.0 5.95 -7.5 7.5 -9.75 L7.5 -9.8 9.65 -12.25 Q10.95 -13.65 12.1 -14.4 L12.15 -14.45 Q14.4 -15.95 14.9 -14.9 M4.7 -17.65 L4.7 -17.6 Q4.2 -16.55 3.8 -15.0 3.35 -13.45 3.25 -12.3 L3.25 -12.15 3.3 -12.25 3.35 -12.3 4.25 -14.85 4.75 -17.6 4.75 -17.75 4.7 -17.65 M3.25 -18.55 L3.3 -18.55 Q4.5 -21.0 5.45 -20.35 6.6 -20.45 6.4 -17.7 L5.85 -14.45 4.75 -11.4 Q3.55 -8.9 2.55 -9.55 1.4 -9.45 1.6 -12.2 L2.2 -15.45 Q2.65 -17.3 3.25 -18.55 M17.75 -6.4 Q20.45 -6.6 20.35 -5.45 21.0 -4.45 18.55 -3.3 L18.6 -3.3 Q17.3 -2.65 15.45 -2.15 L12.25 -1.6 Q9.5 -1.35 9.55 -2.55 8.9 -3.5 11.4 -4.7 L11.4 -4.75 14.45 -5.8 17.7 -6.4 17.75 -6.4 M17.65 4.75 L17.75 4.75 17.65 4.7 17.6 4.7 15.0 3.8 Q13.45 3.35 12.3 3.25 L12.15 3.25 12.3 3.3 12.3 3.35 14.9 4.25 17.65 4.75 M12.3 -3.35 L12.15 -3.3 12.25 -3.3 12.3 -3.3 15.0 -3.8 17.6 -4.75 17.65 -4.75 17.75 -4.8 17.6 -4.8 14.85 -4.25 12.3 -3.35 M18.55 3.25 L18.6 3.3 Q21.0 4.5 20.35 5.45 20.45 6.6 17.75 6.4 L14.45 5.85 11.4 4.75 Q8.9 3.55 9.55 2.55 9.45 1.4 12.2 1.6 L12.25 1.6 15.45 2.2 Q17.3 2.65 18.55 3.25 M14.45 12.15 Q15.95 14.4 14.9 14.9 14.35 15.95 12.15 14.45 L9.65 12.3 Q8.25 10.95 7.55 9.8 5.95 7.55 7.0 7.0 7.5 5.95 9.8 7.5 L12.3 9.65 14.45 12.1 14.45 12.15 M3.35 12.25 L3.35 12.3 Q3.4 13.4 3.8 15.0 L4.75 17.6 4.75 17.65 4.8 17.75 4.8 17.6 4.3 14.85 3.4 12.3 3.3 12.15 3.35 12.25 M4.75 11.4 L5.85 14.45 6.45 17.7 6.45 17.75 Q6.6 20.45 5.45 20.35 4.45 21.0 3.3 18.55 L3.3 18.6 Q2.65 17.3 2.2 15.45 L1.6 12.25 Q1.35 9.5 2.55 9.55 3.5 8.9 4.75 11.4 M9.05 9.0 L8.95 8.9 9.0 9.0 9.05 9.05 10.8 11.15 12.9 12.95 12.95 12.95 13.05 13.0 12.95 12.9 11.15 10.8 Q10.0 9.65 9.05 9.0 M-6.4 -17.75 Q-6.6 -20.45 -5.45 -20.35 -4.45 -21.0 -3.3 -18.55 -2.65 -17.3 -2.15 -15.45 -1.7 -13.6 -1.6 -12.25 -1.35 -9.5 -2.55 -9.55 -3.5 -8.9 -4.7 -11.35 L-4.75 -11.35 -5.8 -14.45 Q-6.3 -16.3 -6.4 -17.7 L-6.4 -17.75 M-12.9 -12.9 L-13.0 -13.0 -12.95 -12.9 -12.9 -12.85 -11.1 -10.75 -9.05 -8.95 -8.9 -8.9 -9.0 -9.0 -10.75 -11.1 -12.9 -12.9 M-3.8 -14.95 L-4.75 -17.6 -4.8 -17.7 -4.8 -17.6 -4.25 -14.85 -3.35 -12.25 -3.3 -12.1 -3.3 -12.25 -3.3 -12.3 Q-3.4 -13.4 -3.8 -14.95 M-12.1 -14.4 L-12.15 -14.4 -9.6 -12.25 -7.5 -9.8 Q-5.95 -7.55 -7.0 -7.0 -7.5 -5.95 -9.75 -7.45 L-9.8 -7.45 Q-10.9 -8.25 -12.25 -9.6 L-14.4 -12.1 -14.45 -12.15 Q-15.95 -14.4 -14.9 -14.9 -14.35 -15.95 -12.1 -14.4 M-17.7 -6.4 L-14.45 -5.8 Q-12.6 -5.35 -11.4 -4.7 -8.9 -3.55 -9.55 -2.55 -9.45 -1.4 -12.2 -1.55 L-15.45 -2.15 -18.55 -3.25 -18.6 -3.3 Q-21.0 -4.5 -20.35 -5.45 -20.45 -6.65 -17.7 -6.4 M-8.9 8.95 L-9.0 9.0 -9.0 9.05 -11.1 10.8 -12.9 12.9 -12.9 12.95 -13.0 13.05 -12.9 12.95 -12.85 12.95 -10.75 11.15 -8.95 9.05 -8.9 8.95 M-17.6 -4.75 L-17.75 -4.75 -17.65 -4.7 -17.6 -4.65 -15.0 -3.75 -12.3 -3.25 -12.15 -3.25 -12.25 -3.3 -12.3 -3.3 Q-13.3 -3.85 -14.85 -4.25 L-17.6 -4.7 -17.6 -4.75 M-7.45 9.8 L-9.6 12.3 Q-10.95 13.65 -12.1 14.45 L-12.15 14.45 Q-14.4 15.95 -14.9 14.9 -15.95 14.35 -14.4 12.15 L-12.25 9.65 Q-10.95 8.25 -9.8 7.55 -7.55 5.95 -7.0 7.0 -5.95 7.5 -7.45 9.8 M-3.25 12.3 L-3.25 12.15 -3.3 12.3 -4.25 14.9 -4.7 17.65 -4.75 17.65 -4.75 17.75 -4.7 17.65 -4.65 17.6 -3.75 15.0 Q-3.35 13.45 -3.25 12.3 M-2.55 9.55 Q-1.4 9.45 -1.55 12.2 L-1.55 12.25 -2.15 15.45 Q-2.65 17.3 -3.25 18.55 L-3.3 18.6 Q-4.5 21.0 -5.45 20.35 -6.6 20.45 -6.4 17.75 -6.3 16.35 -5.8 14.45 -5.35 12.6 -4.7 11.4 -3.55 8.9 -2.55 9.55 M-12.25 3.4 L-12.1 3.3 -12.25 3.35 -12.3 3.35 -14.95 3.8 -17.6 4.75 -17.7 4.8 -17.6 4.8 -14.85 4.3 -12.25 3.4 M-11.35 4.75 Q-12.6 5.35 -14.45 5.85 L-17.7 6.45 -17.75 6.45 Q-20.45 6.6 -20.35 5.45 -21.0 4.45 -18.55 3.3 L-15.45 2.2 -12.25 1.6 Q-9.5 1.35 -9.55 2.55 -8.9 3.5 -11.35 4.75" fill="#ffffff" fill-opacity="0.3019608" fill-rule="evenodd" stroke="none"/>
    <path d="M12.9 -12.95 L13.0 -13.0 12.95 -12.9 11.15 -10.75 9.05 -9.0 9.0 -9.0 8.9 -8.9 9.0 -9.05 10.8 -11.1 12.9 -12.9 12.9 -12.95 M4.7 -17.65 L4.75 -17.75 4.75 -17.6 4.25 -14.85 3.35 -12.3 3.3 -12.25 3.25 -12.15 3.25 -12.3 Q3.35 -13.45 3.8 -15.0 4.2 -16.55 4.7 -17.6 L4.7 -17.65 M12.3 -3.35 L14.85 -4.25 17.6 -4.8 17.75 -4.8 17.65 -4.75 17.6 -4.75 15.0 -3.8 12.3 -3.3 12.25 -3.3 12.15 -3.3 12.3 -3.35 M17.65 4.75 L14.9 4.25 12.3 3.35 12.3 3.3 12.15 3.25 12.3 3.25 Q13.45 3.35 15.0 3.8 L17.6 4.7 17.65 4.7 17.75 4.75 17.65 4.75 M3.35 12.25 L3.3 12.15 3.4 12.3 4.3 14.85 4.8 17.6 4.8 17.75 4.75 17.65 4.75 17.6 3.8 15.0 Q3.4 13.4 3.35 12.3 L3.35 12.25 M9.05 9.0 Q10.0 9.65 11.15 10.8 L12.95 12.9 13.05 13.0 12.95 12.95 12.9 12.95 10.8 11.15 9.05 9.05 9.0 9.0 8.95 8.9 9.05 9.0 M-3.8 -14.95 Q-3.4 -13.4 -3.3 -12.3 L-3.3 -12.25 -3.3 -12.1 -3.35 -12.25 -4.25 -14.85 -4.8 -17.6 -4.8 -17.7 -4.75 -17.6 -3.8 -14.95 M-12.9 -12.9 L-10.75 -11.1 -9.0 -9.0 -8.9 -8.9 -9.05 -8.95 -11.1 -10.75 -12.9 -12.85 -12.95 -12.9 -13.0 -13.0 -12.9 -12.9 M-17.6 -4.75 L-17.6 -4.7 -14.85 -4.25 Q-13.3 -3.85 -12.3 -3.3 L-12.25 -3.3 -12.15 -3.25 -12.3 -3.25 -15.0 -3.75 -17.6 -4.65 -17.65 -4.7 -17.75 -4.75 -17.6 -4.75 M-8.9 8.95 L-8.95 9.05 -10.75 11.15 -12.85 12.95 -12.9 12.95 -13.0 13.05 -12.9 12.95 -12.9 12.9 -11.1 10.8 -9.0 9.05 -9.0 9.0 -8.9 8.95 M-3.25 12.3 Q-3.35 13.45 -3.75 15.0 L-4.65 17.6 -4.7 17.65 -4.75 17.75 -4.75 17.65 -4.7 17.65 -4.25 14.9 -3.3 12.3 -3.25 12.15 -3.25 12.3 M-12.25 3.4 L-14.85 4.3 -17.6 4.8 -17.7 4.8 -17.6 4.75 -14.95 3.8 -12.3 3.35 -12.25 3.35 -12.1 3.3 -12.25 3.4" fill="#ffffff" fill-rule="evenodd" stroke="none"/>
  </g>
</svg>
