<?xml version="1.0" encoding="UTF-8" standalone="no"?>
<svg xmlns:ffdec="https://www.free-decompiler.com/flash" xmlns:xlink="http://www.w3.org/1999/xlink" ffdec:objectType="shape" height="99px" width="80.0px" viewBox="0 0 16 19.8" xmlns="http://www.w3.org/2000/svg">
  <g transform="matrix(1.0, 0.0, 0.0, 1.0, 8.0, 11.8)">
    <path d="M4.4 -2.6 Q2.6 -4.35 0.1 -4.35 -2.4 -4.35 -4.2 -2.6 -5.95 -0.8 -5.95 1.7 -5.95 4.2 -4.2 6.0 -2.4 7.8 0.1 7.8 2.6 7.8 4.4 6.0 6.2 4.2 6.2 1.7 6.2 -0.8 4.4 -2.6 M8.0 0.0 Q8.0 3.25 5.6 5.6 3.3 7.95 0.0 8.0 L-0.55 7.95 Q-3.5 7.8 -5.7 5.6 -8.0 3.25 -8.0 0.0 -8.0 -3.35 -5.7 -5.7 -3.5 -7.85 -2.65 -9.7 -1.8 -11.6 -0.1 -11.8 1.6 -12.05 4.8 -7.65 7.95 -3.35 8.0 0.0" fill="#1d3030" fill-rule="evenodd" stroke="none"/>
    <path d="M3.15 -0.4 Q4.45 0.9 4.45 2.7 4.45 4.5 3.15 5.8 L1.95 6.7 0.05 7.1 Q-1.75 7.1 -3.05 5.8 -4.35 4.5 -4.35 2.7 -4.35 0.9 -3.05 -0.4 -1.9 -1.55 -0.35 -1.65 L0.05 -1.7 Q1.85 -1.7 3.15 -0.4" fill="#396060" fill-rule="evenodd" stroke="none"/>
    <path d="M3.15 -0.4 Q1.85 -1.7 0.05 -1.7 L-0.35 -1.65 Q-1.9 -1.55 -3.05 -0.4 -4.35 0.9 -4.35 2.7 -4.35 4.5 -3.05 5.8 -1.75 7.1 0.05 7.1 L1.95 6.7 3.15 5.8 Q4.45 4.5 4.45 2.7 4.45 0.9 3.15 -0.4 M4.4 -2.6 Q6.2 -0.8 6.2 1.7 6.2 4.2 4.4 6.0 2.6 7.8 0.1 7.8 -2.4 7.8 -4.2 6.0 -5.95 4.2 -5.95 1.7 -5.95 -0.8 -4.2 -2.6 -2.4 -4.35 0.1 -4.35 2.6 -4.35 4.4 -2.6" fill="#294545" fill-rule="evenodd" stroke="none"/>
  </g>
</svg>
