<?xml version="1.0" encoding="UTF-8" standalone="no"?>
<svg xmlns:ffdec="https://www.free-decompiler.com/flash" xmlns:xlink="http://www.w3.org/1999/xlink" ffdec:objectType="shape" height="40.0px" width="40.0px" xmlns="http://www.w3.org/2000/svg">
  <g transform="matrix(5.0, 0.0, 0.0, 5.0, 20.0, 20.0)">
    <path d="M0.0 -1.5 L-1.05 -1.05 -1.5 0.0 -1.05 1.05 0.0 1.5 1.05 1.05 1.5 0.0 1.05 -1.05 0.0 -1.5 M2.3 -2.3 Q3.25 -1.35 3.25 0.0 3.25 1.35 2.3 2.3 1.35 3.25 0.0 3.25 -1.35 3.25 -2.3 2.3 -3.25 1.35 -3.25 0.0 -3.25 -1.35 -2.3 -2.3 -1.35 -3.25 0.0 -3.25 1.35 -3.25 2.3 -2.3" fill="#36c2d1" fill-opacity="0.5019608" fill-rule="evenodd" stroke="none"/>
    <path d="M2.3 -2.3 Q1.35 -3.25 0.0 -3.25 -1.35 -3.25 -2.3 -2.3 -3.25 -1.35 -3.25 0.0 -3.25 1.35 -2.3 2.3 -1.35 3.25 0.0 3.25 1.35 3.25 2.3 2.3 3.25 1.35 3.25 0.0 3.25 -1.35 2.3 -2.3 M0.0 -4.0 Q1.65 -4.0 2.8 -2.85 4.0 -1.65 4.0 0.0 4.0 1.65 2.8 2.8 1.65 4.0 0.0 4.0 -1.65 4.0 -2.85 2.8 -4.0 1.65 -4.0 0.0 -4.0 -1.65 -2.85 -2.85 -1.65 -4.0 0.0 -4.0" fill="#beeaf3" fill-rule="evenodd" stroke="none"/>
  </g>
</svg>
