<?xml version="1.0" encoding="UTF-8" standalone="no"?>
<svg xmlns:ffdec="https://www.free-decompiler.com/flash" xmlns:xlink="http://www.w3.org/1999/xlink" ffdec:objectType="shape" height="22.5px" width="22.5px" viewBox="0 0 4.5 4.5" xmlns="http://www.w3.org/2000/svg">
  <g transform="matrix(1.0, 0.0, 0.0, 1.0, 2.25, 2.25)">
    <path d="M0.1 -1.45 Q-0.45 -1.45 -0.85 -1.05 -1.25 -0.65 -1.25 -0.1 -1.25 0.45 -0.85 0.85 -0.45 1.25 0.1 1.25 0.65 1.25 1.05 0.85 1.45 0.45 1.45 -0.1 1.45 -0.65 1.05 -1.05 0.65 -1.45 0.1 -1.45 M2.25 0.0 Q2.25 0.95 1.6 1.6 0.95 2.25 0.0 2.25 -0.95 2.25 -1.6 1.6 -2.25 0.95 -2.25 0.0 -2.25 -0.95 -1.6 -1.6 -0.95 -2.25 0.0 -2.25 0.95 -2.25 1.6 -1.6 2.25 -0.95 2.25 0.0" fill="#cfe1e2" fill-rule="evenodd" stroke="none"/>
    <path d="M0.1 -1.45 Q0.65 -1.45 1.05 -1.05 1.45 -0.65 1.45 -0.1 1.45 0.45 1.05 0.85 0.65 1.25 0.1 1.25 -0.45 1.25 -0.85 0.85 -1.25 0.45 -1.25 -0.1 -1.25 -0.65 -0.85 -1.05 -0.45 -1.45 0.1 -1.45" fill="#ffffff" fill-rule="evenodd" stroke="none"/>
  </g>
</svg>
