<?xml version="1.0" encoding="UTF-8" standalone="no"?>
<svg xmlns:ffdec="https://www.free-decompiler.com/flash" xmlns:xlink="http://www.w3.org/1999/xlink" ffdec:objectType="shape" height="44.25px" width="22.25px" viewBox="0 0 4.45 8.85" xmlns="http://www.w3.org/2000/svg">
  <g transform="matrix(1.0, 0.0, 0.0, 1.0, 5.4, 3.95)">
    <path d="M-0.95 -1.05 Q-0.95 1.25 -2.8 1.25 -5.4 1.25 -5.4 -1.5 -5.4 -3.95 -3.35 -3.95 -0.95 -4.0 -0.95 -1.05 M-4.85 2.9 Q-4.85 3.55 -3.8 3.85 -2.9 3.9 -2.9 3.0 -2.9 1.95 -3.95 1.95 L-4.4 2.05 Q-4.85 2.25 -4.85 2.9 M-3.3 -2.5 L-4.05 -2.3 Q-4.75 -1.9 -4.75 -0.9 -4.75 0.75 -3.3 0.8 -1.75 0.8 -1.75 -0.75 -1.75 -2.5 -3.3 -2.5 M-3.45 4.9 Q-5.35 4.9 -5.3 3.15 -5.3 2.05 -4.6 1.7 L-3.95 1.55 Q-2.2 1.55 -2.2 3.7 -2.2 4.9 -3.45 4.9" fill="#cfe1e2" fill-rule="evenodd" stroke="none"/>
    <path d="M-3.3 -2.5 Q-1.75 -2.5 -1.75 -0.75 -1.75 0.8 -3.3 0.8 -4.75 0.75 -4.75 -0.9 -4.75 -1.9 -4.05 -2.3 L-3.3 -2.5 M-4.85 2.9 Q-4.85 2.25 -4.4 2.05 L-3.95 1.95 Q-2.9 1.95 -2.9 3.0 -2.9 3.9 -3.8 3.85 -4.85 3.55 -4.85 2.9" fill="#ffffff" fill-rule="evenodd" stroke="none"/>
  </g>
</svg>
