<?xml version="1.0" encoding="UTF-8" standalone="no"?>
<svg xmlns:ffdec="https://www.free-decompiler.com/flash" xmlns:xlink="http://www.w3.org/1999/xlink" ffdec:objectType="shape" height="535.25px" width="689.75px" viewBox="0 0 137.95 107.05" xmlns="http://www.w3.org/2000/svg">
  <g transform="matrix(1.0, 0.0, 0.0, 1.0, 64.15, 53.15)">
    <path d="M0.4 -52.5 L0.35 -52.5 0.35 -53.15 0.4 -52.5" fill="#1d3030" fill-opacity="0.7019608" fill-rule="evenodd" stroke="none"/>
    <path d="M0.4 -52.5 Q1.35 -31.1 6.45 -14.0 11.5 -19.8 16.0 -27.1 12.5 -20.4 10.2 -14.0 32.9 -19.1 57.05 -32.15 34.35 -17.75 19.05 -1.65 26.2 0.25 34.15 0.6 25.7 1.15 18.3 3.25 L26.55 10.35 Q27.0 9.1 28.25 9.1 28.75 9.1 29.5 10.0 30.35 11.0 30.35 12.15 L30.2 13.3 Q49.35 28.6 73.8 43.3 41.35 25.7 13.5 16.15 17.85 31.05 26.3 46.6 15.3 29.35 3.1 17.35 0.0 27.65 -0.45 39.65 -1.15 27.8 -4.05 17.8 -18.65 32.8 -31.5 53.9 -19.3 30.8 -13.6 10.25 -22.35 13.1 -31.45 18.05 -22.45 12.3 -15.55 6.1 -37.35 0.4 -64.15 -0.2 -36.2 -1.2 -14.35 -6.95 -18.95 -10.75 -24.55 -14.2 -17.2 -10.35 -10.3 -8.1 L-9.45 -8.35 Q-12.8 -21.65 -20.4 -35.65 -13.1 -24.15 -5.05 -15.65 -0.3 -32.35 0.35 -52.5 L0.4 -52.5 M9.75 -45.85 Q10.75 -47.2 11.9 -47.2 14.3 -47.2 14.3 -44.2 14.3 -41.0 11.6 -41.0 8.85 -41.0 8.85 -43.95 8.85 -44.7 9.75 -45.85 M20.2 -20.6 Q21.4 -19.9 20.55 -18.35 19.55 -16.75 18.2 -17.5 16.75 -18.35 17.65 -19.85 17.85 -20.25 18.7 -20.55 L20.2 -20.6 M51.0 -12.7 Q49.3 -15.65 52.45 -17.45 L55.05 -17.65 Q57.05 -17.45 57.8 -16.2 59.25 -13.65 56.05 -11.8 52.65 -9.85 51.0 -12.7 M51.3 43.3 Q52.65 40.9 56.75 43.3 57.8 43.9 58.95 45.6 60.3 47.55 59.75 48.55 58.55 50.6 54.4 48.2 49.95 45.65 51.3 43.3 M10.45 41.7 Q12.85 40.3 14.35 42.9 14.7 43.55 14.5 45.0 14.3 46.65 13.3 47.25 11.2 48.4 9.75 45.85 8.1 43.05 10.45 41.7 M-49.55 -11.45 Q-49.55 -8.7 -53.1 -8.7 -54.0 -8.7 -55.35 -9.6 -57.0 -10.6 -57.0 -11.75 -57.0 -14.15 -53.4 -14.15 -49.55 -14.15 -49.55 -11.45 M-8.15 -31.85 Q-10.0 -30.8 -11.15 -32.8 -11.45 -33.3 -11.3 -34.4 -11.15 -35.7 -10.35 -36.15 -8.75 -37.1 -7.6 -35.05 -6.35 -32.95 -8.15 -31.85 M-18.75 -17.95 Q-18.1 -19.05 -16.7 -18.25 -15.25 -17.4 -15.95 -16.15 -16.7 -14.9 -18.05 -15.65 L-18.7 -16.6 Q-19.05 -17.4 -18.75 -17.95 M-0.05 0.25 L0.0 0.25 0.0 0.2 -0.05 0.2 -0.05 0.25 M-28.15 7.35 Q-27.2 8.95 -28.95 9.95 L-30.35 10.05 Q-31.5 9.9 -31.85 9.25 -32.7 7.85 -30.9 6.85 -29.05 5.75 -28.15 7.35 M-34.15 36.0 Q-31.8 37.35 -33.5 40.35 -33.95 41.1 -35.4 41.85 -37.05 42.7 -38.05 42.15 -40.15 40.9 -38.35 37.9 -36.5 34.65 -34.15 36.0 M-11.7 30.7 Q-8.95 30.65 -8.95 32.85 -8.95 33.4 -9.85 34.25 -10.85 35.25 -12.0 35.25 -14.4 35.25 -14.4 33.05 -14.4 30.65 -11.7 30.7" fill="#1d3030" fill-opacity="0.7019608" fill-rule="evenodd" stroke="none"/>
    <path d="M-11.4 -4.2 Q-10.3 -3.85 -9.2 -4.2 L-9.15 -4.2 -8.25 -4.5 Q-6.75 -4.95 -5.95 -6.35 L-5.95 -6.3 Q-5.2 -7.7 -5.55 -9.25 L-6.25 -11.75 -5.45 -11.6 -5.5 -11.65 Q-4.05 -11.5 -2.8 -12.3 L-2.85 -12.25 Q-1.6 -13.1 -1.2 -14.45 L-1.2 -14.5 Q-0.3 -17.65 0.45 -20.9 1.4 -16.75 2.6 -12.8 L2.6 -12.75 Q3.0 -11.35 4.3 -10.55 L4.25 -10.6 Q5.5 -9.8 7.0 -10.0 L8.3 -10.4 Q9.6 -9.75 11.05 -10.05 L11.1 -10.05 Q18.75 -11.75 26.55 -14.35 21.0 -9.45 16.15 -4.35 15.15 -3.3 15.05 -1.9 L15.05 -1.85 Q14.95 -0.65 15.6 0.4 L14.95 1.1 Q14.15 2.35 14.35 3.8 14.55 5.25 15.65 6.3 L24.0 13.5 Q25.0 14.3 26.3 14.4 L26.35 14.45 26.35 14.5 Q26.7 15.65 27.7 16.45 L29.5 17.9 Q22.0 14.85 14.8 12.4 L11.95 12.5 11.9 12.55 Q10.5 13.1 9.9 14.5 9.2 15.85 9.65 17.35 L10.05 18.8 5.9 14.55 Q4.9 13.5 3.5 13.4 L3.45 13.4 Q2.05 13.25 0.85 14.1 L0.9 14.1 Q-0.15 14.75 -0.6 15.85 -1.05 15.05 -1.85 14.5 L-1.8 14.55 Q-3.0 13.7 -4.45 13.85 L-4.5 13.85 Q-5.9 14.0 -6.9 15.05 L-12.9 21.55 Q-11.15 16.35 -9.75 11.35 -9.35 9.9 -10.0 8.55 -10.55 7.4 -11.6 6.8 L-11.55 6.6 -11.6 6.65 Q-11.4 5.15 -12.2 3.9 L-12.25 3.9 Q-13.1 2.65 -14.55 2.25 L-14.55 2.3 Q-20.0 0.85 -25.75 -0.25 -19.35 -1.5 -13.35 -3.05 -12.2 -3.35 -11.4 -4.2 M-3.6 -1.6 L-3.65 -1.55 -3.65 -1.5 -3.6 -1.6" fill="#1d3030" fill-rule="evenodd" stroke="none"/>
  </g>
</svg>
