<?xml version="1.0" encoding="UTF-8" standalone="no"?>
<svg xmlns:ffdec="https://www.free-decompiler.com/flash" xmlns:xlink="http://www.w3.org/1999/xlink" ffdec:objectType="shape" height="38.65px" width="40.75px" xmlns="http://www.w3.org/2000/svg">
  <g transform="matrix(1.0, 0.0, 0.0, 1.0, 20.05, 20.2)">
    <path d="M17.35 -2.15 Q17.0 -1.8 16.5 -1.8 16.0 -1.8 15.7 -2.15 15.35 -2.5 15.35 -3.0 15.35 -3.5 15.7 -3.85 16.0 -4.2 16.5 -4.2 17.0 -4.2 17.35 -3.85 L17.65 -3.0 17.35 -2.15 M8.55 3.85 Q7.4 6.4 4.8 7.6 -4.35 12.15 -9.45 3.1 L-5.2 2.9 Q-4.0 2.5 -3.2 1.35 -2.45 -0.6 -3.6 -2.3 -5.2 -4.55 -8.15 -5.05 L-7.4 -6.0 Q-0.4 -13.75 6.8 -6.55 11.05 -1.9 8.55 3.85 M0.8 15.5 Q0.35 15.9 -0.25 15.9 -0.85 15.9 -1.25 15.5 -1.7 15.05 -1.7 14.45 L-1.25 13.45 Q-0.85 13.0 -0.25 13.0 0.35 13.0 0.8 13.45 1.2 13.85 1.2 14.45 1.2 15.05 0.8 15.5 M-5.65 -17.7 Q-4.95 -17.7 -4.4 -17.15 -3.9 -16.65 -3.9 -15.95 -3.9 -15.25 -4.4 -14.7 -4.95 -14.2 -5.65 -14.2 -6.35 -14.2 -6.85 -14.7 -7.4 -15.25 -7.4 -15.95 -7.4 -16.65 -6.85 -17.15 -6.35 -17.7 -5.65 -17.7 M-8.15 -1.9 Q-7.65 -2.4 -6.95 -2.4 -6.25 -2.4 -5.75 -1.9 -5.25 -1.45 -5.25 -0.75 -5.25 -0.05 -5.75 0.45 -6.25 0.9 -6.95 0.9 -7.65 0.9 -8.15 0.45 -8.65 -0.05 -8.65 -0.75 -8.65 -1.45 -8.15 -1.9" fill="#ffffff" fill-rule="evenodd" stroke="none"/>
    <path d="M13.65 -13.3 Q13.0 -12.7 12.1 -12.7 11.2 -12.7 10.6 -13.3 9.95 -13.95 9.95 -14.8 9.95 -15.65 10.6 -16.25 11.2 -16.9 12.1 -16.9 13.0 -16.9 13.65 -16.25 14.25 -15.65 14.25 -14.8 14.25 -13.95 13.65 -13.3 M5.35 -17.3 Q5.0 -17.0 4.5 -17.0 4.0 -17.0 3.7 -17.3 3.35 -17.65 3.35 -18.15 3.35 -18.65 3.7 -18.95 4.0 -19.3 4.5 -19.3 5.0 -19.3 5.35 -18.95 L5.65 -18.15 5.35 -17.3 M19.55 -6.95 Q22.75 -1.0 16.9 0.85 14.95 1.45 13.8 0.0 13.2 0.45 12.3 4.0 10.65 10.25 4.55 12.75 5.55 18.45 -0.75 18.45 -3.7 17.9 -4.8 15.2 -5.1 14.45 -4.8 13.55 -7.6 11.75 -10.8 8.55 -12.75 6.65 -13.25 4.15 -15.1 -5.2 -7.95 -11.55 L-11.05 -16.55 Q-9.8 -19.45 -6.8 -20.1 L-4.75 -20.2 Q-3.05 -19.35 -2.25 -17.5 -1.65 -16.05 -2.05 -14.6 -1.2 -13.6 2.3 -13.3 6.95 -12.75 9.95 -9.3 12.4 -6.4 13.05 -2.7 14.15 -7.8 19.1 -7.2 L19.55 -6.95 M17.35 -2.15 L17.65 -3.0 17.35 -3.85 Q17.0 -4.2 16.5 -4.2 16.0 -4.2 15.7 -3.85 15.35 -3.5 15.35 -3.0 15.35 -2.5 15.7 -2.15 16.0 -1.8 16.5 -1.8 17.0 -1.8 17.35 -2.15 M15.05 7.7 Q15.45 7.3 16.0 7.3 16.55 7.3 16.95 7.7 17.35 8.1 17.35 8.65 17.35 9.2 16.95 9.6 16.55 10.0 16.0 10.0 15.45 10.0 15.05 9.6 14.65 9.2 14.65 8.65 14.65 8.1 15.05 7.7 M8.55 3.85 Q11.05 -1.9 6.8 -6.55 -0.4 -13.75 -7.4 -6.0 L-8.15 -5.05 Q-5.2 -4.55 -3.6 -2.3 -2.45 -0.6 -3.2 1.35 -4.0 2.5 -5.2 2.9 L-9.45 3.1 Q-4.35 12.15 4.8 7.6 7.4 6.4 8.55 3.85 M-8.15 -1.9 Q-8.65 -1.45 -8.65 -0.75 -8.65 -0.05 -8.15 0.45 -7.65 0.9 -6.95 0.9 -6.25 0.9 -5.75 0.45 -5.25 -0.05 -5.25 -0.75 -5.25 -1.45 -5.75 -1.9 -6.25 -2.4 -6.95 -2.4 -7.65 -2.4 -8.15 -1.9 M-5.65 -17.7 Q-6.35 -17.7 -6.85 -17.15 -7.4 -16.65 -7.4 -15.95 -7.4 -15.25 -6.85 -14.7 -6.35 -14.2 -5.65 -14.2 -4.95 -14.2 -4.4 -14.7 -3.9 -15.25 -3.9 -15.95 -3.9 -16.65 -4.4 -17.15 -4.95 -17.7 -5.65 -17.7 M0.8 15.5 Q1.2 15.05 1.2 14.45 1.2 13.85 0.8 13.45 0.35 13.0 -0.25 13.0 -0.85 13.0 -1.25 13.45 L-1.7 14.45 Q-1.7 15.05 -1.25 15.5 -0.85 15.9 -0.25 15.9 0.35 15.9 0.8 15.5 M-18.35 3.4 Q-17.65 3.4 -17.15 3.9 -16.65 4.4 -16.65 5.1 -16.65 5.8 -17.15 6.3 -17.65 6.8 -18.35 6.8 -19.05 6.8 -19.55 6.3 -20.05 5.8 -20.05 5.1 -20.05 4.4 -19.55 3.9 -19.05 3.4 -18.35 3.4 M-12.1 15.15 Q-12.4 15.45 -12.85 15.45 -13.3 15.45 -13.6 15.15 L-13.9 14.4 Q-13.9 13.95 -13.6 13.65 -13.3 13.35 -12.85 13.35 -12.4 13.35 -12.1 13.65 -11.8 13.95 -11.8 14.4 -11.8 14.85 -12.1 15.15" fill="#ffff00" fill-rule="evenodd" stroke="none"/>
  </g>
</svg>
