<?xml version="1.0" encoding="UTF-8" standalone="no"?>
<svg xmlns:ffdec="https://www.free-decompiler.com/flash" xmlns:xlink="http://www.w3.org/1999/xlink" ffdec:objectType="shape" height="64.55px" width="70.05px" xmlns="http://www.w3.org/2000/svg">
  <g transform="matrix(1.0, 0.0, 0.0, 1.0, 35.5, 35.7)">
    <path d="M11.9 -33.4 L12.9 -33.3 16.8 -30.3 Q13.55 -25.85 8.95 -28.6 L12.0 -32.35 11.9 -33.4 M2.85 -9.8 Q4.15 -9.3 5.0 -8.3 11.6 -1.05 6.55 7.6 L3.35 7.95 Q-0.4 8.5 -3.9 6.65 -10.25 3.2 -8.65 -4.1 -6.7 -13.25 2.85 -9.8 M1.1 -22.1 L0.1 -21.65 -0.5 -19.15 -10.1 -16.0 -13.75 -22.3 Q-12.45 -26.4 -8.9 -28.9 -7.6 -29.75 -6.05 -30.0 1.65 -30.05 1.1 -22.1 M16.35 -18.6 Q16.35 -20.55 18.2 -21.95 20.0 -23.35 22.55 -23.35 25.1 -23.35 26.95 -21.95 28.75 -20.55 28.75 -18.6 28.75 -16.65 26.95 -15.25 25.1 -13.85 22.55 -13.85 20.0 -13.85 18.2 -15.25 16.35 -16.65 16.35 -18.6 M17.6 -11.65 L17.75 -11.35 17.65 -11.2 Q17.55 -11.35 17.6 -11.65 M30.6 -6.6 L31.65 -2.45 27.25 -1.9 26.6 -3.4 28.8 -6.45 30.6 -6.6 M21.45 18.9 Q22.6 19.9 22.6 21.3 22.6 22.7 21.45 23.7 20.3 24.7 18.65 24.7 17.0 24.7 15.85 23.7 14.7 22.7 14.7 21.3 14.7 19.9 15.85 18.9 17.0 17.9 18.65 17.9 20.3 17.9 21.45 18.9 M-25.1 4.95 Q-24.65 5.25 -24.65 5.7 -24.65 6.15 -25.1 6.5 L-26.25 6.8 -27.35 6.5 Q-27.85 6.15 -27.85 5.7 -27.85 5.25 -27.35 4.95 -26.9 4.6 -26.25 4.6 -25.6 4.6 -25.1 4.95 M-7.6 22.05 Q-7.15 22.45 -7.15 23.05 -7.15 23.65 -7.6 24.1 -8.05 24.5 -8.65 24.5 -9.25 24.5 -9.7 24.1 L-10.15 23.05 Q-10.15 22.45 -9.7 22.05 -9.25 21.6 -8.65 21.6 -8.05 21.6 -7.6 22.05 M-23.25 -10.35 Q-25.45 -6.75 -29.4 -8.4 -32.5 -9.65 -31.8 -13.05 -30.15 -21.15 -21.95 -18.0 -20.9 -14.05 -23.25 -10.35" fill="#ffff00" fill-rule="evenodd" stroke="none"/>
    <path d="M12.9 -33.3 L15.15 -35.7 Q22.4 -33.75 18.0 -27.5 15.5 -23.9 10.9 -24.15 5.7 -24.75 5.7 -30.1 L10.2 -34.0 11.9 -33.4 12.0 -32.35 8.95 -28.6 Q13.55 -25.85 16.8 -30.3 L12.9 -33.3 M16.35 -18.6 Q16.35 -16.65 18.2 -15.25 20.0 -13.85 22.55 -13.85 25.1 -13.85 26.95 -15.25 28.75 -16.65 28.75 -18.6 28.75 -20.55 26.95 -21.95 25.1 -23.35 22.55 -23.35 20.0 -23.35 18.2 -21.95 16.35 -20.55 16.35 -18.6 M1.1 -22.1 Q1.65 -30.05 -6.05 -30.0 -7.6 -29.75 -8.9 -28.9 -12.45 -26.4 -13.75 -22.3 L-10.1 -16.0 -0.5 -19.15 0.1 -21.65 1.1 -22.1 M2.85 -9.8 Q-6.7 -13.25 -8.65 -4.1 -10.25 3.2 -3.9 6.65 -0.4 8.5 3.35 7.95 L6.55 7.6 Q11.6 -1.05 5.0 -8.3 4.15 -9.3 2.85 -9.8 M17.75 -11.35 L17.8 -11.55 17.6 -11.65 Q17.55 -11.35 17.65 -11.2 L17.75 -11.35 M13.35 -17.6 L16.1 -25.2 Q25.65 -29.4 31.05 -21.3 33.85 -17.1 31.2 -13.05 28.6 -9.15 24.0 -8.05 L19.4 -7.95 21.35 0.65 Q22.2 9.45 15.4 14.45 16.95 13.75 18.8 13.75 22.15 13.75 24.5 15.95 26.85 18.15 26.85 21.3 26.85 24.45 24.5 26.65 22.15 28.85 18.8 28.85 15.45 28.85 13.1 26.65 10.75 24.45 10.75 21.3 10.75 18.15 13.1 15.95 L13.35 15.75 12.2 16.35 Q3.4 20.85 -6.3 18.6 -2.15 21.9 -5.85 26.2 -7.6 28.15 -10.2 27.3 -14.0 25.85 -12.75 21.65 L-12.1 19.85 -8.35 18.2 Q-17.4 16.85 -20.6 8.45 L-21.6 5.0 Q-21.5 7.4 -23.7 8.8 -26.2 10.35 -29.1 9.25 L-30.4 8.8 Q-30.95 6.1 -29.75 3.8 -28.6 1.7 -26.45 0.6 L-24.55 0.85 Q-22.85 1.3 -22.15 2.95 L-21.8 3.8 -19.7 -3.7 -14.75 -12.45 Q-13.85 -13.75 -15.9 -15.05 -16.85 -15.7 -17.35 -16.8 -21.8 -27.3 -12.05 -33.55 -9.05 -35.55 -5.6 -35.45 4.1 -34.6 5.7 -25.25 L5.9 -21.9 13.35 -17.6 M28.8 -6.45 L26.6 -3.4 27.25 -1.9 31.65 -2.45 30.6 -6.6 Q30.4 -7.2 30.5 -7.7 L30.9 -8.1 Q35.9 -7.25 34.05 -1.75 33.3 0.45 30.8 0.35 27.35 0.75 24.6 -1.45 23.75 -7.25 28.8 -6.45 M21.45 18.9 Q20.3 17.9 18.65 17.9 17.0 17.9 15.85 18.9 14.7 19.9 14.7 21.3 14.7 22.7 15.85 23.7 17.0 24.7 18.65 24.7 20.3 24.7 21.45 23.7 22.6 22.7 22.6 21.3 22.6 19.9 21.45 18.9 M-34.55 -8.85 L-35.5 -13.25 Q-33.3 -23.05 -22.9 -21.7 -17.15 -20.85 -18.2 -14.75 -18.8 -11.0 -21.1 -8.05 -25.9 -1.95 -32.65 -6.35 -34.15 -7.3 -34.55 -8.85 M-23.25 -10.35 Q-20.9 -14.05 -21.95 -18.0 -30.15 -21.15 -31.8 -13.05 -32.5 -9.65 -29.4 -8.4 -25.45 -6.75 -23.25 -10.35 M-7.6 22.05 Q-8.05 21.6 -8.65 21.6 -9.25 21.6 -9.7 22.05 -10.15 22.45 -10.15 23.05 L-9.7 24.1 Q-9.25 24.5 -8.65 24.5 -8.05 24.5 -7.6 24.1 -7.15 23.65 -7.15 23.05 -7.15 22.45 -7.6 22.05 M-25.1 4.95 Q-25.6 4.6 -26.25 4.6 -26.9 4.6 -27.35 4.95 -27.85 5.25 -27.85 5.7 -27.85 6.15 -27.35 6.5 L-26.25 6.8 -25.1 6.5 Q-24.65 6.15 -24.65 5.7 -24.65 5.25 -25.1 4.95" fill="#ffcc00" fill-rule="evenodd" stroke="none"/>
  </g>
</svg>
