<?xml version="1.0" encoding="UTF-8" standalone="no"?>
<svg xmlns:ffdec="https://www.free-decompiler.com/flash" xmlns:xlink="http://www.w3.org/1999/xlink" ffdec:objectType="shape" height="109.8px" width="126.05px" xmlns="http://www.w3.org/2000/svg">
  <g transform="matrix(1.0, 0.0, 0.0, 1.0, 70.15, 59.15)">
    <path d="M24.5 -41.25 Q41.3 -40.7 46.15 -24.25 47.25 -20.55 46.6 -16.65 59.25 -6.5 54.7 9.75 50.9 23.3 38.05 28.65 31.9 31.3 25.2 30.4 21.15 43.35 10.05 49.9 8.25 50.9 6.2 50.55 -8.05 48.6 -13.2 35.45 -16.45 45.45 -26.0 48.85 -28.75 49.85 -31.75 50.15 -43.6 49.25 -50.55 39.2 -57.6 28.9 -55.15 16.95 -54.3 12.9 -50.45 11.55 -40.5 7.95 -30.0 9.4 -20.1 10.9 -16.3 19.95 L-14.6 14.95 Q-25.2 11.6 -29.4 1.35 L-30.55 -1.7 Q-41.7 10.0 -56.75 3.85 -66.75 -0.35 -69.3 -10.9 -73.0 -26.35 -60.65 -35.8 -49.45 -44.4 -36.25 -39.7 -33.25 -38.65 -30.9 -36.6 -24.55 -31.1 -22.85 -22.95 L-21.2 -24.15 Q-28.45 -37.5 -18.2 -48.35 -7.25 -59.8 7.5 -59.1 19.95 -56.45 23.75 -43.8 L24.5 -41.25 M18.2 -20.45 L17.9 -22.75 Q15.55 -36.35 2.0 -37.1 -0.15 -36.8 -2.1 -35.95 -14.25 -31.05 -11.0 -18.0 -14.65 -16.45 -16.75 -13.2 -19.4 -9.1 -18.4 -4.45 -15.6 8.65 -1.85 9.5 9.55 9.85 12.1 -1.35 23.15 2.9 29.55 -6.55 30.75 -8.3 30.55 -10.5 29.5 -21.25 18.2 -20.45 M-33.9 18.4 Q-35.45 18.8 -36.4 20.0 -41.4 26.45 -37.5 33.95 -37.05 34.9 -36.1 35.3 -27.85 39.1 -20.75 32.5 -16.8 30.05 -16.2 25.7 -15.85 23.35 -17.6 21.85 -24.55 15.7 -33.9 18.4 M-43.7 -26.6 Q-54.15 -19.75 -49.45 -8.25 -46.15 -1.5 -39.0 -2.6 -32.2 -4.0 -30.15 -11.0 -29.1 -14.6 -29.75 -18.3 -31.4 -27.95 -42.0 -27.25 -42.95 -27.1 -43.7 -26.6 M6.0 13.5 Q5.0 13.65 4.15 14.1 -4.65 18.45 -2.35 28.3 -1.8 30.6 0.1 31.55 10.45 37.0 16.75 26.95 17.3 26.15 17.2 25.2 16.25 14.95 6.0 13.5 M23.4 8.45 Q25.05 10.1 27.4 10.1 29.75 10.1 31.4 8.45 33.05 6.8 33.05 4.45 33.05 2.1 31.4 0.45 29.75 -1.2 27.4 -1.2 25.05 -1.2 23.4 0.45 21.75 2.1 21.75 4.45 21.75 6.8 23.4 8.45" fill="#983d01" fill-rule="evenodd" stroke="none"/>
    <path d="M18.2 -20.45 Q29.5 -21.25 30.55 -10.5 30.75 -8.3 29.55 -6.55 23.15 2.9 12.1 -1.35 9.55 9.85 -1.85 9.5 -15.6 8.65 -18.4 -4.45 -19.4 -9.1 -16.75 -13.2 -14.65 -16.45 -11.0 -18.0 -14.25 -31.05 -2.1 -35.95 -0.15 -36.8 2.0 -37.1 15.55 -36.35 17.9 -22.75 L18.2 -20.45 M6.55 -18.55 Q4.5 -22.8 0.0 -21.25 -8.5 -18.35 -5.5 -10.35 -6.8 -9.35 -7.5 -7.75 -9.15 -4.0 -6.45 -0.7 -2.9 3.7 2.1 0.9 8.8 -2.85 4.8 -9.5 L5.55 -10.25 Q8.7 -13.9 6.55 -18.55 M15.0 -13.0 Q13.75 -14.25 12.0 -14.25 10.25 -14.25 9.0 -13.0 7.75 -11.75 7.75 -10.0 7.75 -8.25 9.0 -7.0 10.25 -5.75 12.0 -5.75 13.75 -5.75 15.0 -7.0 16.25 -8.25 16.25 -10.0 16.25 -11.75 15.0 -13.0 M23.4 8.45 Q21.75 6.8 21.75 4.45 21.75 2.1 23.4 0.45 25.05 -1.2 27.4 -1.2 29.75 -1.2 31.4 0.45 33.05 2.1 33.05 4.45 33.05 6.8 31.4 8.45 29.75 10.1 27.4 10.1 25.05 10.1 23.4 8.45 M6.0 13.5 Q16.25 14.95 17.2 25.2 17.3 26.15 16.75 26.95 10.45 37.0 0.1 31.55 -1.8 30.6 -2.35 28.3 -4.65 18.45 4.15 14.1 5.0 13.65 6.0 13.5 M-43.7 -26.6 Q-42.95 -27.1 -42.0 -27.25 -31.4 -27.95 -29.75 -18.3 -29.1 -14.6 -30.15 -11.0 -32.2 -4.0 -39.0 -2.6 -46.15 -1.5 -49.45 -8.25 -54.15 -19.75 -43.7 -26.6 M-33.9 18.4 Q-24.55 15.7 -17.6 21.85 -15.85 23.35 -16.2 25.7 -16.8 30.05 -20.75 32.5 -27.85 39.1 -36.1 35.3 -37.05 34.9 -37.5 33.95 -41.4 26.45 -36.4 20.0 -35.45 18.8 -33.9 18.4" fill="#ec6002" fill-rule="evenodd" stroke="none"/>
    <path d="M15.0 -13.0 Q16.25 -11.75 16.25 -10.0 16.25 -8.25 15.0 -7.0 13.75 -5.75 12.0 -5.75 10.25 -5.75 9.0 -7.0 7.75 -8.25 7.75 -10.0 7.75 -11.75 9.0 -13.0 10.25 -14.25 12.0 -14.25 13.75 -14.25 15.0 -13.0 M6.55 -18.55 Q8.7 -13.9 5.55 -10.25 L4.8 -9.5 Q8.8 -2.85 2.1 0.9 -2.9 3.7 -6.45 -0.7 -9.15 -4.0 -7.5 -7.75 -6.8 -9.35 -5.5 -10.35 -8.5 -18.35 0.0 -21.25 4.5 -22.8 6.55 -18.55" fill="#ff9900" fill-rule="evenodd" stroke="none"/>
  </g>
</svg>
