<?xml version="1.0" encoding="UTF-8" standalone="no"?>
<svg xmlns:ffdec="https://www.free-decompiler.com/flash" xmlns:xlink="http://www.w3.org/1999/xlink" ffdec:objectType="shape" height="135.05px" width="142.25px" xmlns="http://www.w3.org/2000/svg">
  <g transform="matrix(1.0, 0.0, 0.0, 1.0, 75.55, 75.0)">
    <path d="M16.7 -53.35 Q12.9 -60.8 4.0 -60.0 -1.65 -59.7 -6.1 -56.45 -12.3 -51.85 -11.1 -44.9 -10.7 -42.7 -9.1 -41.25 -1.1 -34.15 9.15 -38.45 15.65 -41.2 17.3 -47.85 18.05 -50.75 16.7 -53.35 M25.55 -57.25 Q27.4 -46.1 17.65 -39.55 4.25 -30.45 -10.95 -35.05 -12.8 -35.55 -14.25 -36.95 -21.15 -43.6 -24.0 -52.85 -19.0 -65.25 -6.7 -71.65 -0.7 -74.75 6.0 -75.0 22.75 -74.0 25.55 -57.25 M10.75 -2.8 Q11.25 -11.75 3.0 -13.25 -10.2 -11.35 -11.25 2.85 -11.6 7.3 -8.15 9.75 -4.05 12.5 0.2 10.25 5.1 7.65 8.55 3.05 10.55 0.4 10.75 -2.8 M20.7 -10.4 Q22.95 -4.35 22.2 2.1 21.9 4.45 20.8 6.7 16.7 14.95 7.9 16.3 -2.35 17.8 -10.6 11.85 -19.9 5.05 -16.75 -5.4 -15.7 -8.9 -13.15 -11.7 -4.75 -20.85 8.0 -20.75 17.3 -19.65 20.7 -10.4 M48.65 -40.15 Q59.0 -44.1 64.15 -34.7 66.75 -29.85 66.7 -24.35 66.6 -13.45 57.2 -9.75 54.4 -8.75 51.45 -9.05 44.15 -9.15 40.25 -15.0 36.9 -26.8 44.15 -36.8 45.9 -39.15 48.65 -40.15 M52.0 -33.0 Q49.5 -33.0 47.75 -31.5 46.0 -30.05 46.0 -28.0 46.0 -25.95 47.75 -24.45 49.5 -23.0 52.0 -23.0 54.5 -23.0 56.25 -24.45 58.0 -25.95 58.0 -28.0 58.0 -30.05 56.25 -31.5 54.5 -33.0 52.0 -33.0 M49.95 19.95 Q48.1 21.75 45.55 21.75 43.0 21.75 41.2 19.95 39.35 18.1 39.35 15.5 39.35 12.9 41.2 11.1 43.0 9.25 45.55 9.25 48.1 9.25 49.95 11.1 51.75 12.9 51.75 15.5 51.75 18.1 49.95 19.95 M38.1 29.95 Q41.1 31.05 42.5 34.0 47.25 44.95 38.4 54.1 28.8 63.95 17.2 56.95 15.05 55.65 13.85 53.5 8.35 43.4 15.55 35.7 19.05 32.0 23.6 30.3 31.0 27.65 38.1 29.95 M30.1 44.1 Q32.0 42.2 32.0 39.5 32.0 36.8 30.1 34.9 28.2 33.0 25.5 33.0 22.8 33.0 20.9 34.9 19.0 36.8 19.0 39.5 19.0 42.2 20.9 44.1 22.8 46.0 25.5 46.0 28.2 46.0 30.1 44.1 M-41.3 -28.75 Q-38.65 -15.9 -48.9 -7.75 -52.0 -5.25 -56.0 -5.2 -68.85 -4.95 -73.8 -16.45 -78.25 -26.95 -71.3 -34.95 -65.6 -41.55 -57.0 -43.0 -44.05 -42.05 -41.3 -28.75 M-49.1 -25.3 Q-51.65 -27.85 -55.25 -27.85 -58.85 -27.85 -61.4 -25.3 -63.95 -22.75 -63.95 -19.15 -63.95 -15.55 -61.4 -13.0 -58.85 -10.45 -55.25 -10.45 -51.65 -10.45 -49.1 -13.0 -46.55 -15.55 -46.55 -19.15 -46.55 -22.75 -49.1 -25.3 M-26.35 -29.75 Q-22.1 -32.2 -17.0 -32.0 -9.4 -31.05 -11.95 -23.5 -13.65 -18.5 -18.4 -16.65 -22.2 -15.3 -25.15 -17.9 -30.05 -22.2 -27.95 -27.9 -27.55 -29.05 -26.35 -29.75 M-29.05 -0.15 Q-30.45 1.25 -32.4 1.25 -34.35 1.25 -35.7 -0.15 -37.1 -1.55 -37.1 -3.5 -37.1 -5.45 -35.7 -6.85 -34.35 -8.25 -32.4 -8.25 -30.45 -8.25 -29.05 -6.85 -27.7 -5.45 -27.7 -3.5 -27.7 -1.55 -29.05 -0.15 M-31.55 22.25 Q-31.85 14.65 -39.0 14.0 -41.35 14.2 -43.15 15.55 -51.7 21.8 -48.6 32.8 -47.5 36.8 -43.25 37.25 -41.4 37.35 -39.9 36.65 -31.15 32.6 -31.55 22.25 M-29.1 22.25 Q-27.75 28.15 -28.1 33.95 -28.4 38.35 -30.95 41.85 -35.65 48.4 -43.35 49.85 L-48.1 50.1 Q-62.5 49.75 -68.65 37.0 -70.3 33.55 -68.95 29.95 -66.1 22.25 -59.45 17.35 -50.75 11.0 -40.0 11.0 -31.2 12.8 -29.1 22.25 M-7.2 48.0 Q-6.4 49.0 -6.25 50.35 -5.5 56.55 -11.65 59.3 -17.0 61.65 -19.65 56.45 -22.4 51.05 -17.5 47.5 -11.75 42.55 -7.2 48.0" fill="#090300" fill-rule="evenodd" stroke="none"/>
    <path d="M16.7 -53.35 Q18.05 -50.75 17.3 -47.85 15.65 -41.2 9.15 -38.45 -1.1 -34.15 -9.1 -41.25 -10.7 -42.7 -11.1 -44.9 -12.3 -51.85 -6.1 -56.45 -1.65 -59.7 4.0 -60.0 12.9 -60.8 16.7 -53.35 M10.75 -2.8 Q10.55 0.4 8.55 3.05 5.1 7.65 0.2 10.25 -4.05 12.5 -8.15 9.75 -11.6 7.3 -11.25 2.85 -10.2 -11.35 3.0 -13.25 11.25 -11.75 10.75 -2.8 M52.0 -33.0 Q54.5 -33.0 56.25 -31.5 58.0 -30.05 58.0 -28.0 58.0 -25.95 56.25 -24.45 54.5 -23.0 52.0 -23.0 49.5 -23.0 47.75 -24.45 46.0 -25.95 46.0 -28.0 46.0 -30.05 47.75 -31.5 49.5 -33.0 52.0 -33.0 M30.1 44.1 Q28.2 46.0 25.5 46.0 22.8 46.0 20.9 44.1 19.0 42.2 19.0 39.5 19.0 36.8 20.9 34.9 22.8 33.0 25.5 33.0 28.2 33.0 30.1 34.9 32.0 36.8 32.0 39.5 32.0 42.2 30.1 44.1 M-49.1 -25.3 Q-46.55 -22.75 -46.55 -19.15 -46.55 -15.55 -49.1 -13.0 -51.65 -10.45 -55.25 -10.45 -58.85 -10.45 -61.4 -13.0 -63.95 -15.55 -63.95 -19.15 -63.95 -22.75 -61.4 -25.3 -58.85 -27.85 -55.25 -27.85 -51.65 -27.85 -49.1 -25.3 M-31.55 22.25 Q-31.15 32.6 -39.9 36.65 -41.4 37.35 -43.25 37.25 -47.5 36.8 -48.6 32.8 -51.7 21.8 -43.15 15.55 -41.35 14.2 -39.0 14.0 -31.85 14.65 -31.55 22.25" fill="#6d2c01" fill-rule="evenodd" stroke="none"/>
  </g>
</svg>
