<?xml version="1.0" encoding="UTF-8" standalone="no"?>
<svg xmlns:ffdec="https://www.free-decompiler.com/flash" xmlns:xlink="http://www.w3.org/1999/xlink" ffdec:objectType="shape" height="129.05px" width="129.65px" xmlns="http://www.w3.org/2000/svg">
  <g transform="matrix(1.0, 0.0, 0.0, 1.0, 64.85, 72.25)">
    <path d="M15.85 -58.45 Q16.9 -52.75 12.3 -49.4 1.0 -41.05 -10.35 -48.95 -12.7 -50.55 -14.0 -52.95 -17.95 -60.3 -11.0 -65.7 L-3.35 -70.85 Q-1.25 -72.05 1.0 -72.25 13.55 -71.15 15.85 -58.45 M12.6 -2.75 Q13.25 0.6 11.35 3.55 6.85 10.7 -0.95 8.35 -4.2 7.3 -5.05 3.9 -6.9 -3.75 -1.95 -8.85 -1.3 -9.55 -0.3 -9.75 L2.0 -10.25 Q11.05 -10.9 12.6 -2.75 M64.6 -20.4 Q64.35 -18.9 63.35 -17.55 57.7 -9.8 48.85 -8.8 46.9 -8.9 45.5 -10.3 40.6 -15.0 44.6 -20.35 49.9 -27.35 58.0 -29.25 65.9 -28.3 64.6 -20.4 M41.45 46.4 Q37.15 50.6 31.35 49.55 26.3 49.0 25.1 44.05 23.3 36.55 29.0 32.4 31.9 30.25 35.65 29.7 41.2 29.1 44.05 33.75 47.35 40.7 41.45 46.4 M-47.25 -23.1 Q-46.75 -13.95 -56.65 -13.8 -65.15 -13.65 -64.85 -22.25 -64.55 -31.95 -56.0 -34.25 -47.75 -32.45 -47.25 -23.1 M-31.65 25.5 Q-32.0 29.6 -35.45 31.85 -41.55 35.85 -47.95 32.1 -52.1 29.65 -53.0 24.85 -48.6 17.35 -39.65 15.1 L-39.0 15.0 Q-30.9 16.6 -31.65 25.5 M-5.25 55.7 Q-6.35 56.8 -7.9 56.8 -9.45 56.8 -10.55 55.7 -11.65 54.55 -11.65 53.0 -11.65 51.45 -10.55 50.35 -9.45 49.2 -7.9 49.2 -6.35 49.2 -5.25 50.35 -4.15 51.45 -4.15 53.0 -4.15 54.55 -5.25 55.7" fill="#090300" fill-rule="evenodd" stroke="none"/>
  </g>
</svg>
