<?xml version="1.0" encoding="UTF-8" standalone="no"?>
<svg xmlns:ffdec="https://www.free-decompiler.com/flash" xmlns:xlink="http://www.w3.org/1999/xlink" ffdec:objectType="shape" height="98.7px" width="122.9px" xmlns="http://www.w3.org/2000/svg">
  <g transform="matrix(1.0, 0.0, 0.0, 1.0, 59.85, 72.45)">
    <path d="M12.65 -58.85 Q12.1 -53.6 7.4 -52.35 -4.3 -49.0 -10.9 -58.4 -13.65 -62.35 -10.85 -66.05 -5.65 -73.05 3.2 -72.4 13.85 -69.8 12.65 -58.85 M8.55 -4.7 Q10.55 -2.7 10.55 0.15 10.55 3.0 8.55 5.05 6.5 7.05 3.6 7.05 0.7 7.05 -1.3 5.05 -3.35 3.0 -3.35 0.15 -3.35 -2.7 -1.3 -4.7 0.7 -6.75 3.6 -6.75 6.5 -6.75 8.55 -4.7 M62.15 -19.9 Q60.05 -14.95 55.1 -12.7 48.15 -9.65 43.35 -14.4 42.15 -15.55 42.15 -17.15 42.2 -22.15 47.1 -24.9 52.15 -27.75 58.0 -28.25 65.15 -27.1 62.15 -19.9 M-50.1 -20.95 Q-51.8 -19.3 -54.15 -19.3 -56.5 -19.3 -58.15 -20.95 -59.85 -22.65 -59.85 -25.0 -59.85 -27.35 -58.15 -29.0 -56.5 -30.7 -54.15 -30.7 -51.8 -30.7 -50.1 -29.0 -48.45 -27.35 -48.45 -25.0 -48.45 -22.65 -50.1 -20.95 M-35.0 25.0 Q-36.25 26.25 -38.0 26.25 -39.75 26.25 -41.0 25.0 -42.25 23.75 -42.25 22.0 -42.25 20.25 -41.0 19.0 -39.75 17.75 -38.0 17.75 -36.25 17.75 -35.0 19.0 -33.75 20.25 -33.75 22.0 -33.75 23.75 -35.0 25.0" fill="#090300" fill-rule="evenodd" stroke="none"/>
  </g>
</svg>
