<?xml version="1.0" encoding="UTF-8" standalone="no"?>
<svg xmlns:ffdec="https://www.free-decompiler.com/flash" xmlns:xlink="http://www.w3.org/1999/xlink" ffdec:objectType="shape" height="79.25px" width="64.65px" xmlns="http://www.w3.org/2000/svg">
  <g transform="matrix(1.0, 0.0, 0.0, 1.0, 7.65, 74.0)">
    <path d="M9.85 -63.85 Q9.25 -56.4 1.95 -56.8 -1.0 -57.2 -3.4 -58.9 -7.45 -61.7 -7.65 -66.55 -7.7 -67.5 -7.05 -68.3 -3.6 -72.85 2.0 -74.0 10.6 -72.75 9.85 -63.85 M4.5 -6.25 Q6.9 -6.25 8.6 -4.55 10.25 -2.9 10.25 -0.5 10.25 1.9 8.6 3.6 6.9 5.25 4.5 5.25 2.1 5.25 0.45 3.6 -1.25 1.9 -1.25 -0.5 -1.25 -2.9 0.45 -4.55 2.1 -6.25 4.5 -6.25 M55.3 -13.65 Q53.55 -11.95 51.15 -11.95 48.75 -11.95 47.05 -13.65 45.3 -15.4 45.3 -17.8 45.3 -20.2 47.05 -21.9 48.75 -23.65 51.15 -23.65 53.55 -23.65 55.3 -21.9 57.0 -20.2 57.0 -17.8 57.0 -15.4 55.3 -13.65" fill="#090300" fill-rule="evenodd" stroke="none"/>
  </g>
</svg>
