<?xml version="1.0" encoding="UTF-8" standalone="no"?>
<svg xmlns:ffdec="https://www.free-decompiler.com/flash" xmlns:xlink="http://www.w3.org/1999/xlink" ffdec:objectType="shape" height="76.55px" width="13.6px" xmlns="http://www.w3.org/2000/svg">
  <g transform="matrix(1.0, 0.0, 0.0, 1.0, 6.1, 74.0)">
    <path d="M4.5 -63.5 Q2.65 -61.7 0.1 -61.7 -2.45 -61.7 -4.25 -63.5 -6.1 -65.3 -6.1 -67.85 -6.1 -70.4 -4.25 -72.2 -2.45 -74.0 0.1 -74.0 2.65 -74.0 4.5 -72.2 6.3 -70.4 6.3 -67.85 6.3 -65.3 4.5 -63.5 M3.55 -5.35 Q5.2 -5.35 6.35 -4.2 7.5 -3.05 7.5 -1.4 7.5 0.25 6.35 1.4 5.2 2.55 3.55 2.55 1.9 2.55 0.75 1.4 -0.4 0.25 -0.4 -1.4 -0.4 -3.05 0.75 -4.2 1.9 -5.35 3.55 -5.35" fill="#090300" fill-rule="evenodd" stroke="none"/>
  </g>
</svg>
