<?xml version="1.0" encoding="UTF-8" standalone="no"?>
<svg xmlns:ffdec="https://www.free-decompiler.com/flash" xmlns:xlink="http://www.w3.org/1999/xlink" ffdec:objectType="shape" height="505.0px" width="505.0px" viewBox="0 0 101 101" xmlns="http://www.w3.org/2000/svg">
  <g transform="matrix(1.0, 0.0, 0.0, 1.0, 50.5, 50.5)">
    <path d="M22.0 -38.05 L15.0 -25.9 Q19.8 -23.15 23.1 -19.25 L33.8 -28.3 Q29.0 -34.0 22.0 -38.05 M0.0 -29.95 Q5.5 -29.95 10.35 -28.2 L15.1 -41.4 Q8.05 -43.95 0.0 -43.95 L0.0 -29.95 M29.65 -5.15 L43.45 -7.6 Q42.15 -14.95 38.1 -21.95 L26.0 -14.95 Q28.75 -10.15 29.65 -5.15 M35.0 -35.0 Q49.5 -20.5 49.5 0.0 49.5 20.5 35.0 35.0 20.5 49.5 0.0 49.5 -20.5 49.5 -35.0 35.0 -49.5 20.5 -49.5 0.0 -49.5 -20.5 -35.0 -35.0 -20.5 -49.5 0.0 -49.5 20.5 -49.5 35.0 -35.0 M44.0 0.05 L30.0 0.05 Q30.0 5.55 28.3 10.4 L41.45 15.15 Q44.0 8.1 44.0 0.05 M25.95 15.05 Q23.15 19.85 19.3 23.15 L28.3 33.85 Q34.0 29.05 38.05 22.05 L25.95 15.05 M5.1 29.65 L7.55 43.45 Q14.9 42.15 21.9 38.1 L14.9 26.0 Q10.1 28.75 5.1 29.65 M-7.5 -43.5 Q-14.85 -42.2 -21.85 -38.15 L-14.85 -26.0 Q-10.05 -28.8 -5.05 -29.7 L-7.5 -43.5 M-25.85 -15.1 Q-23.1 -19.9 -19.2 -23.15 L-28.25 -33.9 Q-33.95 -29.1 -38.0 -22.1 L-25.85 -15.1 M-34.45 -7.3 Q-38.7 -7.3 -41.7 -4.3 -44.7 -1.3 -44.7 2.95 -44.7 7.2 -41.7 10.2 -38.7 13.2 -34.45 13.2 -30.2 13.2 -27.2 10.2 -24.2 7.2 -24.2 2.95 -24.2 -1.3 -27.2 -4.3 -30.2 -7.3 -34.45 -7.3 M-22.05 38.0 L-15.05 25.9 Q-19.85 23.1 -23.1 19.25 L-33.85 28.25 Q-29.05 33.95 -22.05 38.0 M-0.1 43.95 L-0.1 29.95 Q-5.6 29.95 -10.4 28.25 L-15.2 41.4 Q-8.15 43.95 -0.1 43.95" fill="#cfad7c" fill-rule="evenodd" stroke="none"/>
    <path d="M23.3 -36.1 Q28.0 -33.1 31.65 -29.2 L31.9 -28.7 31.9 -28.2 31.6 -27.75 23.9 -21.3 23.2 -21.05 Q22.8 -21.1 22.55 -21.35 20.15 -23.8 17.2 -25.75 16.85 -26.0 16.75 -26.35 16.65 -26.75 16.85 -27.1 L21.85 -35.75 22.25 -36.15 22.75 -36.25 23.3 -36.1 M13.25 -40.8 L13.5 -40.35 13.45 -39.8 10.05 -30.35 9.55 -29.8 8.8 -29.75 Q5.55 -30.7 1.95 -30.85 1.55 -30.9 1.3 -31.15 1.0 -31.45 1.0 -31.85 L1.0 -41.9 1.15 -42.4 1.55 -42.8 2.05 -42.9 Q7.7 -42.65 12.8 -41.1 L13.25 -40.8 M38.25 -19.6 Q40.85 -14.6 42.05 -9.4 L42.05 -8.9 41.75 -8.45 Q41.5 -8.25 41.25 -8.2 L31.35 -6.45 30.65 -6.6 30.2 -7.2 Q29.4 -10.5 27.8 -13.7 27.6 -14.05 27.75 -14.45 L28.2 -15.05 36.85 -20.05 37.4 -20.15 37.9 -20.0 38.25 -19.6 M43.0 2.1 Q42.7 7.75 41.15 12.85 L40.9 13.3 40.4 13.55 39.85 13.5 30.45 10.1 29.9 9.6 Q29.7 9.25 29.85 8.85 30.75 5.6 30.95 2.0 30.95 1.6 31.25 1.35 31.5 1.05 31.95 1.05 L42.0 1.05 42.5 1.2 42.85 1.6 43.0 2.1 M27.1 16.9 L35.8 21.9 36.15 22.3 36.3 22.8 36.15 23.35 Q33.1 28.05 29.2 31.7 L28.75 31.95 28.2 31.95 27.75 31.65 21.3 23.95 Q21.05 23.65 21.1 23.25 21.1 22.85 21.4 22.6 23.8 20.2 25.75 17.25 26.0 16.9 26.4 16.8 L27.1 16.9 M20.05 36.85 L20.15 37.4 20.0 37.9 19.6 38.25 Q14.55 40.85 9.4 42.05 L8.85 42.05 8.4 41.75 8.2 41.25 6.45 31.35 Q6.35 30.95 6.55 30.65 6.75 30.3 7.15 30.2 10.45 29.4 13.7 27.8 L14.4 27.75 15.0 28.2 20.05 36.85 M-8.35 -41.75 L-8.1 -41.3 -6.35 -31.4 -6.5 -30.65 -7.1 -30.25 Q-10.4 -29.45 -13.6 -27.8 L-14.35 -27.75 -14.95 -28.2 -19.95 -36.9 -20.05 -37.4 -19.9 -37.9 -19.5 -38.25 Q-14.5 -40.9 -9.3 -42.1 L-8.8 -42.05 -8.35 -41.75 M-27.7 -31.65 L-21.25 -24.0 -21.0 -23.3 -21.3 -22.6 Q-23.75 -20.25 -25.7 -17.25 L-26.3 -16.85 -27.05 -16.95 -35.7 -21.95 -36.1 -22.35 -36.2 -22.85 -36.05 -23.35 Q-33.05 -28.1 -29.15 -31.75 L-28.65 -32.0 -28.15 -31.95 -27.7 -31.65 M-23.25 21.05 Q-22.85 21.05 -22.55 21.35 -20.2 23.75 -17.2 25.7 -16.9 25.95 -16.8 26.35 -16.7 26.7 -16.9 27.05 L-21.9 35.75 -22.3 36.1 -22.8 36.25 -23.3 36.1 Q-28.05 33.05 -31.7 29.15 L-31.95 28.7 -31.9 28.15 -31.6 27.7 -23.95 21.25 -23.25 21.05 M-8.9 29.8 L-2.05 30.9 Q-1.65 30.9 -1.35 31.2 -1.1 31.45 -1.1 31.9 L-1.1 41.95 -1.25 42.45 -1.6 42.8 -2.15 42.95 Q-7.8 42.65 -12.9 41.1 L-13.35 40.85 -13.55 40.35 -13.55 39.8 -10.1 30.4 -9.6 29.85 -8.9 29.8" fill="#bd9353" fill-rule="evenodd" stroke="none"/>
    <path d="M22.0 -38.05 Q29.0 -34.0 33.8 -28.3 L23.1 -19.25 Q19.8 -23.15 15.0 -25.9 L22.0 -38.05 M13.25 -40.8 L12.8 -41.1 Q7.7 -42.65 2.05 -42.9 L1.55 -42.8 1.15 -42.4 1.0 -41.9 1.0 -31.85 Q1.0 -31.45 1.3 -31.15 1.55 -30.9 1.95 -30.85 5.55 -30.7 8.8 -29.75 L9.55 -29.8 10.05 -30.35 13.45 -39.8 13.5 -40.35 13.25 -40.8 M23.3 -36.1 L22.75 -36.25 22.25 -36.15 21.85 -35.75 16.85 -27.1 Q16.65 -26.75 16.75 -26.35 16.85 -26.0 17.2 -25.75 20.15 -23.8 22.55 -21.35 22.8 -21.1 23.2 -21.05 L23.9 -21.3 31.6 -27.75 31.9 -28.2 31.9 -28.7 31.65 -29.2 Q28.0 -33.1 23.3 -36.1 M0.0 -29.95 L0.0 -43.95 Q8.05 -43.95 15.1 -41.4 L10.35 -28.2 Q5.5 -29.95 0.0 -29.95 M38.25 -19.6 L37.9 -20.0 37.4 -20.15 36.85 -20.05 28.2 -15.05 27.75 -14.45 Q27.6 -14.05 27.8 -13.7 29.4 -10.5 30.2 -7.2 L30.65 -6.6 31.35 -6.45 41.25 -8.2 Q41.5 -8.25 41.75 -8.45 L42.05 -8.9 42.05 -9.4 Q40.85 -14.6 38.25 -19.6 M35.0 -35.0 Q20.5 -49.5 0.0 -49.5 -20.5 -49.5 -35.0 -35.0 -49.5 -20.5 -49.5 0.0 -49.5 20.5 -35.0 35.0 -20.5 49.5 0.0 49.5 20.5 49.5 35.0 35.0 49.5 20.5 49.5 0.0 49.5 -20.5 35.0 -35.0 M29.65 -5.15 Q28.75 -10.15 26.0 -14.95 L38.1 -21.95 Q42.15 -14.95 43.45 -7.6 L29.65 -5.15 M0.0 -50.5 Q20.9 -50.5 35.7 -35.7 50.5 -20.9 50.5 0.0 50.5 20.9 35.7 35.7 20.9 50.5 0.0 50.5 -20.9 50.5 -35.7 35.7 -50.5 20.9 -50.5 0.0 -50.5 -20.9 -35.7 -35.7 -20.9 -50.5 0.0 -50.5 M43.0 2.1 L42.85 1.6 42.5 1.2 42.0 1.05 31.95 1.05 Q31.5 1.05 31.25 1.35 30.95 1.6 30.95 2.0 30.75 5.6 29.85 8.85 29.7 9.25 29.9 9.6 L30.45 10.1 39.85 13.5 40.4 13.55 40.9 13.3 41.15 12.85 Q42.7 7.75 43.0 2.1 M44.0 0.05 Q44.0 8.1 41.45 15.15 L28.3 10.4 Q30.0 5.55 30.0 0.05 L44.0 0.05 M27.1 16.9 L26.4 16.8 Q26.0 16.9 25.75 17.25 23.8 20.2 21.4 22.6 21.1 22.85 21.1 23.25 21.05 23.65 21.3 23.95 L27.75 31.65 28.2 31.95 28.75 31.95 29.2 31.7 Q33.1 28.05 36.15 23.35 L36.3 22.8 36.15 22.3 35.8 21.9 27.1 16.9 M25.95 15.05 L38.05 22.05 Q34.0 29.05 28.3 33.85 L19.3 23.15 Q23.15 19.85 25.95 15.05 M20.05 36.85 L15.0 28.2 14.4 27.75 13.7 27.8 Q10.45 29.4 7.15 30.2 6.75 30.3 6.55 30.65 6.35 30.95 6.45 31.35 L8.2 41.25 8.4 41.75 8.85 42.05 9.4 42.05 Q14.55 40.85 19.6 38.25 L20.0 37.9 20.15 37.4 20.05 36.85 M5.1 29.65 Q10.1 28.75 14.9 26.0 L21.9 38.1 Q14.9 42.15 7.55 43.45 L5.1 29.65 M-8.35 -41.75 L-8.8 -42.05 -9.3 -42.1 Q-14.5 -40.9 -19.5 -38.25 L-19.9 -37.9 -20.05 -37.4 -19.95 -36.9 -14.95 -28.2 -14.35 -27.75 -13.6 -27.8 Q-10.4 -29.45 -7.1 -30.25 L-6.5 -30.65 -6.35 -31.4 -8.1 -41.3 -8.35 -41.75 M-7.5 -43.5 L-5.05 -29.7 Q-10.05 -28.8 -14.85 -26.0 L-21.85 -38.15 Q-14.85 -42.2 -7.5 -43.5 M-27.7 -31.65 L-28.15 -31.95 -28.65 -32.0 -29.15 -31.75 Q-33.05 -28.1 -36.05 -23.35 L-36.2 -22.85 -36.1 -22.35 -35.7 -21.95 -27.05 -16.95 -26.3 -16.85 -25.7 -17.25 Q-23.75 -20.25 -21.3 -22.6 L-21.0 -23.3 -21.25 -24.0 -27.7 -31.65 M-27.9 -3.6 Q-30.6 -6.3 -34.45 -6.3 -38.3 -6.3 -41.0 -3.6 -43.7 -0.9 -43.7 2.95 -43.7 6.8 -41.0 9.5 -38.3 12.2 -34.45 12.2 -30.6 12.2 -27.9 9.5 -25.2 6.8 -25.2 2.95 -25.2 -0.9 -27.9 -3.6 M-34.45 -7.3 Q-30.2 -7.3 -27.2 -4.3 -24.2 -1.3 -24.2 2.95 -24.2 7.2 -27.2 10.2 -30.2 13.2 -34.45 13.2 -38.7 13.2 -41.7 10.2 -44.7 7.2 -44.7 2.95 -44.7 -1.3 -41.7 -4.3 -38.7 -7.3 -34.45 -7.3 M-25.85 -15.1 L-38.0 -22.1 Q-33.95 -29.1 -28.25 -33.9 L-19.2 -23.15 Q-23.1 -19.9 -25.85 -15.1 M-23.25 21.05 L-23.95 21.25 -31.6 27.7 -31.9 28.15 -31.95 28.7 -31.7 29.15 Q-28.05 33.05 -23.3 36.1 L-22.8 36.25 -22.3 36.1 -21.9 35.75 -16.9 27.05 Q-16.7 26.7 -16.8 26.35 -16.9 25.95 -17.2 25.7 -20.2 23.75 -22.55 21.35 -22.85 21.05 -23.25 21.05 M-22.05 38.0 Q-29.05 33.95 -33.85 28.25 L-23.1 19.25 Q-19.85 23.1 -15.05 25.9 L-22.05 38.0 M-8.9 29.8 L-9.6 29.85 -10.1 30.4 -13.55 39.8 -13.55 40.35 -13.35 40.85 -12.9 41.1 Q-7.8 42.65 -2.15 42.95 L-1.6 42.8 -1.25 42.45 -1.1 41.95 -1.1 31.9 Q-1.1 31.45 -1.35 31.2 -1.65 30.9 -2.05 30.9 L-8.9 29.8 M-0.1 43.95 Q-8.15 43.95 -15.2 41.4 L-10.4 28.25 Q-5.6 29.95 -0.1 29.95 L-0.1 43.95" fill="#875101" fill-rule="evenodd" stroke="none"/>
    <path d="M13.6 -13.65 Q19.3 -7.95 19.3 0.0 19.3 7.95 13.6 13.6 11.45 15.75 9.0 17.15 4.95 19.3 0.0 19.3 -7.95 19.3 -13.65 13.6 -19.3 7.95 -19.3 0.0 -19.3 -5.05 -17.0 -9.2 -15.7 -11.6 -13.65 -13.65 -7.95 -19.3 0.0 -19.3 7.95 -19.3 13.6 -13.65" fill="#b5d0d2" fill-rule="evenodd" stroke="none"/>
    <path d="M14.1 -14.15 Q20.0 -8.25 20.0 0.0 L-20.0 0.0 Q-20.0 -8.25 -14.15 -14.15 -8.25 -20.0 0.0 -20.0 8.25 -20.0 14.1 -14.15" fill="#b5d0d2" fill-opacity="0.8" fill-rule="evenodd" stroke="none"/>
    <path d="M15.6 -7.95 L15.85 -8.3 Q14.2 -12.05 12.5 -12.45 L12.0 -12.1 12.4 -10.8 11.15 -11.3 Q10.7 -11.4 10.65 -11.0 L14.35 -7.25 Q14.6 -7.15 15.05 -7.45 16.45 -4.85 16.3 -0.7 L15.9 -0.75 15.1 -1.1 Q14.65 -1.25 14.55 -0.85 L15.15 1.4 15.0 2.6 Q14.95 3.45 15.35 3.55 15.75 3.65 17.25 0.7 L17.2 -3.7 Q17.15 -4.75 16.5 -6.4 L15.6 -7.95 M17.65 -10.7 Q22.1 -3.4 20.1 4.95 18.0 13.2 10.7 17.65 7.9 19.35 5.0 20.15 0.2 21.35 -4.85 20.1 -13.2 18.0 -17.6 10.7 -22.05 3.4 -20.05 -4.85 -18.8 -10.2 -15.3 -13.9 -13.4 -16.05 -10.7 -17.65 -3.4 -22.1 4.95 -20.05 13.2 -18.0 17.65 -10.7" fill="#e1bd6a" fill-rule="evenodd" stroke="none"/>
    <path d="M15.6 -7.95 L16.5 -6.4 Q17.15 -4.75 17.2 -3.7 L17.25 0.7 Q15.75 3.65 15.35 3.55 14.95 3.45 15.0 2.6 L15.15 1.4 14.55 -0.85 Q14.65 -1.25 15.1 -1.1 L15.9 -0.75 16.3 -0.7 Q16.45 -4.85 15.05 -7.45 14.6 -7.15 14.35 -7.25 L10.65 -11.0 Q10.7 -11.4 11.15 -11.3 L12.4 -10.8 12.0 -12.1 12.5 -12.45 Q14.2 -12.05 15.85 -8.3 L15.6 -7.95 M-16.05 -14.55 L-16.1 -14.55 -16.05 -14.6 -16.05 -14.55" fill="#996600" fill-rule="evenodd" stroke="none"/>
    <path d="M17.65 -10.7 Q13.2 -18.0 4.95 -20.05 -3.4 -22.1 -10.7 -17.65 -13.4 -16.05 -15.3 -13.9 -18.8 -10.2 -20.05 -4.85 -22.05 3.4 -17.6 10.7 -13.2 18.0 -4.85 20.1 0.2 21.35 5.0 20.15 7.9 19.35 10.7 17.65 18.0 13.2 20.1 4.95 22.1 -3.4 17.65 -10.7 M-16.05 -14.55 Q-14.0 -16.85 -11.2 -18.5 -3.5 -23.2 5.2 -21.0 13.8 -18.9 18.5 -11.2 23.2 -3.5 21.05 5.2 18.9 13.8 11.2 18.5 8.3 20.25 5.25 21.1 0.2 22.35 -5.1 21.05 -13.8 18.9 -18.45 11.2 -23.15 3.5 -21.0 -5.1 -19.7 -10.7 -16.1 -14.55 L-16.05 -14.55" fill="#8b5608" fill-rule="evenodd" stroke="none"/>
    <path d="M10.8 -18.15 Q10.9 -18.35 11.1 -18.35 L11.45 -18.3 11.7 -18.0 11.65 -17.65 0.8 0.0 0.6 0.2 10.75 17.95 10.8 18.35 10.55 18.65 10.2 18.7 9.9 18.45 -0.25 0.7 -20.75 0.15 -21.1 0.0 -21.25 -0.35 -21.1 -0.7 -20.7 -0.85 -0.15 -0.3 -0.05 -0.5 10.8 -18.15" fill="#8b5608" fill-rule="evenodd" stroke="none"/>
    <path d="M7.1 -26.15 L7.35 -25.85 7.05 -26.1 7.1 -26.15 M-3.35 -24.65 L-0.85 -24.15 1.9 -24.55 0.75 -23.4 -2.7 -22.8 Q-3.1 -24.2 -4.6 -22.95 L-5.0 -22.55 -5.5 -22.55 Q-4.7 -23.0 -4.05 -24.05 L-4.1 -24.45 -3.35 -24.65 M0.7 -25.1 L1.95 -26.05 2.15 -26.1 1.85 -25.5 0.7 -25.1 M-1.9 -20.35 Q-1.75 -19.85 -1.15 -19.7 L-14.55 -11.7 -1.9 -20.35 M0.65 -19.5 L0.95 -19.45 Q-0.9 -18.1 -1.5 -17.9 L0.65 -19.5 M4.25 -18.75 Q8.1 -20.05 11.95 -18.45 L13.5 -19.1 5.5 -12.35 15.9 -18.95 16.85 -16.35 -10.7 10.5 -8.95 12.15 -12.05 17.05 Q-12.75 16.2 -12.4 17.05 L-12.25 17.25 -12.6 17.8 Q-15.6 18.9 -15.0 20.75 L-14.7 20.5 -9.5 16.15 Q-6.35 13.25 -3.35 14.55 L-10.4 25.75 Q-2.05 23.8 4.25 16.45 12.2 7.1 20.85 -1.45 L5.6 9.2 Q5.6 7.95 6.05 6.85 2.85 10.0 -1.05 9.55 -0.45 7.15 1.25 5.25 L11.65 -5.85 Q16.4 -10.8 21.6 -15.25 23.2 -13.5 23.3 -16.45 L23.3 -16.6 30.1 -20.35 24.45 -14.8 24.2 -14.85 Q23.05 -14.85 22.9 -13.4 L5.5 4.55 21.65 -8.7 21.95 -5.7 12.6 2.6 22.85 -4.05 23.9 -3.85 22.35 -1.65 24.35 -3.55 Q21.5 2.95 15.9 7.6 10.05 12.45 5.0 18.15 L30.35 0.75 17.75 11.75 22.15 10.05 20.55 11.35 Q14.1 14.0 10.3 19.7 L9.1 21.35 1.5 28.2 7.25 20.65 -3.35 30.55 Q-4.8 30.0 -4.05 28.9 L-7.3 29.55 -11.1 28.7 -13.1 26.45 -11.4 22.2 -18.9 27.85 -21.65 26.65 -19.7 21.6 Q-24.75 30.25 -33.1 30.95 L-31.1 23.6 -33.35 22.6 -28.6 14.7 -33.45 18.4 -35.75 22.55 -36.85 22.0 -37.85 23.05 Q-39.7 21.75 -34.95 19.1 L-44.35 17.2 -29.95 12.1 -23.85 4.85 -23.8 5.25 -22.4 4.15 -21.9 3.9 -18.65 4.75 -19.45 9.15 -17.85 10.25 -19.55 14.0 -22.35 16.6 -20.0 14.6 -26.05 22.6 -14.4 11.85 -14.4 10.9 6.95 -10.5 Q4.75 -8.5 1.9 -7.75 L-1.7 -7.65 5.75 -16.0 1.0 -13.6 -0.45 -14.25 4.25 -18.75 M16.55 -22.1 Q14.9 -24.0 13.25 -21.1 L13.25 -21.3 Q12.15 -22.15 13.0 -22.45 L14.1 -23.0 Q16.95 -24.6 16.55 -22.1 M12.85 -25.7 L10.35 -25.05 9.75 -25.0 13.15 -26.6 12.85 -25.7 M7.0 -25.0 Q8.05 -26.3 7.35 -25.35 L7.0 -25.0 M19.6 -19.0 L17.2 -19.85 Q19.3 -23.1 21.1 -21.2 L19.6 -19.0 M9.8 -23.15 L9.85 -23.05 9.45 -22.95 9.35 -22.95 9.8 -23.15 M6.45 -24.55 L6.85 -24.85 6.65 -24.6 6.45 -23.85 6.05 -23.5 5.85 -23.85 6.65 -24.6 6.45 -24.55 M30.0 11.65 Q33.55 6.55 38.55 6.5 L34.3 13.6 Q41.8 6.8 46.5 -2.05 L43.5 4.9 45.2 4.9 29.95 24.75 28.2 24.6 Q27.35 23.2 25.2 25.25 L24.6 25.05 Q23.0 24.4 23.95 22.9 L33.2 15.3 28.7 17.5 28.55 16.25 19.5 22.35 16.05 24.0 15.0 23.0 Q18.65 17.55 23.15 12.1 26.1 8.5 30.75 8.95 L29.75 11.2 23.85 16.9 30.0 11.65 M16.05 15.6 L15.3 16.95 23.45 11.15 Q21.25 13.95 18.3 16.25 13.25 20.3 9.15 25.15 4.35 30.75 -0.65 30.95 L1.4 28.35 Q6.55 25.75 10.65 21.0 11.35 20.15 9.9 20.8 L16.05 15.6 M-40.6 -8.55 Q-34.85 -10.4 -32.5 -15.5 L-32.55 -15.7 -13.25 -31.0 -13.95 -30.1 -8.1 -31.9 -11.15 -26.35 -22.15 -16.7 -31.2 -9.05 -12.55 -29.0 -20.8 -22.65 Q-24.85 -19.55 -28.5 -15.8 -33.6 -10.6 -40.6 -8.55 M-35.35 -14.15 L-40.35 -10.25 -35.25 -17.15 -25.9 -28.35 Q-22.75 -31.95 -20.35 -31.2 L-25.75 -25.3 -17.6 -30.55 Q-21.45 -27.9 -24.9 -25.05 -30.6 -20.2 -35.35 -14.15 M-0.9 -29.75 Q-2.2 -28.15 -6.15 -25.1 -7.85 -24.9 -8.05 -23.7 L-9.3 -22.8 -12.45 -20.5 -25.85 -12.55 Q-19.15 -17.75 -10.35 -25.2 L-3.2 -29.15 -0.9 -29.75 M-8.45 -22.9 L-8.45 -23.2 -8.1 -23.3 -8.1 -22.9 -8.45 -22.9 M-24.1 9.45 L-22.65 7.65 -24.1 9.25 -25.2 10.85 -24.1 9.45" fill="#a4760f" fill-opacity="0.2" fill-rule="evenodd" stroke="none"/>
    <path d="M-20.0 14.6 L-22.35 16.6 -19.55 14.0 -20.0 14.6 M-21.9 3.9 L-22.4 4.15 -22.6 4.05 Q-21.3 2.6 -21.9 3.9 M1.5 28.2 L9.1 21.35 9.9 20.8 Q11.35 20.15 10.65 21.0 6.55 25.75 1.4 28.35 L1.3 28.35 1.5 28.2 M20.55 11.35 L22.15 10.05 Q27.7 5.4 28.7 5.65 27.2 7.85 23.45 11.15 L15.3 16.95 16.05 15.6 Q17.3 14.1 20.55 11.35 M24.35 -3.55 L22.35 -1.65 23.9 -3.85 24.3 -4.25 25.15 -4.25 24.35 -3.55 M-14.7 20.5 L-15.0 20.75 Q-15.6 18.9 -12.6 17.8 L-14.7 20.5 M-12.25 17.25 L-12.4 17.05 Q-12.75 16.2 -12.05 17.05 L-12.25 17.25 M25.3 -12.85 L25.1 -14.1 25.35 -14.3 25.9 -13.75 25.3 -12.85 M24.05 -11.5 L21.35 -9.55 22.95 -12.15 Q23.2 -11.5 24.05 -11.5 M22.15 -5.35 L21.5 -4.8 22.05 -5.5 22.15 -5.35 M30.0 11.65 L23.85 16.9 29.75 11.2 30.0 11.65 M19.5 22.35 L28.55 16.25 28.7 17.5 33.2 15.3 23.95 22.9 Q22.1 21.4 19.45 23.65 12.1 29.9 5.05 32.75 L19.5 22.35 M-40.6 -8.55 L-40.8 -8.55 Q-42.1 -9.15 -40.35 -10.25 L-35.35 -14.15 -32.55 -15.7 -32.5 -15.5 Q-34.85 -10.4 -40.6 -8.55 M-12.45 -20.5 L-9.3 -22.8 -8.45 -22.9 -8.1 -22.9 Q-8.0 -22.3 -7.35 -22.15 L-7.4 -22.1 Q-10.6 -18.75 -12.45 -20.5 M-26.45 -39.4 L-36.75 -28.7 -27.65 -35.7 -42.6 -23.6 -26.45 -39.4 M-24.1 9.45 L-24.1 9.25 -22.65 7.65 -24.1 9.45" fill="#a7490c" fill-opacity="0.3019608" fill-rule="evenodd" stroke="none"/>
    <path d="M7.1 -26.15 L10.4 -29.65 11.05 -31.8 10.65 -32.75 Q11.35 -36.15 14.15 -38.05 L16.05 -39.2 16.85 -38.0 16.95 -37.85 17.0 -37.65 19.3 -36.05 16.4 -28.65 13.15 -26.6 9.75 -25.0 9.95 -24.55 10.35 -25.05 12.85 -25.7 15.45 -25.4 13.0 -22.45 Q12.15 -22.15 13.25 -21.3 L13.25 -21.1 Q14.9 -24.0 16.55 -22.1 16.55 -20.85 15.65 -19.95 14.75 -19.1 13.5 -19.1 L11.95 -18.45 Q8.1 -20.05 4.25 -18.75 L0.95 -19.45 0.65 -19.5 -1.15 -19.7 Q-1.75 -19.85 -1.9 -20.35 L0.75 -23.4 1.9 -24.55 1.85 -25.5 2.15 -26.1 2.25 -26.3 1.95 -26.05 0.7 -25.1 -0.85 -24.15 -3.35 -24.65 0.5 -29.7 4.65 -29.15 5.2 -27.45 7.05 -26.1 7.35 -25.85 7.1 -26.15 M4.35 -32.35 L2.65 -35.8 4.65 -38.25 7.05 -35.55 4.35 -32.35 M8.65 -34.95 L9.85 -32.7 6.2 -30.75 6.95 -33.35 8.65 -34.95 M7.0 -25.0 L7.35 -25.35 Q8.05 -26.3 7.0 -25.0 M17.2 -19.85 L19.6 -19.0 17.85 -15.2 16.85 -16.35 15.9 -18.95 Q16.1 -19.9 16.9 -19.9 L17.2 -19.85 M9.85 -23.05 L9.8 -23.15 9.75 -23.35 9.35 -22.95 9.45 -22.95 9.65 -22.85 9.85 -23.05 M6.45 -23.85 L6.65 -24.6 6.85 -24.85 6.45 -24.55 6.05 -24.35 5.85 -23.85 6.05 -23.5 6.15 -23.3 Q6.55 -23.35 6.45 -23.85 M21.95 -5.7 L21.65 -8.7 22.65 -10.05 27.0 -10.8 27.0 -10.55 Q29.45 -6.0 25.15 -4.25 L24.3 -4.25 Q22.85 -4.4 22.15 -5.35 L22.05 -5.5 21.95 -5.7 M22.9 -13.4 Q23.05 -14.85 24.2 -14.85 L24.45 -14.8 25.1 -14.1 25.3 -12.85 Q25.25 -11.5 24.1 -11.5 L24.05 -11.5 Q23.2 -11.5 22.95 -12.15 L22.9 -13.4 M23.3 -16.6 L23.3 -16.45 Q23.2 -13.5 21.6 -15.25 L21.6 -15.5 Q22.1 -17.85 23.3 -16.6 M-0.9 -29.75 L-3.2 -29.15 -4.5 -32.85 0.1 -35.5 -0.15 -33.7 0.8 -32.3 -0.9 -29.75 M-10.35 -25.2 Q-19.15 -17.75 -25.85 -12.55 L-22.15 -16.7 -11.15 -26.35 -9.1 -26.6 -10.35 -25.2 M-8.05 -23.7 Q-7.85 -24.9 -6.15 -25.1 L-4.1 -24.45 -4.05 -24.05 Q-4.7 -23.0 -5.5 -22.55 L-7.35 -22.15 Q-8.0 -22.3 -8.1 -22.9 L-8.1 -23.3 -8.05 -23.7 M-2.7 -22.8 L-2.85 -22.6 -5.0 -22.55 -4.6 -22.95 Q-3.1 -24.2 -2.7 -22.8" fill="#a7490c" fill-opacity="0.4" fill-rule="evenodd" stroke="none"/>
    <path d="M10.35 -2.55 L7.55 7.55 -2.7 10.15 -10.05 2.65 -7.1 -7.5 3.05 -10.05 10.35 -2.55 M-4.25 2.7 L-4.2 2.65 -4.25 2.65 -4.25 2.7" fill="#cc9900" fill-rule="evenodd" stroke="none"/>
    <path d="M-4.25 2.7 L-4.25 2.65 -4.2 2.65 -4.25 2.7" fill="#996600" fill-rule="evenodd" stroke="none"/>
    <path d="M3.1 -11.05 L3.35 -11.05 3.55 -10.95 11.25 -3.05 11.4 -2.8 11.4 -2.55 8.45 8.1 8.3 8.3 8.1 8.45 -2.7 11.2 -2.95 11.2 -3.2 11.05 -10.95 3.1 -11.05 2.9 -11.05 2.6 -7.95 -8.05 -7.85 -8.25 -7.6 -8.35 3.1 -11.05 M10.35 -2.55 L3.05 -10.05 -7.1 -7.5 -10.05 2.65 -2.7 10.15 7.55 7.55 10.35 -2.55" fill="#875101" fill-rule="evenodd" stroke="none"/>
  </g>
</svg>
