<?xml version="1.0" encoding="UTF-8" standalone="no"?>
<svg xmlns:ffdec="https://www.free-decompiler.com/flash" xmlns:xlink="http://www.w3.org/1999/xlink" ffdec:objectType="shape" height="202.25px" width="80.5px" viewBox="0 0 16.1 40.45" xmlns="http://www.w3.org/2000/svg">
  <g transform="matrix(1.0, 0.0, 0.0, 1.0, 1.0, 0.45)">
    <path d="M15.1 0.0 L15.1 17.55 14.1 20.2 15.1 22.2 15.1 40.0 3.1 40.0 3.1 22.2 4.25 20.2 3.1 17.55 3.1 0.0 15.1 0.0" fill="#000000" fill-opacity="0.2" fill-rule="evenodd" stroke="none"/>
    <path d="M10.0 0.0 L11.0 0.0 11.0 17.55 10.95 17.7 10.0 20.2 11.0 22.2 11.0 40.0 10.0 40.0 10.0 22.2 8.35 20.2 9.9 17.7 10.0 17.55 10.0 0.0 M0.0 40.0 L-1.0 40.0 -1.0 22.2 0.15 20.2 -0.95 17.7 -1.0 17.55 -1.0 0.0 0.0 0.0 0.0 17.55 0.05 17.7 1.4 20.2 0.0 22.2 0.0 40.0 M10.95 17.7 L9.9 17.7 10.95 17.7 M-0.95 17.7 L0.05 17.7 -0.95 17.7" fill="#653d01" fill-rule="evenodd" stroke="none"/>
    <path d="M9.55 40.0 L0.45 40.0 0.45 26.0 Q0.45 23.75 1.8 22.2 L1.9 22.1 Q3.0 20.9 4.4 20.6 L4.45 20.55 4.7 20.5 6.15 20.75 6.2 20.75 Q7.2 21.15 8.05 22.1 L8.15 22.2 Q9.5 23.75 9.55 26.0 L9.55 40.0 M0.45 0.0 L3.2 0.0 Q2.65 1.1 2.65 3.85 2.65 9.85 3.5 13.45 3.5 14.45 2.7 17.7 L2.65 17.85 2.9 18.75 1.9 17.85 1.8 17.7 1.65 17.55 Q0.45 16.05 0.45 14.0 L0.45 0.0 M3.45 0.0 L9.55 0.0 9.55 14.0 Q9.5 16.05 8.3 17.55 L8.2 17.7 7.05 17.7 8.2 17.7 8.05 17.85 Q7.2 18.8 6.2 19.2 L6.15 19.2 4.7 19.5 4.45 19.4 4.4 19.35 3.25 18.95 3.15 18.3 3.35 17.7 Q4.2 14.95 4.2 13.55 3.2 8.6 3.2 3.4 L3.4 0.8 3.45 0.0 M6.35 17.7 L3.35 17.7 6.35 17.7 6.3 18.0 6.3 18.45 6.7 18.6 7.05 17.7 7.55 12.75 Q7.55 6.55 6.75 4.4 L6.55 4.5 Q6.5 6.3 6.9 9.1 L6.35 17.7 M2.7 17.7 L1.8 17.7 2.7 17.7 M3.0 26.85 L3.1 26.2 Q2.55 26.3 2.55 27.3 2.55 35.4 3.45 39.6 L3.75 37.5 3.0 26.85 M7.15 29.8 Q7.15 27.55 6.4 26.05 L6.25 26.05 6.2 26.2 6.7 30.05 6.1 34.85 6.5 35.15 Q7.15 31.8 7.15 29.8" fill="#a36932" fill-rule="evenodd" stroke="none"/>
    <path d="M9.55 0.0 L10.0 0.0 10.0 17.55 9.9 17.7 8.2 17.7 9.9 17.7 8.35 20.2 10.0 22.2 10.0 40.0 9.55 40.0 9.55 26.0 Q9.5 23.75 8.15 22.2 L8.05 22.1 Q7.2 21.15 6.2 20.75 L6.15 20.75 4.7 20.5 4.45 20.55 4.4 20.6 Q3.0 20.9 1.9 22.1 L1.8 22.2 Q0.45 23.75 0.45 26.0 L0.45 40.0 0.0 40.0 0.0 22.2 1.4 20.2 0.05 17.7 1.8 17.7 0.05 17.7 0.0 17.55 0.0 0.0 0.45 0.0 0.45 14.0 Q0.45 16.05 1.65 17.55 L1.8 17.7 1.9 17.85 2.9 18.75 2.65 17.85 2.7 17.7 Q3.5 14.45 3.5 13.45 2.65 9.85 2.65 3.85 2.65 1.1 3.2 0.0 L3.5 -0.45 3.45 0.0 3.4 0.8 3.2 3.4 Q3.2 8.6 4.2 13.55 4.2 14.95 3.35 17.7 L3.15 18.3 3.25 18.95 4.4 19.35 4.45 19.4 4.7 19.5 6.15 19.2 6.2 19.2 Q7.2 18.8 8.05 17.85 L8.2 17.7 8.3 17.55 Q9.5 16.05 9.55 14.0 L9.55 0.0 M6.35 17.7 L6.9 9.1 Q6.5 6.3 6.55 4.5 L6.75 4.4 Q7.55 6.55 7.55 12.75 L7.05 17.7 6.35 17.7 7.05 17.7 6.7 18.6 6.3 18.45 6.3 18.0 6.35 17.7 M2.7 17.7 L3.35 17.7 2.7 17.7 M7.15 29.8 Q7.15 31.8 6.5 35.15 L6.1 34.85 6.7 30.05 6.2 26.2 6.25 26.05 6.4 26.05 Q7.15 27.55 7.15 29.8 M3.0 26.85 L3.75 37.5 3.45 39.6 Q2.55 35.4 2.55 27.3 2.55 26.3 3.1 26.2 L3.0 26.85" fill="#815529" fill-rule="evenodd" stroke="none"/>
  </g>
</svg>
