<?xml version="1.0" encoding="UTF-8" standalone="no"?>
<svg xmlns:ffdec="https://www.free-decompiler.com/flash" xmlns:xlink="http://www.w3.org/1999/xlink" ffdec:objectType="shape" height="34.9px" width="34.9px" xmlns="http://www.w3.org/2000/svg">
  <g transform="matrix(1.0, 0.0, 0.0, 1.0, 17.45, 17.45)">
    <path d="M0.05 -14.3 L0.0 -14.45 -0.05 -14.25 -0.05 -14.3 Q-0.55 -13.05 -0.5 -11.2 -0.5 -9.4 -0.05 -8.15 L0.0 -8.0 0.05 -8.15 0.05 -8.2 Q0.55 -9.45 0.55 -11.2 0.55 -13.0 0.05 -14.3 M7.2 -12.5 L7.1 -12.4 7.05 -12.35 Q6.05 -11.5 5.15 -9.95 4.25 -8.4 4.0 -7.05 L3.95 -6.9 4.1 -7.0 4.1 -7.05 Q5.15 -7.85 6.1 -9.4 6.95 -10.95 7.15 -12.3 L7.2 -12.35 7.2 -12.5 M4.3 -14.65 L4.35 -14.7 Q6.85 -16.65 8.7 -15.05 11.05 -14.2 10.5 -11.1 L10.35 -10.4 11.05 -10.55 11.1 -10.55 Q14.25 -11.0 15.1 -8.7 16.65 -6.75 14.65 -4.35 L14.2 -3.8 14.85 -3.6 14.9 -3.55 Q17.8 -2.4 17.4 0.0 17.8 2.45 14.85 3.55 L14.9 3.55 14.2 3.8 14.65 4.3 14.7 4.35 Q16.65 6.85 15.1 8.7 14.2 11.05 11.15 10.5 L10.4 10.35 10.55 11.05 10.55 11.1 Q11.0 14.25 8.7 15.1 6.75 16.65 4.35 14.65 L4.4 14.65 3.85 14.2 3.65 14.85 3.6 14.9 Q2.4 17.8 0.0 17.4 -2.45 17.8 -3.55 14.85 L-3.5 14.9 -3.75 14.2 -4.25 14.65 -4.35 14.7 Q-6.85 16.65 -8.7 15.1 -11.05 14.2 -10.5 11.15 L-10.35 10.4 -11.05 10.55 -11.1 10.55 Q-14.25 11.0 -15.05 8.7 -16.65 6.75 -14.65 4.35 L-14.65 4.4 -14.15 3.85 -14.85 3.65 -14.9 3.6 Q-17.8 2.4 -17.4 0.0 -17.8 -2.45 -14.85 -3.55 L-14.85 -3.5 -14.15 -3.75 -14.65 -4.25 -14.7 -4.35 Q-16.65 -6.85 -15.05 -8.7 -14.2 -11.05 -11.1 -10.5 L-10.4 -10.35 -10.55 -11.05 -10.55 -11.1 Q-11.0 -14.25 -8.7 -15.05 -6.75 -16.65 -4.35 -14.65 L-3.8 -14.15 -3.6 -14.85 -3.55 -14.9 Q-2.4 -17.8 0.0 -17.4 2.45 -17.8 3.55 -14.85 L3.8 -14.15 4.3 -14.65 M1.35 -5.05 L0.0 -5.0 -1.35 -5.05 -2.5 -4.3 Q-3.05 -3.85 -3.7 -3.7 -3.85 -3.1 -4.3 -2.5 -4.6 -1.8 -5.05 -1.35 -4.85 -0.75 -5.0 0.0 -4.85 0.75 -5.05 1.35 -4.6 1.8 -4.3 2.5 -3.85 3.05 -3.7 3.7 -3.1 3.85 -2.5 4.35 L-1.35 5.05 0.0 5.0 1.35 5.05 2.5 4.35 3.7 3.7 Q3.85 3.1 4.35 2.5 4.6 1.8 5.05 1.35 4.85 0.75 5.0 0.0 4.85 -0.75 5.05 -1.35 4.6 -1.8 4.35 -2.5 3.85 -3.05 3.7 -3.7 3.1 -3.85 2.5 -4.3 L1.35 -5.05 M-7.15 12.35 L-7.15 12.5 -7.05 12.4 -5.1 9.95 Q-4.25 8.4 -4.0 7.1 L-3.95 6.9 -4.1 7.0 -4.1 7.05 Q-5.15 7.85 -6.05 9.4 -6.95 10.95 -7.15 12.35 M-7.0 4.2 L-6.85 4.05 -7.05 4.1 Q-8.4 4.25 -9.95 5.15 -11.5 6.05 -12.35 7.15 L-12.45 7.3 -12.3 7.25 Q-11.0 7.0 -9.4 6.1 -7.85 5.2 -7.0 4.2 M-4.05 -7.05 L-4.1 -7.05 Q-4.25 -8.4 -5.15 -9.95 -6.05 -11.5 -7.15 -12.35 L-7.25 -12.45 -7.2 -12.3 -7.25 -12.3 Q-7.0 -11.0 -6.1 -9.4 -5.2 -7.85 -4.15 -7.0 L-4.05 -6.85 -4.05 -7.05 M-11.2 -0.55 L-14.3 -0.05 -14.45 0.05 -14.25 0.1 -14.3 0.1 -11.2 0.55 -8.15 0.1 -8.0 0.05 -8.15 -0.05 -8.2 -0.05 -11.2 -0.55 M-12.3 -7.15 L-12.35 -7.15 -12.5 -7.15 -12.4 -7.05 -12.35 -7.05 -9.95 -5.1 Q-8.4 -4.25 -7.05 -4.0 L-6.9 -3.95 -7.0 -4.1 -7.05 -4.1 Q-7.85 -5.15 -9.4 -6.05 -10.95 -6.95 -12.3 -7.15 M4.1 7.05 L4.1 7.1 Q4.25 8.4 5.15 9.95 6.05 11.5 7.15 12.4 L7.3 12.5 7.25 12.3 7.25 12.35 Q7.0 11.0 6.1 9.45 5.2 7.85 4.2 7.0 L4.05 6.9 4.1 7.05 M0.1 8.2 L0.05 8.0 -0.05 8.15 -0.05 8.2 Q-0.55 9.45 -0.55 11.25 -0.55 13.0 -0.05 14.3 L-0.05 14.35 0.05 14.45 0.1 14.3 0.1 14.35 Q0.55 13.05 0.55 11.25 0.5 9.4 0.1 8.2 M12.4 7.1 L12.4 7.05 Q11.5 6.05 9.95 5.15 8.4 4.25 7.1 4.0 L6.9 3.95 7.0 4.1 7.05 4.1 Q7.85 5.15 9.4 6.1 10.95 6.95 12.35 7.15 L12.35 7.2 12.5 7.2 12.4 7.1 M7.1 -4.1 Q8.4 -4.25 9.95 -5.15 11.5 -6.05 12.4 -7.15 L12.5 -7.25 12.3 -7.2 12.35 -7.25 Q11.0 -7.0 9.45 -6.1 7.85 -5.2 7.0 -4.15 L6.9 -4.05 7.05 -4.05 7.1 -4.1 M8.2 -0.05 L8.0 0.0 8.15 0.05 8.2 0.05 11.25 0.55 14.3 0.05 14.35 0.05 14.45 0.0 14.3 -0.05 14.35 -0.05 11.25 -0.5 8.2 -0.05" fill="#ffffff" fill-opacity="0.3019608" fill-rule="evenodd" stroke="none"/>
    <path d="M7.2 -12.5 L7.2 -12.35 7.15 -12.3 Q6.95 -10.95 6.1 -9.4 5.15 -7.85 4.1 -7.05 L4.1 -7.0 3.95 -6.9 4.0 -7.05 Q4.25 -8.4 5.15 -9.95 6.05 -11.5 7.05 -12.35 L7.1 -12.4 7.2 -12.5 M0.05 -14.3 Q0.55 -13.0 0.55 -11.2 0.55 -9.45 0.05 -8.2 L0.05 -8.15 0.0 -8.0 -0.05 -8.15 Q-0.5 -9.4 -0.5 -11.2 -0.55 -13.05 -0.05 -14.3 L-0.05 -14.25 0.0 -14.45 0.05 -14.3 M8.2 -0.05 L11.25 -0.5 14.35 -0.05 14.3 -0.05 14.45 0.0 14.35 0.05 14.3 0.05 11.25 0.55 8.2 0.05 8.15 0.05 8.0 0.0 8.2 -0.05 M7.1 -4.1 L7.05 -4.05 6.9 -4.05 7.0 -4.15 Q7.85 -5.2 9.45 -6.1 11.0 -7.0 12.35 -7.25 L12.3 -7.2 12.5 -7.25 12.4 -7.15 Q11.5 -6.05 9.95 -5.15 8.4 -4.25 7.1 -4.1 M12.4 7.1 L12.5 7.2 12.35 7.2 12.35 7.15 Q10.95 6.95 9.4 6.1 7.85 5.15 7.05 4.1 L7.0 4.1 6.9 3.95 7.1 4.0 Q8.4 4.25 9.95 5.15 11.5 6.05 12.4 7.05 L12.4 7.1 M0.1 8.2 Q0.5 9.4 0.55 11.25 0.55 13.05 0.1 14.35 L0.1 14.3 0.05 14.45 -0.05 14.35 -0.05 14.3 Q-0.55 13.0 -0.55 11.25 -0.55 9.45 -0.05 8.2 L-0.05 8.15 0.05 8.0 0.1 8.2 M4.1 7.05 L4.05 6.9 4.2 7.0 Q5.2 7.85 6.1 9.45 7.0 11.0 7.25 12.35 L7.25 12.3 7.3 12.5 7.15 12.4 Q6.05 11.5 5.15 9.95 4.25 8.4 4.1 7.1 L4.1 7.05 M-12.3 -7.15 Q-10.95 -6.95 -9.4 -6.05 -7.85 -5.15 -7.05 -4.1 L-7.0 -4.1 -6.9 -3.95 -7.05 -4.0 Q-8.4 -4.25 -9.95 -5.1 L-12.35 -7.05 -12.4 -7.05 -12.5 -7.15 -12.35 -7.15 -12.3 -7.15 M-11.2 -0.55 L-8.2 -0.05 -8.15 -0.05 -8.0 0.05 -8.15 0.1 -11.2 0.55 -14.3 0.1 -14.25 0.1 -14.45 0.05 -14.3 -0.05 -11.2 -0.55 M-4.05 -7.05 L-4.05 -6.85 -4.15 -7.0 Q-5.2 -7.85 -6.1 -9.4 -7.0 -11.0 -7.25 -12.3 L-7.2 -12.3 -7.25 -12.45 -7.15 -12.35 Q-6.05 -11.5 -5.15 -9.95 -4.25 -8.4 -4.1 -7.05 L-4.05 -7.05 M-7.0 4.2 Q-7.85 5.2 -9.4 6.1 -11.0 7.0 -12.3 7.25 L-12.45 7.3 -12.35 7.15 Q-11.5 6.05 -9.95 5.15 -8.4 4.25 -7.05 4.1 L-6.85 4.05 -7.0 4.2 M-7.15 12.35 Q-6.95 10.95 -6.05 9.4 -5.15 7.85 -4.1 7.05 L-4.1 7.0 -3.95 6.9 -4.0 7.1 Q-4.25 8.4 -5.1 9.95 L-7.05 12.4 -7.15 12.5 -7.15 12.35" fill="#ffffff" fill-rule="evenodd" stroke="none"/>
  </g>
</svg>
