<?xml version="1.0" encoding="UTF-8" standalone="no"?>
<svg xmlns:ffdec="https://www.free-decompiler.com/flash" xmlns:xlink="http://www.w3.org/1999/xlink" ffdec:objectType="shape" height="76.0px" width="76.0px" xmlns="http://www.w3.org/2000/svg">
  <g transform="matrix(1.0, 0.0, 0.0, 1.0, 38.0, 38.0)">
    <path d="M2.0 -28.75 L1.7 -23.4 Q1.15 -18.95 0.0 -19.55 -1.15 -18.95 -1.7 -23.35 L-1.7 -23.4 -1.95 -28.75 -1.7 -34.1 -1.7 -34.2 Q-1.15 -38.55 0.0 -37.9 1.15 -38.55 1.7 -34.2 L2.0 -28.75 M16.75 -29.05 L16.6 -28.85 16.65 -28.9 14.15 -25.05 Q12.85 -22.75 12.1 -21.05 L12.0 -20.8 12.15 -21.0 12.15 -21.05 14.6 -24.75 16.7 -28.85 16.75 -29.05 M0.25 -28.75 L0.0 -33.3 0.0 -33.35 0.0 -33.55 -0.05 -33.35 -0.25 -28.75 -0.05 -24.25 0.0 -24.0 0.0 -24.25 0.0 -24.3 0.25 -28.75 M18.6 -28.75 L16.1 -23.9 Q14.55 -21.2 13.2 -19.45 10.55 -15.8 9.85 -16.95 8.55 -17.0 10.25 -21.05 L10.25 -21.1 Q11.1 -23.15 12.7 -25.85 14.25 -28.6 15.6 -30.4 L15.7 -30.5 Q18.3 -33.95 19.0 -32.85 20.3 -32.8 18.6 -28.75 M19.4 -13.2 L23.95 -16.1 Q26.65 -17.7 28.7 -18.55 L28.8 -18.6 Q32.8 -20.25 32.85 -18.95 33.95 -18.3 30.45 -15.65 28.6 -14.3 25.9 -12.7 L21.15 -10.25 Q17.0 -8.5 16.95 -9.8 15.85 -10.5 19.4 -13.15 L19.4 -13.2 M24.3 -0.05 L24.0 0.0 24.25 0.0 24.3 0.0 28.8 0.25 33.35 0.0 33.6 0.0 33.35 -0.05 28.8 -0.25 24.3 -0.05 M28.8 -16.7 Q27.05 -15.95 24.8 -14.6 22.5 -13.3 21.0 -12.15 L20.8 -12.0 21.0 -12.1 21.05 -12.15 Q22.75 -12.85 25.05 -14.15 L28.85 -16.65 28.9 -16.65 29.05 -16.8 28.85 -16.7 28.8 -16.7 M23.4 -1.7 L28.75 -1.95 34.15 -1.7 34.25 -1.7 Q38.55 -1.15 37.95 0.0 38.55 1.15 34.2 1.7 L28.75 2.0 23.45 1.7 Q18.95 1.15 19.6 0.0 18.95 -1.15 23.4 -1.7 M21.05 12.1 L20.8 12.0 21.0 12.15 21.05 12.15 24.8 14.6 28.85 16.7 28.9 16.7 29.1 16.75 28.85 16.6 28.9 16.65 25.05 14.15 Q22.75 12.85 21.05 12.1 M21.15 10.25 L25.9 12.7 30.45 15.6 30.5 15.7 Q33.95 18.3 32.85 19.0 32.8 20.3 28.75 18.6 L28.8 18.6 Q26.7 17.7 23.95 16.1 L19.45 13.2 Q15.8 10.55 16.95 9.85 17.0 8.55 21.1 10.25 L21.15 10.25 M1.7 23.4 L2.0 28.75 1.7 34.15 1.7 34.25 Q1.15 38.55 0.0 37.95 -1.15 38.55 -1.65 34.2 L-1.95 28.75 -1.65 23.45 Q-1.15 18.95 0.0 19.6 1.15 18.95 1.7 23.4 M12.05 20.8 L12.15 21.0 12.15 21.05 14.2 25.05 16.65 28.85 16.7 28.9 16.8 29.05 16.75 28.85 16.7 28.8 14.65 24.8 12.2 21.0 12.05 20.8 M0.05 24.3 L0.05 24.0 0.0 24.25 0.0 24.3 -0.25 28.8 0.0 33.35 0.05 33.6 0.05 33.35 0.3 28.8 0.05 24.3 M13.2 19.4 L16.1 23.95 18.6 28.7 18.6 28.8 Q20.25 32.8 19.0 32.85 18.3 33.95 15.7 30.45 L15.65 30.45 12.7 25.9 10.3 21.15 Q8.5 17.0 9.85 16.95 10.5 15.85 13.2 19.4 M-16.65 -28.85 L-16.8 -29.05 -16.7 -28.85 -16.7 -28.8 -14.6 -24.75 -12.15 -21.0 -12.0 -20.75 -12.1 -21.0 -12.15 -21.05 -14.15 -25.0 -16.65 -28.85 M-18.6 -28.8 Q-20.25 -32.8 -18.95 -32.85 -18.3 -33.95 -15.65 -30.45 L-15.65 -30.4 Q-14.3 -28.6 -12.7 -25.85 -11.1 -23.15 -10.25 -21.1 -8.5 -17.0 -9.8 -16.95 -10.5 -15.85 -13.15 -19.4 L-13.2 -19.4 -16.1 -23.9 -18.55 -28.7 -18.6 -28.8 M-24.75 -14.6 L-28.85 -16.65 -29.05 -16.75 -28.85 -16.6 -28.9 -16.6 -25.05 -14.15 Q-22.75 -12.85 -21.05 -12.1 L-20.8 -11.95 -21.0 -12.1 -21.05 -12.15 -24.75 -14.6 M-28.75 -18.55 L-23.9 -16.1 Q-21.2 -14.55 -19.45 -13.2 -15.8 -10.55 -16.95 -9.8 -17.0 -8.55 -21.05 -10.25 L-21.1 -10.25 -25.85 -12.7 -30.4 -15.6 -30.5 -15.65 Q-33.95 -18.3 -32.85 -18.95 -32.8 -20.3 -28.75 -18.55 M-23.4 -1.65 Q-18.95 -1.15 -19.55 0.0 -18.95 1.15 -23.35 1.7 L-23.4 1.7 -28.75 2.0 -34.1 1.7 -34.2 1.7 Q-38.55 1.15 -37.9 0.0 -38.55 -1.15 -34.2 -1.65 L-28.75 -1.95 -23.4 -1.65 M-13.2 19.45 Q-10.55 15.8 -9.8 16.95 -8.55 17.0 -10.25 21.1 L-10.25 21.15 Q-11.1 23.15 -12.7 25.9 L-15.6 30.45 -15.65 30.5 Q-18.3 33.95 -18.95 32.85 -20.3 32.8 -18.55 28.75 L-18.55 28.8 Q-17.7 26.7 -16.1 23.95 L-13.2 19.45 M-19.4 13.2 L-23.9 16.1 Q-26.65 17.7 -28.7 18.6 L-28.8 18.6 Q-32.8 20.25 -32.85 19.0 -33.95 18.3 -30.45 15.7 L-30.4 15.65 Q-28.6 14.3 -25.85 12.7 -23.15 11.1 -21.1 10.3 -17.0 8.5 -16.95 9.85 -15.85 10.5 -19.4 13.2 M-20.75 12.05 L-21.0 12.15 -21.05 12.15 Q-22.75 12.85 -25.0 14.2 -27.35 15.5 -28.85 16.65 L-28.85 16.7 -29.05 16.8 -28.85 16.75 -28.8 16.7 Q-27.05 15.95 -24.75 14.65 L-21.0 12.2 -20.75 12.05 M-24.25 0.05 L-24.0 0.05 -24.25 0.0 -24.3 0.0 -28.75 -0.25 -33.3 0.0 -33.35 0.0 -33.55 0.05 -33.35 0.05 -28.75 0.3 -24.25 0.05 M-12.1 21.05 L-11.95 20.8 -12.1 21.0 -12.15 21.05 -14.6 24.8 -16.65 28.85 -16.65 28.9 -16.75 29.1 -16.6 28.85 -16.6 28.9 -14.15 25.05 Q-12.85 22.75 -12.1 21.05" fill="#ffffff" fill-opacity="0.3019608" fill-rule="evenodd" stroke="none"/>
    <path d="M0.25 -28.75 L0.0 -24.3 0.0 -24.25 0.0 -24.0 -0.05 -24.25 -0.25 -28.75 -0.05 -33.35 0.0 -33.55 0.0 -33.35 0.0 -33.3 0.25 -28.75 M16.75 -29.05 L16.7 -28.85 14.6 -24.75 12.15 -21.05 12.15 -21.0 12.0 -20.8 12.1 -21.05 Q12.85 -22.75 14.15 -25.05 L16.65 -28.9 16.6 -28.85 16.75 -29.05 M28.8 -16.7 L28.85 -16.7 29.05 -16.8 28.9 -16.65 28.85 -16.65 25.05 -14.15 Q22.75 -12.85 21.05 -12.15 L21.0 -12.1 20.8 -12.0 21.0 -12.15 Q22.5 -13.3 24.8 -14.6 27.05 -15.95 28.8 -16.7 M24.3 -0.05 L28.8 -0.25 33.35 -0.05 33.6 0.0 33.35 0.0 28.8 0.25 24.3 0.0 24.25 0.0 24.0 0.0 24.3 -0.05 M21.05 12.1 Q22.75 12.85 25.05 14.15 L28.9 16.65 28.85 16.6 29.1 16.75 28.9 16.7 28.85 16.7 24.8 14.6 21.05 12.15 21.0 12.15 20.8 12.0 21.05 12.1 M0.05 24.3 L0.3 28.8 0.05 33.35 0.05 33.6 0.0 33.35 -0.25 28.8 0.0 24.3 0.0 24.25 0.05 24.0 0.05 24.3 M12.05 20.8 L12.2 21.0 14.65 24.8 16.7 28.8 16.75 28.85 16.8 29.05 16.7 28.9 16.65 28.85 14.2 25.05 12.15 21.05 12.15 21.0 12.05 20.8 M-16.65 -28.85 L-14.15 -25.0 -12.15 -21.05 -12.1 -21.0 -12.0 -20.75 -12.15 -21.0 -14.6 -24.75 -16.7 -28.8 -16.7 -28.85 -16.8 -29.05 -16.65 -28.85 M-24.75 -14.6 L-21.05 -12.15 -21.0 -12.1 -20.8 -11.95 -21.05 -12.1 Q-22.75 -12.85 -25.05 -14.15 L-28.9 -16.6 -28.85 -16.6 -29.05 -16.75 -28.85 -16.65 -24.75 -14.6 M-12.1 21.05 Q-12.85 22.75 -14.15 25.05 L-16.6 28.9 -16.6 28.85 -16.75 29.1 -16.65 28.9 -16.65 28.85 -14.6 24.8 -12.15 21.05 -12.1 21.0 -11.95 20.8 -12.1 21.05 M-24.25 0.05 L-28.75 0.3 -33.35 0.05 -33.55 0.05 -33.35 0.0 -33.3 0.0 -28.75 -0.25 -24.3 0.0 -24.25 0.0 -24.0 0.05 -24.25 0.05 M-20.75 12.05 L-21.0 12.2 -24.75 14.65 Q-27.05 15.95 -28.8 16.7 L-28.85 16.75 -29.05 16.8 -28.85 16.7 -28.85 16.65 Q-27.35 15.5 -25.0 14.2 -22.75 12.85 -21.05 12.15 L-21.0 12.15 -20.75 12.05" fill="#ffffff" fill-rule="evenodd" stroke="none"/>
    <path d="M14.05 -16.0 Q16.35 -17.65 16.75 -16.7 17.7 -16.35 15.95 -14.0 L16.0 -14.0 13.65 -11.35 11.05 -9.05 Q8.65 -7.3 8.3 -8.25 7.35 -8.65 9.05 -11.0 L11.35 -13.65 14.0 -15.95 14.05 -16.0 M5.4 -20.0 L5.4 -20.1 5.35 -19.95 5.35 -20.0 4.4 -17.15 3.8 -14.3 3.8 -14.1 3.85 -14.25 3.85 -14.3 4.8 -17.05 5.4 -19.95 5.4 -20.0 M14.7 -14.75 L14.55 -14.65 12.35 -12.65 10.4 -10.5 10.3 -10.35 10.45 -10.45 12.65 -12.35 14.6 -14.6 14.65 -14.6 14.7 -14.75 M6.85 -20.15 Q6.7 -18.65 6.15 -16.65 L5.05 -13.4 Q3.85 -10.7 3.05 -11.35 2.05 -11.2 2.35 -14.05 L2.35 -14.1 3.05 -17.5 4.15 -20.85 4.2 -20.9 Q5.35 -23.5 6.15 -22.85 7.2 -23.0 6.85 -20.15 M20.2 -6.85 Q23.0 -7.15 22.85 -6.15 23.5 -5.3 20.85 -4.15 L20.9 -4.2 Q19.5 -3.6 17.55 -3.05 L14.15 -2.35 Q11.2 -2.0 11.35 -3.05 10.75 -3.85 13.4 -5.0 L13.4 -5.05 16.7 -6.15 20.15 -6.85 20.2 -6.85 M14.25 -3.85 L14.1 -3.75 14.25 -3.8 14.3 -3.8 17.15 -4.35 Q18.8 -4.8 19.95 -5.3 L20.1 -5.35 19.9 -5.35 19.95 -5.35 17.05 -4.75 14.25 -3.85 M22.85 6.15 Q23.0 7.2 20.15 6.85 L20.2 6.85 16.7 6.15 13.4 5.05 Q10.7 3.85 11.35 3.05 11.2 2.05 14.1 2.35 L17.55 3.05 20.85 4.15 20.9 4.2 Q23.5 5.35 22.85 6.15 M10.5 10.4 L10.35 10.3 10.45 10.45 10.5 10.45 12.4 12.65 14.65 14.6 14.65 14.65 14.75 14.7 14.65 14.55 12.7 12.35 10.5 10.4 M20.0 5.4 L20.15 5.4 20.0 5.35 17.2 4.4 14.3 3.8 14.15 3.8 14.3 3.85 17.05 4.8 20.0 5.4 M11.05 9.05 L13.65 11.35 16.0 14.0 16.0 14.05 Q17.65 16.35 16.75 16.75 16.35 17.7 14.05 15.95 L14.05 16.0 11.35 13.65 9.1 11.05 Q7.3 8.65 8.3 8.3 8.65 7.35 11.0 9.05 L11.05 9.05 M3.85 14.25 L3.8 14.1 3.8 14.25 3.8 14.3 Q3.9 15.45 4.35 17.15 4.8 18.8 5.35 19.95 L5.4 20.1 5.35 19.9 5.4 19.95 4.8 17.05 3.85 14.25 M2.4 14.15 Q2.0 11.2 3.05 11.35 3.85 10.75 5.05 13.4 L6.15 16.7 Q6.7 18.65 6.85 20.15 L6.85 20.2 Q7.15 23.0 6.15 22.85 5.3 23.5 4.2 20.85 L4.2 20.9 3.05 17.55 Q2.5 15.55 2.4 14.15 M-22.85 -6.15 Q-23.0 -7.2 -20.15 -6.85 L-20.15 -6.8 -16.65 -6.15 -13.4 -5.0 Q-10.7 -3.85 -11.35 -3.05 -11.2 -2.05 -14.05 -2.35 L-14.1 -2.35 -17.5 -3.05 -20.85 -4.15 -20.9 -4.15 Q-23.5 -5.35 -22.85 -6.15 M-4.2 -20.85 L-3.05 -17.5 -2.35 -14.1 Q-2.0 -11.2 -3.05 -11.35 -3.85 -10.7 -5.0 -13.35 L-5.05 -13.35 -6.15 -16.65 -6.85 -20.1 -6.85 -20.15 Q-7.15 -23.0 -6.15 -22.85 -5.3 -23.5 -4.15 -20.85 L-4.2 -20.85 M-5.3 -19.95 L-5.35 -20.05 -5.35 -19.9 -5.35 -19.95 -4.75 -17.0 -3.85 -14.25 -3.75 -14.1 -3.8 -14.25 Q-3.9 -15.45 -4.35 -17.1 L-5.3 -19.95 M-16.0 -14.0 Q-17.65 -16.35 -16.7 -16.7 -16.35 -17.7 -14.0 -15.95 L-11.35 -13.65 -9.05 -11.0 Q-7.3 -8.65 -8.25 -8.25 -8.65 -7.35 -11.0 -9.05 L-13.65 -11.35 -15.95 -13.95 -16.0 -14.0 M-19.95 -5.35 L-20.1 -5.4 -19.95 -5.3 -20.0 -5.3 -17.15 -4.4 -14.3 -3.8 -14.1 -3.75 -14.25 -3.85 -14.3 -3.85 -17.05 -4.8 -19.95 -5.35 M-14.6 -14.6 L-14.75 -14.7 -14.65 -14.55 -12.65 -12.35 Q-11.45 -11.1 -10.5 -10.4 L-10.35 -10.3 -10.45 -10.4 -10.45 -10.45 -12.35 -12.65 -14.6 -14.6 M-9.05 11.0 L-9.05 11.05 -11.35 13.65 -13.95 16.0 -14.0 16.0 Q-16.35 17.65 -16.7 16.75 -17.7 16.35 -15.95 14.05 L-13.65 11.35 Q-12.2 9.9 -11.0 9.1 -8.65 7.3 -8.25 8.3 -7.35 8.65 -9.05 11.0 M-14.25 3.85 L-14.1 3.8 -14.25 3.8 -17.1 4.35 Q-18.8 4.8 -19.95 5.35 L-20.05 5.4 -19.9 5.35 -19.95 5.4 -17.0 4.8 -14.25 3.85 M-13.35 5.05 L-16.65 6.15 -20.1 6.85 -20.15 6.85 Q-23.0 7.15 -22.85 6.15 -23.5 5.3 -20.85 4.2 -19.5 3.6 -17.5 3.05 L-14.1 2.4 Q-11.2 2.0 -11.35 3.05 -10.7 3.85 -13.35 5.05 M-3.8 14.3 L-3.75 14.15 -3.85 14.3 -4.8 17.05 -5.35 20.0 -5.4 20.15 -5.3 20.0 -4.4 17.2 -3.8 14.3 M-10.4 10.45 L-10.45 10.5 -12.65 12.4 -14.6 14.65 -14.7 14.75 -14.55 14.65 -12.35 12.7 -10.4 10.5 -10.3 10.35 -10.4 10.45 M-3.05 17.55 L-4.15 20.85 -4.15 20.9 Q-5.35 23.5 -6.15 22.85 -7.2 23.0 -6.85 20.15 L-6.8 20.15 -6.15 16.7 -5.0 13.4 Q-3.85 10.7 -3.05 11.35 -2.05 11.2 -2.35 14.1 L-3.05 17.55" fill="#ffffff" fill-opacity="0.3019608" fill-rule="evenodd" stroke="none"/>
    <path d="M14.7 -14.75 L14.65 -14.6 14.6 -14.6 12.65 -12.35 10.45 -10.45 10.3 -10.35 10.4 -10.5 12.35 -12.65 14.55 -14.65 14.7 -14.75 M5.4 -20.0 L5.4 -19.95 4.8 -17.05 3.85 -14.3 3.85 -14.25 3.8 -14.1 3.8 -14.3 4.4 -17.15 5.35 -20.0 5.35 -19.95 5.4 -20.1 5.4 -20.0 M14.25 -3.85 L17.05 -4.75 19.95 -5.35 19.9 -5.35 20.1 -5.35 19.95 -5.3 Q18.8 -4.8 17.15 -4.35 L14.3 -3.8 14.25 -3.8 14.1 -3.75 14.25 -3.85 M20.0 5.4 L17.05 4.8 14.3 3.85 14.15 3.8 14.3 3.8 17.2 4.4 20.0 5.35 20.15 5.4 20.0 5.4 M10.5 10.4 L12.7 12.35 14.65 14.55 14.75 14.7 14.65 14.65 14.65 14.6 12.4 12.65 10.5 10.45 10.45 10.45 10.35 10.3 10.5 10.4 M3.85 14.25 L4.8 17.05 5.4 19.95 5.35 19.9 5.4 20.1 5.35 19.95 Q4.8 18.8 4.35 17.15 3.9 15.45 3.8 14.3 L3.8 14.25 3.8 14.1 3.85 14.25 M-5.3 -19.95 L-4.35 -17.1 Q-3.9 -15.45 -3.8 -14.25 L-3.75 -14.1 -3.85 -14.25 -4.75 -17.0 -5.35 -19.95 -5.35 -19.9 -5.35 -20.05 -5.3 -19.95 M-14.6 -14.6 L-12.35 -12.65 -10.45 -10.45 -10.45 -10.4 -10.35 -10.3 -10.5 -10.4 Q-11.45 -11.1 -12.65 -12.35 L-14.65 -14.55 -14.75 -14.7 -14.6 -14.6 M-19.95 -5.35 L-17.05 -4.8 -14.3 -3.85 -14.25 -3.85 -14.1 -3.75 -14.3 -3.8 -17.15 -4.4 -20.0 -5.3 -19.95 -5.3 -20.1 -5.4 -19.95 -5.35 M-14.25 3.85 L-17.0 4.8 -19.95 5.4 -19.9 5.35 -20.05 5.4 -19.95 5.35 Q-18.8 4.8 -17.1 4.35 L-14.25 3.8 -14.1 3.8 -14.25 3.85 M-10.4 10.45 L-10.3 10.35 -10.4 10.5 -12.35 12.7 -14.55 14.65 -14.7 14.75 -14.6 14.65 -12.65 12.4 -10.45 10.5 -10.4 10.45 M-3.8 14.3 L-4.4 17.2 -5.3 20.0 -5.4 20.15 -5.35 20.0 -4.8 17.05 -3.85 14.3 -3.75 14.15 -3.8 14.3" fill="#ffffff" fill-rule="evenodd" stroke="none"/>
  </g>
</svg>
