<?xml version="1.0" encoding="UTF-8" standalone="no"?>
<svg xmlns:ffdec="https://www.free-decompiler.com/flash" xmlns:xlink="http://www.w3.org/1999/xlink" ffdec:objectType="shape" height="82.45px" width="82.45px" xmlns="http://www.w3.org/2000/svg">
  <g transform="matrix(1.0, 0.0, 0.0, 1.0, 41.2, 41.2)">
    <path d="M1.4 -37.15 L1.4 -37.2 1.65 -31.5 1.4 -25.9 Q1.0 -21.2 0.0 -21.85 -0.95 -21.25 -1.4 -25.85 L-1.6 -31.5 -1.4 -37.15 -1.4 -37.25 Q-0.95 -41.75 0.0 -41.1 0.95 -41.8 1.4 -37.15 M18.15 -31.35 L18.2 -31.35 18.25 -31.55 18.1 -31.35 18.15 -31.4 15.6 -27.3 13.35 -23.15 13.25 -22.9 13.4 -23.1 13.45 -23.15 15.95 -27.1 18.15 -31.35 M0.05 -26.8 L0.25 -31.5 0.05 -36.25 0.05 -36.3 0.0 -36.5 0.0 -36.25 0.0 -36.3 -0.2 -31.5 0.0 -26.75 0.0 -26.5 0.05 -26.75 0.05 -26.8 M17.4 -32.9 Q20.1 -36.6 20.6 -35.6 21.75 -35.7 19.8 -31.45 L19.8 -31.5 17.15 -26.4 14.15 -21.7 Q11.45 -17.85 10.95 -18.9 9.8 -18.8 11.7 -23.05 L11.75 -23.05 Q12.7 -25.2 14.35 -28.05 16.0 -30.95 17.35 -32.85 L17.4 -32.9 M31.4 -18.1 L31.45 -18.15 31.6 -18.25 31.4 -18.15 31.35 -18.15 27.15 -15.9 23.15 -13.4 22.9 -13.25 23.15 -13.35 23.2 -13.4 Q24.95 -14.2 27.35 -15.55 29.8 -16.95 31.4 -18.1 M35.6 -20.55 Q36.65 -20.05 32.9 -17.4 L28.1 -14.35 Q25.2 -12.7 23.1 -11.75 18.8 -9.75 18.9 -10.9 17.85 -11.4 21.65 -14.1 L21.7 -14.15 26.45 -17.15 31.45 -19.8 31.55 -19.85 Q35.7 -21.7 35.6 -20.55 M25.9 -1.4 L31.5 -1.6 37.15 -1.4 37.25 -1.4 Q41.75 -0.95 41.15 0.0 41.8 0.95 37.2 1.4 L37.25 1.4 31.5 1.65 25.9 1.4 Q21.2 1.0 21.9 0.0 21.25 -0.95 25.85 -1.4 L25.9 -1.4 M36.25 0.0 L36.35 0.0 31.5 -0.2 26.8 0.0 26.5 0.0 26.75 0.05 26.8 0.05 31.5 0.25 36.3 0.05 36.35 0.05 36.55 0.0 36.25 0.0 M23.1 11.75 Q25.2 12.7 28.1 14.35 L32.85 17.35 32.95 17.4 Q36.6 20.1 35.6 20.6 35.7 21.75 31.5 19.8 L31.55 19.8 Q29.35 18.85 26.45 17.15 L21.7 14.15 Q17.85 11.45 18.9 10.95 18.8 9.8 23.05 11.7 L23.1 11.75 M13.35 23.15 L13.4 23.2 15.6 27.35 Q16.95 29.8 18.15 31.4 L18.15 31.45 18.3 31.6 18.2 31.4 18.15 31.35 15.95 27.15 13.45 23.15 13.25 22.9 13.35 23.15 M23.15 13.35 L22.9 13.25 23.1 13.4 23.15 13.45 27.15 15.95 31.35 18.15 31.4 18.2 31.6 18.25 31.35 18.1 31.4 18.15 Q29.75 17.0 27.35 15.6 24.9 14.15 23.15 13.35 M10.95 18.9 Q11.4 17.85 14.15 21.65 L14.2 21.7 17.15 26.45 19.8 31.45 19.85 31.55 Q21.7 35.7 20.6 35.6 20.05 36.65 17.45 32.9 L17.4 32.9 Q16.0 30.95 14.35 28.1 12.7 25.2 11.75 23.1 9.75 18.8 10.95 18.9 M1.45 25.9 L1.65 31.5 1.45 37.15 1.4 37.25 Q0.95 41.75 0.0 41.15 -0.95 41.8 -1.4 37.2 L-1.35 37.25 -1.6 31.5 -1.4 25.9 Q-1.0 21.2 0.0 21.9 0.95 21.25 1.4 25.85 L1.45 25.9 M0.05 26.8 L0.0 26.5 0.0 26.75 0.0 26.8 -0.2 31.5 0.0 36.3 0.0 36.35 0.0 36.55 0.05 36.25 0.05 36.35 0.2 31.5 0.05 26.8 M-17.4 -32.85 Q-16.0 -30.95 -14.35 -28.05 L-11.75 -23.1 Q-9.75 -18.8 -10.9 -18.9 -11.4 -17.85 -14.1 -21.65 L-14.15 -21.65 -17.15 -26.4 -19.8 -31.45 -19.85 -31.5 Q-21.7 -35.7 -20.55 -35.6 -20.05 -36.65 -17.4 -32.9 L-17.4 -32.85 M-23.15 -13.35 L-22.9 -13.25 -23.1 -13.35 -23.15 -13.4 -27.1 -15.9 Q-29.55 -17.35 -31.35 -18.15 L-31.55 -18.25 -31.35 -18.1 -31.4 -18.1 -27.3 -15.55 Q-24.9 -14.15 -23.15 -13.35 M-18.1 -31.4 L-18.15 -31.4 -18.25 -31.6 -18.15 -31.4 -18.15 -31.35 -15.9 -27.1 -13.4 -23.1 -13.25 -22.9 -13.35 -23.1 -13.4 -23.15 Q-14.2 -24.95 -15.55 -27.35 L-18.1 -31.4 M-21.7 -14.15 Q-17.85 -11.45 -18.9 -10.9 -18.8 -9.8 -23.05 -11.7 -25.2 -12.65 -28.05 -14.35 L-32.85 -17.35 -32.9 -17.4 Q-36.6 -20.1 -35.6 -20.55 -35.7 -21.75 -31.45 -19.8 L-31.5 -19.8 -26.4 -17.15 -21.7 -14.15 M-31.5 -0.2 L-36.25 0.0 -36.3 0.0 -36.5 0.0 -36.25 0.05 -36.3 0.05 -31.5 0.2 -26.75 0.05 -26.5 0.0 -26.75 0.0 -26.8 0.0 -31.5 -0.2 M-31.5 -1.6 L-25.9 -1.4 Q-21.2 -1.0 -21.85 0.0 -21.25 0.95 -25.85 1.4 L-25.85 1.45 -31.5 1.65 -37.15 1.45 -37.25 1.4 Q-41.75 0.95 -41.1 0.0 -41.8 -0.95 -37.15 -1.4 L-37.2 -1.35 -31.5 -1.6 M-13.35 23.15 L-13.25 22.9 -13.35 23.1 -13.4 23.15 -15.9 27.15 -18.15 31.35 -18.15 31.4 -18.25 31.6 -18.1 31.35 -18.1 31.4 -15.55 27.35 -13.35 23.15 M-11.7 23.05 L-11.7 23.1 Q-12.65 25.2 -14.35 28.1 L-17.35 32.85 -17.4 32.95 Q-20.1 36.6 -20.55 35.6 -21.75 35.7 -19.8 31.5 L-19.8 31.55 -17.15 26.45 -14.15 21.7 Q-11.45 17.85 -10.9 18.9 -9.8 18.8 -11.7 23.05 M-31.4 18.2 L-31.35 18.15 -27.1 15.95 -23.1 13.45 -22.9 13.25 -23.1 13.35 -23.15 13.4 Q-24.95 14.2 -27.35 15.6 -29.8 16.95 -31.4 18.15 L-31.6 18.3 -31.4 18.2 M-31.5 19.85 Q-35.7 21.7 -35.6 20.6 -36.65 20.05 -32.85 17.4 -30.95 16.0 -28.05 14.35 -25.2 12.7 -23.1 11.75 -18.8 9.75 -18.9 10.95 -17.85 11.4 -21.65 14.15 L-21.65 14.2 -26.4 17.15 -31.45 19.8 -31.5 19.85" fill="#ffffff" fill-opacity="0.3019608" fill-rule="evenodd" stroke="none"/>
    <path d="M0.05 -26.8 L0.05 -26.75 0.0 -26.5 0.0 -26.75 -0.2 -31.5 0.0 -36.3 0.0 -36.25 0.0 -36.5 0.05 -36.3 0.05 -36.25 0.25 -31.5 0.05 -26.8 M18.15 -31.35 L15.95 -27.1 13.45 -23.15 13.4 -23.1 13.25 -22.9 13.35 -23.15 15.6 -27.3 18.15 -31.4 18.1 -31.35 18.25 -31.55 18.2 -31.35 18.15 -31.35 M31.4 -18.1 Q29.8 -16.95 27.35 -15.55 24.95 -14.2 23.2 -13.4 L23.15 -13.35 22.9 -13.25 23.15 -13.4 27.15 -15.9 31.35 -18.15 31.4 -18.15 31.6 -18.25 31.45 -18.15 31.4 -18.1 M36.25 0.0 L36.55 0.0 36.35 0.05 36.3 0.05 31.5 0.25 26.8 0.05 26.75 0.05 26.5 0.0 26.8 0.0 31.5 -0.2 36.35 0.0 36.25 0.0 M23.15 13.35 Q24.9 14.15 27.35 15.6 29.75 17.0 31.4 18.15 L31.35 18.1 31.6 18.25 31.4 18.2 31.35 18.15 27.15 15.95 23.15 13.45 23.1 13.4 22.9 13.25 23.15 13.35 M13.35 23.15 L13.25 22.9 13.45 23.15 15.95 27.15 18.15 31.35 18.2 31.4 18.3 31.6 18.15 31.45 18.15 31.4 Q16.95 29.8 15.6 27.35 L13.4 23.2 13.35 23.15 M0.05 26.8 L0.2 31.5 0.05 36.35 0.05 36.25 0.0 36.55 0.0 36.35 0.0 36.3 -0.2 31.5 0.0 26.8 0.0 26.75 0.0 26.5 0.05 26.8 M-18.1 -31.4 L-15.55 -27.35 Q-14.2 -24.95 -13.4 -23.15 L-13.35 -23.1 -13.25 -22.9 -13.4 -23.1 -15.9 -27.1 -18.15 -31.35 -18.15 -31.4 -18.25 -31.6 -18.15 -31.4 -18.1 -31.4 M-23.15 -13.35 Q-24.9 -14.15 -27.3 -15.55 L-31.4 -18.1 -31.35 -18.1 -31.55 -18.25 -31.35 -18.15 Q-29.55 -17.35 -27.1 -15.9 L-23.15 -13.4 -23.1 -13.35 -22.9 -13.25 -23.15 -13.35 M-31.5 -0.2 L-26.8 0.0 -26.75 0.0 -26.5 0.0 -26.75 0.05 -31.5 0.2 -36.3 0.05 -36.25 0.05 -36.5 0.0 -36.3 0.0 -36.25 0.0 -31.5 -0.2 M-13.35 23.15 L-15.55 27.35 -18.1 31.4 -18.1 31.35 -18.25 31.6 -18.15 31.4 -18.15 31.35 -15.9 27.15 -13.4 23.15 -13.35 23.1 -13.25 22.9 -13.35 23.15 M-31.4 18.2 L-31.6 18.3 -31.4 18.15 Q-29.8 16.95 -27.35 15.6 -24.95 14.2 -23.15 13.4 L-23.1 13.35 -22.9 13.25 -23.1 13.45 -27.1 15.95 -31.35 18.15 -31.4 18.2" fill="#ffffff" fill-rule="evenodd" stroke="none"/>
    <path d="M15.85 -17.45 Q18.2 -19.3 18.45 -18.45 19.35 -18.2 17.45 -15.8 L14.95 -13.05 Q13.4 -11.5 12.25 -10.6 9.8 -8.65 9.55 -9.55 8.7 -9.8 10.55 -12.2 L10.6 -12.2 13.05 -14.95 15.8 -17.45 15.85 -17.45 M5.95 -22.15 L5.95 -22.3 5.9 -22.1 5.9 -22.15 4.95 -19.15 Q4.45 -17.4 4.3 -16.15 L4.25 -15.95 4.3 -16.1 4.3 -16.15 5.3 -19.05 5.95 -22.15 M16.2 -16.15 L16.2 -16.2 13.9 -14.1 11.8 -11.8 11.7 -11.65 11.8 -11.75 11.85 -11.75 Q12.85 -12.55 14.15 -13.85 L16.25 -16.15 16.35 -16.3 16.2 -16.15 M6.4 -18.75 L5.3 -15.25 Q4.15 -12.4 3.5 -13.0 2.6 -12.8 3.05 -15.8 L3.0 -15.85 3.8 -19.45 4.95 -22.95 4.95 -23.0 Q6.1 -25.8 6.75 -25.2 7.6 -25.4 7.2 -22.4 L6.4 -18.75 M19.1 -5.25 L16.15 -4.3 15.95 -4.2 16.1 -4.25 16.15 -4.25 19.15 -4.9 22.15 -5.85 22.3 -5.9 22.1 -5.9 22.15 -5.9 19.1 -5.25 M15.9 -3.0 Q12.8 -2.55 13.0 -3.45 12.4 -4.1 15.25 -5.25 L18.75 -6.4 22.4 -7.2 22.45 -7.2 Q25.4 -7.6 25.2 -6.7 25.8 -6.05 23.0 -4.95 L19.45 -3.8 15.9 -3.0 M22.2 5.95 L22.3 5.95 22.15 5.9 22.2 5.9 19.2 4.95 16.15 4.3 15.95 4.25 16.1 4.3 16.15 4.3 19.1 5.3 22.15 5.95 22.2 5.95 M22.45 7.2 L18.75 6.4 Q16.65 5.85 15.3 5.3 12.4 4.15 13.0 3.5 12.8 2.6 15.85 3.05 L15.85 3.0 19.45 3.8 23.0 4.95 23.05 4.95 Q25.8 6.1 25.2 6.75 25.4 7.6 22.45 7.2 M11.75 11.8 L11.8 11.85 13.85 14.15 16.2 16.25 16.3 16.35 16.2 16.2 16.25 16.2 14.1 13.9 11.8 11.8 11.65 11.7 11.75 11.8 M12.25 10.6 Q13.4 11.5 14.95 13.05 L17.45 15.8 17.5 15.85 Q19.3 18.2 18.45 18.45 18.2 19.35 15.85 17.45 L13.05 14.95 10.6 12.25 Q8.65 9.8 9.55 9.55 9.8 8.7 12.2 10.55 L12.25 10.6 M5.3 15.25 L6.4 18.75 7.2 22.4 7.2 22.45 Q7.6 25.4 6.75 25.2 6.05 25.8 4.95 23.0 L3.8 19.45 Q3.25 17.35 3.05 15.9 2.55 12.8 3.5 13.0 4.1 12.4 5.3 15.25 M-22.15 -5.9 L-22.3 -5.95 -22.1 -5.85 -22.15 -5.85 -19.15 -4.9 -16.15 -4.25 -15.95 -4.25 -16.1 -4.3 -16.15 -4.3 -19.05 -5.25 -22.15 -5.9 M4.3 16.15 L4.25 15.95 4.25 16.1 4.3 16.15 4.9 19.15 5.9 22.15 5.95 22.3 5.9 22.1 5.95 22.15 5.25 19.1 4.3 16.15 M-22.4 -7.15 L-18.75 -6.4 -15.25 -5.25 Q-12.4 -4.15 -13.0 -3.45 -12.8 -2.6 -15.8 -3.0 L-15.85 -3.0 -19.45 -3.8 -22.95 -4.9 -23.0 -4.95 Q-25.8 -6.1 -25.2 -6.7 -25.4 -7.6 -22.4 -7.15 M-3.8 -19.45 L-3.0 -15.85 Q-2.55 -12.8 -3.45 -13.0 -4.1 -12.4 -5.25 -15.2 L-5.25 -15.25 -6.4 -18.75 -7.2 -22.35 -7.2 -22.4 Q-7.6 -25.4 -6.7 -25.2 -6.05 -25.8 -4.95 -23.0 L-3.8 -19.45 M-16.3 -16.3 L-16.15 -16.15 -16.2 -16.2 -14.1 -13.85 -11.8 -11.8 -11.65 -11.65 -11.75 -11.8 -13.85 -14.1 -16.15 -16.2 -16.3 -16.3 M-5.85 -22.15 L-5.9 -22.3 -5.9 -22.1 -5.9 -22.15 -5.25 -19.05 -4.3 -16.1 -4.2 -15.95 -4.25 -16.1 -4.25 -16.15 -4.9 -19.15 -5.85 -22.1 -5.85 -22.15 M-18.45 -18.45 Q-18.2 -19.35 -15.8 -17.45 L-13.05 -14.95 -10.6 -12.2 Q-8.65 -9.8 -9.55 -9.55 -9.8 -8.7 -12.2 -10.55 L-14.95 -13.05 -17.45 -15.75 -17.45 -15.8 Q-19.3 -18.2 -18.45 -18.45 M-16.15 4.3 L-19.15 4.9 -22.1 5.9 -22.15 5.9 -22.3 5.95 -22.1 5.9 -22.15 5.95 -19.05 5.25 -16.1 4.3 -15.95 4.25 -16.1 4.25 -16.15 4.3 M-15.25 5.3 L-18.75 6.4 -22.35 7.2 -22.4 7.2 Q-25.4 7.6 -25.2 6.75 -25.8 6.05 -23.0 4.95 L-19.45 3.8 -15.85 3.05 Q-12.8 2.55 -13.0 3.5 -12.4 4.1 -15.2 5.3 L-15.25 5.3 M-11.8 11.8 L-11.65 11.65 -11.8 11.75 -11.8 11.8 Q-12.85 12.55 -14.1 13.85 L-16.2 16.2 -16.3 16.3 -16.15 16.2 -16.2 16.25 -13.85 14.1 -11.8 11.8 M-10.55 12.25 L-13.05 14.95 -15.75 17.45 -15.8 17.5 Q-18.2 19.3 -18.45 18.45 -19.35 18.2 -17.45 15.85 L-14.95 13.05 -12.2 10.6 Q-9.8 8.65 -9.55 9.55 -8.7 9.8 -10.55 12.2 L-10.55 12.25 M-4.25 16.15 L-4.25 15.95 -4.3 16.1 -4.3 16.15 -5.25 19.1 -5.9 22.15 -5.9 22.2 -5.95 22.3 -5.85 22.15 -5.85 22.2 -4.9 19.2 -4.25 16.15 M-3.0 15.85 L-3.8 19.45 -4.9 23.0 -4.95 23.05 Q-6.1 25.8 -6.7 25.2 -7.6 25.4 -7.15 22.45 L-6.4 18.75 -5.25 15.3 Q-4.15 12.4 -3.45 13.0 -2.6 12.8 -3.0 15.85" fill="#ffffff" fill-opacity="0.3019608" fill-rule="evenodd" stroke="none"/>
    <path d="M16.2 -16.15 L16.35 -16.3 16.25 -16.15 14.15 -13.85 Q12.85 -12.55 11.85 -11.75 L11.8 -11.75 11.7 -11.65 11.8 -11.8 13.9 -14.1 16.2 -16.2 16.2 -16.15 M5.95 -22.15 L5.3 -19.05 4.3 -16.15 4.3 -16.1 4.25 -15.95 4.3 -16.15 Q4.45 -17.4 4.95 -19.15 L5.9 -22.15 5.9 -22.1 5.95 -22.3 5.95 -22.15 M19.1 -5.25 L22.15 -5.9 22.1 -5.9 22.3 -5.9 22.15 -5.85 19.15 -4.9 16.15 -4.25 16.1 -4.25 15.95 -4.2 16.15 -4.3 19.1 -5.25 M22.2 5.95 L22.15 5.95 19.1 5.3 16.15 4.3 16.1 4.3 15.95 4.25 16.15 4.3 19.2 4.95 22.2 5.9 22.15 5.9 22.3 5.95 22.2 5.95 M11.75 11.8 L11.65 11.7 11.8 11.8 14.1 13.9 16.25 16.2 16.2 16.2 16.3 16.35 16.2 16.25 13.85 14.15 11.8 11.85 11.75 11.8 M4.3 16.15 L5.25 19.1 5.95 22.15 5.9 22.1 5.95 22.3 5.9 22.15 4.9 19.15 4.3 16.15 4.25 16.1 4.25 15.95 4.3 16.15 M-22.15 -5.9 L-19.05 -5.25 -16.15 -4.3 -16.1 -4.3 -15.95 -4.25 -16.15 -4.25 -19.15 -4.9 -22.15 -5.85 -22.1 -5.85 -22.3 -5.95 -22.15 -5.9 M-5.85 -22.15 L-5.85 -22.1 -4.9 -19.15 -4.25 -16.15 -4.25 -16.1 -4.2 -15.95 -4.3 -16.1 -5.25 -19.05 -5.9 -22.15 -5.9 -22.1 -5.9 -22.3 -5.85 -22.15 M-16.3 -16.3 L-16.15 -16.2 -13.85 -14.1 -11.75 -11.8 -11.65 -11.65 -11.8 -11.8 -14.1 -13.85 -16.2 -16.2 -16.15 -16.15 -16.3 -16.3 M-16.15 4.3 L-16.1 4.25 -15.95 4.25 -16.1 4.3 -19.05 5.25 -22.15 5.95 -22.1 5.9 -22.3 5.95 -22.15 5.9 -22.1 5.9 -19.15 4.9 -16.15 4.3 M-11.8 11.8 L-13.85 14.1 -16.2 16.25 -16.15 16.2 -16.3 16.3 -16.2 16.2 -14.1 13.85 Q-12.85 12.55 -11.8 11.8 L-11.8 11.75 -11.65 11.65 -11.8 11.8 M-4.25 16.15 L-4.9 19.2 -5.85 22.2 -5.85 22.15 -5.95 22.3 -5.9 22.2 -5.9 22.15 -5.25 19.1 -4.3 16.15 -4.3 16.1 -4.25 15.95 -4.25 16.15" fill="#ffffff" fill-rule="evenodd" stroke="none"/>
  </g>
</svg>
