<?xml version="1.0" encoding="UTF-8" standalone="no"?>
<svg xmlns:ffdec="https://www.free-decompiler.com/flash" xmlns:xlink="http://www.w3.org/1999/xlink" ffdec:objectType="shape" height="88.2px" width="88.2px" xmlns="http://www.w3.org/2000/svg">
  <g transform="matrix(1.0, 0.0, 0.0, 1.0, 44.1, 44.1)">
    <path d="M20.95 -34.0 L18.15 -28.75 15.05 -23.75 Q12.3 -19.7 12.0 -20.7 11.0 -20.5 13.1 -24.85 L13.1 -24.9 Q14.1 -27.05 15.85 -30.05 L18.95 -35.05 19.05 -35.15 Q21.7 -39.05 22.05 -38.1 23.05 -38.3 20.95 -33.95 L20.95 -34.0 M1.15 -39.9 L1.35 -33.95 1.15 -28.1 Q0.8 -23.2 0.0 -23.9 -0.75 -23.2 -1.1 -28.05 L-1.15 -28.05 -1.3 -33.95 -1.15 -39.85 -1.1 -39.95 Q-0.75 -44.65 0.0 -44.0 0.8 -44.7 1.15 -39.9 M33.75 -19.55 L33.7 -19.5 Q31.85 -18.6 29.35 -17.15 L25.15 -14.55 24.9 -14.4 25.15 -14.5 25.2 -14.55 29.5 -16.85 33.75 -19.5 33.8 -19.5 34.0 -19.65 33.75 -19.55 M19.5 -33.7 L19.55 -33.7 19.65 -33.9 19.45 -33.7 19.5 -33.75 16.85 -29.45 14.55 -25.1 14.4 -24.85 14.55 -25.05 14.55 -25.1 17.15 -29.3 19.5 -33.7 M0.0 -38.95 L0.0 -39.0 0.0 -39.2 0.0 -39.0 -0.15 -33.95 0.0 -29.05 0.0 -28.75 0.0 -29.0 0.0 -29.05 0.2 -33.95 0.0 -38.95 M35.15 -19.0 Q33.1 -17.6 30.05 -15.85 L24.9 -13.1 Q20.5 -10.95 20.7 -11.95 19.75 -12.3 23.75 -15.0 L23.75 -15.05 28.75 -18.15 Q31.75 -19.9 33.95 -20.95 L34.05 -20.95 Q38.3 -23.0 38.1 -22.0 39.1 -21.7 35.1 -19.0 L35.15 -19.0 M29.05 0.0 L28.75 0.0 29.0 0.0 29.1 0.0 34.0 0.2 39.0 0.0 39.25 0.0 39.0 0.0 34.0 -0.15 29.05 0.0 M28.1 -1.15 L33.95 -1.3 39.85 -1.15 39.95 -1.1 Q44.65 -0.75 44.0 0.0 44.7 0.8 39.95 1.15 L33.95 1.35 28.15 1.15 Q23.2 0.8 23.9 0.0 23.2 -0.75 28.05 -1.1 L28.1 -1.15 M25.15 14.55 L24.85 14.4 25.1 14.55 25.15 14.55 29.3 17.15 33.7 19.5 33.75 19.55 33.95 19.65 33.7 19.45 33.75 19.5 29.5 16.85 25.15 14.55 M24.9 13.1 Q27.05 14.1 30.05 15.85 L35.1 18.95 35.2 19.05 Q39.05 21.7 38.1 22.05 38.3 23.05 34.0 20.95 31.75 19.9 28.75 18.15 L23.8 15.05 Q19.7 12.3 20.7 12.0 20.5 11.0 24.85 13.1 L24.9 13.1 M15.05 23.75 L18.15 28.75 20.95 33.95 21.0 34.05 Q23.0 38.3 22.05 38.1 21.7 39.1 19.0 35.1 L19.05 35.15 Q17.6 33.1 15.85 30.05 L13.1 24.9 Q10.95 20.5 12.0 20.7 12.3 19.75 15.05 23.75 M14.6 25.15 L14.45 24.9 14.55 25.15 14.55 25.2 16.9 29.5 19.5 33.75 19.55 33.8 19.65 34.0 19.55 33.75 19.55 33.7 17.2 29.35 14.6 25.15 M1.15 28.1 L1.35 33.95 1.15 39.85 1.15 39.95 Q0.75 44.65 0.0 44.0 -0.8 44.7 -1.1 39.95 L-1.3 33.95 -1.1 28.15 Q-0.8 23.2 0.0 23.9 0.75 23.2 1.15 28.05 L1.15 28.1 M0.05 29.05 L0.05 28.75 0.0 29.0 0.0 29.1 -0.15 34.0 0.0 39.0 0.05 39.25 0.05 39.0 0.2 34.0 0.05 29.05 M-19.0 -35.1 L-15.85 -30.05 -13.1 -24.9 Q-10.95 -20.5 -11.95 -20.7 -12.3 -19.75 -15.0 -23.7 L-15.05 -23.75 -18.15 -28.75 -20.95 -33.95 -20.95 -34.0 Q-23.0 -38.3 -22.0 -38.1 -21.7 -39.1 -19.0 -35.1 M-25.1 -14.5 L-24.85 -14.35 -25.05 -14.5 -25.1 -14.55 -29.3 -17.15 -33.7 -19.5 -33.9 -19.6 -33.7 -19.45 -33.75 -19.5 -29.45 -16.85 Q-26.95 -15.4 -25.1 -14.5 M-19.5 -33.75 L-19.65 -33.95 -19.55 -33.75 -19.5 -33.7 -17.15 -29.3 -14.55 -25.15 -14.4 -24.9 -14.5 -25.1 -14.55 -25.15 -16.85 -29.5 -19.5 -33.75 M-24.9 -13.05 L-30.05 -15.85 -35.05 -18.95 -35.15 -19.0 Q-39.05 -21.7 -38.1 -22.0 -38.3 -23.05 -33.95 -20.95 L-34.0 -20.95 Q-31.75 -19.9 -28.75 -18.15 L-23.75 -15.05 Q-19.7 -12.3 -20.7 -11.95 -20.5 -11.0 -24.85 -13.05 L-24.9 -13.05 M-33.95 -1.3 L-28.1 -1.1 Q-23.2 -0.8 -23.9 0.0 -23.2 0.75 -28.05 1.15 L-33.95 1.35 -39.85 1.15 -39.95 1.15 Q-44.65 0.75 -44.0 0.0 -44.7 -0.8 -39.9 -1.1 L-33.95 -1.3 M-11.95 20.7 Q-11.0 20.5 -13.05 24.85 L-13.05 24.9 -15.85 30.05 -18.95 35.1 -19.0 35.2 Q-21.7 39.05 -22.0 38.1 -23.05 38.3 -20.95 34.0 L-18.15 28.75 -15.05 23.8 Q-12.3 19.7 -11.95 20.7 M-33.75 19.55 L-33.7 19.55 -29.3 17.2 -25.15 14.6 -24.9 14.45 -25.1 14.55 -25.15 14.55 Q-27.0 15.4 -29.5 16.9 L-33.75 19.5 -33.75 19.55 -33.95 19.65 -33.75 19.55 M-29.05 0.05 L-28.75 0.05 -29.0 0.0 -29.05 0.0 -33.95 -0.15 -38.95 0.0 -39.0 0.0 -39.2 0.05 -39.0 0.05 -33.95 0.2 -29.05 0.05 M-35.1 19.05 L-30.05 15.85 -24.9 13.1 Q-20.5 10.95 -20.7 12.0 -19.75 12.3 -23.7 15.05 L-23.75 15.05 -28.75 18.15 Q-31.75 19.9 -33.95 20.95 L-34.0 21.0 Q-38.3 23.0 -38.1 22.05 -39.1 21.7 -35.1 19.0 L-35.1 19.05 M-14.5 25.15 L-14.35 24.85 -14.5 25.1 -14.55 25.15 -17.15 29.3 -19.5 33.7 -19.5 33.75 -19.6 33.95 -19.45 33.7 -19.5 33.75 -16.85 29.5 -14.5 25.15" fill="#ffffff" fill-opacity="0.3019608" fill-rule="evenodd" stroke="none"/>
    <path d="M0.0 -38.95 L0.2 -33.95 0.0 -29.05 0.0 -29.0 0.0 -28.75 0.0 -29.05 -0.15 -33.95 0.0 -39.0 0.0 -39.2 0.0 -39.0 0.0 -38.95 M19.5 -33.7 L17.15 -29.3 14.55 -25.1 14.55 -25.05 14.4 -24.85 14.55 -25.1 16.85 -29.45 19.5 -33.75 19.45 -33.7 19.65 -33.9 19.55 -33.7 19.5 -33.7 M33.75 -19.55 L34.0 -19.65 33.8 -19.5 33.75 -19.5 29.5 -16.85 25.2 -14.55 25.15 -14.5 24.9 -14.4 25.15 -14.55 29.35 -17.15 Q31.85 -18.6 33.7 -19.5 L33.75 -19.55 M29.05 0.0 L34.0 -0.15 39.0 0.0 39.25 0.0 39.0 0.0 34.0 0.2 29.1 0.0 29.0 0.0 28.75 0.0 29.05 0.0 M25.15 14.55 L29.5 16.85 33.75 19.5 33.7 19.45 33.95 19.65 33.75 19.55 33.7 19.5 29.3 17.15 25.15 14.55 25.1 14.55 24.85 14.4 25.15 14.55 M14.6 25.15 L17.2 29.35 19.55 33.7 19.55 33.75 19.65 34.0 19.55 33.8 19.5 33.75 16.9 29.5 14.55 25.2 14.55 25.15 14.45 24.9 14.6 25.15 M0.05 29.05 L0.2 34.0 0.05 39.0 0.05 39.25 0.0 39.0 -0.15 34.0 0.0 29.1 0.0 29.0 0.05 28.75 0.05 29.05 M-19.5 -33.75 L-16.85 -29.5 -14.55 -25.15 -14.5 -25.1 -14.4 -24.9 -14.55 -25.15 -17.15 -29.3 -19.5 -33.7 -19.55 -33.75 -19.65 -33.95 -19.5 -33.75 M-25.1 -14.5 Q-26.95 -15.4 -29.45 -16.85 L-33.75 -19.5 -33.7 -19.45 -33.9 -19.6 -33.7 -19.5 -29.3 -17.15 -25.1 -14.55 -25.05 -14.5 -24.85 -14.35 -25.1 -14.5 M-29.05 0.05 L-33.95 0.2 -39.0 0.05 -39.2 0.05 -39.0 0.0 -38.95 0.0 -33.95 -0.15 -29.05 0.0 -29.0 0.0 -28.75 0.05 -29.05 0.05 M-33.75 19.55 L-33.95 19.65 -33.75 19.55 -33.75 19.5 -29.5 16.9 Q-27.0 15.4 -25.15 14.55 L-25.1 14.55 -24.9 14.45 -25.15 14.6 -29.3 17.2 -33.7 19.55 -33.75 19.55 M-14.5 25.15 L-16.85 29.5 -19.5 33.75 -19.45 33.7 -19.6 33.95 -19.5 33.75 -19.5 33.7 -17.15 29.3 -14.55 25.15 -14.5 25.1 -14.35 24.85 -14.5 25.15" fill="#ffffff" fill-rule="evenodd" stroke="none"/>
    <path d="M7.35 -27.3 Q8.05 -27.55 7.55 -24.45 L6.7 -20.6 5.55 -16.95 Q4.4 -13.9 3.9 -14.5 3.15 -14.25 3.65 -17.4 L4.55 -21.2 5.7 -24.9 5.7 -24.95 Q6.8 -27.9 7.35 -27.3 M17.45 -18.75 Q19.85 -20.75 20.0 -19.95 20.75 -19.85 18.75 -17.4 L16.1 -14.5 13.25 -11.9 Q10.75 -9.85 10.65 -10.6 9.85 -10.75 11.9 -13.2 L11.9 -13.25 14.5 -16.1 17.35 -18.7 17.45 -18.75 M17.75 -4.75 L17.6 -4.65 17.75 -4.7 17.8 -4.7 20.95 -5.4 24.1 -6.4 24.25 -6.45 24.05 -6.45 24.1 -6.45 20.9 -5.7 17.75 -4.75 M6.5 -24.05 L6.5 -24.2 6.45 -24.05 5.5 -20.9 4.75 -17.7 4.7 -17.5 4.8 -17.7 4.8 -17.75 5.75 -20.8 6.5 -24.0 6.5 -24.05 M13.0 -13.0 L12.85 -12.85 13.0 -12.95 13.0 -13.0 15.4 -15.2 17.65 -17.6 17.75 -17.75 17.6 -17.65 17.6 -17.6 15.2 -15.4 13.0 -13.0 M14.5 -3.85 Q13.9 -4.4 16.9 -5.5 L16.95 -5.55 20.6 -6.65 24.4 -7.55 24.5 -7.55 Q27.55 -8.05 27.3 -7.3 27.9 -6.8 24.95 -5.7 L21.2 -4.5 17.45 -3.65 Q14.25 -3.1 14.5 -3.85 M24.9 5.7 L25.0 5.7 Q27.9 6.8 27.3 7.35 27.55 8.05 24.45 7.55 L20.6 6.7 16.95 5.55 Q13.9 4.4 14.5 3.9 14.25 3.15 17.4 3.7 L17.45 3.65 21.2 4.55 24.9 5.7 M24.05 6.5 L24.2 6.5 24.1 6.45 20.9 5.5 17.75 4.75 17.55 4.7 17.7 4.8 17.75 4.8 20.85 5.75 24.05 6.5 M13.25 11.9 L16.1 14.5 18.75 17.35 18.8 17.45 Q20.75 19.85 20.0 20.0 19.85 20.75 17.4 18.75 L14.5 16.1 11.9 13.25 Q9.85 10.75 10.65 10.65 10.75 9.85 13.25 11.9 M5.55 16.95 L6.7 20.6 7.55 24.4 7.55 24.5 Q8.05 27.55 7.35 27.3 6.8 27.9 5.7 24.95 L4.55 21.2 3.7 17.45 Q3.1 14.25 3.9 14.5 4.4 13.9 5.55 16.9 L5.55 16.95 M15.2 15.4 L17.65 17.65 17.75 17.75 17.65 17.6 15.4 15.2 13.05 13.0 12.9 12.85 13.0 13.0 15.2 15.4 M4.75 17.75 L4.7 17.6 4.75 17.75 4.75 17.8 5.45 20.95 6.45 24.1 6.5 24.25 6.45 24.1 5.7 20.9 4.75 17.75 M-5.7 -24.9 L-5.7 -24.95 -4.5 -21.2 -3.65 -17.4 Q-3.1 -14.25 -3.85 -14.5 -4.4 -13.9 -5.5 -16.9 L-5.55 -16.9 -6.65 -20.6 -7.55 -24.4 -7.55 -24.45 Q-8.05 -27.55 -7.3 -27.3 -6.8 -27.9 -5.7 -24.9 M-24.05 -6.45 L-24.2 -6.5 -24.05 -6.45 -20.9 -5.45 -17.7 -4.75 -17.5 -4.7 -17.7 -4.75 -17.75 -4.75 -20.8 -5.75 -24.0 -6.45 -24.05 -6.45 M-20.6 -6.65 L-16.9 -5.5 Q-13.9 -4.4 -14.5 -3.85 L-17.4 -3.65 -21.2 -4.5 -24.9 -5.65 -24.95 -5.7 Q-27.9 -6.8 -27.3 -7.3 L-24.45 -7.5 -20.6 -6.65 M-6.4 -24.1 L-6.45 -24.25 -6.45 -24.1 -5.7 -20.85 -4.75 -17.75 -4.65 -17.55 -4.7 -17.75 -4.7 -17.8 -5.4 -20.95 -6.4 -24.05 -6.4 -24.1 M-17.4 -18.75 L-14.5 -16.1 -11.9 -13.25 Q-9.85 -10.75 -10.6 -10.6 -10.75 -9.85 -13.2 -11.85 L-13.25 -11.85 -16.1 -14.5 -18.7 -17.35 -18.75 -17.4 Q-20.75 -19.85 -19.95 -19.95 -19.85 -20.75 -17.4 -18.75 M-15.2 -15.4 L-17.6 -17.6 -17.75 -17.7 -17.65 -17.6 -17.6 -17.55 -15.4 -15.15 -13.0 -12.95 -12.85 -12.85 -12.95 -12.95 -13.0 -13.0 -15.2 -15.4 M-16.9 5.55 L-20.6 6.7 -24.4 7.55 -24.45 7.55 Q-27.55 8.05 -27.3 7.35 -27.9 6.8 -24.9 5.7 L-24.95 5.7 -21.2 4.55 -17.4 3.7 Q-14.25 3.1 -14.5 3.9 -13.9 4.4 -16.9 5.55 M-17.75 4.75 L-17.55 4.7 -17.75 4.75 -17.8 4.75 -20.95 5.45 -24.05 6.45 -24.1 6.45 -24.25 6.5 -24.1 6.45 -20.85 5.7 -17.75 4.75 M-10.6 10.65 Q-9.85 10.75 -11.85 13.25 L-14.5 16.1 -17.35 18.75 -17.4 18.8 Q-19.85 20.75 -19.95 20.0 -20.75 19.85 -18.75 17.4 L-16.1 14.5 -13.25 11.9 Q-10.75 9.85 -10.6 10.65 M-12.95 13.05 L-12.85 12.9 -12.95 13.0 -13.0 13.0 -15.4 15.2 -17.6 17.65 -17.7 17.75 -17.55 17.65 -17.6 17.65 -15.15 15.4 -12.95 13.05 M-3.65 17.45 Q-3.9 19.0 -4.5 21.2 L-5.65 24.9 -5.7 25.0 Q-6.8 27.9 -7.3 27.3 -8.05 27.55 -7.5 24.45 L-6.65 20.6 -5.5 16.95 Q-4.4 13.9 -3.85 14.5 -3.15 14.25 -3.65 17.4 L-3.65 17.45 M-4.75 17.7 L-4.75 17.75 -5.75 20.85 -6.45 24.05 -6.5 24.2 -6.45 24.1 -5.45 20.9 -4.75 17.75 -4.7 17.55 -4.75 17.7" fill="#ffffff" fill-opacity="0.3019608" fill-rule="evenodd" stroke="none"/>
    <path d="M13.0 -13.0 L15.2 -15.4 17.6 -17.6 17.6 -17.65 17.75 -17.75 17.65 -17.6 15.4 -15.2 13.0 -13.0 13.0 -12.95 12.85 -12.85 13.0 -13.0 M6.5 -24.05 L6.5 -24.0 5.75 -20.8 4.8 -17.75 4.8 -17.7 4.7 -17.5 4.75 -17.7 5.5 -20.9 6.45 -24.05 6.5 -24.2 6.5 -24.05 M17.75 -4.75 L20.9 -5.7 24.1 -6.45 24.05 -6.45 24.25 -6.45 24.1 -6.4 20.95 -5.4 17.8 -4.7 17.75 -4.7 17.6 -4.65 17.75 -4.75 M24.05 6.5 L20.85 5.75 17.75 4.8 17.7 4.8 17.55 4.7 17.75 4.75 20.9 5.5 24.1 6.45 24.2 6.5 24.05 6.5 M4.75 17.75 L5.7 20.9 6.45 24.1 6.5 24.25 6.45 24.1 5.45 20.95 4.75 17.8 4.75 17.75 4.7 17.6 4.75 17.75 M15.2 15.4 L13.0 13.0 12.9 12.85 13.05 13.0 15.4 15.2 17.65 17.6 17.75 17.75 17.65 17.65 15.2 15.4 M-24.05 -6.45 L-24.0 -6.45 -20.8 -5.75 -17.75 -4.75 -17.7 -4.75 -17.5 -4.7 -17.7 -4.75 -20.9 -5.45 -24.05 -6.45 -24.2 -6.5 -24.05 -6.45 M-6.4 -24.1 L-6.4 -24.05 -5.4 -20.95 -4.7 -17.8 -4.7 -17.75 -4.65 -17.55 -4.75 -17.75 -5.7 -20.85 -6.45 -24.1 -6.45 -24.25 -6.4 -24.1 M-15.2 -15.4 L-13.0 -13.0 -12.95 -12.95 -12.85 -12.85 -13.0 -12.95 -15.4 -15.15 -17.6 -17.55 -17.65 -17.6 -17.75 -17.7 -17.6 -17.6 -15.2 -15.4 M-17.75 4.75 L-20.85 5.7 -24.1 6.45 -24.25 6.5 -24.1 6.45 -24.05 6.45 -20.95 5.45 -17.8 4.75 -17.75 4.75 -17.55 4.7 -17.75 4.75 M-12.95 13.05 L-15.15 15.4 -17.6 17.65 -17.55 17.65 -17.7 17.75 -17.6 17.65 -15.4 15.2 -13.0 13.0 -12.95 13.0 -12.85 12.9 -12.95 13.05 M-4.75 17.7 L-4.7 17.55 -4.75 17.75 -5.45 20.9 -6.45 24.1 -6.5 24.2 -6.45 24.05 -5.75 20.85 -4.75 17.75 -4.75 17.7" fill="#ffffff" fill-rule="evenodd" stroke="none"/>
  </g>
</svg>
