<?xml version="1.0" encoding="UTF-8" standalone="no"?>
<svg xmlns:ffdec="https://www.free-decompiler.com/flash" xmlns:xlink="http://www.w3.org/1999/xlink" ffdec:objectType="shape" height="93.35px" width="93.35px" xmlns="http://www.w3.org/2000/svg">
  <g transform="matrix(1.0, 0.0, 0.0, 1.0, 46.65, 46.65)">
    <path d="M20.75 -35.85 L20.85 -36.05 20.7 -35.8 20.75 -35.85 18.05 -31.4 15.55 -26.9 15.45 -26.65 15.6 -26.85 15.6 -26.9 18.25 -31.25 20.75 -35.8 20.75 -35.85 M21.95 -36.2 L19.0 -30.75 15.85 -25.6 Q13.05 -21.35 12.9 -22.25 12.0 -21.95 14.25 -26.45 L14.3 -26.45 Q15.4 -28.7 17.2 -31.8 L20.4 -37.05 20.45 -37.15 Q23.15 -41.25 23.35 -40.3 24.2 -40.65 21.95 -36.15 L21.95 -36.2 M0.05 -41.35 L0.0 -41.55 0.0 -41.25 -0.1 -36.15 0.0 -31.0 0.0 -30.7 0.05 -31.0 0.05 -31.05 0.15 -36.15 0.05 -41.3 0.05 -41.35 M0.9 -42.35 L1.05 -36.15 0.9 -30.1 Q0.65 -25.0 0.0 -25.7 -0.6 -25.0 -0.9 -30.0 L-0.9 -30.05 -1.05 -36.15 -0.9 -42.25 -0.9 -42.35 Q-0.6 -47.25 0.0 -46.55 0.6 -47.3 0.9 -42.3 L0.9 -42.35 M36.0 -20.8 L35.8 -20.7 35.75 -20.7 31.25 -18.2 26.85 -15.55 26.6 -15.4 26.85 -15.5 26.9 -15.55 31.4 -18.0 Q34.0 -19.5 35.8 -20.7 L35.85 -20.7 36.0 -20.8 M37.1 -20.4 L31.85 -17.2 Q28.75 -15.4 26.5 -14.3 21.95 -12.0 22.3 -12.85 21.35 -13.05 25.55 -15.8 L25.6 -15.85 30.8 -19.0 36.15 -21.95 36.25 -22.0 Q40.65 -24.2 40.35 -23.3 41.25 -23.15 37.1 -20.4 M30.05 -0.9 L36.15 -1.05 42.3 -0.9 42.4 -0.9 Q47.25 -0.6 46.6 0.0 47.3 0.6 42.3 0.9 L42.35 0.9 36.15 1.05 30.1 0.9 Q25.0 0.65 25.75 0.0 25.0 -0.6 30.05 -0.9 M26.95 15.55 L26.65 15.45 26.9 15.6 26.95 15.6 31.3 18.25 35.85 20.75 36.05 20.85 35.8 20.7 35.85 20.75 Q34.05 19.55 31.4 18.05 L26.95 15.55 M41.3 0.0 L36.15 -0.1 31.05 0.0 30.75 0.0 31.0 0.05 31.05 0.05 36.15 0.15 41.35 0.05 41.6 0.0 41.3 0.0 M26.45 14.25 L26.5 14.3 Q28.7 15.4 31.85 17.2 L37.05 20.4 37.15 20.45 Q41.25 23.15 40.35 23.35 40.65 24.2 36.2 21.95 L36.25 21.95 30.8 19.0 25.6 15.85 Q21.35 13.05 22.3 12.9 21.95 12.0 26.45 14.25 M19.0 30.8 L21.95 36.15 22.0 36.25 Q24.2 40.65 23.35 40.35 23.15 41.25 20.4 37.1 L20.45 37.1 17.2 31.85 Q15.4 28.75 14.3 26.5 12.0 21.95 12.9 22.3 13.05 21.35 15.85 25.55 L15.85 25.6 19.0 30.8 M0.05 31.05 L0.0 30.75 0.0 31.0 0.0 31.05 -0.15 36.15 0.0 41.35 0.0 41.6 0.05 41.3 0.15 36.15 0.05 31.05 M18.25 31.25 L15.6 26.85 15.4 26.6 15.55 26.85 15.55 26.9 18.0 31.4 20.7 35.8 20.7 35.85 20.85 36.0 20.75 35.8 20.7 35.75 18.25 31.25 M1.05 36.15 L0.9 42.3 0.9 42.4 Q0.6 47.25 0.0 46.6 -0.6 47.3 -0.9 42.3 L-0.85 42.35 -1.05 36.15 -0.9 30.1 Q-0.65 25.0 0.0 25.75 0.6 25.0 0.9 30.05 L0.9 30.1 1.05 36.15 M-41.3 0.0 L-41.35 0.0 -41.55 0.0 -41.35 0.0 -36.15 0.15 -31.0 0.05 -30.7 0.0 -31.0 0.0 -31.05 0.0 -36.15 -0.15 -41.3 0.0 M-42.35 -0.85 L-36.15 -1.05 -30.1 -0.9 Q-25.0 -0.65 -25.7 0.0 -25.0 0.6 -30.0 0.9 L-30.05 0.9 -36.15 1.05 -42.25 0.9 -42.35 0.9 Q-47.25 0.6 -46.55 0.0 -47.3 -0.6 -42.3 -0.9 L-42.35 -0.85 M-15.55 -26.9 L-18.0 -31.35 -20.7 -35.75 -20.7 -35.8 -20.8 -36.0 -20.7 -35.8 -20.7 -35.75 -18.2 -31.2 -15.55 -26.85 -15.4 -26.6 -15.5 -26.85 -15.55 -26.9 M-19.0 -30.75 L-21.95 -36.15 -22.0 -36.25 Q-24.2 -40.65 -23.3 -40.3 -23.15 -41.25 -20.4 -37.05 L-20.4 -37.1 -17.2 -31.8 -14.3 -26.5 Q-12.0 -21.95 -12.85 -22.25 -13.05 -21.35 -15.8 -25.55 L-15.85 -25.55 -19.0 -30.75 M-26.9 -15.55 L-26.65 -15.4 -26.85 -15.55 -26.9 -15.6 -31.25 -18.25 Q-33.9 -19.75 -35.8 -20.7 L-35.85 -20.75 -36.05 -20.85 -35.8 -20.65 -35.85 -20.7 -31.4 -18.0 -26.9 -15.55 M-26.45 -14.25 L-31.8 -17.2 -37.05 -20.35 -37.15 -20.4 Q-41.25 -23.15 -40.3 -23.3 -40.65 -24.2 -36.15 -21.95 L-36.2 -21.95 -30.75 -19.0 -25.6 -15.85 Q-21.35 -13.05 -22.25 -12.85 -21.95 -12.0 -26.45 -14.25 M-36.0 20.85 L-35.8 20.75 -35.75 20.7 -31.2 18.25 -26.85 15.6 -26.6 15.4 -26.85 15.55 -26.9 15.55 -31.35 18.0 Q-34.0 19.5 -35.75 20.7 L-35.8 20.7 -36.0 20.85 M-37.1 20.45 Q-34.95 19.0 -31.8 17.2 -28.75 15.4 -26.5 14.3 -21.95 12.0 -22.25 12.9 -21.35 13.05 -25.55 15.85 L-30.75 19.0 -36.15 21.95 -36.25 22.0 Q-40.65 24.2 -40.3 23.35 -41.25 23.15 -37.05 20.4 L-37.1 20.45 M-20.75 35.85 L-20.85 36.05 -20.65 35.8 -20.7 35.85 -18.0 31.4 -15.55 26.95 -15.4 26.65 -15.55 26.9 -15.6 26.95 -18.25 31.3 -20.7 35.85 -20.75 35.85 M-21.95 36.25 L-19.0 30.8 -15.85 25.6 Q-13.05 21.35 -12.85 22.3 -12.0 21.95 -14.25 26.45 L-14.25 26.5 -17.2 31.85 -20.35 37.05 -20.4 37.15 Q-23.15 41.25 -23.3 40.35 -24.2 40.65 -21.95 36.2 L-21.95 36.25" fill="#ffffff" fill-opacity="0.3019608" fill-rule="evenodd" stroke="none"/>
    <path d="M20.75 -35.85 L20.75 -35.8 18.25 -31.25 15.6 -26.9 15.6 -26.85 15.45 -26.65 15.55 -26.9 18.05 -31.4 20.75 -35.85 20.7 -35.8 20.85 -36.05 20.75 -35.85 M0.05 -41.35 L0.05 -41.3 0.15 -36.15 0.05 -31.05 0.05 -31.0 0.0 -30.7 0.0 -31.0 -0.1 -36.15 0.0 -41.25 0.0 -41.55 0.05 -41.35 M36.0 -20.8 L35.85 -20.7 35.8 -20.7 Q34.0 -19.5 31.4 -18.0 L26.9 -15.55 26.85 -15.5 26.6 -15.4 26.85 -15.55 31.25 -18.2 35.75 -20.7 35.8 -20.7 36.0 -20.8 M41.3 0.0 L41.6 0.0 41.35 0.05 36.15 0.15 31.05 0.05 31.0 0.05 30.75 0.0 31.05 0.0 36.15 -0.1 41.3 0.0 M26.95 15.55 L31.4 18.05 Q34.05 19.55 35.85 20.75 L35.8 20.7 36.05 20.85 35.85 20.75 31.3 18.25 26.95 15.6 26.9 15.6 26.65 15.45 26.95 15.55 M18.25 31.25 L20.7 35.75 20.75 35.8 20.85 36.0 20.7 35.85 20.7 35.8 18.0 31.4 15.55 26.9 15.55 26.85 15.4 26.6 15.6 26.85 18.25 31.25 M0.05 31.05 L0.15 36.15 0.05 41.3 0.0 41.6 0.0 41.35 -0.15 36.15 0.0 31.05 0.0 31.0 0.0 30.75 0.05 31.05 M-41.3 0.0 L-36.15 -0.15 -31.05 0.0 -31.0 0.0 -30.7 0.0 -31.0 0.05 -36.15 0.15 -41.35 0.0 -41.55 0.0 -41.35 0.0 -41.3 0.0 M-15.55 -26.9 L-15.5 -26.85 -15.4 -26.6 -15.55 -26.85 -18.2 -31.2 -20.7 -35.75 -20.7 -35.8 -20.8 -36.0 -20.7 -35.8 -20.7 -35.75 -18.0 -31.35 -15.55 -26.9 M-26.9 -15.55 L-31.4 -18.0 -35.85 -20.7 -35.8 -20.65 -36.05 -20.85 -35.85 -20.75 -35.8 -20.7 Q-33.9 -19.75 -31.25 -18.25 L-26.9 -15.6 -26.85 -15.55 -26.65 -15.4 -26.9 -15.55 M-36.0 20.85 L-35.8 20.7 -35.75 20.7 Q-34.0 19.5 -31.35 18.0 L-26.9 15.55 -26.85 15.55 -26.6 15.4 -26.85 15.6 -31.2 18.25 -35.75 20.7 -35.8 20.75 -36.0 20.85 M-20.75 35.85 L-20.7 35.85 -18.25 31.3 -15.6 26.95 -15.55 26.9 -15.4 26.65 -15.55 26.95 -18.0 31.4 -20.7 35.85 -20.65 35.8 -20.85 36.05 -20.75 35.85" fill="#ffffff" fill-rule="evenodd" stroke="none"/>
    <path d="M6.95 -25.85 L6.95 -26.0 6.9 -25.8 6.9 -25.85 5.95 -22.55 5.15 -19.25 5.1 -19.05 5.15 -19.2 5.2 -19.25 6.15 -22.5 6.95 -25.85 M7.85 -26.3 L6.95 -22.3 5.75 -18.45 Q4.65 -15.3 4.25 -15.85 3.65 -15.55 4.25 -18.8 L4.25 -18.85 5.2 -22.75 Q5.8 -25.1 6.35 -26.65 L6.4 -26.7 Q7.45 -29.8 7.85 -29.2 8.5 -29.55 7.85 -26.3 M19.0 -18.9 L19.1 -19.05 18.95 -18.9 18.95 -18.95 16.45 -16.55 14.1 -14.1 14.0 -13.95 14.15 -14.05 14.15 -14.1 16.6 -16.4 18.95 -18.9 19.0 -18.9 M19.95 -18.8 L17.15 -15.85 14.2 -13.1 Q11.65 -10.9 11.65 -11.6 10.9 -11.65 13.1 -14.15 L13.1 -14.2 15.85 -17.15 18.8 -19.9 18.9 -19.95 Q21.35 -22.1 21.4 -21.35 22.1 -21.35 19.95 -18.85 L19.95 -18.8 M19.3 -5.2 L19.1 -5.1 19.3 -5.15 22.6 -5.95 25.9 -6.95 26.05 -7.0 25.9 -6.95 25.85 -6.95 25.9 -6.95 22.55 -6.15 19.3 -5.2 M15.9 -4.25 Q15.3 -4.65 18.45 -5.75 L22.35 -6.9 26.3 -7.85 26.35 -7.85 Q29.55 -8.45 29.25 -7.85 29.8 -7.45 26.7 -6.35 L22.8 -5.15 18.9 -4.25 Q15.55 -3.6 15.9 -4.25 M25.9 6.95 L26.05 6.95 25.85 6.9 25.9 6.9 22.55 5.95 19.25 5.15 19.1 5.1 19.25 5.15 19.3 5.2 22.5 6.15 25.85 6.95 25.9 6.95 M26.35 7.85 L22.35 6.95 18.5 5.75 Q15.3 4.65 15.9 4.25 15.55 3.65 18.85 4.25 L22.8 5.2 26.7 6.35 26.75 6.35 Q29.8 7.45 29.25 7.85 29.55 8.5 26.35 7.85 M5.8 18.45 L6.95 22.35 7.85 26.3 7.9 26.35 Q8.45 29.55 7.85 29.25 7.45 29.8 6.35 26.7 L6.4 26.7 5.2 22.8 4.3 18.9 Q3.6 15.55 4.25 15.9 4.65 15.3 5.75 18.45 L5.8 18.45 M14.1 14.15 L16.4 16.6 18.9 18.95 18.95 19.0 19.05 19.1 18.9 18.95 18.95 18.95 16.6 16.45 14.1 14.1 13.95 14.0 14.1 14.15 M5.2 19.3 L5.95 22.6 6.95 25.9 7.0 26.05 6.95 25.9 6.95 25.85 7.0 25.9 6.2 22.55 5.2 19.3 5.15 19.1 5.2 19.3 M14.2 13.1 L17.15 15.85 19.95 18.8 20.0 18.9 Q22.1 21.35 21.4 21.4 21.35 22.1 18.85 19.95 L15.85 17.15 13.15 14.2 Q10.9 11.65 11.65 11.65 11.65 10.9 14.2 13.1 M-7.85 -26.3 Q-8.45 -29.55 -7.85 -29.2 -7.45 -29.8 -6.35 -26.7 L-5.15 -22.75 -4.25 -18.85 Q-3.6 -15.55 -4.25 -15.85 -4.65 -15.3 -5.75 -18.4 L-5.75 -18.45 -6.9 -22.3 -7.85 -26.25 -7.85 -26.3 M-25.85 -6.9 L-26.0 -6.95 -25.8 -6.9 -25.85 -6.9 -22.55 -5.9 -19.25 -5.1 -19.05 -5.1 -19.2 -5.15 -19.25 -5.15 -22.5 -6.15 -25.85 -6.9 M-6.95 -25.85 L-6.95 -25.9 -6.15 -22.5 -5.2 -19.25 -5.1 -19.1 -5.15 -19.25 -5.15 -19.3 -5.95 -22.6 -6.95 -25.85 -6.95 -25.9 -7.0 -26.05 -6.95 -25.85 M-26.3 -7.85 L-22.3 -6.9 -18.45 -5.75 Q-15.3 -4.65 -15.85 -4.25 -15.55 -3.65 -18.8 -4.25 L-18.85 -4.25 -22.75 -5.15 -26.65 -6.35 -26.7 -6.35 Q-29.8 -7.45 -29.2 -7.85 -29.55 -8.5 -26.3 -7.85 M-18.9 -18.95 L-19.05 -19.05 -18.9 -18.9 -18.95 -18.95 -16.55 -16.45 -14.1 -14.1 -13.95 -13.95 -14.05 -14.1 -14.1 -14.15 -16.4 -16.6 -18.9 -18.95 M-19.95 -18.85 Q-22.1 -21.35 -21.35 -21.35 -21.35 -22.1 -18.85 -19.95 L-18.8 -19.9 -15.85 -17.15 -13.1 -14.2 Q-10.9 -11.65 -11.6 -11.6 -11.65 -10.9 -14.15 -13.05 L-14.2 -13.1 -17.15 -15.85 -19.9 -18.8 -19.95 -18.85 M-19.25 5.2 L-19.3 5.2 -22.6 5.95 -25.85 6.95 -25.9 6.95 -26.05 7.0 -25.85 6.95 -25.9 7.0 -22.5 6.2 -19.25 5.2 -19.1 5.15 -19.25 5.2 M-18.45 5.8 L-22.3 6.95 -26.25 7.85 -26.3 7.9 -29.2 7.85 Q-29.8 7.45 -26.7 6.35 L-26.7 6.4 -22.75 5.2 -18.85 4.3 -15.85 4.25 Q-15.3 4.65 -18.4 5.75 L-18.45 5.8 M-14.1 14.1 L-14.15 14.1 -16.6 16.4 -18.95 18.9 -18.95 18.95 -19.05 19.05 -18.9 18.9 -18.95 18.95 -16.45 16.6 -14.1 14.1 -13.95 13.95 -14.1 14.1 M-13.1 14.2 L-15.85 17.15 -18.8 19.95 -18.85 20.0 Q-21.35 22.1 -21.35 21.4 -22.1 21.35 -19.95 18.85 L-19.9 18.85 -17.15 15.85 -14.2 13.15 Q-11.65 10.9 -11.6 11.65 -10.9 11.65 -13.05 14.2 L-13.1 14.2 M-5.1 19.1 L-5.15 19.25 -5.15 19.3 -6.15 22.5 -6.9 25.85 -6.9 25.9 -6.95 26.05 -6.9 25.85 -6.9 25.9 -5.9 22.55 -5.1 19.25 -5.1 19.1 M-4.25 18.85 L-5.15 22.8 -6.35 26.7 -6.35 26.75 Q-7.45 29.8 -7.85 29.25 -8.5 29.55 -7.85 26.35 L-6.9 22.35 -5.75 18.5 Q-4.65 15.3 -4.25 15.9 -3.65 15.55 -4.25 18.85" fill="#ffffff" fill-opacity="0.3019608" fill-rule="evenodd" stroke="none"/>
    <path d="M6.95 -25.85 L6.15 -22.5 5.2 -19.25 5.15 -19.2 5.1 -19.05 5.15 -19.25 5.95 -22.55 6.9 -25.85 6.9 -25.8 6.95 -26.0 6.95 -25.85 M19.0 -18.9 L18.95 -18.9 16.6 -16.4 14.15 -14.1 14.15 -14.05 14.0 -13.95 14.1 -14.1 16.45 -16.55 18.95 -18.95 18.95 -18.9 19.1 -19.05 19.0 -18.9 M19.3 -5.2 L22.55 -6.15 25.9 -6.95 25.85 -6.95 25.9 -6.95 26.05 -7.0 25.9 -6.95 22.6 -5.95 19.3 -5.15 19.1 -5.1 19.3 -5.2 M25.9 6.95 L25.85 6.95 22.5 6.15 19.3 5.2 19.25 5.15 19.1 5.1 19.25 5.15 22.55 5.95 25.9 6.9 25.85 6.9 26.05 6.95 25.9 6.95 M5.2 19.3 L5.15 19.1 5.2 19.3 6.2 22.55 7.0 25.9 6.95 25.85 6.95 25.9 7.0 26.05 6.95 25.9 5.95 22.6 5.2 19.3 M14.1 14.15 L13.95 14.0 14.1 14.1 16.6 16.45 18.95 18.95 18.9 18.95 19.05 19.1 18.95 19.0 18.9 18.95 16.4 16.6 14.1 14.15 M-6.95 -25.85 L-7.0 -26.05 -6.95 -25.9 -6.95 -25.85 -5.95 -22.6 -5.15 -19.3 -5.15 -19.25 -5.1 -19.1 -5.2 -19.25 -6.15 -22.5 -6.95 -25.9 -6.95 -25.85 M-25.85 -6.9 L-22.5 -6.15 -19.25 -5.15 -19.2 -5.15 -19.05 -5.1 -19.25 -5.1 -22.55 -5.9 -25.85 -6.9 -25.8 -6.9 -26.0 -6.95 -25.85 -6.9 M-18.9 -18.95 L-16.4 -16.6 -14.1 -14.15 -14.05 -14.1 -13.95 -13.95 -14.1 -14.1 -16.55 -16.45 -18.95 -18.95 -18.9 -18.9 -19.05 -19.05 -18.9 -18.95 M-19.25 5.2 L-19.1 5.15 -19.25 5.2 -22.5 6.2 -25.9 7.0 -25.85 6.95 -26.05 7.0 -25.9 6.95 -25.85 6.95 -22.6 5.95 -19.3 5.2 -19.25 5.2 M-14.1 14.1 L-13.95 13.95 -14.1 14.1 -16.45 16.6 -18.95 18.95 -18.9 18.9 -19.05 19.05 -18.95 18.95 -18.95 18.9 -16.6 16.4 -14.15 14.1 -14.1 14.1 M-5.1 19.1 L-5.1 19.25 -5.9 22.55 -6.9 25.9 -6.9 25.85 -6.95 26.05 -6.9 25.9 -6.9 25.85 -6.15 22.5 -5.15 19.3 -5.15 19.25 -5.1 19.1" fill="#ffffff" fill-rule="evenodd" stroke="none"/>
  </g>
</svg>
