<?xml version="1.0" encoding="UTF-8" standalone="no"?>
<svg xmlns:ffdec="https://www.free-decompiler.com/flash" xmlns:xlink="http://www.w3.org/1999/xlink" ffdec:objectType="shape" height="489.5px" width="489.5px" viewBox="0 0 97.9 97.9" xmlns="http://www.w3.org/2000/svg">
  <g transform="matrix(1.0, 0.0, 0.0, 1.0, 48.95, 48.95)">
    <path d="M21.75 -37.65 L21.85 -37.85 21.75 -37.65 21.7 -37.6 18.95 -33.05 16.4 -28.45 16.25 -28.15 16.4 -28.4 16.45 -28.45 19.15 -32.95 21.75 -37.6 21.75 -37.65 M22.85 -38.2 L19.75 -32.6 16.55 -27.25 Q13.7 -22.8 13.7 -23.65 12.9 -23.3 15.3 -27.85 L15.3 -27.9 18.35 -33.4 21.6 -38.8 21.7 -38.9 Q24.4 -43.15 24.45 -42.3 25.2 -42.7 22.85 -38.15 L22.85 -38.2 M0.0 -43.7 L0.0 -43.45 -0.05 -38.1 0.0 -32.8 0.0 -32.5 0.05 -32.8 0.05 -32.85 0.15 -38.1 0.05 -43.45 0.0 -43.7 M0.7 -44.45 L0.8 -38.1 0.7 -31.85 Q0.45 -26.6 0.0 -27.35 -0.45 -26.6 -0.7 -31.75 L-0.7 -31.8 -0.8 -38.1 -0.7 -44.4 -0.7 -44.5 Q-0.45 -49.55 0.0 -48.85 0.45 -49.6 0.7 -44.45 M38.25 -22.85 Q42.7 -25.2 42.35 -24.4 43.2 -24.4 38.85 -21.6 L38.9 -21.65 33.4 -18.35 27.95 -15.3 Q23.3 -12.9 23.7 -13.65 22.8 -13.7 27.2 -16.5 L27.25 -16.5 32.6 -19.75 38.15 -22.8 38.25 -22.85 M37.85 -21.8 L37.55 -21.65 37.65 -21.7 32.95 -19.1 28.4 -16.4 28.15 -16.2 28.4 -16.35 28.45 -16.4 Q30.35 -17.4 33.05 -18.9 L37.6 -21.65 37.65 -21.7 37.85 -21.8 M31.85 -0.7 L38.1 -0.8 44.45 -0.7 44.55 -0.7 Q49.55 -0.45 48.85 0.0 49.6 0.45 44.5 0.7 L38.1 0.8 31.85 0.7 Q26.6 0.45 27.35 0.0 26.6 -0.45 31.8 -0.7 L31.85 -0.7 M28.45 16.4 L28.15 16.25 28.4 16.4 28.45 16.45 32.95 19.15 37.65 21.75 37.9 21.85 37.7 21.75 37.6 21.7 33.05 18.95 Q30.35 17.4 28.45 16.4 M43.45 0.05 L43.5 0.05 43.75 0.0 43.5 0.0 38.1 -0.05 32.85 0.0 32.55 0.05 32.8 0.05 32.9 0.05 38.1 0.15 43.45 0.05 M27.9 15.3 L33.4 18.35 Q36.6 20.2 38.85 21.6 L38.9 21.7 Q43.15 24.4 42.35 24.45 42.7 25.2 38.15 22.85 L38.2 22.85 32.6 19.75 27.25 16.55 Q22.8 13.7 23.7 13.7 23.3 12.9 27.9 15.3 M19.75 32.6 L22.8 38.15 22.85 38.25 Q25.2 42.7 24.45 42.35 24.4 43.2 21.65 38.85 L21.65 38.9 18.35 33.4 15.35 27.95 Q12.9 23.3 13.7 23.7 13.7 22.8 16.5 27.2 L16.5 27.25 19.75 32.6 M16.35 28.4 L16.4 28.45 18.95 33.05 21.7 37.6 21.7 37.65 21.85 37.85 21.7 37.55 21.75 37.65 19.1 32.95 16.4 28.4 16.25 28.15 16.35 28.4 M0.7 31.85 L0.8 38.1 0.7 44.45 0.7 44.55 Q0.45 49.55 0.0 48.85 -0.45 49.6 -0.65 44.5 L-0.8 38.1 -0.65 31.85 Q-0.45 26.6 0.0 27.35 0.45 26.6 0.7 31.8 L0.7 31.85 M-16.4 -28.4 L-16.2 -28.1 -16.35 -28.35 -16.4 -28.4 -18.9 -33.0 -21.65 -37.6 -21.7 -37.6 -21.8 -37.8 -21.65 -37.55 -21.7 -37.6 -19.1 -32.9 -16.4 -28.4 M-43.45 0.0 L-43.7 0.0 -43.45 0.0 -38.1 0.1 -32.8 0.0 -32.5 0.0 -32.8 0.0 -32.85 0.0 -38.1 -0.1 -43.45 0.0 M0.0 43.5 L0.1 38.1 0.0 32.85 0.0 32.55 0.0 32.8 0.0 32.9 -0.1 38.1 0.0 43.45 0.0 43.5 0.0 43.75 0.0 43.5 M-19.75 -32.6 L-22.8 -38.1 -22.85 -38.2 Q-25.2 -42.7 -24.4 -42.3 -24.4 -43.2 -21.6 -38.85 L-21.65 -38.85 -18.35 -33.4 -15.3 -27.9 Q-12.9 -23.3 -13.65 -23.65 -13.7 -22.8 -16.5 -27.15 L-16.5 -27.2 -19.75 -32.6 M-28.45 -16.4 L-28.15 -16.25 -28.4 -16.4 -28.45 -16.4 -32.95 -19.1 -37.6 -21.7 -37.65 -21.7 -37.85 -21.85 -37.65 -21.7 -37.6 -21.65 -33.05 -18.95 Q-30.35 -17.4 -28.45 -16.4 M-27.85 -15.3 L-27.9 -15.3 -33.4 -18.35 Q-36.6 -20.2 -38.8 -21.6 L-38.9 -21.65 Q-43.15 -24.4 -42.3 -24.4 -42.7 -25.2 -38.15 -22.8 L-38.2 -22.8 -32.6 -19.75 -27.25 -16.5 Q-22.8 -13.7 -23.65 -13.65 -23.3 -12.9 -27.85 -15.3 M-31.85 -0.65 Q-26.6 -0.45 -27.35 0.0 -26.6 0.45 -31.75 0.7 L-31.8 0.7 -38.1 0.8 -44.4 0.7 -44.5 0.7 Q-49.55 0.45 -48.85 0.0 -49.6 -0.45 -44.45 -0.65 L-38.1 -0.8 -31.85 -0.65 M-38.85 21.65 L-33.4 18.35 Q-30.2 16.5 -27.9 15.35 -23.3 12.9 -23.65 13.7 -22.8 13.7 -27.15 16.5 L-27.2 16.5 -32.6 19.75 -38.1 22.8 -38.2 22.85 Q-42.7 25.2 -42.3 24.45 -43.2 24.4 -38.85 21.65 M-21.7 37.65 L-21.85 37.9 -21.7 37.7 -21.65 37.6 -18.95 33.05 -16.4 28.45 -16.25 28.15 -16.4 28.4 -16.4 28.45 -19.1 32.95 -21.7 37.65 M-37.55 21.7 L-37.6 21.75 -32.9 19.1 -28.4 16.4 -28.1 16.25 -28.35 16.35 -28.4 16.4 -33.0 18.95 -37.6 21.7 -37.8 21.85 -37.55 21.7 M-22.8 38.2 L-19.75 32.6 -16.5 27.25 Q-13.7 22.8 -13.65 23.7 -12.9 23.3 -15.3 27.9 L-18.35 33.4 -21.6 38.85 -21.65 38.9 Q-24.4 43.15 -24.4 42.35 -25.2 42.7 -22.8 38.15 L-22.8 38.2" fill="#ffffff" fill-opacity="0.3019608" fill-rule="evenodd" stroke="none"/>
    <path d="M21.75 -37.65 L21.75 -37.6 19.15 -32.95 16.45 -28.45 16.4 -28.4 16.25 -28.15 16.4 -28.45 18.95 -33.05 21.7 -37.6 21.75 -37.65 21.85 -37.85 21.75 -37.65 M0.0 -43.7 L0.05 -43.45 0.15 -38.1 0.05 -32.85 0.05 -32.8 0.0 -32.5 0.0 -32.8 -0.05 -38.1 0.0 -43.45 0.0 -43.7 M37.85 -21.8 L37.65 -21.7 37.6 -21.65 33.05 -18.9 Q30.35 -17.4 28.45 -16.4 L28.4 -16.35 28.15 -16.2 28.4 -16.4 32.95 -19.1 37.65 -21.7 37.55 -21.65 37.85 -21.8 M43.45 0.05 L38.1 0.15 32.9 0.05 32.8 0.05 32.55 0.05 32.85 0.0 38.1 -0.05 43.5 0.0 43.75 0.0 43.5 0.05 43.45 0.05 M28.45 16.4 Q30.35 17.4 33.05 18.95 L37.6 21.7 37.7 21.75 37.9 21.85 37.65 21.75 32.95 19.15 28.45 16.45 28.4 16.4 28.15 16.25 28.45 16.4 M16.35 28.4 L16.25 28.15 16.4 28.4 19.1 32.95 21.75 37.65 21.7 37.55 21.85 37.85 21.7 37.65 21.7 37.6 18.95 33.05 16.4 28.45 16.35 28.4 M0.0 43.5 L0.0 43.75 0.0 43.5 0.0 43.45 -0.1 38.1 0.0 32.9 0.0 32.8 0.0 32.55 0.0 32.85 0.1 38.1 0.0 43.5 M-43.45 0.0 L-38.1 -0.1 -32.85 0.0 -32.8 0.0 -32.5 0.0 -32.8 0.0 -38.1 0.1 -43.45 0.0 -43.7 0.0 -43.45 0.0 M-16.4 -28.4 L-19.1 -32.9 -21.7 -37.6 -21.65 -37.55 -21.8 -37.8 -21.7 -37.6 -21.65 -37.6 -18.9 -33.0 -16.4 -28.4 -16.35 -28.35 -16.2 -28.1 -16.4 -28.4 M-28.45 -16.4 Q-30.35 -17.4 -33.05 -18.95 L-37.6 -21.65 -37.65 -21.7 -37.85 -21.85 -37.65 -21.7 -37.6 -21.7 -32.95 -19.1 -28.45 -16.4 -28.4 -16.4 -28.15 -16.25 -28.45 -16.4 M-37.55 21.7 L-37.8 21.85 -37.6 21.7 -33.0 18.95 -28.4 16.4 -28.35 16.35 -28.1 16.25 -28.4 16.4 -32.9 19.1 -37.6 21.75 -37.55 21.7 M-21.7 37.65 L-19.1 32.95 -16.4 28.45 -16.4 28.4 -16.25 28.15 -16.4 28.45 -18.95 33.05 -21.65 37.6 -21.7 37.7 -21.85 37.9 -21.7 37.65" fill="#ffffff" fill-rule="evenodd" stroke="none"/>
    <path d="M7.4 -27.5 L7.45 -27.65 7.4 -27.5 6.4 -24.05 5.55 -20.65 5.5 -20.4 5.55 -20.6 5.6 -20.65 6.55 -24.0 7.4 -27.45 7.4 -27.5 M8.15 -27.95 L7.15 -23.8 6.0 -19.8 Q4.9 -16.5 4.6 -17.05 4.1 -16.7 4.8 -20.1 L5.75 -24.15 6.95 -28.2 6.95 -28.3 Q8.0 -31.5 8.3 -30.9 8.85 -31.3 8.15 -27.9 L8.15 -27.95 M20.2 -21.05 Q22.7 -23.3 22.7 -22.65 23.3 -22.7 21.05 -20.15 L18.1 -17.1 15.1 -14.2 Q12.5 -11.9 12.55 -12.5 11.9 -12.5 14.2 -15.05 L17.1 -18.1 20.15 -21.0 20.2 -21.05 M20.1 -20.1 L20.15 -20.15 17.55 -17.7 15.1 -15.15 15.0 -15.0 15.1 -15.1 15.15 -15.15 17.7 -17.55 20.15 -20.1 20.15 -20.15 20.25 -20.25 20.1 -20.1 M17.1 -4.6 Q16.5 -4.85 19.8 -5.95 L23.85 -7.15 27.9 -8.15 28.0 -8.15 30.95 -8.3 Q31.5 -8.0 28.25 -6.95 L28.3 -6.95 24.2 -5.75 20.15 -4.75 17.1 -4.6 M20.6 5.55 L20.65 5.6 24.0 6.55 27.5 7.4 27.65 7.45 27.5 7.4 24.05 6.4 20.65 5.55 20.45 5.5 20.6 5.55 M27.45 -7.35 L27.6 -7.4 27.45 -7.35 27.4 -7.35 27.45 -7.35 23.95 -6.5 20.6 -5.5 20.4 -5.45 20.6 -5.5 20.65 -5.5 24.0 -6.35 27.45 -7.35 M27.95 8.15 L23.85 7.15 19.85 6.0 Q16.5 4.9 17.1 4.6 L20.1 4.8 20.15 4.8 24.2 5.75 28.25 6.95 28.3 6.95 Q31.5 8.0 30.95 8.3 L27.95 8.15 M22.7 22.7 Q22.7 23.3 20.2 21.05 L20.15 21.05 17.1 18.1 14.25 15.1 Q11.9 12.5 12.55 12.55 12.5 11.9 15.05 14.2 L15.1 14.2 18.1 17.1 21.05 20.15 21.05 20.2 Q23.3 22.7 22.7 22.7 M5.5 20.6 L5.55 20.65 6.35 24.0 7.35 27.45 7.4 27.6 7.35 27.45 7.35 27.4 7.4 27.45 6.55 23.95 5.55 20.6 5.5 20.4 5.5 20.6 M7.15 23.85 L8.15 27.9 8.15 28.0 Q8.8 31.3 8.3 30.95 8.0 31.5 6.95 28.25 L7.0 28.3 5.75 24.2 4.8 20.15 Q4.05 16.7 4.6 17.1 4.85 16.5 5.95 19.8 L6.0 19.8 7.15 23.85 M-7.35 -27.4 L-7.35 -27.45 -7.4 -27.6 -7.35 -27.4 -7.35 -27.45 -6.5 -23.95 -5.5 -20.55 -5.45 -20.35 -5.5 -20.55 -5.5 -20.6 -6.35 -24.0 -7.35 -27.4 M15.15 15.1 L15.15 15.15 17.55 17.7 20.15 20.15 20.3 20.25 20.15 20.1 20.2 20.15 17.7 17.55 15.15 15.1 15.0 15.0 15.15 15.1 M-8.15 -27.95 Q-8.8 -31.3 -8.3 -30.9 -8.0 -31.5 -6.95 -28.25 L-5.75 -24.15 -4.75 -20.15 Q-4.05 -16.7 -4.6 -17.05 -4.85 -16.5 -5.95 -19.75 L-5.95 -19.8 -7.15 -23.8 -8.15 -27.9 -8.15 -27.95 M-22.65 -22.65 Q-22.7 -23.3 -20.15 -21.05 L-20.15 -21.0 -17.1 -18.1 -14.2 -15.1 Q-11.9 -12.5 -12.5 -12.5 -12.5 -11.9 -15.05 -14.15 L-15.05 -14.2 -18.1 -17.1 -21.0 -20.1 -21.05 -20.2 Q-23.3 -22.7 -22.65 -22.65 M-27.45 -7.4 L-27.5 -7.4 -27.65 -7.4 -27.5 -7.35 -24.05 -6.35 -20.65 -5.5 -20.4 -5.5 -20.6 -5.55 -20.65 -5.55 -24.0 -6.55 -27.45 -7.4 M-27.95 -8.15 L-23.8 -7.15 -19.8 -5.95 Q-16.5 -4.9 -17.05 -4.6 L-20.1 -4.75 -24.15 -5.75 -28.2 -6.95 -28.3 -6.95 Q-31.5 -8.0 -30.9 -8.3 L-27.9 -8.1 -27.95 -8.15 M-20.1 -20.1 L-20.15 -20.1 -17.7 -17.5 -15.15 -15.1 -15.0 -14.95 -15.1 -15.1 -15.15 -15.1 -17.55 -17.65 -20.1 -20.1 -20.15 -20.15 -20.25 -20.25 -20.1 -20.1 M-17.05 4.6 Q-16.5 4.85 -19.75 5.95 L-19.8 6.0 -23.8 7.15 -27.9 8.15 -27.95 8.15 -30.9 8.3 Q-31.5 8.0 -28.25 6.95 L-28.25 7.0 Q-26.6 6.4 -24.15 5.75 L-20.15 4.8 -17.05 4.6 M-15.1 15.15 L-17.65 17.55 -20.1 20.15 -20.15 20.15 -20.25 20.3 -20.1 20.15 -20.1 20.2 -17.5 17.7 -15.1 15.15 -14.95 15.0 -15.1 15.15 M-14.15 15.05 L-14.2 15.1 -17.1 18.1 -20.1 21.05 -20.2 21.05 Q-22.7 23.3 -22.65 22.7 -23.3 22.7 -21.05 20.2 L-21.0 20.15 -18.1 17.1 -15.1 14.25 Q-12.5 11.9 -12.5 12.55 -11.9 12.5 -14.15 15.05 M-5.55 20.6 L-5.55 20.65 -6.55 24.0 -7.4 27.5 -7.4 27.65 -7.35 27.5 -6.35 24.05 -5.5 20.65 -5.5 20.45 -5.55 20.6 M-5.95 19.85 Q-4.9 16.5 -4.6 17.1 -4.1 16.7 -4.75 20.1 L-4.75 20.15 -5.75 24.2 -6.9 28.25 -6.95 28.3 Q-8.0 31.5 -8.3 30.95 -8.85 31.3 -8.1 27.95 L-8.15 27.95 -7.15 23.85 -5.95 19.85 M-20.55 5.55 L-20.35 5.5 -20.55 5.5 -20.6 5.55 -24.0 6.35 -27.4 7.35 -27.45 7.35 -27.6 7.4 -27.4 7.35 -27.45 7.4 -23.95 6.55 -20.55 5.55" fill="#ffffff" fill-opacity="0.3019608" fill-rule="evenodd" stroke="none"/>
    <path d="M7.4 -27.5 L7.4 -27.45 6.55 -24.0 5.6 -20.65 5.55 -20.6 5.5 -20.4 5.55 -20.65 6.4 -24.05 7.4 -27.5 7.45 -27.65 7.4 -27.5 M20.1 -20.1 L20.25 -20.25 20.15 -20.15 20.15 -20.1 17.7 -17.55 15.15 -15.15 15.1 -15.1 15.0 -15.0 15.1 -15.15 17.55 -17.7 20.15 -20.15 20.1 -20.1 M27.45 -7.35 L24.0 -6.35 20.65 -5.5 20.6 -5.5 20.4 -5.45 20.6 -5.5 23.95 -6.5 27.45 -7.35 27.4 -7.35 27.45 -7.35 27.6 -7.4 27.45 -7.35 M20.6 5.55 L20.45 5.5 20.65 5.55 24.05 6.4 27.5 7.4 27.65 7.45 27.5 7.4 24.0 6.55 20.65 5.6 20.6 5.55 M5.5 20.6 L5.5 20.4 5.55 20.6 6.55 23.95 7.4 27.45 7.35 27.4 7.35 27.45 7.4 27.6 7.35 27.45 6.35 24.0 5.55 20.65 5.5 20.6 M15.15 15.1 L15.0 15.0 15.15 15.1 17.7 17.55 20.2 20.15 20.15 20.1 20.3 20.25 20.15 20.15 17.55 17.7 15.15 15.15 15.15 15.1 M-7.35 -27.4 L-6.35 -24.0 -5.5 -20.6 -5.5 -20.55 -5.45 -20.35 -5.5 -20.55 -6.5 -23.95 -7.35 -27.45 -7.35 -27.4 -7.4 -27.6 -7.35 -27.45 -7.35 -27.4 M-27.45 -7.4 L-24.0 -6.55 -20.65 -5.55 -20.6 -5.55 -20.4 -5.5 -20.65 -5.5 -24.05 -6.35 -27.5 -7.35 -27.65 -7.4 -27.5 -7.4 -27.45 -7.4 M-20.1 -20.1 L-20.25 -20.25 -20.15 -20.15 -20.1 -20.1 -17.55 -17.65 -15.15 -15.1 -15.1 -15.1 -15.0 -14.95 -15.15 -15.1 -17.7 -17.5 -20.15 -20.1 -20.1 -20.1 M-15.1 15.15 L-14.95 15.0 -15.1 15.15 -17.5 17.7 -20.1 20.2 -20.1 20.15 -20.25 20.3 -20.15 20.15 -20.1 20.15 -17.65 17.55 -15.1 15.15 M-5.55 20.6 L-5.5 20.45 -5.5 20.65 -6.35 24.05 -7.35 27.5 -7.4 27.65 -7.4 27.5 -6.55 24.0 -5.55 20.65 -5.55 20.6 M-20.55 5.55 L-23.95 6.55 -27.45 7.4 -27.4 7.35 -27.6 7.4 -27.45 7.35 -27.4 7.35 -24.0 6.35 -20.6 5.55 -20.55 5.5 -20.35 5.5 -20.55 5.55" fill="#ffffff" fill-rule="evenodd" stroke="none"/>
  </g>
</svg>
