<?xml version="1.0" encoding="UTF-8" standalone="no"?>
<svg xmlns:ffdec="https://www.free-decompiler.com/flash" xmlns:xlink="http://www.w3.org/1999/xlink" ffdec:objectType="shape" height="101.9px" width="101.9px" xmlns="http://www.w3.org/2000/svg">
  <g transform="matrix(1.0, 0.0, 0.0, 1.0, 50.95, 50.95)">
    <path d="M25.45 -44.0 Q26.1 -44.5 23.6 -39.85 L20.4 -34.15 17.15 -28.65 Q14.3 -24.05 14.4 -24.85 13.7 -24.4 16.25 -29.1 L19.4 -34.75 22.7 -40.3 22.75 -40.4 Q25.5 -44.8 25.45 -44.0 M0.05 -45.6 L0.0 -45.35 -0.05 -39.8 0.0 -34.4 0.05 -34.05 0.05 -34.35 0.05 -34.45 0.1 -39.8 0.05 -45.3 0.05 -45.35 0.05 -45.6 M22.75 -39.45 L22.6 -39.15 22.65 -39.25 19.85 -34.5 17.15 -29.75 17.0 -29.5 17.15 -29.7 17.2 -29.8 19.95 -34.4 22.65 -39.2 22.65 -39.25 22.75 -39.45 M0.6 -39.8 L0.5 -33.4 Q0.35 -28.0 0.0 -28.75 -0.35 -28.0 -0.5 -33.3 L-0.5 -33.35 -0.55 -39.8 -0.5 -46.25 -0.5 -46.4 Q-0.35 -51.6 0.0 -50.85 0.35 -51.6 0.5 -46.35 L0.6 -39.8 M39.2 -22.65 L39.15 -22.6 34.4 -19.95 29.75 -17.2 29.45 -17.0 29.7 -17.15 29.8 -17.2 34.5 -19.8 39.2 -22.6 39.2 -22.65 M34.75 -19.4 L29.15 -16.25 Q24.4 -13.7 24.9 -14.35 24.05 -14.3 28.6 -17.1 L34.15 -20.4 39.8 -23.55 39.9 -23.6 Q44.5 -26.1 44.05 -25.4 44.85 -25.5 40.35 -22.7 L40.4 -22.75 Q38.05 -21.3 34.75 -19.4 M33.35 -0.5 L39.8 -0.55 46.3 -0.5 46.4 -0.5 50.85 0.0 46.35 0.5 39.8 0.6 33.4 0.5 28.75 0.0 33.35 -0.5 M29.8 17.15 L29.5 17.0 29.75 17.15 29.8 17.2 34.45 19.95 39.2 22.65 39.25 22.65 39.45 22.75 39.2 22.6 39.25 22.65 34.5 19.85 29.8 17.15 M45.3 0.05 L45.35 0.05 45.6 0.05 45.35 0.0 39.85 -0.05 34.4 0.0 34.1 0.05 34.4 0.05 34.45 0.05 39.85 0.1 45.3 0.05 M29.1 16.25 L29.15 16.25 34.75 19.4 40.35 22.7 40.4 22.75 Q44.8 25.5 44.05 25.45 44.5 26.1 39.85 23.6 L39.9 23.6 34.15 20.4 28.65 17.15 Q24.05 14.3 24.9 14.4 24.4 13.7 29.1 16.25 M17.15 29.7 L17.2 29.8 19.85 34.5 22.65 39.2 22.65 39.15 19.95 34.4 17.2 29.75 17.05 29.45 17.15 29.7 M17.15 28.6 L20.4 34.15 23.6 39.8 23.65 39.9 Q26.1 44.5 25.45 44.05 25.5 44.85 22.75 40.35 L22.75 40.4 19.4 34.75 16.25 29.15 Q13.7 24.4 14.4 24.9 14.3 24.05 17.1 28.6 L17.15 28.6 M0.5 33.35 L0.6 39.8 0.5 46.3 0.5 46.4 Q0.35 51.6 0.0 50.85 -0.35 51.6 -0.5 46.35 L-0.55 39.8 -0.5 33.4 Q-0.35 28.0 0.0 28.75 0.35 28.0 0.5 33.35 M-17.2 -29.7 L-17.0 -29.45 -17.15 -29.7 -17.2 -29.75 -19.8 -34.45 -22.6 -39.15 -22.65 -39.2 -22.6 -39.15 -19.95 -34.4 -17.2 -29.7 M-45.3 0.0 L-45.35 0.0 -45.6 0.0 -45.35 0.0 -39.8 0.05 -34.4 0.0 -34.05 0.0 -34.35 0.0 -34.45 0.0 -39.8 -0.1 -45.3 0.0 M0.0 45.35 L0.05 39.85 0.0 34.4 0.0 34.1 0.0 34.4 0.0 34.45 -0.1 39.85 0.0 45.3 0.0 45.35 0.0 45.6 0.0 45.35 M-17.1 -28.6 L-20.4 -34.15 -23.55 -39.8 -23.6 -39.9 Q-26.1 -44.5 -25.4 -44.0 -25.5 -44.85 -22.7 -40.35 L-22.75 -40.35 -19.4 -34.75 -16.25 -29.15 Q-13.7 -24.4 -14.35 -24.85 -14.3 -24.05 -17.1 -28.55 L-17.1 -28.6 M-29.75 -17.15 L-29.5 -17.0 -29.7 -17.15 -29.8 -17.2 -34.4 -19.95 -39.2 -22.6 -39.25 -22.65 -39.45 -22.75 -39.15 -22.6 -39.25 -22.6 -34.5 -19.8 -29.75 -17.15 M-29.1 -16.2 L-34.75 -19.4 -40.3 -22.7 -40.4 -22.75 Q-44.8 -25.5 -44.0 -25.4 -44.5 -26.1 -39.85 -23.6 L-34.15 -20.4 -28.65 -17.1 Q-24.05 -14.3 -24.85 -14.35 -24.4 -13.7 -29.1 -16.2 M-33.4 -0.5 L-28.75 0.0 -33.3 0.5 -33.35 0.5 -39.8 0.6 -46.25 0.5 -46.4 0.5 -50.85 0.0 -46.35 -0.5 -39.8 -0.55 -33.4 -0.5 M-39.15 22.65 L-34.4 19.95 -29.7 17.2 -29.45 17.05 -29.7 17.15 -29.75 17.2 Q-31.7 18.25 -34.45 19.85 L-39.15 22.65 -39.2 22.65 -39.15 22.65 M-40.35 22.75 L-34.75 19.4 -29.15 16.25 Q-24.4 13.7 -24.85 14.4 -24.05 14.3 -28.55 17.1 L-28.6 17.15 -34.15 20.4 -39.8 23.6 -39.9 23.65 Q-44.5 26.1 -44.0 25.45 -44.85 25.5 -40.35 22.75 M-23.6 39.85 L-23.6 39.9 -20.4 34.15 -17.1 28.65 Q-14.3 24.05 -14.35 24.9 -13.7 24.4 -16.2 29.1 L-16.2 29.15 -19.4 34.75 -22.7 40.35 -22.75 40.4 Q-25.5 44.8 -25.4 44.05 -26.1 44.5 -23.6 39.85 M-22.6 39.2 L-22.6 39.25 -19.8 34.5 -17.15 29.8 -17.0 29.5 -17.15 29.75 -17.2 29.8 -19.95 34.45 -22.6 39.2 -22.65 39.25 -22.75 39.45 -22.6 39.2" fill="#ffffff" fill-opacity="0.3019608" fill-rule="evenodd" stroke="none"/>
    <path d="M22.75 -39.45 L22.65 -39.25 22.65 -39.2 19.95 -34.4 17.2 -29.8 17.15 -29.7 17.0 -29.5 17.15 -29.75 19.85 -34.5 22.65 -39.25 22.6 -39.15 22.75 -39.45 M0.05 -45.6 L0.05 -45.35 0.05 -45.3 0.1 -39.8 0.05 -34.45 0.05 -34.35 0.05 -34.05 0.0 -34.4 -0.05 -39.8 0.0 -45.35 0.05 -45.6 M39.2 -22.65 L39.2 -22.6 34.5 -19.8 29.8 -17.2 29.7 -17.15 29.45 -17.0 29.75 -17.2 34.4 -19.95 39.15 -22.6 39.2 -22.65 M45.3 0.05 L39.85 0.1 34.45 0.05 34.4 0.05 34.1 0.05 34.4 0.0 39.85 -0.05 45.35 0.0 45.6 0.05 45.35 0.05 45.3 0.05 M29.8 17.15 L34.5 19.85 39.25 22.65 39.2 22.6 39.45 22.75 39.25 22.65 39.2 22.65 34.45 19.95 29.8 17.2 29.75 17.15 29.5 17.0 29.8 17.15 M17.15 29.7 L17.05 29.45 17.2 29.75 19.95 34.4 22.65 39.15 22.65 39.2 19.85 34.5 17.2 29.8 17.15 29.7 M0.0 45.35 L0.0 45.6 0.0 45.35 0.0 45.3 -0.1 39.85 0.0 34.45 0.0 34.4 0.0 34.1 0.0 34.4 0.05 39.85 0.0 45.35 M-45.3 0.0 L-39.8 -0.1 -34.45 0.0 -34.35 0.0 -34.05 0.0 -34.4 0.0 -39.8 0.05 -45.35 0.0 -45.6 0.0 -45.35 0.0 -45.3 0.0 M-17.2 -29.7 L-19.95 -34.4 -22.6 -39.15 -22.65 -39.2 -22.6 -39.15 -19.8 -34.45 -17.2 -29.75 -17.15 -29.7 -17.0 -29.45 -17.2 -29.7 M-29.75 -17.15 L-34.5 -19.8 -39.25 -22.6 -39.15 -22.6 -39.45 -22.75 -39.25 -22.65 -39.2 -22.6 -34.4 -19.95 -29.8 -17.2 -29.7 -17.15 -29.5 -17.0 -29.75 -17.15 M-39.15 22.65 L-39.2 22.65 -39.15 22.65 -34.45 19.85 Q-31.7 18.25 -29.75 17.2 L-29.7 17.15 -29.45 17.05 -29.7 17.2 -34.4 19.95 -39.15 22.65 M-22.6 39.2 L-22.75 39.45 -22.65 39.25 -22.6 39.2 -19.95 34.45 -17.2 29.8 -17.15 29.75 -17.0 29.5 -17.15 29.8 -19.8 34.5 -22.6 39.25 -22.6 39.2" fill="#ffffff" fill-rule="evenodd" stroke="none"/>
    <path d="M7.75 -28.85 L7.8 -28.85 7.8 -29.05 7.75 -28.85 7.75 -28.9 6.75 -25.3 5.85 -21.8 5.8 -21.6 5.9 -21.8 6.9 -25.3 7.75 -28.85 M7.5 -29.65 Q8.55 -33.0 8.75 -32.45 9.15 -32.85 8.4 -29.4 L7.35 -25.15 6.15 -21.0 Q5.05 -17.6 4.9 -18.15 4.45 -17.75 5.25 -21.2 L5.25 -21.25 6.3 -25.45 7.5 -29.6 7.5 -29.65 M15.15 -15.8 L18.15 -18.95 21.3 -21.95 21.35 -22.0 Q23.9 -24.35 23.8 -23.75 24.35 -23.9 22.0 -21.3 L18.95 -18.15 15.85 -15.15 Q13.2 -12.75 13.35 -13.3 12.75 -13.2 15.15 -15.8 M28.9 -7.75 L29.05 -7.8 28.9 -7.75 28.85 -7.75 25.3 -6.85 21.85 -5.85 21.6 -5.8 21.8 -5.85 21.85 -5.85 25.35 -6.7 28.9 -7.75 M16.0 -16.0 L15.85 -15.85 16.0 -15.95 16.05 -16.0 18.65 -18.5 21.2 -21.15 21.3 -21.3 21.15 -21.15 21.2 -21.2 18.55 -18.6 16.05 -16.0 16.0 -16.0 M25.45 -6.25 L21.3 -5.2 Q17.75 -4.45 18.15 -4.85 17.6 -5.05 21.0 -6.1 L21.0 -6.15 25.15 -7.3 29.4 -8.35 29.45 -8.4 32.45 -8.7 Q33.0 -8.55 29.65 -7.45 L25.45 -6.25 M21.25 5.25 L25.45 6.3 Q27.9 6.9 29.65 7.45 L29.7 7.5 Q33.0 8.55 32.45 8.75 L29.45 8.4 25.15 7.35 21.05 6.15 Q17.6 5.05 18.15 4.9 L21.25 5.25 M21.15 21.2 L21.2 21.2 21.3 21.3 21.15 21.15 21.2 21.2 18.65 18.55 16.05 16.05 16.0 16.0 15.85 15.85 16.0 16.0 16.05 16.05 18.55 18.65 21.15 21.2 M21.8 5.9 L21.85 5.9 25.3 6.9 28.9 7.75 28.9 7.8 29.05 7.8 28.9 7.75 25.35 6.75 21.85 5.85 21.6 5.8 21.8 5.9 M21.3 22.0 L21.35 22.0 18.15 18.95 15.2 15.85 Q12.75 13.2 13.35 13.35 13.2 12.75 15.85 15.15 L18.95 18.15 21.95 21.3 22.0 21.35 Q24.35 23.9 23.8 23.8 23.9 24.35 21.3 22.0 M5.9 21.85 L5.8 21.6 5.85 21.8 5.85 21.85 6.75 25.35 7.75 28.9 7.8 29.05 7.75 28.9 7.75 28.85 6.85 25.3 5.9 21.85 M6.15 21.0 L7.35 25.15 8.4 29.4 8.4 29.45 Q9.15 32.85 8.75 32.45 8.55 33.0 7.5 29.65 L6.3 25.45 5.25 21.3 Q4.45 17.75 4.9 18.15 5.05 17.6 6.15 21.0 M-8.4 -29.45 Q-9.15 -32.85 -8.7 -32.45 -8.55 -33.0 -7.45 -29.65 L-6.25 -25.45 -5.2 -21.25 Q-4.45 -17.75 -4.85 -18.15 -5.05 -17.6 -6.1 -20.95 L-6.15 -21.0 -7.3 -25.15 -8.35 -29.35 -8.4 -29.45 M-21.3 -21.3 L-21.15 -21.15 -21.2 -21.15 -18.6 -18.5 -16.0 -16.0 -15.85 -15.85 -15.95 -16.0 -16.0 -16.0 -18.5 -18.6 -21.15 -21.15 -21.15 -21.2 -21.3 -21.3 M-7.75 -28.85 L-6.85 -25.3 -5.85 -21.8 -5.8 -21.6 -5.85 -21.8 -5.85 -21.85 -6.7 -25.35 -7.75 -28.85 -7.75 -28.9 -7.8 -29.05 -7.75 -28.85 M-22.0 -21.3 Q-24.35 -23.9 -23.75 -23.75 -23.9 -24.35 -21.3 -21.95 L-18.15 -18.95 -15.15 -15.85 Q-12.75 -13.2 -13.3 -13.3 -13.2 -12.75 -15.8 -15.15 L-18.95 -18.15 -21.95 -21.25 -22.0 -21.3 M-28.85 -7.75 L-29.05 -7.8 -28.85 -7.75 -28.9 -7.75 -25.3 -6.7 -21.8 -5.85 -21.6 -5.8 -21.8 -5.85 -25.3 -6.85 -28.85 -7.75 M-29.6 -7.45 L-29.65 -7.45 Q-33.0 -8.55 -32.45 -8.7 L-29.4 -8.35 -25.15 -7.3 -21.0 -6.15 Q-17.6 -5.05 -18.15 -4.85 L-21.2 -5.2 -21.25 -5.2 -25.45 -6.25 -29.6 -7.45 M-15.15 15.85 L-18.15 18.95 -21.25 21.95 -21.3 22.0 Q-23.9 24.35 -23.75 23.8 -24.35 23.9 -21.95 21.3 L-21.95 21.35 -18.95 18.15 -15.85 15.2 Q-13.2 12.75 -13.3 13.35 -12.75 13.2 -15.15 15.85 M-5.85 21.8 L-5.85 21.85 -6.85 25.3 -7.75 28.9 -7.8 29.05 -7.75 28.9 -6.7 25.35 -5.85 21.85 -5.8 21.6 -5.85 21.8 M-16.0 16.0 L-15.85 15.85 -16.0 16.0 -16.0 16.05 -18.6 18.55 -21.15 21.15 -21.2 21.2 -21.3 21.3 -21.15 21.15 -21.15 21.2 -18.5 18.65 -16.0 16.05 -16.0 16.0 M-4.85 18.15 Q-4.45 17.75 -5.2 21.25 L-6.25 25.45 -7.45 29.65 -7.45 29.7 Q-8.55 33.0 -8.7 32.45 -9.15 32.85 -8.35 29.45 L-7.3 25.15 -6.15 21.05 Q-5.05 17.6 -4.85 18.15 M-21.0 6.15 L-25.15 7.35 -29.35 8.4 -29.45 8.4 -32.45 8.75 Q-33.0 8.55 -29.65 7.5 L-25.45 6.3 -21.25 5.25 -18.15 4.9 Q-17.6 5.05 -20.95 6.15 L-21.0 6.15 M-21.8 5.9 L-21.6 5.8 -21.8 5.85 -21.85 5.85 -25.35 6.75 -28.85 7.75 -28.9 7.75 -29.05 7.8 -28.85 7.75 -25.3 6.85 -21.8 5.9" fill="#ffffff" fill-opacity="0.3019608" fill-rule="evenodd" stroke="none"/>
    <path d="M7.75 -28.85 L6.9 -25.3 5.9 -21.8 5.8 -21.6 5.85 -21.8 6.75 -25.3 7.75 -28.9 7.75 -28.85 7.8 -29.05 7.8 -28.85 7.75 -28.85 M16.0 -16.0 L16.05 -16.0 18.55 -18.6 21.2 -21.2 21.15 -21.15 21.3 -21.3 21.2 -21.15 18.65 -18.5 16.05 -16.0 16.0 -15.95 15.85 -15.85 16.0 -16.0 M28.9 -7.75 L25.35 -6.7 21.85 -5.85 21.8 -5.85 21.6 -5.8 21.85 -5.85 25.3 -6.85 28.85 -7.75 28.9 -7.75 29.05 -7.8 28.9 -7.75 M21.8 5.9 L21.6 5.8 21.85 5.85 25.35 6.75 28.9 7.75 29.05 7.8 28.9 7.8 28.9 7.75 25.3 6.9 21.85 5.9 21.8 5.9 M21.15 21.2 L18.55 18.65 16.05 16.05 16.0 16.0 15.85 15.85 16.0 16.0 16.05 16.05 18.65 18.55 21.2 21.2 21.15 21.15 21.3 21.3 21.2 21.2 21.15 21.2 M5.9 21.85 L6.85 25.3 7.75 28.85 7.75 28.9 7.8 29.05 7.75 28.9 6.75 25.35 5.85 21.85 5.85 21.8 5.8 21.6 5.9 21.85 M-7.75 -28.85 L-7.8 -29.05 -7.75 -28.9 -7.75 -28.85 -6.7 -25.35 -5.85 -21.85 -5.85 -21.8 -5.8 -21.6 -5.85 -21.8 -6.85 -25.3 -7.75 -28.85 M-21.3 -21.3 L-21.15 -21.2 -21.15 -21.15 -18.5 -18.6 -16.0 -16.0 -15.95 -16.0 -15.85 -15.85 -16.0 -16.0 -18.6 -18.5 -21.2 -21.15 -21.15 -21.15 -21.3 -21.3 M-28.85 -7.75 L-25.3 -6.85 -21.8 -5.85 -21.6 -5.8 -21.8 -5.85 -25.3 -6.7 -28.9 -7.75 -28.85 -7.75 -29.05 -7.8 -28.85 -7.75 M-16.0 16.0 L-16.0 16.05 -18.5 18.65 -21.15 21.2 -21.15 21.15 -21.3 21.3 -21.2 21.2 -21.15 21.15 -18.6 18.55 -16.0 16.05 -16.0 16.0 -15.85 15.85 -16.0 16.0 M-5.85 21.8 L-5.8 21.6 -5.85 21.85 -6.7 25.35 -7.75 28.9 -7.8 29.05 -7.75 28.9 -6.85 25.3 -5.85 21.85 -5.85 21.8 M-21.8 5.9 L-25.3 6.85 -28.85 7.75 -29.05 7.8 -28.9 7.75 -28.85 7.75 -25.35 6.75 -21.85 5.85 -21.8 5.85 -21.6 5.8 -21.8 5.9" fill="#ffffff" fill-rule="evenodd" stroke="none"/>
  </g>
</svg>
