<?xml version="1.0" encoding="UTF-8" standalone="no"?>
<svg xmlns:ffdec="https://www.free-decompiler.com/flash" xmlns:xlink="http://www.w3.org/1999/xlink" ffdec:objectType="shape" height="539.75px" width="539.75px" viewBox="0 0 107.95 107.95" xmlns="http://www.w3.org/2000/svg">
  <g transform="matrix(1.0, 0.0, 0.0, 1.0, 53.95, 53.95)">
    <path d="M24.2 -41.9 L24.05 -41.6 24.05 -41.65 21.2 -36.7 18.4 -31.8 18.35 -31.75 18.4 -31.85 21.25 -36.65 24.05 -41.6 24.1 -41.65 24.2 -41.9 M24.8 -42.45 L21.45 -36.55 18.05 -30.8 Q15.2 -26.0 15.45 -26.75 L17.65 -30.95 17.65 -31.0 21.0 -36.8 24.4 -42.65 24.45 -42.75 Q27.2 -47.4 26.95 -46.65 27.45 -47.25 24.8 -42.5 L24.8 -42.45 M0.25 -49.15 L0.3 -42.4 0.25 -35.7 0.0 -30.9 -0.2 -35.65 -0.2 -35.7 -0.25 -42.4 -0.2 -49.15 -0.2 -49.25 0.0 -53.85 0.25 -49.2 0.25 -49.15 M31.85 -18.35 L31.9 -18.4 36.75 -21.15 41.7 -24.05 41.65 -24.05 36.75 -21.2 31.85 -18.4 31.6 -18.2 31.85 -18.35 M0.05 -42.4 L0.0 -48.05 -0.05 -42.4 0.0 -36.8 0.05 -42.4 M30.8 -18.05 L36.6 -21.4 42.45 -24.75 42.55 -24.8 Q47.25 -27.45 46.65 -26.95 47.4 -27.2 42.75 -24.4 L42.7 -24.4 36.85 -20.95 31.05 -17.65 Q26.15 -14.95 26.75 -15.45 26.0 -15.2 30.75 -18.0 L30.8 -18.05 M35.7 -0.2 L42.4 -0.25 49.15 -0.2 49.25 -0.2 53.9 0.0 49.25 0.25 49.2 0.25 42.4 0.3 35.75 0.25 30.95 0.0 35.65 -0.2 35.7 -0.2 M41.9 24.2 L41.6 24.05 41.7 24.05 36.7 21.2 31.85 18.4 31.8 18.35 31.85 18.4 36.7 21.25 41.65 24.05 41.65 24.1 41.9 24.2 M42.4 0.05 L48.05 0.0 42.4 -0.05 36.8 0.0 42.4 0.05 M42.75 24.45 Q47.4 27.2 46.65 26.95 47.25 27.45 42.5 24.8 L42.45 24.8 36.6 21.45 30.85 18.05 Q26.0 15.2 26.75 15.45 L31.0 17.65 36.85 21.0 42.65 24.4 42.75 24.45 M18.05 30.8 L21.45 36.6 24.8 42.45 24.85 42.55 26.95 46.65 Q27.2 47.4 24.45 42.75 L24.4 42.7 21.0 36.85 17.7 31.05 Q14.95 26.15 15.45 26.75 15.2 26.0 18.05 30.75 L18.05 30.8 M18.25 31.6 L18.4 31.85 18.4 31.9 21.2 36.75 24.05 41.7 24.1 41.7 24.05 41.65 21.25 36.75 18.4 31.85 18.25 31.6 M0.25 35.7 L0.3 42.4 0.25 49.15 0.25 49.25 0.0 53.9 -0.2 49.25 -0.2 49.2 -0.25 42.4 -0.2 35.75 0.0 30.95 0.25 35.65 0.25 35.7 M0.0 48.05 L0.05 42.4 0.0 36.8 0.0 42.4 0.0 48.05 M-42.45 -24.75 L-36.55 -21.4 -30.8 -18.05 Q-26.0 -15.2 -26.75 -15.45 -26.15 -14.95 -30.95 -17.6 L-31.0 -17.65 -36.8 -20.95 -42.65 -24.35 -42.75 -24.4 Q-47.4 -27.2 -46.65 -26.95 -47.25 -27.45 -42.5 -24.8 L-42.45 -24.75 M-41.6 -24.0 L-41.65 -24.05 -36.7 -21.15 -31.8 -18.35 -31.75 -18.35 -31.85 -18.4 -36.65 -21.2 -41.6 -24.05 -41.65 -24.05 -41.9 -24.2 -41.6 -24.0 M-49.2 -0.2 L-42.4 -0.25 -35.7 -0.2 -30.9 0.0 -35.65 0.25 -35.7 0.25 -42.4 0.3 -49.15 0.25 -49.25 0.25 -53.85 0.0 -49.2 -0.2 M-18.35 -31.8 L-18.4 -31.9 -21.15 -36.75 -24.05 -41.65 -24.05 -41.7 -24.05 -41.65 -21.2 -36.7 -18.4 -31.85 -18.2 -31.55 -18.35 -31.8 M-18.05 -30.75 L-21.4 -36.55 -24.75 -42.4 -24.8 -42.5 Q-27.45 -47.25 -26.95 -46.65 -27.2 -47.4 -24.4 -42.7 L-24.4 -42.65 -20.95 -36.8 -17.65 -31.05 -15.45 -26.75 Q-15.2 -26.0 -18.0 -30.75 L-18.05 -30.75 M-31.85 18.4 L-31.55 18.25 -31.8 18.4 -31.9 18.4 -36.75 21.2 -41.65 24.05 -41.7 24.1 -41.65 24.05 -36.7 21.25 -31.85 18.4 M-36.55 21.45 L-42.4 24.8 -42.5 24.85 Q-47.25 27.45 -46.65 26.95 -47.4 27.2 -42.7 24.45 L-42.65 24.4 -36.8 21.0 -31.05 17.7 Q-26.15 14.95 -26.75 15.45 L-30.75 18.05 -36.55 21.45 M-24.05 41.65 L-24.2 41.9 -24.0 41.6 -24.05 41.7 -21.15 36.7 -18.35 31.85 -18.35 31.8 -18.4 31.85 -21.2 36.7 -24.05 41.65 M-26.95 46.65 Q-27.45 47.25 -24.8 42.5 L-24.75 42.45 -21.4 36.6 -18.05 30.85 Q-15.2 26.0 -15.45 26.75 -14.95 26.15 -17.6 31.0 L-17.65 31.0 -20.95 36.85 -24.35 42.65 -24.4 42.75 Q-27.2 47.4 -26.95 46.65 M-48.05 0.0 L-42.4 0.05 -36.8 0.0 -42.4 0.0 -48.05 0.0" fill="#ffffff" fill-opacity="0.3019608" fill-rule="evenodd" stroke="none"/>
    <path d="M24.2 -41.9 L24.1 -41.65 24.05 -41.6 21.25 -36.65 18.4 -31.85 18.35 -31.75 18.4 -31.8 21.2 -36.7 24.05 -41.65 24.05 -41.6 24.2 -41.9 M0.05 -42.4 L0.0 -36.8 -0.05 -42.4 0.0 -48.05 0.05 -42.4 M31.85 -18.35 L31.6 -18.2 31.85 -18.4 36.75 -21.2 41.65 -24.05 41.7 -24.05 36.75 -21.15 31.9 -18.4 31.85 -18.35 M42.4 0.05 L36.8 0.0 42.4 -0.05 48.05 0.0 42.4 0.05 M41.9 24.2 L41.65 24.1 41.65 24.05 36.7 21.25 31.85 18.4 31.8 18.35 31.85 18.4 36.7 21.2 41.7 24.05 41.6 24.05 41.9 24.2 M18.25 31.6 L18.4 31.85 21.25 36.75 24.05 41.65 24.1 41.7 24.05 41.7 21.2 36.75 18.4 31.9 18.4 31.85 18.25 31.6 M0.0 48.05 L0.0 42.4 0.0 36.8 0.05 42.4 0.0 48.05 M-41.6 -24.0 L-41.9 -24.2 -41.65 -24.05 -41.6 -24.05 -36.65 -21.2 -31.85 -18.4 -31.75 -18.35 -31.8 -18.35 -36.7 -21.15 -41.65 -24.05 -41.6 -24.0 M-18.35 -31.8 L-18.2 -31.55 -18.4 -31.85 -21.2 -36.7 -24.05 -41.65 -24.05 -41.7 -24.05 -41.65 -21.15 -36.75 -18.4 -31.9 -18.35 -31.8 M-31.85 18.4 L-36.7 21.25 -41.65 24.05 -41.7 24.1 -41.65 24.05 -36.75 21.2 -31.9 18.4 -31.8 18.4 -31.55 18.25 -31.85 18.4 M-24.05 41.65 L-21.2 36.7 -18.4 31.85 -18.35 31.8 -18.35 31.85 -21.15 36.7 -24.05 41.7 -24.0 41.6 -24.2 41.9 -24.05 41.65 M-48.05 0.0 L-42.4 0.0 -36.8 0.0 -42.4 0.05 -48.05 0.0" fill="#ffffff" fill-rule="evenodd" stroke="none"/>
    <path d="M8.4 -31.1 L8.45 -31.3 8.35 -31.05 8.4 -31.1 7.35 -27.4 6.4 -23.7 6.4 -23.65 6.4 -23.7 7.4 -27.35 8.4 -31.1 M8.8 -31.75 L7.65 -27.3 6.45 -22.95 Q5.4 -19.35 5.35 -19.9 5.05 -19.45 5.95 -23.05 L5.95 -23.1 7.1 -27.45 8.3 -31.85 8.35 -31.9 Q9.35 -35.45 9.35 -34.9 9.65 -35.35 8.8 -31.75 M17.35 -17.3 L17.4 -17.35 20.1 -20.0 22.75 -22.7 22.8 -22.75 20.05 -20.05 17.4 -17.35 17.35 -17.3 17.2 -17.15 17.35 -17.3 M16.7 -17.0 L19.85 -20.25 23.1 -23.45 23.15 -23.5 Q25.8 -26.0 25.55 -25.5 L23.5 -23.15 23.45 -23.1 20.25 -19.85 17.05 -16.7 14.6 -14.55 Q14.1 -14.3 16.65 -17.0 L16.7 -17.0 M23.75 -6.35 L27.4 -7.3 31.15 -8.3 31.3 -8.35 31.1 -8.3 31.15 -8.35 27.4 -7.35 23.75 -6.35 M22.95 -22.85 L22.8 -22.75 22.95 -22.85 M23.1 -5.95 L19.9 -5.35 Q19.35 -5.35 22.95 -6.4 L27.35 -7.6 31.75 -8.75 31.8 -8.75 34.9 -9.35 Q35.45 -9.35 31.9 -8.3 L27.5 -7.05 23.1 -5.95 M31.1 8.4 L31.15 8.4 31.3 8.45 31.1 8.35 31.15 8.4 27.4 7.35 23.7 6.4 23.5 6.35 23.7 6.4 23.75 6.4 27.4 7.4 31.1 8.4 M34.9 9.35 L31.8 8.8 27.35 7.65 23.0 6.45 Q19.35 5.4 19.9 5.35 L23.1 5.95 27.5 7.1 31.9 8.3 31.95 8.35 34.9 9.35 M22.75 22.75 L22.8 22.8 20.05 20.05 17.35 17.4 17.35 17.35 17.2 17.2 17.3 17.35 17.35 17.4 20.0 20.1 22.75 22.75 M22.75 22.8 L22.9 22.95 22.75 22.8 M23.5 23.15 Q26.0 25.8 25.55 25.55 L23.15 23.5 23.15 23.45 19.85 20.25 16.7 17.05 Q14.1 14.3 14.6 14.6 14.3 14.1 17.0 16.65 L17.05 16.7 20.25 19.85 23.45 23.1 23.5 23.15 M6.4 22.95 L6.45 22.95 7.65 27.35 8.8 31.75 8.8 31.8 Q9.65 35.35 9.35 34.9 9.35 35.45 8.3 31.9 L7.1 27.5 5.95 23.1 Q5.05 19.45 5.35 19.9 5.35 19.35 6.4 22.95 M6.35 23.75 L7.3 27.4 8.35 31.15 8.4 31.3 8.35 31.15 8.35 31.1 8.35 31.15 7.4 27.4 6.35 23.75 M-8.3 -31.9 L-7.05 -27.45 -5.95 -23.1 Q-5.05 -19.45 -5.35 -19.9 -5.35 -19.35 -6.4 -22.95 L-7.6 -27.3 -8.75 -31.7 -8.75 -31.8 Q-9.65 -35.35 -9.35 -34.9 -9.35 -35.45 -8.3 -31.85 L-8.3 -31.9 M-22.7 -22.75 L-22.75 -22.75 -20.05 -20.0 -17.35 -17.35 -17.3 -17.35 -17.15 -17.2 -17.3 -17.35 -17.35 -17.35 -20.0 -20.05 -22.7 -22.75 M-22.75 -22.8 L-22.85 -22.9 -22.75 -22.75 -22.75 -22.8 M-8.3 -31.1 L-8.35 -31.15 -7.35 -27.35 -6.35 -23.7 -6.35 -23.75 -7.3 -27.4 -8.3 -31.1 -8.3 -31.15 -8.35 -31.3 -8.3 -31.1 M-23.5 -23.15 Q-26.0 -25.8 -25.5 -25.5 L-23.15 -23.45 -23.1 -23.45 -19.85 -20.25 -16.7 -17.0 -14.55 -14.55 -17.0 -16.65 -20.25 -19.85 -23.45 -23.1 -23.5 -23.15 M-31.1 -8.35 L-31.3 -8.4 -31.05 -8.35 -31.1 -8.35 -27.4 -7.35 -23.7 -6.35 -23.65 -6.35 -23.7 -6.4 -27.35 -7.4 -31.1 -8.35 M-31.75 -8.75 L-27.3 -7.6 -22.95 -6.4 Q-19.35 -5.35 -19.9 -5.35 -19.45 -5.05 -23.05 -5.9 L-23.1 -5.95 -27.45 -7.05 -31.85 -8.3 -31.9 -8.3 Q-35.45 -9.35 -34.9 -9.35 L-31.75 -8.75 M-17.35 17.3 L-17.35 17.35 -20.05 20.0 -22.75 22.75 -22.75 22.8 -20.0 20.05 -17.35 17.35 -17.2 17.2 -17.35 17.3 M-16.65 17.05 L-19.85 20.25 -23.1 23.45 -23.15 23.5 -25.5 25.55 -23.45 23.15 -20.25 19.85 -17.0 16.7 Q-14.3 14.1 -14.55 14.6 L-16.65 17.0 -16.65 17.05 M-6.35 23.7 L-6.4 23.75 -7.4 27.4 -8.35 31.1 -8.35 31.15 -8.4 31.3 -8.35 31.1 -8.35 31.15 -7.35 27.4 -6.35 23.7 M-5.35 19.9 Q-5.05 19.45 -5.9 23.1 L-5.95 23.1 -7.05 27.5 -8.3 31.9 -8.3 31.95 Q-9.35 35.45 -9.35 34.9 -9.65 35.35 -8.75 31.8 L-7.6 27.35 -6.4 23.0 -5.35 19.9 M-23.75 6.35 L-27.4 7.3 -31.1 8.35 -31.15 8.35 -31.3 8.4 -31.1 8.35 -31.15 8.35 -27.35 7.4 -23.7 6.35 -23.75 6.35 M-23.1 5.95 L-19.9 5.35 Q-19.35 5.35 -22.9 6.4 L-22.95 6.45 -27.3 7.65 -31.7 8.8 -31.8 8.8 -34.9 9.35 Q-35.45 9.35 -31.85 8.3 L-31.9 8.3 -27.45 7.1 -23.1 5.95 M-22.8 22.75 L-22.9 22.9 -22.75 22.75 -22.8 22.75" fill="#ffffff" fill-opacity="0.3019608" fill-rule="evenodd" stroke="none"/>
    <path d="M8.4 -31.1 L7.4 -27.35 6.4 -23.7 6.4 -23.65 6.4 -23.7 7.35 -27.4 8.4 -31.1 8.35 -31.05 8.45 -31.3 8.4 -31.1 M17.35 -17.3 L17.2 -17.15 17.35 -17.3 17.4 -17.35 20.05 -20.05 22.8 -22.75 22.75 -22.7 20.1 -20.0 17.4 -17.35 17.35 -17.3 M22.95 -22.85 L22.8 -22.75 22.95 -22.85 M23.75 -6.35 L27.4 -7.35 31.15 -8.35 31.1 -8.3 31.3 -8.35 31.15 -8.3 27.4 -7.3 23.75 -6.35 M31.1 8.4 L27.4 7.4 23.75 6.4 23.7 6.4 23.5 6.35 23.7 6.4 27.4 7.35 31.15 8.4 31.1 8.35 31.3 8.45 31.15 8.4 31.1 8.4 M22.75 22.8 L22.9 22.95 22.75 22.8 M22.75 22.75 L20.0 20.1 17.35 17.4 17.3 17.35 17.2 17.2 17.35 17.35 17.35 17.4 20.05 20.05 22.8 22.8 22.75 22.75 M6.35 23.75 L7.4 27.4 8.35 31.15 8.35 31.1 8.35 31.15 8.4 31.3 8.35 31.15 7.3 27.4 6.35 23.75 M-8.3 -31.1 L-8.35 -31.3 -8.3 -31.15 -8.3 -31.1 -7.3 -27.4 -6.35 -23.75 -6.35 -23.7 -7.35 -27.35 -8.35 -31.15 -8.3 -31.1 M-22.75 -22.8 L-22.75 -22.75 -22.85 -22.9 -22.75 -22.8 M-22.7 -22.75 L-20.0 -20.05 -17.35 -17.35 -17.3 -17.35 -17.15 -17.2 -17.3 -17.35 -17.35 -17.35 -20.05 -20.0 -22.75 -22.75 -22.7 -22.75 M-31.1 -8.35 L-27.35 -7.4 -23.7 -6.4 -23.65 -6.35 -23.7 -6.35 -27.4 -7.35 -31.1 -8.35 -31.05 -8.35 -31.3 -8.4 -31.1 -8.35 M-17.35 17.3 L-17.2 17.2 -17.35 17.35 -20.0 20.05 -22.75 22.8 -22.75 22.75 -20.05 20.0 -17.35 17.35 -17.35 17.3 M-6.35 23.7 L-7.35 27.4 -8.35 31.15 -8.35 31.1 -8.4 31.3 -8.35 31.15 -8.35 31.1 -7.4 27.4 -6.4 23.75 -6.35 23.7 M-23.75 6.35 L-23.7 6.35 -27.35 7.4 -31.15 8.35 -31.1 8.35 -31.3 8.4 -31.15 8.35 -31.1 8.35 -27.4 7.3 -23.75 6.35 M-22.8 22.75 L-22.75 22.75 -22.9 22.9 -22.8 22.75" fill="#ffffff" fill-rule="evenodd" stroke="none"/>
  </g>
</svg>
