<?xml version="1.0" encoding="UTF-8" standalone="no"?>
<svg xmlns:ffdec="https://www.free-decompiler.com/flash" xmlns:xlink="http://www.w3.org/1999/xlink" ffdec:objectType="shape" height="50.0px" width="50.0px" viewBox="0 0 10 10" xmlns="http://www.w3.org/2000/svg">
  <g transform="matrix(1.0, 0.0, 0.0, 1.0, 5.0, 5.0)">
    <path d="M3.55 -3.5 Q5.0 -2.05 5.0 0.0 5.0 2.05 3.55 3.55 2.05 5.0 0.0 5.0 -2.05 5.0 -3.5 3.55 -5.0 2.05 -5.0 0.0 -5.0 -2.05 -3.5 -3.5 -2.05 -5.0 0.0 -5.0 2.05 -5.0 3.55 -3.5 M2.85 -2.8 Q1.65 -4.0 0.0 -4.0 -1.65 -4.0 -2.8 -2.8 -4.0 -1.65 -4.0 0.0 -4.0 1.65 -2.8 2.85 -1.65 4.0 0.0 4.0 1.65 4.0 2.85 2.85 4.0 1.65 4.0 0.0 4.0 -1.65 2.85 -2.8" fill="#ffffff" fill-opacity="0.8" fill-rule="evenodd" stroke="none"/>
    <path d="M2.85 -2.8 Q4.0 -1.65 4.0 0.0 4.0 1.65 2.85 2.85 1.65 4.0 0.0 4.0 -1.65 4.0 -2.8 2.85 -4.0 1.65 -4.0 0.0 -4.0 -1.65 -2.8 -2.8 -1.65 -4.0 0.0 -4.0 1.65 -4.0 2.85 -2.8 M2.1 2.15 Q2.95 1.25 3.0 0.0 2.95 -1.25 2.1 -2.1 1.2 -3.0 0.0 -3.0 -1.25 -3.0 -2.15 -2.1 -3.05 -1.25 -3.0 0.0 -3.05 1.25 -2.15 2.15 -1.25 3.0 0.0 3.0 1.2 3.0 2.1 2.15" fill="#879ef8" fill-rule="evenodd" stroke="none"/>
    <path d="M2.1 2.15 Q1.2 3.0 0.0 3.0 -1.25 3.0 -2.15 2.15 -3.05 1.25 -3.0 0.0 -3.05 -1.25 -2.15 -2.1 -1.25 -3.0 0.0 -3.0 1.2 -3.0 2.1 -2.1 2.95 -1.25 3.0 0.0 2.95 1.25 2.1 2.15" fill="#0965ee" fill-rule="evenodd" stroke="none"/>
  </g>
</svg>
