<?xml version="1.0" encoding="UTF-8" standalone="no"?>
<svg xmlns:ffdec="https://www.free-decompiler.com/flash" xmlns:xlink="http://www.w3.org/1999/xlink" ffdec:objectType="shape" height="5.0px" width="5.0px" xmlns="http://www.w3.org/2000/svg">
  <g transform="matrix(1.0, 0.0, 0.0, 1.0, 2.5, 2.5)">
    <path d="M2.5 0.0 Q2.5 1.0 1.7 1.7 1.0 2.5 0.0 2.5 -1.0 2.5 -1.8 1.7 -2.5 1.0 -2.5 0.0 -2.5 -1.0 -1.8 -1.8 -1.0 -2.5 0.0 -2.5 1.0 -2.5 1.7 -1.8 2.5 -1.0 2.5 0.0" fill="#1d3030" fill-rule="evenodd" stroke="none"/>
    <path d="M0.1 -1.6 L0.45 -0.9 Q0.45 -0.5 0.1 -0.2 -0.15 0.1 -0.55 0.1 L-1.3 -0.2 -1.55 -0.9 -1.3 -1.6 -0.55 -1.9 Q-0.15 -1.9 0.1 -1.6" fill="#396060" fill-rule="evenodd" stroke="none"/>
  </g>
</svg>
