<?xml version="1.0" encoding="UTF-8" standalone="no"?>
<svg xmlns:ffdec="https://www.free-decompiler.com/flash" xmlns:xlink="http://www.w3.org/1999/xlink" ffdec:objectType="shape" height="13.75px" width="16.05px" xmlns="http://www.w3.org/2000/svg">
  <g transform="matrix(1.0, 0.0, 0.0, 1.0, 8.15, 7.95)">
    <path d="M-0.1 -7.95 Q3.2 -7.95 5.5 -5.6 7.9 -3.25 7.9 0.05 L7.9 0.6 7.9 0.65 7.75 0.65 7.9 0.65 Q7.7 2.7 5.5 4.2 3.2 5.8 -0.1 5.8 -3.45 5.8 -5.85 4.2 -7.95 2.7 -8.1 0.65 L-8.0 0.65 -8.1 0.65 -8.1 0.6 -8.15 0.05 Q-8.15 -3.25 -5.85 -5.6 -3.45 -7.95 -0.1 -7.95" fill="#1d3030" fill-rule="evenodd" stroke="none"/>
    <path d="M0.75 -4.2 Q0.75 -5.05 1.9 -5.0 2.5 -5.05 2.65 -4.05 2.65 -3.3 1.8 -3.3 0.75 -3.3 0.75 -4.2 M1.05 -1.9 Q1.05 -1.15 0.05 -1.1 -0.65 -1.15 -0.6 -1.8 -0.65 -2.65 0.35 -2.65 1.05 -2.65 1.05 -1.9 M-5.35 -0.15 L-5.8 0.25 -6.15 -0.15 -5.7 -0.5 Q-5.4 -0.5 -5.35 -0.15 M-4.95 -1.45 Q-6.05 -1.5 -6.05 -2.5 -6.05 -6.15 -1.05 -6.15 0.25 -6.15 0.3 -5.1 0.25 -3.65 -1.75 -2.45 -3.5 -1.45 -4.95 -1.45 M-2.85 -1.1 Q-2.4 -1.15 -2.35 -0.7 -2.35 -0.3 -2.9 -0.3 L-3.4 -0.7 Q-3.45 -1.15 -2.85 -1.1" fill="#396060" fill-rule="evenodd" stroke="none"/>
    <path d="M0.85 3.7 Q1.05 4.1 1.7 4.1 2.35 4.1 2.65 3.05 2.7 2.15 1.8 2.15 0.75 2.15 0.75 3.2 L0.85 3.7 M0.35 3.2 Q0.35 1.45 2.5 1.45 3.7 1.45 3.7 2.7 3.7 4.6 1.95 4.6 0.85 4.55 0.5 3.9 L0.35 3.2 M-2.25 0.2 Q0.05 0.2 0.05 2.1 0.05 4.65 -2.7 4.65 -5.15 4.65 -5.15 2.65 -5.2 0.2 -2.25 0.2 M-0.4 2.55 Q-0.4 1.0 -1.95 1.05 -3.7 1.0 -3.7 2.55 L-3.5 3.35 Q-3.1 4.0 -2.1 4.05 -0.45 4.0 -0.4 2.55" fill="#cfe1e2" fill-rule="evenodd" stroke="none"/>
    <path d="M0.85 3.7 L0.75 3.2 Q0.75 2.15 1.8 2.15 2.7 2.15 2.65 3.05 2.35 4.1 1.7 4.1 1.05 4.1 0.85 3.7 M-0.4 2.55 Q-0.45 4.0 -2.1 4.05 -3.1 4.0 -3.5 3.35 L-3.7 2.55 Q-3.7 1.0 -1.95 1.05 -0.4 1.0 -0.4 2.55" fill="#ffffff" fill-rule="evenodd" stroke="none"/>
  </g>
</svg>
