<?xml version="1.0" encoding="UTF-8" standalone="no"?>
<svg width="80" height="68" xmlns="http://www.w3.org/2000/svg" xmlns:undefined="https://www.free-decompiler.com/flash">
 <g>
  <title>Layer 1</title>
  <g id="svg_1" transform="matrix(4.84384, 0, 0, 4.84449, 41.1305, 39.0828)">
   <path id="svg_2" fill-rule="evenodd" fill="#1d3030" d="m-0.1,-7.95q3.3,0 5.6,2.35q2.4,2.35 2.4,5.65l0,0.55l0,0.05l-0.15,0l0.15,0q-0.2,2.05 -2.4,3.55q-2.3,1.6 -5.6,1.6q-3.35,0 -5.75,-1.6q-2.1,-1.5 -2.25,-3.55l0.1,0l-0.1,0l0,-0.05l-0.05,-0.55q0,-3.3 2.3,-5.65q2.4,-2.35 5.75,-2.35"/>
   <path id="svg_3" fill-rule="evenodd" fill="#396060" d="m0.75,-4.2q0,-0.85 1.15,-0.8q0.6,-0.05 0.75,0.95q0,0.75 -0.85,0.75q-1.05,0 -1.05,-0.9m0.3,2.3q0,0.75 -1,0.8q-0.7,-0.05 -0.65,-0.7q-0.05,-0.85 0.95,-0.85q0.7,0 0.7,0.75m-6.4,1.75l-0.45,0.4l-0.35,-0.4l0.45,-0.35q0.3,0 0.35,0.35m0.4,-1.3q-1.1,-0.05 -1.1,-1.05q0,-3.65 5,-3.65q1.3,0 1.35,1.05q-0.05,1.45 -2.05,2.65q-1.75,1 -3.2,1m2.1,0.35q0.45,-0.05 0.5,0.4q0,0.4 -0.55,0.4l-0.5,-0.4q-0.05,-0.45 0.55,-0.4"/>
   <path id="svg_4" fill-rule="evenodd" fill="#cfe1e2" d="m0.85,3.7q0.2,0.4 0.85,0.4q0.65,0 0.95,-1.05q0.05,-0.9 -0.85,-0.9q-1.05,0 -1.05,1.05l0.1,0.5m-0.5,-0.5q0,-1.75 2.15,-1.75q1.2,0 1.2,1.25q0,1.9 -1.75,1.9q-1.1,-0.05 -1.45,-0.7l-0.15,-0.7m-2.6,-3q2.3,0 2.3,1.9q0,2.55 -2.75,2.55q-2.45,0 -2.45,-2q-0.05,-2.45 2.9,-2.45m1.85,2.35q0,-1.55 -1.55,-1.5q-1.75,-0.05 -1.75,1.5l0.2,0.8q0.4,0.65 1.4,0.7q1.65,-0.05 1.7,-1.5"/>
   <path id="svg_5" fill-rule="evenodd" fill="#ffffff" d="m0.85,3.7l-0.1,-0.5q0,-1.05 1.05,-1.05q0.9,0 0.85,0.9q-0.3,1.05 -0.95,1.05q-0.65,0 -0.85,-0.4m-1.25,-1.15q-0.05,1.45 -1.7,1.5q-1,-0.05 -1.4,-0.7l-0.2,-0.8q0,-1.55 1.75,-1.5q1.55,-0.05 1.55,1.5"/>
  </g>
 </g>
</svg>