<?xml version="1.0" encoding="UTF-8" standalone="no"?>
<svg xmlns:ffdec="https://www.free-decompiler.com/flash" xmlns:xlink="http://www.w3.org/1999/xlink" ffdec:objectType="shape" height="385.75px" width="388.25px" xmlns="http://www.w3.org/2000/svg">
  <g transform="matrix(5.0, 0.0, 0.0, 5.0, 225.5, 202.75)">
    <path d="M29.45 -33.9 Q28.0 -34.95 25.35 -35.35 16.8 -36.5 17.1 -34.2 L17.45 -32.5 Q18.05 -31.05 19.55 -31.05 L21.05 -31.15 Q20.5 -31.75 20.4 -32.65 20.3 -33.5 21.6 -33.7 L28.55 -33.9 29.45 -33.9 M23.05 -28.3 L19.05 -28.3 19.75 -26.15 21.3 -20.0 Q21.5 -17.95 21.0 -17.25 19.6 -15.5 13.95 -15.5 L10.3 -16.1 Q1.5 -14.65 -6.55 -15.15 L-16.9 -14.65 Q-19.85 -16.0 -19.7 -13.1 L-19.5 -4.4 Q-19.45 1.5 -15.65 2.5 -11.9 3.5 -11.8 4.1 -11.75 4.55 -12.9 4.75 L-13.4 5.3 -13.85 4.85 -15.8 4.95 Q-28.85 4.9 -31.75 3.9 -32.8 3.5 -32.7 2.95 L-32.55 2.15 -32.65 0.45 -31.85 0.3 -25.55 0.85 Q-20.65 0.85 -20.65 -1.5 -21.65 -5.7 -21.3 -9.35 -21.2 -10.25 -21.25 -14.65 L-20.9 -15.9 -20.2 -16.35 -13.2 -16.55 -4.1 -16.85 -2.8 -19.05 Q-3.8 -18.45 -4.75 -18.45 -9.55 -18.45 -9.85 -21.3 -9.9 -21.65 -8.3 -23.0 L-7.85 -23.4 -9.35 -23.25 Q-12.0 -23.25 -22.3 -26.6 -41.1 -14.1 -41.85 -14.1 -43.05 -14.1 -45.1 -16.55 -45.3 -17.9 -37.65 -22.9 -35.25 -25.8 -34.0 -29.4 -32.6 -33.35 -29.25 -34.05 L-23.6 -35.3 Q-19.05 -37.9 -18.8 -39.2 L-8.4 -39.15 Q-4.6 -40.55 0.75 -40.55 L3.35 -39.65 5.3 -38.6 Q7.3 -39.55 11.6 -39.55 16.6 -39.6 16.75 -38.25 16.85 -37.6 15.7 -37.2 L11.55 -35.8 Q15.15 -31.25 15.3 -30.35 L15.25 -30.0 14.6 -29.55 Q10.15 -32.85 8.7 -33.5 L9.7 -29.65 Q9.95 -27.55 9.3 -26.05 11.65 -24.75 11.85 -23.5 12.1 -21.1 10.0 -20.1 6.85 -18.65 4.55 -17.1 L9.75 -17.3 Q11.9 -17.35 12.55 -16.75 17.55 -16.95 19.1 -18.25 19.9 -19.0 19.55 -22.0 19.25 -24.55 16.2 -29.5 16.1 -30.2 16.7 -30.7 L15.55 -34.2 Q15.25 -36.8 19.15 -36.7 L21.4 -36.85 Q30.65 -36.85 32.55 -32.7 32.05 -31.95 31.6 -32.1 L26.5 -32.55 Q22.85 -32.6 22.7 -32.0 23.35 -30.7 25.5 -29.65 27.4 -28.75 27.55 -27.55 27.65 -26.8 27.05 -24.3 26.45 -21.8 26.8 -18.8 L27.35 -14.45 Q27.75 -11.75 24.4 -11.15 23.15 -10.95 15.65 -10.95 L8.6 -11.15 Q10.45 -5.75 11.85 9.7 L12.2 13.95 12.2 14.1 11.9 16.95 11.85 17.8 Q11.55 19.2 10.7 19.95 L11.2 20.9 11.7 22.3 11.95 23.4 12.1 23.95 12.75 28.3 12.75 28.35 12.55 29.5 14.4 29.4 Q18.35 29.4 18.15 32.65 17.9 35.3 16.6 35.7 L3.25 36.5 Q-0.45 36.45 -0.3 34.6 -0.2 32.7 1.25 31.45 0.1 30.85 0.2 29.4 0.4 26.95 1.05 23.4 L1.15 22.75 -0.55 22.9 -1.9 22.55 -2.1 23.4 -2.3 24.1 -3.75 28.45 -3.75 28.5 -4.5 29.65 -2.6 29.55 Q1.3 29.55 -0.45 32.75 -1.9 35.4 -3.4 35.85 L-17.2 36.6 Q-20.85 36.6 -19.75 34.75 -18.75 32.85 -16.75 31.6 -17.6 31.0 -16.8 29.55 L-14.85 26.35 -12.65 22.4 -14.15 20.75 -14.15 20.65 -14.5 19.9 -9.9 13.95 -9.8 13.95 Q-7.75 9.9 -7.35 5.85 -7.05 2.25 -7.05 -7.95 L-7.1 -8.2 Q-13.35 -8.95 -12.55 -2.2 -12.5 -1.5 -11.8 -0.8 -11.8 0.55 -12.05 1.9 L-12.4 3.55 Q-13.1 3.2 -14.5 2.8 -15.6 -10.35 -5.95 -10.3 L-4.6 -10.1 Q-4.45 -10.1 -4.35 -9.4 L-5.05 -8.15 Q-4.4 -2.65 -5.5 5.75 -6.1 10.4 -7.8 13.95 L-7.85 14.1 -7.9 14.1 Q-8.9 16.25 -10.6 17.5 L-13.05 19.5 -10.6 20.3 Q-6.8 21.7 -2.9 20.95 L-1.25 20.9 Q8.75 20.25 9.5 18.0 L9.6 17.8 10.15 14.1 10.15 13.95 9.4 6.4 7.5 -9.15 Q7.25 -11.0 7.75 -11.8 5.55 -12.85 11.4 -13.3 17.55 -13.8 23.55 -13.25 25.5 -13.55 25.45 -15.2 L24.9 -19.35 Q24.35 -25.85 25.25 -27.6 25.1 -27.85 23.05 -28.3 M13.65 -38.15 Q6.85 -37.5 4.1 -34.9 1.75 -31.65 -0.75 -30.1 L0.5 -29.4 Q-2.3 -27.0 -2.15 -25.55 -0.5 -22.45 -0.45 -21.95 L-0.75 -21.05 -0.75 -20.9 Q-0.65 -20.25 -1.75 -18.35 -2.25 -17.5 -2.7 -16.95 L-1.65 -16.95 -0.35 -17.05 2.45 -17.05 Q2.6 -20.1 6.5 -20.75 10.85 -21.6 10.65 -23.4 10.45 -25.1 7.65 -24.8 L7.45 -25.45 8.2 -30.4 Q8.05 -31.55 6.6 -35.15 L7.8 -35.35 Q8.85 -35.4 10.0 -34.6 L12.3 -33.0 8.95 -35.85 Q9.35 -36.7 10.95 -37.25 L13.65 -38.15 M1.25 -37.8 L0.7 -38.1 1.5 -38.5 Q1.3 -39.0 -1.45 -39.0 L-11.0 -37.7 -18.3 -37.35 Q-19.45 -35.95 -20.3 -35.45 -21.25 -34.9 -26.75 -33.2 -30.9 -32.05 -31.9 -29.9 -36.5 -20.25 -43.0 -16.55 L-42.3 -15.85 Q-36.15 -21.1 -31.0 -23.05 -29.55 -23.65 -26.45 -26.35 -23.8 -28.8 -22.4 -28.8 -19.1 -26.9 -14.3 -26.2 L-6.95 -24.9 -6.85 -25.0 -6.85 -25.3 Q-7.15 -27.6 0.4 -33.0 1.1 -33.5 3.95 -37.5 L1.25 -37.8 M4.9 -29.85 Q6.8 -29.85 7.05 -28.0 L6.65 -26.55 Q6.05 -25.45 5.45 -25.45 4.3 -25.45 3.85 -27.1 3.25 -29.85 4.9 -29.85 M2.65 23.4 L2.65 24.15 1.6 29.2 Q1.6 29.6 1.75 29.85 L2.25 30.05 2.3 30.05 Q4.6 29.25 10.8 29.2 L10.95 27.95 Q11.0 26.85 10.05 24.8 L9.5 23.4 9.15 22.3 9.15 21.6 9.2 20.9 Q7.45 21.75 4.6 22.3 L2.3 22.65 2.65 23.4 M10.7 31.15 L3.1 31.8 2.9 31.8 Q2.65 32.85 1.6 34.15 2.25 34.65 3.7 34.65 L14.75 34.25 Q16.3 34.25 16.4 32.65 16.45 31.65 15.1 31.6 L10.85 31.3 10.7 31.15 M-3.6 -25.8 L-3.55 -27.95 -3.8 -27.9 Q-4.2 -27.9 -5.4 -26.35 L-5.4 -23.55 -5.3 -23.35 Q-7.35 -22.05 -7.85 -21.25 L-7.85 -20.9 Q-6.6 -20.2 -5.9 -20.2 -3.9 -20.2 -2.15 -21.75 L-2.35 -21.95 -2.15 -22.0 -2.75 -25.1 -3.6 -25.8 M-12.7 20.35 L-12.4 20.3 -12.7 20.3 -12.7 20.35 M-11.55 23.55 Q-11.85 25.25 -13.15 26.35 L-15.3 29.35 -15.45 30.0 -15.05 30.2 Q-12.3 29.4 -6.1 29.35 L-5.35 28.1 Q-5.0 27.4 -4.8 26.35 L-4.45 22.55 -11.45 22.75 -11.55 23.4 -11.55 23.55 M-31.0 2.7 L-21.35 2.95 -19.75 2.9 Q-22.0 0.85 -25.45 1.5 L-31.1 1.85 Q-31.2 1.5 -31.1 2.2 L-31.0 2.7 M-7.15 31.3 L-15.05 31.95 -15.25 31.95 Q-16.05 33.0 -17.75 34.3 -17.3 34.8 -15.85 34.8 L-4.55 34.4 Q-3.0 34.35 -2.2 32.75 -1.65 31.8 -2.95 31.75 L-7.05 31.45 -7.15 31.3" fill="#781a10" fill-opacity="0.32156864" fill-rule="evenodd" stroke="none"/>
  </g>
</svg>
