<?xml version="1.0" encoding="UTF-8" standalone="no"?>
<svg width="250" height="134" xmlns="http://www.w3.org/2000/svg">
 <g>
  <title>Layer 1</title>
  <g id="svg_1" transform="matrix(4.9217, 0, 0, 4.87537, -5.86292, -4.75547)">
   <path id="svg_2" fill-rule="evenodd" fill="#875101" d="m50,26.2l-0.05,0l-0.05,0.05l-0.05,0.15q-2,1.8 -4.7,1.8l-37.1,0q-2.75,-0.05 -4.65,-1.9q-2,-2 -1.95,-4.7l0,-13.55q0,-2.65 1.8,-4.5l0.1,-0.1l0.1,-0.15l0.15,-0.1q1.8,-1.8 4.45,-1.8l37.1,0q2.7,0 4.7,2q1.9,1.85 1.95,4.65l0,13.55q-0.05,2.65 -1.8,4.6"/>
   <path id="svg_3" fill-rule="evenodd" fill="#a36932" d="m46.2,7.05q0.4,0.4 0.35,1l0,13.55l-0.3,1l-0.1,0.05l-1,0.35l-37.1,0q-0.6,0 -0.95,-0.35q-0.45,-0.45 -0.45,-1.05l0,-13.55q0,-0.55 0.4,-0.9l0.1,-0.1q0.35,-0.4 0.9,-0.4l37.1,0q0.6,-0.05 1.05,0.4"/>
   <path id="svg_4" fill-rule="evenodd" fill="#674321" d="m46.2,7.05q-0.45,-0.45 -1.05,-0.4l-37.1,0q-0.55,0 -0.9,0.4l-0.1,0.1q-0.4,0.35 -0.4,0.9l0,13.55q0,0.6 0.45,1.05q0.35,0.35 0.95,0.35l37.1,0l1,-0.35l0.1,-0.05l0.3,-1l0,-13.55q0.05,-0.6 -0.35,-1m1.75,1l0,13.55q0,1.15 -0.75,2l-0.05,0.05q-0.85,0.75 -2,0.75l-37.1,0q-1.2,0 -1.95,-0.75q-0.85,-0.9 -0.85,-2.05l0,-13.55q0,-1.15 0.8,-1.95l0.1,-0.05q0.75,-0.85 1.9,-0.8l37.1,0q1.15,0 2.05,0.85q0.75,0.75 0.75,1.95"/>
   <path id="svg_5" fill-rule="evenodd" fill="#e1bd6a" d="m47.95,8.05q0,-1.2 -0.75,-1.95q-0.9,-0.85 -2.05,-0.85l-37.1,0q-1.15,-0.05 -1.9,0.8l-0.1,0.05q-0.8,0.8 -0.8,1.95l0,13.55q0,1.15 0.85,2.05q0.75,0.75 1.95,0.75l37.1,0q1.15,0 2,-0.75l0.05,-0.05q0.75,-0.85 0.75,-2l0,-13.55m-2.8,-5.65q2.3,0 4,1.7q1.6,1.6 1.65,3.95l0,13.55q-0.05,2.3 -1.6,3.95l-0.05,0.1q-1.7,1.55 -4,1.55l-37.1,0q-2.35,0 -3.95,-1.6q-1.7,-1.7 -1.65,-4l0,-13.55q0,-2.35 1.65,-3.9l0.05,-0.1q1.6,-1.65 3.9,-1.65l37.1,0"/>
  </g>
 </g>
</svg>