<?xml version="1.0" encoding="UTF-8" standalone="no"?>
<svg xmlns:ffdec="https://www.free-decompiler.com/flash" xmlns:xlink="http://www.w3.org/1999/xlink" ffdec:objectType="shape" height="79.55px" width="89.55px" xmlns="http://www.w3.org/2000/svg">
  <g transform="matrix(1.0, 0.0, 0.0, 1.0, 44.75, 43.85)">
    <path d="M0.95 -28.05 L1.55 -27.1 Q-2.05 -26.35 -6.55 -24.45 -16.35 -20.3 -21.4 -10.95 -15.05 -21.7 -2.75 -23.2 L-5.85 -23.25 Q2.25 -28.15 9.65 -23.75 11.45 -22.75 12.45 -20.95 L9.85 -26.5 Q11.85 -27.85 13.65 -24.85 16.85 -19.6 16.95 -13.3 17.0 -8.3 14.3 -4.25 L13.95 -4.25 8.4 7.15 10.85 8.2 7.5 13.3 8.1 15.3 Q-10.85 22.15 -25.1 7.5 -29.35 3.2 -29.1 -2.7 -26.05 0.4 -22.1 4.8 -16.5 10.9 -8.45 13.0 L-8.55 10.85 -6.5 10.0 -10.85 10.35 Q-14.55 9.65 -17.45 7.05 -20.05 4.65 -21.6 1.2 L-23.35 0.55 Q-28.5 -7.95 -22.6 -16.8 -14.25 -29.25 0.1 -28.85 L0.95 -28.05 M11.55 -30.35 Q6.0 -32.15 0.7 -34.2 1.95 -39.15 7.4 -38.95 10.7 -39.6 13.3 -37.55 17.9 -34.0 13.65 -30.6 12.65 -29.9 11.55 -30.35 M24.35 -21.15 Q23.65 -21.85 23.65 -22.8 23.65 -23.75 24.35 -24.4 25.0 -25.1 25.95 -25.1 26.9 -25.1 27.6 -24.4 28.25 -23.75 28.25 -22.8 28.25 -21.85 27.6 -21.15 26.9 -20.5 25.95 -20.5 25.0 -20.5 24.35 -21.15 M37.85 -2.95 Q38.3 -3.7 38.9 -3.7 39.5 -3.7 39.95 -2.95 40.4 -2.2 40.4 -1.15 40.4 -0.1 39.95 0.65 39.5 1.4 38.9 1.4 38.3 1.4 37.85 0.65 37.4 -0.1 37.4 -1.15 37.4 -2.2 37.85 -2.95 M26.45 6.15 L24.1 11.55 18.0 14.6 14.35 11.95 22.0 -9.1 Q27.8 -6.05 27.55 0.85 27.45 3.45 26.45 6.15 M12.75 20.75 Q12.8 26.05 6.45 25.85 L4.75 25.7 4.2 23.75 Q7.2 19.25 12.0 20.55 L12.75 20.75 M-9.9 -31.8 Q-17.75 -27.9 -24.0 -21.9 L-26.0 -20.35 Q-27.85 -23.75 -24.15 -26.9 -17.9 -32.35 -9.9 -34.75 -6.4 -33.5 -9.9 -31.8 M-25.35 -17.85 L-22.3 -22.65 Q-21.15 -24.3 -19.9 -23.9 L-23.8 -15.65 -25.25 -13.35 Q-26.85 -15.1 -25.35 -17.85 M-29.5 -15.0 Q-30.55 -7.85 -34.7 -1.8 -35.1 -1.2 -35.75 -0.95 L-39.5 -9.55 Q-38.45 -13.3 -36.0 -16.3 -34.45 -18.15 -32.25 -18.5 L-30.3 -16.75 -29.5 -15.0 M-32.8 -15.15 L-33.65 -15.15 -33.25 -14.35 -32.8 -15.15 M-32.25 4.75 Q-31.95 4.45 -31.55 4.45 -31.15 4.45 -30.85 4.75 -30.55 5.05 -30.55 5.5 -30.55 5.95 -30.85 6.25 L-31.55 6.55 -32.25 6.25 -32.55 5.5 -32.25 4.75 M-25.3 21.25 Q-20.0 17.7 -14.9 23.35 -13.4 25.05 -12.8 27.35 -14.55 32.95 -20.4 29.95 -24.6 27.9 -25.55 23.4 L-25.3 21.25" fill="#ffcc00" fill-rule="evenodd" stroke="none"/>
    <path d="M22.35 -29.05 Q27.2 -27.9 30.25 -24.0 L30.8 -23.2 29.8 -18.95 30.65 -12.05 Q41.65 -11.35 44.65 -1.15 45.0 0.0 44.55 1.05 39.95 11.65 28.3 11.55 33.95 17.35 29.8 24.6 22.6 37.3 8.05 35.5 3.85 35.2 1.2 31.9 -0.65 29.55 -1.3 26.65 -6.65 37.6 -18.3 33.7 -23.5 31.95 -26.9 27.4 -32.1 20.55 -26.05 14.95 -36.4 16.0 -36.95 6.5 -37.0 5.4 -36.5 4.35 L-35.75 3.1 Q-42.3 2.3 -44.2 -5.05 -45.6 -10.35 -43.55 -15.6 -41.95 -19.6 -37.75 -21.15 -33.5 -22.75 -28.9 -22.4 -23.9 -36.35 -9.35 -36.05 L-6.15 -35.4 Q-2.25 -45.4 9.2 -43.55 16.2 -42.4 20.35 -36.5 L22.35 -29.05 M-25.3 21.25 L-25.55 23.4 Q-24.6 27.9 -20.4 29.95 -14.55 32.95 -12.8 27.35 -13.4 25.05 -14.9 23.35 -20.0 17.7 -25.3 21.25 M-32.25 4.75 L-32.55 5.5 -32.25 6.25 -31.55 6.55 -30.85 6.25 Q-30.55 5.95 -30.55 5.5 -30.55 5.05 -30.85 4.75 -31.15 4.45 -31.55 4.45 -31.95 4.45 -32.25 4.75 M-32.8 -15.15 L-33.25 -14.35 -33.65 -15.15 -32.8 -15.15 M-29.5 -15.0 L-30.3 -16.75 -32.25 -18.5 Q-34.45 -18.15 -36.0 -16.3 -38.45 -13.3 -39.5 -9.55 L-35.75 -0.95 Q-35.1 -1.2 -34.7 -1.8 -30.55 -7.85 -29.5 -15.0 M-25.35 -17.85 Q-26.85 -15.1 -25.25 -13.35 L-23.8 -15.65 -19.9 -23.9 Q-21.15 -24.3 -22.3 -22.65 L-25.35 -17.85 M-9.9 -31.8 Q-6.4 -33.5 -9.9 -34.75 -17.9 -32.35 -24.15 -26.9 -27.85 -23.75 -26.0 -20.35 L-24.0 -21.9 Q-17.75 -27.9 -9.9 -31.8 M12.75 20.75 L12.0 20.55 Q7.2 19.25 4.2 23.75 L4.75 25.7 6.45 25.85 Q12.8 26.05 12.75 20.75 M26.45 6.15 Q27.45 3.45 27.55 0.85 27.8 -6.05 22.0 -9.1 L14.35 11.95 18.0 14.6 24.1 11.55 26.45 6.15 M37.85 -2.95 Q37.4 -2.2 37.4 -1.15 37.4 -0.1 37.85 0.65 38.3 1.4 38.9 1.4 39.5 1.4 39.95 0.65 40.4 -0.1 40.4 -1.15 40.4 -2.2 39.95 -2.95 39.5 -3.7 38.9 -3.7 38.3 -3.7 37.85 -2.95 M24.35 -21.15 Q25.0 -20.5 25.95 -20.5 26.9 -20.5 27.6 -21.15 28.25 -21.85 28.25 -22.8 28.25 -23.75 27.6 -24.4 26.9 -25.1 25.95 -25.1 25.0 -25.1 24.35 -24.4 23.65 -23.75 23.65 -22.8 23.65 -21.85 24.35 -21.15 M11.55 -30.35 Q12.65 -29.9 13.65 -30.6 17.9 -34.0 13.3 -37.55 10.7 -39.6 7.4 -38.95 1.95 -39.15 0.7 -34.2 6.0 -32.15 11.55 -30.35 M0.95 -28.05 L0.1 -28.85 Q-14.25 -29.25 -22.6 -16.8 -28.5 -7.95 -23.35 0.55 L-21.6 1.2 Q-20.05 4.65 -17.45 7.05 -14.55 9.65 -10.85 10.35 L-6.5 10.0 -8.55 10.85 -8.45 13.0 Q-16.5 10.9 -22.1 4.8 -26.05 0.4 -29.1 -2.7 -29.35 3.2 -25.1 7.5 -10.85 22.15 8.1 15.3 L7.5 13.3 10.85 8.2 8.4 7.15 13.95 -4.25 14.3 -4.25 Q17.0 -8.3 16.95 -13.3 16.85 -19.6 13.65 -24.85 11.85 -27.85 9.85 -26.5 L12.45 -20.95 Q11.45 -22.75 9.65 -23.75 2.25 -28.15 -5.85 -23.25 L-2.75 -23.2 Q-15.05 -21.7 -21.4 -10.95 -16.35 -20.3 -6.55 -24.45 -2.05 -26.35 1.55 -27.1 L0.95 -28.05" fill="#ff9900" fill-rule="evenodd" stroke="none"/>
  </g>
</svg>
