<?xml version="1.0" encoding="UTF-8" standalone="no"?>
<svg xmlns:ffdec="https://www.free-decompiler.com/flash" xmlns:xlink="http://www.w3.org/1999/xlink" ffdec:objectType="shape" height="97.5px" width="103.95px" xmlns="http://www.w3.org/2000/svg">
  <g transform="matrix(1.0, 0.0, 0.0, 1.0, 55.85, 49.1)">
    <path d="M17.9 -33.55 Q32.35 -36.65 40.35 -24.3 43.4 -19.7 41.9 -14.3 40.7 -10.05 36.6 -8.55 49.45 -6.0 47.95 7.25 47.3 12.7 43.35 16.7 36.6 23.4 27.0 22.6 31.9 30.75 25.1 38.15 17.75 46.0 6.95 48.1 2.45 49.0 -1.65 47.2 -5.45 45.45 -7.85 42.1 -9.95 39.2 -11.1 35.6 -14.0 43.1 -21.3 45.7 L-25.0 46.0 Q-33.05 45.1 -38.2 38.65 -42.9 32.8 -43.85 25.45 -44.6 19.75 -39.75 16.4 -53.35 11.45 -55.55 -3.1 -57.45 -16.0 -47.6 -23.7 L-44.2 -25.85 Q-40.0 -39.15 -26.05 -39.0 -20.4 -38.4 -16.8 -34.2 -14.5 -47.7 -0.3 -49.05 8.5 -49.6 14.15 -42.65 17.3 -38.7 17.9 -33.55 M-16.45 -7.8 Q-16.05 -11.7 -18.25 -14.8 L-19.65 -15.9 Q-25.1 -18.55 -29.9 -14.3 -37.7 -7.3 -33.05 1.8 -32.55 2.85 -31.35 3.3 -22.75 6.8 -17.8 -1.1 -18.05 7.75 -10.55 12.6 -1.55 18.55 6.55 12.05 10.2 19.05 17.9 17.25 24.05 15.7 24.2 9.5 24.5 -0.65 14.6 -0.6 L15.0 -1.55 18.35 -1.4 Q27.85 -1.3 32.05 -9.2 33.85 -12.55 31.85 -15.8 25.95 -25.4 15.1 -21.8 15.85 -25.35 14.55 -29.0 11.55 -37.55 3.15 -36.1 1.5 -35.85 0.15 -34.9 -11.0 -27.6 -5.7 -15.9 L-5.65 -15.75 -5.7 -15.7 -7.45 -15.25 Q-13.55 -13.4 -16.4 -7.6 L-16.45 -7.8 M-23.5 -24.95 Q-22.7 -25.8 -22.7 -27.0 -22.7 -28.2 -23.5 -29.0 -24.35 -29.85 -25.5 -29.85 -26.65 -29.85 -27.45 -29.0 -28.3 -28.2 -28.3 -27.0 -28.3 -25.8 -27.45 -24.95 -26.65 -24.15 -25.5 -24.15 -24.35 -24.15 -23.5 -24.95 M-45.15 -9.25 L-44.85 -4.3 Q-44.4 1.25 -39.6 1.9 -37.9 1.05 -37.25 -0.8 L-35.75 -5.2 Q-33.55 -11.8 -37.1 -17.05 L-37.85 -17.4 Q-44.25 -16.5 -45.15 -9.25 M7.0 27.55 L6.05 28.15 3.35 28.2 7.0 27.55 M14.2 27.95 Q13.85 26.55 13.1 25.5 7.9 18.35 0.55 24.15 0.25 25.5 -0.4 26.6 -1.15 27.95 -1.6 29.65 -2.8 34.1 2.4 34.75 11.2 36.25 14.2 27.95 M-13.2 -17.95 L-10.1 -19.55 -14.5 -23.95 -13.2 -17.95 M-18.75 21.6 Q-23.65 17.9 -30.25 22.45 L-31.45 24.45 Q-31.9 25.35 -31.7 26.3 -30.05 33.9 -21.9 34.3 -14.6 34.6 -15.3 26.9 -15.45 25.35 -16.3 24.15 L-17.8 22.45 -18.05 22.15 Q-18.4 21.8 -18.75 21.6 M-8.3 19.45 L-21.9 11.55 -24.05 14.1 -21.8 14.3 -19.65 14.6 Q-13.35 15.95 -9.25 20.95 L-8.3 19.45" fill="#ec6002" fill-rule="evenodd" stroke="none"/>
    <path d="M-5.7 -15.9 Q-11.0 -27.6 0.15 -34.9 1.5 -35.85 3.15 -36.1 11.55 -37.55 14.55 -29.0 15.85 -25.35 15.1 -21.8 25.95 -25.4 31.85 -15.8 33.85 -12.55 32.05 -9.2 27.85 -1.3 18.35 -1.4 L15.0 -1.55 14.6 -0.6 Q24.5 -0.65 24.2 9.5 24.05 15.7 17.9 17.25 10.2 19.05 6.55 12.05 -1.55 18.55 -10.55 12.6 -18.05 7.75 -17.8 -1.1 -22.75 6.8 -31.35 3.3 -32.55 2.85 -33.05 1.8 -37.7 -7.3 -29.9 -14.3 -25.1 -18.55 -19.65 -15.9 L-18.25 -14.8 Q-16.05 -11.7 -16.45 -7.8 L-18.6 -10.35 Q-25.45 -10.35 -26.6 -3.85 -25.95 -2.05 -24.15 -1.7 -17.3 -0.3 -16.4 -7.6 -13.55 -13.4 -7.45 -15.25 L-5.7 -15.7 -3.65 -9.55 Q-12.75 -9.0 -12.25 0.25 -12.2 1.4 -11.55 2.35 -6.75 9.6 0.75 5.05 6.9 8.55 13.35 5.55 14.05 3.65 13.45 1.95 12.45 -0.85 9.65 -1.55 L4.9 -0.45 3.65 -7.25 5.5 -9.15 Q6.65 -10.55 7.4 -12.25 9.7 -17.6 6.1 -21.45 5.4 -22.2 4.45 -22.4 -3.8 -24.6 -5.7 -15.9 M7.3 -4.95 L7.95 -4.9 Q11.85 -5.65 13.45 -9.3 L12.35 -11.7 11.85 -11.95 Q6.35 -12.75 5.45 -7.35 L7.3 -4.95 M14.2 27.95 Q11.2 36.25 2.4 34.75 -2.8 34.1 -1.6 29.65 -1.15 27.95 -0.4 26.6 0.25 25.5 0.55 24.15 7.9 18.35 13.1 25.5 13.85 26.55 14.2 27.95 M7.0 27.55 L3.35 28.2 6.05 28.15 7.0 27.55 M-45.15 -9.25 Q-44.25 -16.5 -37.85 -17.4 L-37.1 -17.05 Q-33.55 -11.8 -35.75 -5.2 L-37.25 -0.8 Q-37.9 1.05 -39.6 1.9 -44.4 1.25 -44.85 -4.3 L-45.15 -9.25 M-23.5 -24.95 Q-24.35 -24.15 -25.5 -24.15 -26.65 -24.15 -27.45 -24.95 -28.3 -25.8 -28.3 -27.0 -28.3 -28.2 -27.45 -29.0 -26.65 -29.85 -25.5 -29.85 -24.35 -29.85 -23.5 -29.0 -22.7 -28.2 -22.7 -27.0 -22.7 -25.8 -23.5 -24.95 M-18.75 21.6 Q-19.4 21.25 -20.1 21.25 -21.3 21.25 -22.15 22.15 -23.0 23.0 -23.0 24.2 -23.0 25.4 -22.15 26.3 -21.3 27.15 -20.1 27.15 -18.9 27.15 -18.05 26.3 -17.2 25.4 -17.2 24.2 -17.2 23.2 -17.8 22.45 L-16.3 24.15 Q-15.45 25.35 -15.3 26.9 -14.6 34.6 -21.9 34.3 -30.05 33.9 -31.7 26.3 -31.9 25.35 -31.45 24.45 L-30.25 22.45 Q-23.65 17.9 -18.75 21.6" fill="#ff9900" fill-rule="evenodd" stroke="none"/>
    <path d="M-16.45 -7.8 L-16.4 -7.6 Q-17.3 -0.3 -24.15 -1.7 -25.95 -2.05 -26.6 -3.85 -25.45 -10.35 -18.6 -10.35 L-16.45 -7.8 M-5.7 -15.7 L-5.65 -15.75 -5.7 -15.9 Q-3.8 -24.6 4.45 -22.4 5.4 -22.2 6.1 -21.45 9.7 -17.6 7.4 -12.25 6.65 -10.55 5.5 -9.15 L3.65 -7.25 4.9 -0.45 9.65 -1.55 Q12.45 -0.85 13.45 1.95 14.05 3.65 13.35 5.55 6.9 8.55 0.75 5.05 -6.75 9.6 -11.55 2.35 -12.2 1.4 -12.25 0.25 -12.75 -9.0 -3.65 -9.55 L-5.7 -15.7 M7.3 -4.95 L5.45 -7.35 Q6.35 -12.75 11.85 -11.95 L12.35 -11.7 13.45 -9.3 Q11.85 -5.65 7.95 -4.9 L7.3 -4.95 M-17.8 22.45 Q-17.2 23.2 -17.2 24.2 -17.2 25.4 -18.05 26.3 -18.9 27.15 -20.1 27.15 -21.3 27.15 -22.15 26.3 -23.0 25.4 -23.0 24.2 -23.0 23.0 -22.15 22.15 -21.3 21.25 -20.1 21.25 -19.4 21.25 -18.75 21.6 -18.4 21.8 -18.05 22.15 L-17.8 22.45" fill="#ffcc00" fill-rule="evenodd" stroke="none"/>
  </g>
</svg>
