<?xml version="1.0" encoding="UTF-8" standalone="no"?>
<svg xmlns:ffdec="https://www.free-decompiler.com/flash" xmlns:xlink="http://www.w3.org/1999/xlink" ffdec:objectType="shape" height="137.95px" width="136.9px" xmlns="http://www.w3.org/2000/svg">
  <g transform="matrix(1.0, 0.0, 0.0, 1.0, 74.75, 76.05)">
    <path d="M22.35 -71.7 Q33.25 -63.45 30.75 -49.4 29.1 -40.2 22.75 -33.25 L28.1 -29.25 Q31.45 -31.55 35.9 -33.75 40.55 -36.1 45.6 -34.7 50.9 -33.05 53.4 -27.95 56.5 -21.55 55.45 -14.5 54.0 -4.65 44.25 -3.55 39.0 -3.2 34.15 -5.6 L28.5 -0.15 Q30.65 11.95 22.05 19.5 20.1 21.15 17.8 21.8 2.3 25.8 -11.4 18.5 L-13.4 17.05 Q-21.25 9.55 -18.45 -0.45 L-16.3 -7.0 -14.45 -11.55 Q-23.95 -10.35 -25.95 -18.85 -26.55 -21.45 -25.4 -23.8 -22.6 -29.45 -16.4 -31.35 -28.45 -41.75 -24.55 -56.55 -23.4 -61.0 -20.45 -64.3 -10.3 -75.8 5.15 -76.05 14.4 -76.2 22.35 -71.7 M16.45 -39.2 Q19.5 -43.05 19.15 -47.9 18.25 -61.45 5.0 -63.25 1.4 -63.45 -2.0 -62.45 -15.25 -58.6 -15.7 -45.2 -16.1 -34.25 -6.15 -31.4 L-6.9 -30.2 Q-7.45 -29.15 -7.45 -28.0 -7.65 -18.65 1.0 -16.0 -5.85 -14.5 -9.85 -8.8 -11.2 -6.9 -11.45 -4.8 -12.35 3.1 -5.5 8.8 4.15 16.95 16.2 13.05 18.3 12.4 19.3 10.45 23.7 1.75 17.75 -6.65 19.95 -7.45 21.65 -8.9 27.25 -13.8 24.0 -20.1 22.55 -22.95 19.4 -22.9 11.95 -22.8 6.95 -16.45 L3.2 -16.35 Q6.15 -17.5 7.4 -20.35 10.45 -27.45 3.85 -32.0 11.55 -33.15 16.45 -39.2 M31.0 -16.4 Q31.0 -14.5 32.75 -13.15 34.45 -11.85 36.9 -11.85 39.35 -11.85 41.1 -13.15 42.8 -14.5 42.8 -16.4 42.8 -18.3 41.1 -19.6 39.35 -20.95 36.9 -20.95 34.45 -20.95 32.75 -19.6 31.0 -18.3 31.0 -16.4 M59.15 5.45 Q60.95 7.55 61.5 10.3 63.95 23.0 57.25 34.6 54.95 38.6 51.45 41.35 45.0 46.45 37.9 41.3 35.65 39.75 34.1 37.4 38.6 47.95 31.45 56.3 25.65 63.15 16.7 61.6 6.5 59.95 3.95 49.45 3.2 46.35 3.05 43.1 9.6 30.55 22.9 27.3 26.9 26.35 29.7 29.3 L31.25 31.1 Q28.8 19.4 37.55 9.85 41.25 5.85 46.1 3.45 53.85 -0.45 59.15 5.45 M-43.45 -33.05 Q-53.5 -37.15 -60.55 -28.25 -69.3 -19.55 -59.85 -11.3 -55.0 -7.0 -48.85 -8.7 -45.4 -9.65 -42.8 -12.15 -35.05 -19.75 -39.6 -29.45 -40.8 -32.0 -43.45 -33.05 M11.05 36.85 Q2.2 39.75 4.75 48.6 6.45 51.7 9.95 51.95 16.3 52.25 22.05 49.3 28.5 45.9 28.15 39.15 28.05 37.25 26.05 36.65 18.6 34.5 11.05 36.85 M49.1 17.35 Q45.95 17.35 43.7 19.45 41.45 21.5 41.45 24.45 41.45 27.4 43.7 29.5 45.95 31.55 49.1 31.55 52.25 31.55 54.5 29.5 56.75 27.4 56.75 24.45 56.75 21.5 54.5 19.45 52.25 17.35 49.1 17.35 M-64.55 -43.45 Q-52.05 -50.3 -39.95 -44.05 -37.85 -42.95 -36.5 -40.95 -27.35 -27.7 -33.05 -12.55 -36.85 -2.4 -47.75 -0.8 -61.35 1.1 -69.0 -10.3 -79.7 -23.6 -70.5 -37.9 -68.25 -41.4 -64.55 -43.45 M-25.35 -9.65 Q-24.1 -9.25 -23.5 -7.95 -20.7 -1.8 -27.35 1.8 -32.25 4.4 -36.9 1.75 L-38.0 -2.0 Q-34.5 -11.8 -25.35 -9.65 M-33.9 17.25 Q-37.15 17.25 -39.45 19.6 -41.8 21.9 -41.8 25.15 -41.8 28.4 -39.45 30.75 -37.15 33.05 -33.9 33.05 -30.65 33.05 -28.3 30.75 -26.0 28.4 -26.0 25.15 -26.0 21.9 -28.3 19.6 -30.65 17.25 -33.9 17.25 M-7.05 42.1 Q-4.95 44.3 -5.75 47.1 -7.6 53.75 -14.05 54.25 -18.35 54.85 -19.95 50.85 -21.65 46.45 -18.3 42.75 -13.1 35.95 -7.05 42.1 M-20.25 22.1 Q-18.85 28.45 -21.55 34.5 -28.95 51.1 -47.0 50.9 -61.65 50.75 -68.25 38.0 -69.3 35.95 -69.0 33.7 -66.45 15.25 -48.8 9.85 -42.65 7.85 -36.0 8.0 -23.15 9.15 -20.25 22.1" fill="#6d2c01" fill-rule="evenodd" stroke="none"/>
    <path d="M16.45 -39.2 Q11.55 -33.15 3.85 -32.0 10.45 -27.45 7.4 -20.35 6.15 -17.5 3.2 -16.35 L6.95 -16.45 Q11.95 -22.8 19.4 -22.9 22.55 -22.95 24.0 -20.1 27.25 -13.8 21.65 -8.9 19.95 -7.45 17.75 -6.65 23.7 1.75 19.3 10.45 18.3 12.4 16.2 13.05 4.15 16.95 -5.5 8.8 -12.35 3.1 -11.45 -4.8 -11.2 -6.9 -9.85 -8.8 -5.85 -14.5 1.0 -16.0 -7.65 -18.65 -7.45 -28.0 -7.45 -29.15 -6.9 -30.2 L-6.15 -31.4 Q-16.1 -34.25 -15.7 -45.2 -15.25 -58.6 -2.0 -62.45 1.4 -63.45 5.0 -63.25 18.25 -61.45 19.15 -47.9 19.5 -43.05 16.45 -39.2 M7.8 -1.75 Q10.0 -3.5 10.0 -6.0 10.0 -8.5 7.8 -10.25 5.6 -12.0 2.5 -12.0 -0.6 -12.0 -2.8 -10.25 -5.0 -8.5 -5.0 -6.0 -5.0 -3.5 -2.8 -1.75 -0.6 0.0 2.5 0.0 5.6 0.0 7.8 -1.75 M31.0 -16.4 Q31.0 -18.3 32.75 -19.6 34.45 -20.95 36.9 -20.95 39.35 -20.95 41.1 -19.6 42.8 -18.3 42.8 -16.4 42.8 -14.5 41.1 -13.15 39.35 -11.85 36.9 -11.85 34.45 -11.85 32.75 -13.15 31.0 -14.5 31.0 -16.4 M49.1 17.35 Q52.25 17.35 54.5 19.45 56.75 21.5 56.75 24.45 56.75 27.4 54.5 29.5 52.25 31.55 49.1 31.55 45.95 31.55 43.7 29.5 41.45 27.4 41.45 24.45 41.45 21.5 43.7 19.45 45.95 17.35 49.1 17.35 M11.05 36.85 Q18.6 34.5 26.05 36.65 28.05 37.25 28.15 39.15 28.5 45.9 22.05 49.3 16.3 52.25 9.95 51.95 6.45 51.7 4.75 48.6 2.2 39.75 11.05 36.85 M-43.45 -33.05 Q-40.8 -32.0 -39.6 -29.45 -35.05 -19.75 -42.8 -12.15 -45.4 -9.65 -48.85 -8.7 -55.0 -7.0 -59.85 -11.3 -69.3 -19.55 -60.55 -28.25 -53.5 -37.15 -43.45 -33.05 M-33.9 17.25 Q-30.65 17.25 -28.3 19.6 -26.0 21.9 -26.0 25.15 -26.0 28.4 -28.3 30.75 -30.65 33.05 -33.9 33.05 -37.15 33.05 -39.45 30.75 -41.8 28.4 -41.8 25.15 -41.8 21.9 -39.45 19.6 -37.15 17.25 -33.9 17.25" fill="#983d01" fill-rule="evenodd" stroke="none"/>
    <path d="M7.8 -1.75 Q5.6 0.0 2.5 0.0 -0.6 0.0 -2.8 -1.75 -5.0 -3.5 -5.0 -6.0 -5.0 -8.5 -2.8 -10.25 -0.6 -12.0 2.5 -12.0 5.6 -12.0 7.8 -10.25 10.0 -8.5 10.0 -6.0 10.0 -3.5 7.8 -1.75" fill="#ec6002" fill-rule="evenodd" stroke="none"/>
  </g>
</svg>
