<?xml version="1.0" encoding="UTF-8" standalone="no"?>
<svg xmlns:ffdec="https://www.free-decompiler.com/flash" xmlns:xlink="http://www.w3.org/1999/xlink" ffdec:objectType="shape" height="129.6px" width="137.6px" xmlns="http://www.w3.org/2000/svg">
  <g transform="matrix(1.0, 0.0, 0.0, 1.0, 71.1, 70.25)">
    <path d="M19.3 -58.0 Q20.85 -48.75 13.6 -42.7 7.4 -37.45 -0.9 -38.05 -4.4 -38.65 -8.0 -39.8 -17.95 -43.05 -16.2 -53.7 -15.4 -58.5 -11.9 -62.2 -5.0 -69.55 5.0 -70.25 17.25 -69.9 19.3 -58.0 M16.05 -6.9 Q15.7 5.95 4.2 10.95 L1.0 11.75 Q-10.8 10.8 -10.25 -1.3 -9.9 -8.45 -3.85 -12.2 1.95 -15.9 9.0 -15.75 16.25 -14.8 16.05 -6.9 M62.9 -15.6 Q59.3 -12.25 54.25 -12.25 49.2 -12.25 45.6 -15.6 42.0 -19.0 42.0 -23.75 42.0 -28.5 45.6 -31.85 49.2 -35.25 54.25 -35.25 59.3 -35.25 62.9 -31.85 66.5 -28.5 66.5 -23.75 66.5 -19.0 62.9 -15.6 M37.5 41.0 Q37.05 45.75 33.95 49.15 26.25 57.75 17.35 50.85 15.15 49.15 15.9 46.4 17.0 42.4 19.6 39.1 23.9 33.7 30.0 31.25 38.35 32.35 37.5 41.0 M-44.55 -28.0 Q-43.15 -17.85 -51.9 -11.55 -59.05 -6.3 -65.05 -12.4 -67.15 -14.5 -68.7 -17.1 -73.3 -24.65 -69.05 -31.5 -64.55 -38.9 -56.0 -39.5 -45.95 -38.4 -44.55 -28.0 M-14.3 -28.7 Q-12.75 -27.15 -12.75 -25.0 -12.75 -22.85 -14.3 -21.3 -15.85 -19.75 -18.0 -19.75 -20.15 -19.75 -21.7 -21.3 -23.25 -22.85 -23.25 -25.0 -23.25 -27.15 -21.7 -28.7 -20.15 -30.25 -18.0 -30.25 -15.85 -30.25 -14.3 -28.7 M-24.7 -6.7 Q-25.65 -5.75 -27.0 -5.75 -28.35 -5.75 -29.3 -6.7 -30.25 -7.65 -30.25 -9.0 -30.25 -10.35 -29.3 -11.3 -28.35 -12.25 -27.0 -12.25 -25.65 -12.25 -24.7 -11.3 -23.75 -10.35 -23.75 -9.0 -23.75 -7.65 -24.7 -6.7 M-38.25 44.4 L-41.0 45.25 Q-55.1 45.8 -59.65 33.05 -63.25 22.85 -56.45 15.55 -55.05 14.1 -53.2 13.45 -42.8 9.6 -35.75 17.7 -31.15 22.85 -28.0 29.0 -28.9 39.85 -38.25 44.4 M-1.75 48.05 Q-0.8 49.4 -0.75 51.1 -2.85 60.95 -12.1 59.05 L-12.9 58.75 Q-15.5 51.65 -8.45 47.05 -4.4 44.35 -1.75 48.05" fill="#090300" fill-rule="evenodd" stroke="none"/>
  </g>
</svg>
