<?xml version="1.0" encoding="UTF-8" standalone="no"?>
<svg xmlns:ffdec="https://www.free-decompiler.com/flash" xmlns:xlink="http://www.w3.org/1999/xlink" ffdec:objectType="shape" height="81.7px" width="16.35px" xmlns="http://www.w3.org/2000/svg">
  <g transform="matrix(1.0, 0.0, 0.0, 1.0, 6.5, 74.3)">
    <path d="M6.4 -62.5 Q4.2 -60.5 1.05 -60.5 -2.1 -60.5 -4.3 -62.5 -6.5 -64.55 -6.5 -67.4 -6.5 -70.25 -4.3 -72.25 -2.1 -74.3 1.05 -74.3 4.2 -74.3 6.4 -72.25 8.6 -70.25 8.6 -67.4 8.6 -64.55 6.4 -62.5 M7.95 -3.5 Q9.85 -1.65 9.85 1.0 9.85 3.65 7.95 5.55 6.05 7.4 3.4 7.4 0.75 7.4 -1.15 5.55 -3.05 3.65 -3.05 1.0 -3.05 -1.65 -1.15 -3.5 0.75 -5.4 3.4 -5.4 6.05 -5.4 7.95 -3.5" fill="#090300" fill-rule="evenodd" stroke="none"/>
  </g>
</svg>
