<?xml version="1.0" encoding="UTF-8" standalone="no"?>
<svg xmlns:ffdec="https://www.free-decompiler.com/flash" xmlns:xlink="http://www.w3.org/1999/xlink" ffdec:objectType="shape" height="505.0px" width="505.0px" viewBox="0 0 101 101" xmlns="http://www.w3.org/2000/svg">
  <g transform="matrix(1.0, 0.0, 0.0, 1.0, 50.5, 50.5)">
    <path d="M35.0 -35.0 Q20.5 -49.5 0.0 -49.5 -20.5 -49.5 -35.0 -35.0 -49.5 -20.5 -49.5 0.0 -49.5 20.5 -35.0 35.0 -20.5 49.5 0.0 49.5 20.5 49.5 35.0 35.0 49.5 20.5 49.5 0.0 49.5 -20.5 35.0 -35.0 M0.0 -50.5 Q20.9 -50.5 35.7 -35.7 50.5 -20.9 50.5 0.0 50.5 20.9 35.7 35.7 20.9 50.5 0.0 50.5 -20.9 50.5 -35.7 35.7 -50.5 20.9 -50.5 0.0 -50.5 -20.9 -35.7 -35.7 -20.9 -50.5 0.0 -50.5 M21.1 23.25 Q21.05 23.65 21.3 23.95 L27.75 31.65 28.2 31.95 28.75 31.95 29.2 31.7 Q33.1 28.05 36.15 23.35 L36.3 22.8 36.15 22.3 35.8 21.9 27.1 16.9 26.4 16.8 Q26.0 16.9 25.75 17.25 23.8 20.2 21.4 22.6 21.1 22.85 21.1 23.25 M25.95 15.05 L38.05 22.05 Q34.0 29.05 28.3 33.85 L19.3 23.15 Q23.15 19.85 25.95 15.05" fill="#8b5608" fill-rule="evenodd" stroke="none"/>
    <path d="M35.0 -35.0 Q49.5 -20.5 49.5 0.0 49.5 20.5 35.0 35.0 20.5 49.5 0.0 49.5 -20.5 49.5 -35.0 35.0 -49.5 20.5 -49.5 0.0 -49.5 -20.5 -35.0 -35.0 -20.5 -49.5 0.0 -49.5 20.5 -49.5 35.0 -35.0 M25.95 15.05 Q23.15 19.85 19.3 23.15 L28.3 33.85 Q34.0 29.05 38.05 22.05 L25.95 15.05" fill="#cfad7c" fill-rule="evenodd" stroke="none"/>
    <path d="M21.1 23.25 Q21.1 22.85 21.4 22.6 23.8 20.2 25.75 17.25 26.0 16.9 26.4 16.8 L27.1 16.9 35.8 21.9 36.15 22.3 36.3 22.8 36.15 23.35 Q33.1 28.05 29.2 31.7 L28.75 31.95 28.2 31.95 27.75 31.65 21.3 23.95 Q21.05 23.65 21.1 23.25" fill="#bd9353" fill-rule="evenodd" stroke="none"/>
    <path d="M13.6 -13.65 Q19.3 -7.95 19.3 0.0 19.3 7.95 13.6 13.6 11.45 15.75 9.0 17.15 4.95 19.3 0.0 19.3 -7.95 19.3 -13.65 13.6 -19.3 7.95 -19.3 0.0 -19.3 -5.05 -17.0 -9.2 -15.7 -11.6 -13.65 -13.65 -7.95 -19.3 0.0 -19.3 7.95 -19.3 13.6 -13.65" fill="#b5d0d2" fill-rule="evenodd" stroke="none"/>
    <path d="M14.1 -14.15 Q20.0 -8.25 20.0 0.0 L-20.0 0.0 Q-20.0 -8.25 -14.15 -14.15 -8.25 -20.0 0.0 -20.0 8.25 -20.0 14.1 -14.15" fill="#b5d0d2" fill-opacity="0.8" fill-rule="evenodd" stroke="none"/>
    <path d="M-24.95 -22.6 L-24.95 -22.65 -24.95 -22.6" fill="#996600" fill-rule="evenodd" stroke="none"/>
    <path d="M27.35 -16.6 Q34.3 -5.25 31.15 7.65 27.95 20.45 16.6 27.35 12.3 30.0 7.75 31.25 0.3 33.1 -7.55 31.15 -20.45 27.95 -27.35 16.6 -34.25 5.25 -31.15 -7.55 -29.15 -15.8 -23.75 -21.55 L-23.75 -21.6 Q-20.75 -24.95 -16.6 -27.4 -5.25 -34.35 7.65 -31.15 20.45 -27.95 27.35 -16.6" fill="#a36932" fill-rule="evenodd" stroke="none"/>
    <path d="M27.35 -16.6 Q20.45 -27.95 7.65 -31.15 -5.25 -34.35 -16.6 -27.4 -20.75 -24.95 -23.75 -21.6 L-23.75 -21.55 Q-29.15 -15.8 -31.15 -7.55 -34.25 5.25 -27.35 16.6 -20.45 27.95 -7.55 31.15 0.3 33.1 7.75 31.25 12.3 30.0 16.6 27.35 27.95 20.45 31.15 7.65 34.3 -5.25 27.35 -16.6 M-24.95 -22.6 Q-21.75 -26.1 -17.35 -28.75 -5.45 -35.95 8.05 -32.6 21.45 -29.3 28.7 -17.35 35.95 -5.45 32.65 8.05 29.3 21.45 17.4 28.7 12.85 31.45 8.1 32.7 0.3 34.7 -7.95 32.65 -21.45 29.3 -28.65 17.4 -35.9 5.45 -32.6 -7.95 -30.6 -16.6 -24.95 -22.6" fill="#653d01" fill-rule="evenodd" stroke="none"/>
    <path d="M0.1 -0.65 L16.95 -28.05 Q17.05 -28.25 17.25 -28.25 L17.6 -28.2 17.85 -27.9 17.8 -27.55 0.95 -0.15 0.65 0.1 0.4 0.1 16.45 27.95 16.5 28.35 16.25 28.65 15.9 28.7 15.6 28.45 -0.3 0.8 -32.25 -0.05 Q-32.5 -0.05 -32.6 -0.2 L-32.75 -0.55 -32.6 -0.9 -32.2 -1.05 0.0 -0.2 0.05 -0.2 0.05 -0.25 0.1 -0.65" fill="#8b5608" fill-rule="evenodd" stroke="none"/>
    <path d="M7.1 -26.15 L10.4 -29.65 11.05 -31.8 10.65 -32.75 Q11.35 -36.15 14.15 -38.05 L16.05 -39.2 16.85 -38.0 16.95 -37.85 17.0 -37.65 19.3 -36.05 16.4 -28.65 13.15 -26.6 9.75 -25.0 9.95 -24.55 10.35 -25.05 12.85 -25.7 15.45 -25.4 13.0 -22.45 Q12.15 -22.15 13.25 -21.3 L13.25 -21.1 Q14.9 -24.0 16.55 -22.1 16.55 -20.85 15.65 -19.95 14.75 -19.1 13.5 -19.1 L11.95 -18.45 Q8.1 -20.05 4.25 -18.75 L0.95 -19.45 0.65 -19.5 -1.15 -19.7 Q-1.75 -19.85 -1.9 -20.35 L0.75 -23.4 1.9 -24.55 1.85 -25.5 2.15 -26.1 2.25 -26.3 1.95 -26.05 0.7 -25.1 -0.85 -24.15 -3.35 -24.65 0.5 -29.7 4.65 -29.15 5.2 -27.45 7.05 -26.1 7.35 -25.85 7.1 -26.15 M4.35 -32.35 L2.65 -35.8 4.65 -38.25 7.05 -35.55 4.35 -32.35 M6.95 -33.35 L8.65 -34.95 9.85 -32.7 6.2 -30.75 6.95 -33.35 M7.0 -25.0 L7.35 -25.35 Q8.05 -26.3 7.0 -25.0 M17.2 -19.85 L19.6 -19.0 17.85 -15.2 16.85 -16.35 15.9 -18.95 Q16.1 -19.9 16.9 -19.9 L17.2 -19.85 M9.8 -23.15 L9.75 -23.35 9.35 -22.95 9.45 -22.95 9.65 -22.85 9.85 -23.05 9.8 -23.15 M6.45 -23.85 L6.65 -24.6 6.85 -24.85 6.45 -24.55 6.05 -24.35 5.85 -23.85 6.05 -23.5 6.15 -23.3 Q6.55 -23.35 6.45 -23.85 M21.95 -5.7 L21.65 -8.7 22.65 -10.05 27.0 -10.8 27.0 -10.55 Q29.45 -6.0 25.15 -4.25 L24.3 -4.25 Q22.85 -4.4 22.15 -5.35 L22.05 -5.5 21.95 -5.7 M22.9 -13.4 Q23.05 -14.85 24.2 -14.85 L24.45 -14.8 25.1 -14.1 25.3 -12.85 Q25.25 -11.5 24.1 -11.5 L24.05 -11.5 Q23.2 -11.5 22.95 -12.15 L22.9 -13.4 M23.3 -16.6 L23.3 -16.45 Q23.2 -13.5 21.6 -15.25 L21.6 -15.5 Q22.1 -17.85 23.3 -16.6 M-0.9 -29.75 L-3.2 -29.15 -4.5 -32.85 0.1 -35.5 -0.15 -33.7 0.8 -32.3 -0.9 -29.75 M-10.35 -25.2 Q-19.15 -17.75 -25.85 -12.55 L-22.15 -16.7 -11.15 -26.35 -9.1 -26.6 -10.35 -25.2 M-8.05 -23.7 Q-7.85 -24.9 -6.15 -25.1 L-4.1 -24.45 -4.05 -24.05 Q-4.7 -23.0 -5.5 -22.55 L-7.35 -22.15 Q-8.0 -22.3 -8.1 -22.9 L-8.1 -23.3 -8.05 -23.7 M-2.7 -22.8 L-2.85 -22.6 -5.0 -22.55 -4.6 -22.95 Q-3.1 -24.2 -2.7 -22.8" fill="#a7490c" fill-opacity="0.4" fill-rule="evenodd" stroke="none"/>
    <path d="M7.1 -26.15 L7.35 -25.85 7.05 -26.1 7.1 -26.15 M-3.35 -24.65 L-0.85 -24.15 1.9 -24.55 0.75 -23.4 -2.7 -22.8 Q-3.1 -24.2 -4.6 -22.95 L-5.0 -22.55 -5.5 -22.55 Q-4.7 -23.0 -4.05 -24.05 L-4.1 -24.45 -3.35 -24.65 M0.7 -25.1 L1.95 -26.05 2.15 -26.1 1.85 -25.5 0.7 -25.1 M-1.9 -20.35 Q-1.75 -19.85 -1.15 -19.7 L-14.55 -11.7 -1.9 -20.35 M0.65 -19.5 L0.95 -19.45 Q-0.9 -18.1 -1.5 -17.9 L0.65 -19.5 M4.25 -18.75 Q8.1 -20.05 11.95 -18.45 L13.5 -19.1 5.5 -12.35 15.9 -18.95 16.85 -16.35 -10.7 10.5 -8.95 12.15 -12.05 17.05 Q-12.75 16.2 -12.4 17.05 L-12.25 17.25 -12.6 17.8 Q-15.6 18.9 -15.0 20.75 L-14.7 20.5 -9.5 16.15 Q-6.35 13.25 -3.35 14.55 L-10.4 25.75 Q-2.05 23.8 4.25 16.45 12.2 7.1 20.85 -1.45 L5.6 9.2 Q5.6 7.95 6.05 6.85 2.85 10.0 -1.05 9.55 -0.45 7.15 1.25 5.25 L11.65 -5.85 Q16.4 -10.8 21.6 -15.25 23.2 -13.5 23.3 -16.45 L23.3 -16.6 30.1 -20.35 24.45 -14.8 24.2 -14.85 Q23.05 -14.85 22.9 -13.4 L5.5 4.55 21.65 -8.7 21.95 -5.7 12.6 2.6 22.85 -4.05 23.9 -3.85 22.35 -1.65 24.35 -3.55 Q21.5 2.95 15.9 7.6 10.05 12.45 5.0 18.15 L30.35 0.75 17.75 11.75 22.15 10.05 20.55 11.35 Q14.1 14.0 10.3 19.7 L9.1 21.35 1.5 28.2 7.25 20.65 -3.35 30.55 Q-4.8 30.0 -4.05 28.9 L-7.3 29.55 -11.1 28.7 -13.1 26.45 -11.4 22.2 -18.9 27.85 -21.65 26.65 -19.7 21.6 Q-24.75 30.25 -33.1 30.95 L-31.1 23.6 -33.35 22.6 -28.6 14.7 -33.45 18.4 -35.75 22.55 -36.85 22.0 -37.85 23.05 Q-39.7 21.75 -34.95 19.1 L-44.35 17.2 -29.95 12.1 -23.85 4.85 -23.8 5.25 -22.4 4.15 -21.9 3.9 -18.65 4.75 -19.45 9.15 -17.85 10.25 -19.55 14.0 -22.35 16.6 -20.0 14.6 -26.05 22.6 -14.4 11.85 -14.4 10.9 6.95 -10.5 Q4.75 -8.5 1.9 -7.75 L-1.7 -7.65 5.75 -16.0 1.0 -13.6 -0.45 -14.25 4.25 -18.75 M16.55 -22.1 Q14.9 -24.0 13.25 -21.1 L13.25 -21.3 Q12.15 -22.15 13.0 -22.45 L14.1 -23.0 Q16.95 -24.6 16.55 -22.1 M12.85 -25.7 L10.35 -25.05 9.75 -25.0 13.15 -26.6 12.85 -25.7 M7.0 -25.0 Q8.05 -26.3 7.35 -25.35 L7.0 -25.0 M19.6 -19.0 L17.2 -19.85 Q19.3 -23.1 21.1 -21.2 L19.6 -19.0 M9.8 -23.15 L9.85 -23.05 9.45 -22.95 9.35 -22.95 9.8 -23.15 M6.45 -24.55 L6.85 -24.85 6.65 -24.6 6.45 -23.85 6.05 -23.5 5.85 -23.85 6.65 -24.6 6.45 -24.55 M32.45 -2.1 Q35.2 -1.85 32.35 -2.05 L32.45 -2.1 M30.0 11.65 Q33.55 6.55 38.55 6.5 L34.3 13.6 Q41.8 6.8 46.5 -2.05 L43.5 4.9 45.2 4.9 29.95 24.75 28.2 24.6 Q27.35 23.2 25.2 25.25 L24.6 25.05 Q23.0 24.4 23.95 22.9 L33.2 15.3 28.7 17.5 28.55 16.25 19.5 22.35 16.05 24.0 15.0 23.0 Q18.65 17.55 23.15 12.1 26.1 8.5 30.75 8.95 L29.75 11.2 23.85 16.9 30.0 11.65 M16.05 15.6 L15.3 16.95 23.45 11.15 Q21.25 13.95 18.3 16.25 13.25 20.3 9.15 25.15 4.35 30.75 -0.65 30.95 L1.4 28.35 Q6.55 25.75 10.65 21.0 11.35 20.15 9.9 20.8 L16.05 15.6 M-40.6 -8.55 Q-34.85 -10.4 -32.5 -15.5 L-32.55 -15.7 -13.25 -31.0 -13.95 -30.1 -8.1 -31.9 -11.15 -26.35 -22.15 -16.7 -31.2 -9.05 -12.55 -29.0 -20.8 -22.65 Q-24.85 -19.55 -28.5 -15.8 -33.6 -10.6 -40.6 -8.55 M-35.35 -14.15 L-40.35 -10.25 -35.25 -17.15 -25.9 -28.35 Q-22.75 -31.95 -20.35 -31.2 L-25.75 -25.3 -17.6 -30.55 Q-21.45 -27.9 -24.9 -25.05 -30.6 -20.2 -35.35 -14.15 M-3.2 -29.15 L-0.9 -29.75 Q-2.2 -28.15 -6.15 -25.1 -7.85 -24.9 -8.05 -23.7 L-9.3 -22.8 -12.45 -20.5 -25.85 -12.55 Q-19.15 -17.75 -10.35 -25.2 L-3.2 -29.15 M-8.1 -22.9 L-8.45 -22.9 -8.45 -23.2 -8.1 -23.3 -8.1 -22.9 M-24.1 9.45 L-22.65 7.65 -24.1 9.25 -25.85 11.5 -24.1 9.45" fill="#a4760f" fill-opacity="0.2" fill-rule="evenodd" stroke="none"/>
    <path d="M-20.0 14.6 L-22.35 16.6 -19.55 14.0 -20.0 14.6 M-21.9 3.9 L-22.4 4.15 -22.6 4.05 Q-21.3 2.6 -21.9 3.9 M1.5 28.2 L9.1 21.35 9.9 20.8 Q11.35 20.15 10.65 21.0 6.55 25.75 1.4 28.35 L1.3 28.35 1.5 28.2 M20.55 11.35 L22.15 10.05 Q27.7 5.4 28.7 5.65 27.2 7.85 23.45 11.15 L15.3 16.95 16.05 15.6 Q17.3 14.1 20.55 11.35 M24.35 -3.55 L22.35 -1.65 23.9 -3.85 24.3 -4.25 25.15 -4.25 24.35 -3.55 M-14.7 20.5 L-15.0 20.75 Q-15.6 18.9 -12.6 17.8 L-14.7 20.5 M-12.25 17.25 L-12.4 17.05 Q-12.75 16.2 -12.05 17.05 L-12.25 17.25 M25.3 -12.85 L25.1 -14.1 25.35 -14.3 25.9 -13.75 25.3 -12.85 M22.95 -12.15 Q23.2 -11.5 24.05 -11.5 L21.35 -9.55 22.95 -12.15 M22.15 -5.35 L21.5 -4.8 22.05 -5.5 22.15 -5.35 M30.0 11.65 L23.85 16.9 29.75 11.2 30.0 11.65 M19.5 22.35 L28.55 16.25 28.7 17.5 33.2 15.3 23.95 22.9 Q22.1 21.4 19.45 23.65 12.1 29.9 5.05 32.75 L19.5 22.35 M-40.6 -8.55 L-40.8 -8.55 Q-42.1 -9.15 -40.35 -10.25 L-35.35 -14.15 -32.55 -15.7 -32.5 -15.5 Q-34.85 -10.4 -40.6 -8.55 M-12.45 -20.5 L-9.3 -22.8 -8.45 -22.9 -8.1 -22.9 Q-8.0 -22.3 -7.35 -22.15 L-7.4 -22.1 Q-10.6 -18.75 -12.45 -20.5 M-36.75 -28.7 L-27.65 -35.7 -42.6 -23.6 -26.45 -39.4 -36.75 -28.7 M-24.1 9.25 L-22.65 7.65 -24.1 9.45 -24.1 9.25" fill="#a7490c" fill-opacity="0.3019608" fill-rule="evenodd" stroke="none"/>
    <path d="M16.35 -4.05 L11.9 11.9 -4.25 16.0 -15.9 4.15 -11.2 -11.85 4.75 -15.95 16.35 -4.05" fill="#cc9900" fill-rule="evenodd" stroke="none"/>
    <path d="M4.8 -16.95 L5.05 -16.95 5.25 -16.85 17.25 -4.55 17.4 -4.3 17.4 -4.05 12.8 12.45 12.65 12.65 12.45 12.8 -4.25 17.05 -4.5 17.05 -4.75 16.9 -16.8 4.6 -16.9 4.4 -16.9 4.1 -12.05 -12.4 -11.95 -12.6 -11.7 -12.7 4.8 -16.95 M16.35 -4.05 L4.75 -15.95 -11.2 -11.85 -15.9 4.15 -4.25 16.0 11.9 11.9 16.35 -4.05" fill="#8b5608" fill-rule="evenodd" stroke="none"/>
  </g>
</svg>
