<?xml version="1.0" encoding="UTF-8" standalone="no"?>
<svg xmlns:ffdec="https://www.free-decompiler.com/flash" xmlns:xlink="http://www.w3.org/1999/xlink" ffdec:objectType="shape" height="101.0px" width="101.0px" xmlns="http://www.w3.org/2000/svg">
  <g transform="matrix(1.0, 0.0, 0.0, 1.0, 50.5, 50.5)">
    <path d="M24.05 -44.55 L24.1 -44.55 24.0 -44.55 24.05 -44.55 M-36.85 33.25 L-36.85 33.2 -36.7 33.2 -36.85 33.25 M37.4 32.45 L37.45 32.4 37.5 32.45 37.4 32.45" fill="#764701" fill-rule="evenodd" stroke="none"/>
    <path d="M43.55 -18.1 L43.55 -18.15 44.0 -18.15 43.55 -18.1" fill="#b17334" fill-rule="evenodd" stroke="none"/>
    <path d="M45.65 -19.05 L45.6 -19.0 45.6 -19.05 45.65 -19.05 M48.5 7.25 L48.4 7.3 48.4 7.25 48.5 7.25 M-49.05 7.0 L-49.1 7.0 -49.05 7.0 M-45.4 -18.85 L-45.45 -18.9 -45.35 -18.9 -45.4 -18.85 M-18.65 -42.75 L-18.65 -42.65 -18.9 -42.65 -18.65 -42.75 M37.5 32.45 L37.4 32.45 37.5 32.45" fill="#7e4b01" fill-rule="evenodd" stroke="none"/>
    <path d="M23.95 -43.45 L23.85 -43.5 18.95 -45.9 16.95 -46.65 Q9.05 -49.5 0.0 -49.5 -8.95 -49.5 -16.75 -46.7 L-18.9 -45.9 Q-21.55 -44.8 -24.0 -43.4 L-16.2 -43.55 -16.1 -43.45 -15.95 -43.45 -13.65 -43.5 16.9 -43.4 19.1 -43.55 23.95 -43.45 M24.0 -44.55 L23.85 -43.6 Q25.1 -43.0 26.65 -43.05 L31.75 -39.3 35.7 -35.7 Q42.9 -28.5 46.6 -19.85 L45.8 -19.15 44.55 -21.95 Q41.0 -29.0 35.0 -35.0 L30.2 -39.3 24.95 -42.9 20.9 -42.8 18.35 -42.6 17.85 -42.65 -18.65 -42.65 -18.65 -42.75 -24.85 -42.9 Q-30.25 -39.75 -35.0 -35.0 -40.95 -29.05 -44.45 -22.05 L-44.85 -21.3 -45.75 -19.25 -46.35 -19.9 -46.55 -19.9 Q-42.9 -28.5 -35.7 -35.7 -31.35 -40.05 -26.4 -43.15 -25.15 -42.95 -24.3 -43.75 L-24.3 -43.9 -24.4 -44.35 Q-13.5 -50.5 0.0 -50.5 13.25 -50.5 24.05 -44.55 L24.0 -44.55 M45.6 -19.0 L45.6 -17.95 44.6 -17.9 43.55 -18.1 44.0 -18.15 43.55 -18.15 40.2 -18.1 -43.75 -18.05 -45.9 -17.7 -46.4 -17.7 Q-49.5 -9.5 -49.5 0.0 L-49.35 3.75 -49.25 5.0 -49.05 7.0 Q-46.8 6.9 -38.85 6.95 L48.4 7.25 48.4 7.3 48.65 7.8 46.95 7.8 21.65 8.05 -38.85 8.25 -48.5 8.25 -48.65 7.3 -49.05 7.0 -49.1 7.0 -50.15 6.3 Q-50.5 3.25 -50.5 0.0 -50.5 -9.3 -47.55 -17.35 L-45.4 -18.85 -45.35 -18.9 -44.45 -18.8 -37.5 -18.9 40.2 -18.85 43.45 -18.75 Q43.65 -19.1 44.5 -19.1 L45.6 -19.05 45.6 -19.0 M46.45 -17.6 L47.5 -17.65 Q50.5 -9.45 50.5 0.0 L50.5 0.65 50.15 6.5 49.1 6.9 49.35 4.45 49.35 4.15 49.5 0.65 49.5 0.0 Q49.5 -9.45 46.45 -17.6 M48.9 8.1 L49.8 8.75 Q47.8 21.05 39.95 30.95 38.55 31.2 37.5 32.4 L37.5 32.45 37.4 32.6 36.85 33.55 37.0 34.4 35.7 35.7 Q20.9 50.5 0.0 50.5 -20.9 50.5 -35.7 35.7 L-36.55 34.85 -36.4 34.55 -36.85 33.25 -36.7 33.2 -36.85 33.2 -37.1 32.6 -37.25 32.65 -38.15 32.45 -38.95 32.2 Q-47.5 22.0 -49.7 9.2 L-48.8 8.55 Q-46.95 20.0 -39.95 29.35 L-39.45 29.95 -37.45 32.4 -30.1 32.3 35.55 32.35 37.4 32.45 37.5 32.45 37.45 32.4 39.6 29.8 39.65 29.8 39.9 29.4 Q47.1 19.85 48.9 8.1 M-35.0 35.0 Q-20.5 49.5 0.0 49.5 20.5 49.5 35.0 35.0 L36.7 33.2 35.55 33.25 -36.7 33.2 -35.0 35.0" fill="#653d01" fill-rule="evenodd" stroke="none"/>
    <path d="M23.95 -43.45 L19.1 -43.55 16.9 -43.4 -13.65 -43.5 -15.95 -43.45 -16.1 -43.45 -16.2 -43.55 -24.0 -43.4 Q-21.55 -44.8 -18.9 -45.9 L-16.75 -46.7 Q-8.95 -49.5 0.0 -49.5 9.05 -49.5 16.95 -46.65 L18.95 -45.9 23.85 -43.5 23.95 -43.45 M45.8 -19.15 L45.65 -19.05 45.6 -19.05 44.5 -19.1 Q43.65 -19.1 43.45 -18.75 L40.2 -18.85 -37.5 -18.9 -44.45 -18.8 -45.35 -18.9 -45.45 -18.9 -45.75 -19.25 -44.85 -21.3 -44.45 -22.05 Q-40.95 -29.05 -35.0 -35.0 -30.25 -39.75 -24.85 -42.9 L-18.65 -42.75 -18.9 -42.65 -18.65 -42.65 17.85 -42.65 18.35 -42.6 20.9 -42.8 24.95 -42.9 30.2 -39.3 35.0 -35.0 Q41.0 -29.0 44.55 -21.95 L45.8 -19.15 M45.6 -17.95 L45.6 -17.8 46.45 -17.6 Q49.5 -9.45 49.5 0.0 L49.5 0.65 49.35 4.15 49.35 4.45 49.1 6.9 48.5 7.25 48.4 7.25 -38.85 6.95 Q-46.8 6.9 -49.05 7.0 L-49.25 5.0 -49.35 3.75 -49.5 0.0 Q-49.5 -9.5 -46.4 -17.7 L-45.9 -17.7 -43.75 -18.05 40.2 -18.1 43.55 -18.15 43.55 -18.1 44.6 -17.9 45.6 -17.95 M48.65 7.8 L48.9 8.1 Q47.1 19.85 39.9 29.4 L39.65 29.8 39.6 29.8 37.45 32.4 37.4 32.45 35.55 32.35 -30.1 32.3 -37.45 32.4 -39.45 29.95 -39.95 29.35 Q-46.95 20.0 -48.8 8.55 L-48.5 8.25 -38.85 8.25 21.65 8.05 46.95 7.8 48.65 7.8 M-35.0 35.0 L-36.7 33.2 35.55 33.25 36.7 33.2 35.0 35.0 Q20.5 49.5 0.0 49.5 -20.5 49.5 -35.0 35.0" fill="#a36932" fill-rule="evenodd" stroke="none"/>
    <path d="M40.3 -28.6 L40.25 -28.6 Q39.55 -28.15 38.5 -28.2 L37.3 -28.4 30.25 -28.85 26.65 -29.1 40.25 -28.6 40.3 -28.6 M8.5 -25.2 Q-6.85 -25.2 -12.25 -28.4 L-16.1 -30.7 Q-18.6 -31.75 -23.3 -31.75 L-28.0 -31.5 -30.0 -31.05 Q-26.25 -32.3 -22.95 -32.3 -17.4 -32.3 -14.5 -30.65 -9.95 -28.0 -8.3 -27.55 -2.55 -25.9 8.15 -26.0 L22.65 -25.55 Q20.4 -24.75 15.3 -24.85 L8.55 -25.2 8.5 -25.2 M16.6 -32.55 L16.9 -32.45 11.05 -33.1 0.2 -32.8 Q-7.65 -32.8 -10.85 -33.95 -12.5 -34.6 -15.05 -35.95 L-11.2 -35.1 Q-10.45 -34.55 -9.8 -34.3 L8.8 -33.65 Q12.4 -33.65 16.6 -32.55 M1.9 -47.45 L-9.6 -46.6 -11.35 -46.9 -11.4 -46.9 -11.45 -46.95 -11.5 -47.0 -2.85 -47.75 1.75 -47.6 1.9 -47.45 M13.85 -13.75 L26.6 -13.5 38.0 -12.5 43.45 -11.25 42.4 -11.2 35.75 -12.1 26.6 -12.75 14.05 -13.0 -3.35 -12.2 -19.5 -11.4 -34.85 -12.4 -42.5 -11.65 Q-40.65 -13.25 -31.9 -13.25 L-24.85 -12.8 -15.3 -12.35 -15.15 -12.4 8.15 -13.7 13.85 -13.75 M9.6 -6.7 Q-5.3 -3.55 -14.0 -3.55 -26.7 -3.55 -33.6 -5.3 L-32.7 -5.45 -21.65 -4.75 Q-10.2 -4.75 1.1 -6.45 L24.9 -9.95 26.45 -9.95 26.6 -9.95 Q42.05 -9.95 43.4 -9.7 L43.45 -9.7 43.6 -9.55 43.55 -9.6 44.0 -9.2 31.4 -8.65 26.6 -8.55 17.85 -8.2 17.8 -8.2 9.6 -6.7 M39.95 -23.45 L43.0 -22.95 41.35 -22.85 33.85 -23.35 32.85 -23.55 33.15 -23.6 39.95 -23.45 M28.2 -3.35 L28.7 -3.5 33.1 -2.75 Q35.55 -2.05 35.6 -1.55 35.55 -0.4 32.35 0.65 L28.9 1.55 Q22.7 2.9 16.75 2.9 L0.75 1.9 -15.45 0.5 -23.7 -0.85 -35.25 -1.35 -36.2 -1.35 -30.05 -1.85 -19.1 -0.95 0.0 0.1 16.65 1.15 26.6 0.35 29.1 -0.15 Q33.35 -1.05 34.4 -1.75 L34.5 -1.85 34.5 -2.0 34.45 -2.1 34.3 -2.2 28.15 -3.3 28.2 -3.35 M26.6 -3.9 L23.9 -3.8 26.6 -4.3 31.05 -4.55 39.1 -4.45 40.1 -4.45 47.25 -2.7 Q44.05 -2.7 41.95 -3.4 L41.95 -3.35 Q39.75 -4.15 34.4 -4.15 L28.65 -4.0 26.6 -3.9 M41.45 12.7 L39.45 12.75 43.15 12.5 44.65 12.45 Q47.6 12.45 48.55 12.95 L47.75 13.05 41.45 12.7 M43.4 22.95 Q43.35 23.5 39.95 24.15 L30.65 24.95 20.05 23.4 Q10.25 21.8 2.25 21.8 -13.5 21.8 -20.95 23.1 -24.65 23.7 -26.2 24.35 L-26.65 24.25 -26.75 24.0 -26.75 23.95 Q-26.7 23.45 -19.75 22.45 -10.55 21.1 2.25 21.1 10.3 21.1 19.85 22.65 L30.65 24.15 Q35.8 24.15 43.15 22.6 L43.4 22.95 M41.15 17.5 Q41.1 18.95 31.1 18.95 20.85 18.95 6.2 16.25 -8.6 13.55 -14.0 13.55 L-30.45 14.35 Q-32.85 14.35 -36.7 15.5 L-42.15 17.45 Q-35.1 12.6 -13.95 12.6 -7.2 12.6 6.35 15.15 19.95 17.7 31.05 17.7 L40.6 17.05 Q41.1 17.05 41.15 17.5 M20.05 38.7 L20.0 38.7 20.3 38.65 20.45 38.55 20.5 38.4 20.45 38.25 20.25 38.15 16.3 38.0 Q16.95 37.3 20.55 37.3 22.0 37.3 22.25 38.3 22.1 39.2 15.6 40.55 9.3 41.9 6.05 41.9 2.75 41.9 -4.35 39.7 -11.35 37.55 -15.45 37.45 L-13.5 37.2 Q-8.4 37.7 -2.3 39.5 3.05 41.1 6.05 41.1 13.3 41.1 20.05 38.7 M2.85 26.9 L-6.05 27.2 -12.0 27.8 -12.05 27.8 Q-16.85 29.05 -24.6 29.05 -30.6 29.05 -34.2 27.0 -36.9 25.45 -36.95 24.0 -36.9 22.65 -34.5 21.4 -31.8 19.95 -27.9 19.9 L-27.6 20.05 -27.25 20.15 -32.65 21.45 Q-36.3 22.55 -36.25 23.85 -36.3 25.6 -33.35 27.05 -30.0 28.6 -24.55 28.6 L-13.25 27.65 -1.5 26.65 7.75 26.8 2.85 26.9 M3.8 43.15 L-12.35 42.65 -9.35 42.45 3.8 43.05 3.8 43.1 3.8 43.15 M-44.65 -5.35 L-41.75 -5.8 -39.9 -5.65 -43.9 -4.9 -48.95 -4.45 Q-48.85 -4.75 -48.15 -4.9 L-44.65 -5.35 M-41.25 -25.15 L-38.45 -25.25 -38.4 -25.25 Q-32.85 -26.3 -29.4 -24.65 -32.75 -25.85 -41.45 -24.9 L-41.6 -24.95 -41.25 -25.15 M-28.9 -24.7 L-28.95 -24.45 -29.0 -24.55 -29.0 -24.5 -29.1 -24.55 -28.9 -24.7 M-37.75 2.4 L-42.1 2.8 -48.85 2.05 -48.85 1.75 -46.3 0.85 -35.3 2.55 -37.7 2.4 -37.75 2.4" fill="#7c5025" fill-opacity="0.34117648" fill-rule="evenodd" stroke="none"/>
    <path d="M7.1 -26.15 L10.4 -29.65 11.05 -31.8 10.65 -32.75 Q11.9 -38.2 16.6 -38.8 L16.9 -37.85 19.3 -36.05 17.05 -32.35 18.05 -32.8 17.95 -31.7 Q17.2 -27.65 13.15 -26.6 L9.75 -25.0 9.95 -24.55 10.35 -25.05 12.85 -25.7 15.45 -25.4 13.0 -22.45 Q12.15 -22.15 13.25 -21.3 L13.25 -21.1 Q14.9 -24.0 16.55 -22.1 16.55 -20.85 15.65 -19.95 14.75 -19.1 13.5 -19.1 L11.95 -18.45 Q8.1 -20.05 4.25 -18.75 L0.95 -19.45 0.65 -19.5 -1.15 -19.7 Q-1.75 -19.85 -1.9 -20.35 L0.75 -23.4 1.9 -24.55 1.85 -25.5 2.15 -26.1 2.25 -26.3 1.95 -26.05 0.7 -25.1 -0.85 -24.15 -3.35 -24.65 0.5 -29.7 4.65 -29.15 5.2 -27.45 7.05 -26.1 7.35 -25.85 7.1 -26.15 M4.35 -32.35 L2.65 -35.8 4.65 -38.25 7.05 -35.55 4.35 -32.35 M8.65 -34.95 L9.85 -32.7 8.4 -32.05 6.6 -30.65 Q4.9 -32.75 8.65 -34.95 M7.0 -25.0 L7.35 -25.35 Q8.05 -26.3 7.0 -25.0 M17.2 -19.85 L19.6 -19.0 17.85 -15.2 16.85 -16.35 15.9 -18.95 Q16.1 -19.9 16.9 -19.9 L17.2 -19.85 M9.8 -23.15 L9.75 -23.35 9.35 -22.95 9.45 -22.95 9.65 -22.85 9.85 -23.05 9.8 -23.15 M6.45 -23.85 L6.65 -24.6 6.85 -24.85 6.45 -24.55 6.05 -24.35 5.85 -23.85 6.05 -23.5 6.15 -23.3 Q6.55 -23.35 6.45 -23.85 M21.6 -15.25 L21.6 -15.5 Q22.1 -17.85 23.3 -16.6 L23.3 -16.45 Q23.2 -13.5 21.6 -15.25 M24.45 -14.8 L25.1 -14.1 25.3 -12.85 Q25.25 -11.5 24.1 -11.5 L24.05 -11.5 Q23.2 -11.5 22.95 -12.15 L22.9 -13.4 Q23.05 -14.85 24.2 -14.85 L24.45 -14.8 M21.65 -8.7 L25.9 -11.15 Q28.75 -8.65 27.2 -5.1 L25.15 -4.25 24.3 -4.25 Q22.85 -4.4 22.15 -5.35 L22.05 -5.5 21.95 -5.7 21.65 -8.7 M-0.9 -29.75 L-3.2 -29.15 -4.5 -32.85 0.1 -35.5 -0.15 -33.7 0.8 -32.3 -0.9 -29.75 M-10.35 -25.2 Q-19.15 -17.75 -25.85 -12.55 L-22.15 -16.7 -11.15 -26.35 -9.1 -26.6 -10.35 -25.2 M-8.05 -23.7 Q-7.85 -24.9 -6.15 -25.1 L-4.1 -24.45 -4.05 -24.05 Q-4.7 -23.0 -5.5 -22.55 L-7.35 -22.15 Q-8.0 -22.3 -8.1 -22.9 L-8.1 -23.3 -8.05 -23.7 M-2.7 -22.8 L-2.85 -22.6 -5.0 -22.55 -4.6 -22.95 Q-3.1 -24.2 -2.7 -22.8" fill="#a7490c" fill-opacity="0.4" fill-rule="evenodd" stroke="none"/>
    <path d="M7.1 -26.15 L7.35 -25.85 7.05 -26.1 7.1 -26.15 M-3.35 -24.65 L-0.85 -24.15 1.9 -24.55 0.75 -23.4 -2.7 -22.8 Q-3.1 -24.2 -4.6 -22.95 L-5.0 -22.55 -5.5 -22.55 Q-4.7 -23.0 -4.05 -24.05 L-4.1 -24.45 -3.35 -24.65 M0.7 -25.1 L1.95 -26.05 2.15 -26.1 1.85 -25.5 0.7 -25.1 M-1.9 -20.35 Q-1.75 -19.85 -1.15 -19.7 L-14.55 -11.7 -1.9 -20.35 M0.65 -19.5 L0.95 -19.45 Q-0.9 -18.1 -1.5 -17.9 L0.65 -19.5 M16.55 -22.1 Q14.9 -24.0 13.25 -21.1 L13.25 -21.3 Q12.15 -22.15 13.0 -22.45 L14.1 -23.0 Q16.95 -24.6 16.55 -22.1 M12.85 -25.7 L10.35 -25.05 9.75 -25.0 13.15 -26.6 12.85 -25.7 M7.0 -25.0 Q8.05 -26.3 7.35 -25.35 L7.0 -25.0 M19.6 -19.0 L17.2 -19.85 Q19.3 -23.1 21.1 -21.2 L19.6 -19.0 M9.8 -23.15 L9.85 -23.05 9.45 -22.95 9.35 -22.95 9.8 -23.15 M6.45 -24.55 L6.85 -24.85 6.65 -24.6 6.45 -23.85 6.05 -23.5 5.85 -23.85 6.65 -24.6 6.45 -24.55 M38.55 6.5 L38.15 8.6 37.15 8.9 35.85 6.7 38.55 6.5 M43.5 4.9 L45.2 4.9 40.75 11.75 39.15 9.1 46.5 -2.05 43.5 4.9 M30.45 17.75 L30.1 24.6 28.2 24.6 26.0 24.65 25.2 25.25 27.35 20.4 30.45 17.75 M19.5 22.35 L15.75 24.0 14.85 22.5 22.65 15.8 23.55 19.65 19.5 22.35 M35.35 15.15 L36.75 16.55 31.45 23.65 33.4 17.05 35.35 15.15 M-8.1 -23.3 L-8.1 -22.9 -8.45 -22.9 -8.45 -23.2 -8.1 -23.3 M-36.85 22.0 L-37.85 23.05 Q-39.1 21.05 -33.65 18.2 L-32.95 18.85 -33.5 19.8 Q-34.75 23.1 -36.85 22.0" fill="#a4760f" fill-opacity="0.2" fill-rule="evenodd" stroke="none"/>
    <path d="M25.1 -14.1 L25.35 -14.3 25.9 -13.75 25.3 -12.85 25.1 -14.1 M24.05 -11.5 L21.35 -9.55 22.95 -12.15 Q23.2 -11.5 24.05 -11.5 M25.15 -4.25 L24.35 -3.55 22.35 -1.65 23.9 -3.85 24.3 -4.25 25.15 -4.25 M22.05 -5.5 L22.15 -5.35 21.5 -4.8 22.05 -5.5 M21.9 10.25 L22.15 10.05 23.7 8.95 21.9 10.25 M1.45 28.25 L9.1 21.35 9.9 20.8 10.1 20.75 Q8.25 24.85 1.35 28.35 L1.45 28.25 M20.55 11.35 L21.0 11.0 20.45 13.9 Q17.7 17.0 15.35 16.75 L16.05 15.6 Q17.3 14.1 20.55 11.35 M27.35 20.4 L27.1 17.45 30.45 17.75 27.35 20.4 M23.55 19.65 L23.4 22.8 Q14.25 27.8 5.05 32.75 L19.5 22.35 23.55 19.65 M-39.9 -8.75 L-40.6 -8.55 -40.8 -8.55 Q-42.1 -9.15 -40.35 -10.25 L-35.35 -14.15 -32.55 -15.7 -32.5 -15.5 Q-34.7 -10.7 -39.9 -8.75 M-12.45 -20.5 L-9.3 -22.8 -8.45 -22.9 -8.1 -22.9 Q-8.0 -22.3 -7.35 -22.15 L-7.4 -22.1 Q-10.6 -18.75 -12.45 -20.5 M-36.75 -28.7 L-27.65 -35.7 -42.6 -23.6 -26.45 -39.4 -36.75 -28.7 M-21.9 3.9 L-22.4 4.15 -22.6 4.05 Q-21.3 2.6 -21.9 3.9 M-19.55 14.0 L-20.0 14.6 -22.35 16.6 -19.55 14.0 M-15.6 20.4 L-15.3 19.85 -13.55 19.0 -15.6 20.4 M-24.1 9.25 L-22.65 7.65 -24.1 9.45 -24.1 9.25 M-29.8 19.1 L-26.55 15.85 -21.5 13.3 -22.3 14.1 -29.8 19.1" fill="#a7490c" fill-opacity="0.3019608" fill-rule="evenodd" stroke="none"/>
    <path d="M4.25 -18.75 Q8.1 -20.05 11.95 -18.45 L13.5 -19.1 5.5 -12.35 15.9 -18.95 16.85 -16.35 -10.7 10.5 -8.95 12.15 Q-12.4 17.55 -18.9 19.6 L-14.35 17.35 Q-24.4 21.65 -31.5 29.05 L-20.65 22.55 Q-26.3 30.0 -33.4 31.05 L-32.4 27.0 -10.5 12.1 -23.05 19.4 -18.95 15.35 -14.4 11.85 -14.4 10.9 7.65 -11.2 Q3.05 -6.85 -1.7 -7.65 L5.75 -16.0 1.0 -13.6 -0.45 -14.25 4.25 -18.75 M21.6 -15.25 Q23.2 -13.5 23.3 -16.45 L23.3 -16.6 30.1 -20.35 24.45 -14.8 24.2 -14.85 Q23.05 -14.85 22.9 -13.4 L5.5 4.55 21.65 -8.7 21.95 -5.7 12.6 2.6 22.85 -4.05 23.9 -3.85 22.35 -1.65 24.35 -3.55 Q21.3 6.45 11.1 12.3 8.95 13.55 7.0 15.05 L8.3 13.8 4.4 15.1 20.85 -1.45 5.6 9.2 6.5 6.05 -1.05 9.55 Q7.65 -4.9 21.6 -15.25 M22.15 10.05 L21.9 10.25 Q21.25 10.45 21.0 11.0 L20.55 11.35 Q14.1 14.0 10.3 19.7 L9.1 21.35 1.45 28.25 7.25 20.65 -1.6 28.5 1.25 25.85 -6.75 30.15 -7.45 28.95 -11.55 28.5 6.9 16.0 2.2 20.6 5.75 17.8 Q17.05 7.65 30.35 0.75 L17.75 11.75 22.15 10.05 M20.45 13.9 L12.85 22.3 Q6.15 29.3 -0.65 30.95 L1.35 28.35 Q8.25 24.85 10.1 20.75 L9.9 20.8 16.05 15.6 15.35 16.75 Q17.7 17.0 20.45 13.9 M-39.9 -8.75 Q-34.7 -10.7 -32.5 -15.5 L-32.55 -15.7 -17.65 -25.55 Q-22.85 -21.75 -27.2 -17.1 -32.75 -11.2 -39.9 -8.75 M-35.35 -14.15 L-40.35 -10.25 Q-36.0 -16.75 -31.15 -22.85 -25.85 -29.65 -20.35 -31.2 L-25.75 -25.3 -18.9 -30.25 -17.9 -30.6 -35.35 -14.15 M-3.2 -29.15 L-0.9 -29.75 Q-2.2 -28.15 -6.15 -25.1 -7.85 -24.9 -8.05 -23.7 L-9.3 -22.8 -12.45 -20.5 -25.85 -12.55 Q-19.15 -17.75 -10.35 -25.2 L-3.2 -29.15 M-22.15 -16.7 L-31.2 -9.05 -12.65 -28.85 -8.1 -31.9 -11.15 -26.35 -22.15 -16.7 M-21.9 3.9 L-18.65 4.75 -19.3 9.2 -18.0 10.05 Q-26.05 10.8 -32.85 16.6 -34.85 18.35 -37.7 18.4 L-44.35 17.45 -31.6 11.95 -30.4 12.2 -23.1 3.85 -24.05 5.3 -22.4 4.15 -21.9 3.9 M-19.55 14.0 L-22.35 16.6 -20.0 14.6 Q-23.4 20.4 -29.45 23.4 -31.2 24.35 -32.1 25.75 L-31.65 23.65 -32.1 23.45 Q-32.45 22.4 -29.45 20.4 L-19.0 13.25 -19.55 14.0 M-15.3 19.85 L-15.6 20.4 -21.15 24.05 -20.05 22.25 -15.3 19.85 M-24.1 9.25 L-25.2 10.85 -24.1 9.45 -22.65 7.65 -24.1 9.25 M-6.1 18.2 L-7.0 17.25 -9.45 17.85 -7.6 16.5 -8.0 15.55 -3.65 14.1 -6.1 18.2 M-11.95 23.45 L-11.4 22.3 -18.9 27.85 -21.45 26.85 -6.15 18.25 -9.0 22.85 -11.95 23.45 M-29.8 19.1 L-33.55 21.75 -30.75 17.3 -29.8 17.6 -26.55 15.85 -29.8 19.1 M-21.5 13.3 Q-20.3 12.75 -21.75 13.8 L-22.3 14.1 -21.5 13.3 M-8.85 25.15 L-12.45 27.4 Q-14.1 24.35 -9.4 23.55 L-10.4 25.75 -8.85 25.15" fill="#771e09" fill-opacity="0.101960786" fill-rule="evenodd" stroke="none"/>
    <path d="M-18.9 -30.25 L-18.95 -30.6 Q-18.6 -31.75 -17.9 -30.6 L-18.9 -30.25" fill="#cfad7c" fill-rule="evenodd" stroke="none"/>
    <path d="M16.35 -4.05 L11.9 11.9 -4.25 16.0 -15.9 4.15 -11.2 -11.85 4.75 -15.95 16.35 -4.05" fill="#cc9900" fill-rule="evenodd" stroke="none"/>
    <path d="M5.05 -16.95 L5.25 -16.85 17.25 -4.55 17.4 -4.3 17.4 -4.05 12.8 12.45 12.65 12.65 12.45 12.8 -4.25 17.05 -4.5 17.05 -4.75 16.9 -16.8 4.6 -16.9 4.4 -16.9 4.1 -12.05 -12.4 -11.95 -12.6 -11.7 -12.7 4.8 -16.95 5.05 -16.95 M16.35 -4.05 L4.75 -15.95 -11.2 -11.85 -15.9 4.15 -4.25 16.0 11.9 11.9 16.35 -4.05" fill="#653d01" fill-rule="evenodd" stroke="none"/>
    <path d="M5.35 -27.05 Q3.65 -28.75 1.25 -29.65 L-0.15 -29.35 Q0.35 -21.55 -5.7 -16.1 -2.5 -22.55 -3.95 -30.6 L-5.15 -31.85 Q-1.8 -38.5 6.35 -37.9 8.6 -37.5 10.65 -36.45 11.95 -35.85 12.3 -34.45 13.95 -27.75 13.1 -20.95 13.0 -19.95 13.15 -19.0 L15.15 -8.85 Q12.6 -19.6 5.35 -27.05 M-13.2 -31.1 L-12.6 -30.85 Q-9.2 -29.3 -11.1 -25.85 L-11.7 -25.5 Q-16.85 -22.6 -18.45 -27.45 -22.9 -27.5 -23.05 -31.9 -17.1 -37.5 -13.2 -31.1 M-20.75 -22.2 Q-22.65 -22.2 -22.35 -23.7 -22.35 -25.65 -20.6 -25.65 -19.65 -25.65 -19.35 -24.7 L-19.2 -23.65 Q-19.2 -22.2 -20.75 -22.2" fill="#cfad7c" fill-opacity="0.24313726" fill-rule="evenodd" stroke="none"/>
    <path d="M4.75 15.85 L0.1 18.1 8.3 13.8 7.25 14.95 9.7 14.95 -2.85 20.9 4.75 15.85 M37.15 8.9 L38.65 8.8 41.25 13.65 36.8 27.0 36.75 16.55 35.35 15.15 29.8 27.1 30.5 17.4 26.95 18.1 24.75 34.9 23.05 35.4 Q21.1 28.55 24.15 22.0 L21.4 10.55 Q23.45 9.25 25.55 8.1 31.55 4.95 37.15 8.9 M-31.2 -0.25 L-33.25 -2.85 -30.7 2.25 -29.85 1.75 -31.35 -3.0 -29.25 0.65 -27.05 -0.05 -28.85 1.6 -28.35 2.75 -24.45 -0.55 -28.1 3.25 -25.75 8.05 -29.35 4.65 -28.35 7.35 -30.05 5.45 -32.25 8.05 -30.55 4.9 -31.85 3.25 -34.0 4.05 -32.45 8.65 -35.05 4.85 -34.05 8.0 -38.15 1.15 -35.45 4.55 -34.4 3.65 -34.85 0.25 -34.2 3.45 -32.65 2.15 -35.25 -2.35 -31.8 1.45 -34.45 -5.1 -31.2 -0.25 M-8.4 22.9 L-19.35 29.75 Q-14.9 24.4 -8.4 22.9 M-9.85 30.35 Q-11.25 32.0 -13.7 33.15 -10.1 30.4 -9.85 30.35 M-16.35 31.5 Q-14.55 29.3 -12.55 27.55 -8.25 23.75 -3.2 22.05 L-16.35 31.5 M-21.0 13.2 L-29.8 17.6 -31.25 16.5 -30.25 15.15 Q-26.4 9.7 -20.75 10.55 L-16.45 10.85 -33.5 23.15 -21.0 13.2 M-32.1 2.05 L-31.85 2.4 Q-30.9 1.45 -32.1 2.05 M-29.7 4.0 L-29.05 3.4 -29.75 2.0 -30.55 2.5 -29.7 4.0 M-19.7 20.45 L-14.8 17.65 -7.6 15.85 -9.65 18.0 -7.0 17.25 -6.1 18.2 -18.4 26.5 Q-19.8 27.45 -21.35 26.75 L-28.65 30.25 -13.55 19.0 -31.5 29.05 Q-29.65 26.25 -26.65 24.4 L-19.7 20.45" fill="#cfad7c" fill-opacity="0.2" fill-rule="evenodd" stroke="none"/>
    <path d="M32.75 -38.8 Q32.75 -38.3 26.6 -38.1 L18.6 -37.95 Q5.85 -37.85 -18.75 -37.9 -16.45 -37.55 -13.5 -36.0 -9.65 -33.9 -7.5 -33.65 L-7.25 -33.55 -7.1 -33.35 -6.95 -33.05 -6.9 -32.8 -7.0 -32.55 -7.2 -32.35 Q-13.0 -30.3 -17.1 -29.35 L24.5 -29.35 Q22.0 -29.95 20.0 -31.65 17.1 -34.2 13.9 -34.4 L13.55 -34.55 13.4 -34.85 13.55 -35.2 13.85 -35.4 15.4 -35.6 15.45 -35.6 17.4 -35.15 Q18.35 -35.2 20.45 -36.1 L23.65 -37.15 26.6 -36.95 26.95 -36.9 27.0 -36.9 28.4 -36.65 31.2 -35.9 Q35.15 -34.75 35.9 -34.75 L36.2 -34.65 36.4 -34.4 36.5 -33.9 Q36.6 -33.45 27.9 -29.35 L39.1 -29.35 39.25 -29.3 40.25 -28.9 40.35 -28.75 40.4 -28.65 40.45 -28.4 40.4 -28.15 Q40.25 -27.9 39.25 -27.6 L39.1 -27.6 -38.9 -27.6 Q-39.1 -27.6 -39.25 -27.75 L-39.4 -28.1 -39.45 -28.2 -39.55 -28.45 -39.35 -29.1 -38.7 -29.35 -26.4 -29.35 Q-29.15 -30.75 -31.85 -34.45 L-31.9 -34.5 Q-32.15 -35.05 -31.6 -35.35 L-31.05 -35.45 -30.75 -35.35 -29.95 -34.8 Q-26.1 -37.45 -21.95 -37.9 L-22.45 -37.9 -28.7 -38.2 Q-28.9 -38.2 -29.05 -38.35 L-29.2 -38.7 -29.2 -39.1 -29.05 -39.45 -28.7 -39.6 31.9 -39.5 32.25 -39.6 Q32.55 -39.75 32.7 -39.3 L32.75 -39.2 32.75 -38.8 M27.95 -34.65 L27.65 -34.7 26.6 -34.7 24.7 -35.15 24.7 -35.0 24.45 -34.75 Q23.45 -34.2 23.4 -33.65 L23.9 -32.75 23.9 -32.85 Q23.9 -33.55 24.35 -33.8 L25.4 -33.95 25.45 -33.9 Q26.3 -33.7 26.2 -33.1 L26.05 -32.45 25.9 -32.3 25.75 -32.2 24.95 -32.05 25.55 -31.95 26.6 -32.1 Q27.9 -32.65 27.9 -34.65 L27.95 -34.65 M30.2 -32.1 L32.4 -33.5 29.65 -34.55 Q29.65 -32.5 28.75 -31.35 L30.2 -32.1 M23.55 -35.6 L24.35 -35.55 24.35 -35.7 23.35 -36.0 23.2 -36.0 22.3 -35.65 Q22.0 -35.4 21.85 -34.95 L22.65 -35.25 23.3 -35.5 23.55 -35.6 23.45 -35.6 23.65 -35.6 23.55 -35.6 M21.65 -33.6 L21.85 -34.95 19.45 -34.1 21.6 -32.4 22.35 -31.9 Q21.6 -32.9 21.65 -33.6 M7.5 -32.5 Q7.0 -33.55 6.85 -34.85 L4.1 -34.8 4.35 -34.55 Q4.75 -34.15 4.7 -33.3 L4.7 -33.25 Q4.7 -32.4 4.1 -32.05 L5.35 -32.15 7.5 -32.5 M9.5 -31.95 Q9.65 -31.05 5.8 -30.35 L-1.1 -29.75 -1.95 -29.9 -2.25 -30.1 -2.35 -30.45 -2.1 -33.25 -2.0 -33.55 -1.8 -33.7 -2.0 -33.85 -2.1 -34.15 -2.1 -34.55 -2.45 -34.55 -2.75 -34.65 -2.95 -35.0 -2.85 -35.35 -2.55 -35.5 Q-1.95 -35.7 -0.95 -36.25 L-0.8 -36.25 7.25 -36.8 Q8.2 -36.9 9.5 -32.05 L9.5 -31.95 M1.95 -34.65 Q-0.4 -34.45 -1.1 -33.95 L-1.2 -33.85 -1.4 -33.65 -1.35 -33.65 -1.15 -33.4 -1.0 -32.75 -0.8 -31.9 1.95 -31.95 Q1.5 -32.3 1.5 -33.25 1.5 -34.2 1.95 -34.65 M15.6 -8.2 Q20.8 -8.2 20.9 -6.8 L20.9 -6.65 Q20.55 -3.75 20.85 0.2 L26.55 0.15 26.6 -0.4 26.7 -1.5 26.3 -5.85 26.3 -5.9 26.3 -7.15 26.35 -7.3 26.6 -7.8 Q27.05 -8.3 28.1 -8.3 34.45 -8.3 35.3 -5.95 35.9 -4.7 35.15 -2.25 L35.2 -0.55 36.05 -0.45 38.9 -0.45 Q39.3 -3.7 39.05 -6.0 L39.05 -6.05 Q39.0 -7.25 42.75 -7.25 47.2 -7.25 47.25 -3.75 47.3 -2.3 46.75 -0.2 L49.2 -0.2 Q49.85 -0.3 49.9 0.65 L49.9 0.8 Q50.0 2.25 46.55 2.25 44.8 2.3 44.25 0.65 L43.95 -1.0 Q43.9 -2.4 44.2 -4.75 L41.45 -4.7 41.45 -4.2 Q41.45 -0.35 41.25 0.25 L41.1 0.65 Q40.4 2.05 38.0 2.05 33.4 2.05 33.1 0.85 L33.1 0.9 33.1 0.65 Q32.95 -0.35 33.05 -5.25 L31.85 -5.15 31.75 -5.15 Q29.85 -5.4 28.9 -5.75 L28.75 -5.0 29.15 -1.8 29.2 1.3 Q29.3 2.75 23.6 2.75 18.35 2.75 18.35 0.8 L18.35 0.65 Q19.0 -2.5 18.8 -6.05 L14.5 -6.35 14.35 -6.35 13.5 -6.65 13.25 -6.85 13.15 -7.15 13.25 -7.4 Q13.3 -7.75 15.05 -8.0 L15.4 -8.15 15.6 -8.2 M42.0 21.15 L24.25 21.15 Q28.95 21.25 29.9 22.05 30.5 22.45 30.35 23.3 L30.15 24.0 Q30.2 24.65 31.0 24.85 L34.6 24.85 34.6 23.7 34.6 23.65 Q34.6 22.25 35.4 21.7 35.5 21.55 35.7 21.55 L36.05 21.7 Q36.6 22.2 36.6 22.8 36.6 26.8 35.3 26.7 L30.25 26.05 Q28.25 25.3 28.5 23.7 28.6 23.05 28.25 22.9 27.1 22.55 23.2 22.95 L23.15 25.7 Q23.15 26.65 22.5 26.7 L19.95 26.75 14.1 26.65 13.95 26.65 13.35 26.2 13.1 25.5 Q13.1 23.9 13.95 21.85 L14.15 21.6 14.4 21.5 14.55 21.5 14.9 21.65 15.05 22.0 14.75 23.3 14.75 24.8 21.25 24.85 21.2 23.35 Q21.25 21.25 22.35 21.15 L-15.55 21.15 Q-12.95 21.2 -11.5 21.85 L-11.25 22.1 -11.2 22.35 -11.0 22.3 -10.65 22.4 Q-9.4 23.3 -9.5 24.95 L-5.2 24.95 -5.15 22.1 Q-5.2 21.65 -4.65 21.4 L-4.35 21.35 -4.05 21.4 -3.75 21.6 -3.65 21.95 -3.5 24.75 -3.5 24.8 Q-3.5 25.8 -3.8 26.0 L-3.8 26.05 Q-4.45 26.6 -7.3 26.6 L-10.75 26.5 -11.1 26.4 -11.25 26.05 -11.45 22.8 -11.45 22.75 -11.7 22.8 -15.75 22.95 -15.55 24.6 -15.55 24.65 Q-15.45 27.2 -24.5 27.2 L-24.6 27.2 -25.15 27.1 -25.25 27.05 Q-25.65 27.0 -25.65 26.05 L-25.65 26.0 Q-25.35 22.7 -24.95 22.05 L-24.75 21.85 -24.5 21.75 Q-24.0 21.75 -23.75 22.15 L-23.7 22.35 -23.75 22.6 -24.1 23.65 -24.15 25.0 -17.55 24.85 Q-17.4 24.8 -17.4 24.55 L-17.85 22.2 Q-17.95 21.2 -16.1 21.15 L-32.75 21.15 Q-32.15 21.35 -31.7 21.9 L-31.6 21.95 Q-31.2 22.45 -30.85 23.3 -30.5 24.3 -30.4 25.35 L-30.4 25.4 Q-30.3 26.75 -33.65 26.75 -35.85 26.75 -36.7 26.05 L-36.75 26.3 -37.0 26.5 -37.45 26.7 -37.75 26.75 -38.05 26.55 Q-38.8 25.6 -38.8 22.8 L-38.75 21.75 -38.6 21.45 -38.3 21.25 -37.35 21.15 -42.95 21.15 Q-46.1 21.0 -46.15 20.65 L-46.25 20.35 -46.15 20.05 -45.9 19.9 -41.25 19.45 45.95 19.65 46.2 19.7 46.7 19.95 46.9 20.15 46.95 20.45 46.85 20.75 46.6 20.9 42.0 21.15 M8.95 24.65 L8.85 25.4 8.95 25.45 9.05 25.8 8.95 26.15 8.7 26.45 8.55 26.55 8.35 26.6 4.3 26.75 2.95 26.9 2.9 26.9 0.15 26.6 -0.1 26.5 -0.25 26.25 Q-0.5 25.25 0.0 23.55 0.35 22.3 0.8 21.9 L1.0 21.6 Q1.1 21.45 1.3 21.45 L7.35 21.25 Q8.7 21.15 8.95 24.65 M6.25 23.2 L1.9 22.55 1.55 24.8 4.55 24.5 7.15 24.65 Q6.85 23.35 6.25 23.2 M38.9 29.15 L-0.5 29.2 -39.6 29.05 -39.65 29.1 Q-40.1 29.35 -40.4 28.9 L-40.5 28.3 -40.45 28.2 -40.35 27.85 -40.2 27.55 -39.9 27.45 -0.5 27.35 Q39.05 27.4 39.75 27.65 L39.9 27.7 40.3 27.95 40.5 28.25 40.45 28.6 40.15 28.85 39.05 29.15 38.9 29.15 M-49.3 -6.95 L-49.4 -7.1 -49.5 -7.35 -49.55 -7.55 Q-49.65 -9.3 -43.15 -9.3 -40.3 -9.4 -40.2 -4.85 -40.15 -3.55 -40.7 1.0 L-35.55 1.4 -36.0 -7.05 -35.85 -7.4 Q-35.25 -8.3 -31.3 -8.3 -25.8 -8.3 -25.8 -5.75 L-25.8 -5.65 Q-26.35 -2.15 -25.55 1.2 L-22.05 1.25 Q-21.15 1.25 -21.05 0.3 L-21.25 -2.65 Q-21.5 -5.1 -20.5 -6.35 -19.5 -7.65 -17.25 -7.65 L-14.6 -7.45 -13.85 -7.1 Q-13.45 -6.75 -13.75 -6.3 -13.8 -5.55 -15.05 -5.4 L-18.95 -5.15 -18.75 -1.45 Q-18.75 2.5 -19.8 3.15 L-19.8 3.2 -24.2 3.55 Q-28.1 3.55 -28.35 1.35 -28.55 0.2 -28.15 -2.0 L-28.15 -2.05 -27.6 -4.65 Q-27.9 -5.95 -31.3 -5.95 L-33.7 -5.75 -33.7 -4.25 Q-33.25 -1.1 -33.25 1.2 L-33.25 2.45 -33.3 2.65 Q-33.7 3.75 -36.0 3.75 -43.4 3.75 -43.3 1.8 L-43.3 1.75 -42.85 -3.6 Q-42.85 -6.95 -43.2 -7.05 L-48.2 -6.65 -48.25 -6.65 -49.1 -6.8 -49.3 -6.95 M-15.0 -34.85 L-15.05 -34.85 -16.55 -35.45 Q-15.95 -34.65 -16.0 -34.1 -16.0 -32.95 -16.8 -31.7 L-16.95 -31.5 -16.65 -31.6 -12.15 -33.1 Q-13.35 -33.8 -15.0 -34.85 M-18.6 -34.6 L-20.45 -34.95 -20.5 -34.95 Q-21.4 -34.95 -22.15 -34.25 L-22.85 -33.4 Q-22.8 -32.9 -22.25 -32.35 -21.5 -31.65 -20.5 -31.65 -19.05 -31.65 -18.45 -32.75 L-18.4 -32.8 Q-18.1 -33.4 -18.1 -34.05 L-18.6 -34.6 M-19.55 -33.9 L-19.45 -33.45 -19.45 -33.35 Q-19.45 -31.85 -20.7 -31.9 -21.2 -31.75 -21.95 -33.4 L-22.0 -33.6 Q-22.0 -34.7 -20.9 -34.7 -19.9 -34.7 -19.6 -34.0 L-19.55 -33.9 M-24.65 -33.8 L-24.35 -35.15 -28.95 -33.45 Q-26.35 -30.3 -23.05 -30.3 L-22.75 -30.3 Q-24.35 -31.2 -24.65 -33.75 L-24.65 -33.8 M-35.6 24.4 L-32.25 24.85 -32.45 22.7 -37.25 22.7 -36.85 25.2 Q-36.25 24.35 -35.7 24.4 L-35.6 24.4" fill="#cfad7c" fill-opacity="0.7137255" fill-rule="evenodd" stroke="none"/>
  </g>
</svg>
