<?xml version="1.0" encoding="UTF-8" standalone="no"?>
<svg xmlns:ffdec="https://www.free-decompiler.com/flash" xmlns:xlink="http://www.w3.org/1999/xlink" ffdec:objectType="shape" height="23.6px" width="17.45px" xmlns="http://www.w3.org/2000/svg">
  <g transform="matrix(1.0, 0.0, 0.0, 1.0, 8.65, 11.85)">
    <path d="M6.0 2.6 L5.6 2.75 5.55 2.75 5.45 2.75 Q4.9 2.75 4.55 1.85 4.15 1.0 4.15 -0.25 4.15 -1.5 4.55 -2.4 4.9 -3.25 5.45 -3.25 L5.55 -3.25 5.6 -3.25 6.0 -3.15 6.85 -2.4 Q7.4 -1.5 7.45 -0.25 7.4 1.0 6.85 1.85 L6.0 2.6" fill="#ffffff" fill-rule="evenodd" stroke="none"/>
    <path d="M6.0 -3.15 L5.6 -3.25 5.55 -3.25 5.45 -3.25 Q4.9 -3.25 4.55 -2.4 4.15 -1.5 4.15 -0.25 4.15 1.0 4.55 1.85 4.9 2.75 5.45 2.75 L5.55 2.75 5.6 2.75 6.0 2.6 Q5.5 4.9 4.3 6.65 2.3 9.55 -0.5 9.55 -3.35 9.55 -5.25 6.65 -7.3 3.85 -7.25 -0.25 -7.3 -4.35 -5.25 -7.25 -3.35 -10.05 -0.5 -10.05 2.3 -10.05 4.3 -7.25 5.5 -5.45 6.0 -3.15" fill="#6bff09" fill-rule="evenodd" stroke="none"/>
    <path d="M5.3 -8.45 Q6.5 -6.6 7.1 -4.4 L7.8 -3.65 7.85 -3.6 Q8.8 -2.15 8.8 -0.05 8.8 2.05 7.8 3.45 L7.1 4.25 Q6.5 6.45 5.3 8.25 2.85 11.75 -0.5 11.75 -3.9 11.75 -6.25 8.3 L-6.25 8.25 Q-8.65 4.85 -8.65 -0.05 -8.65 -4.95 -6.25 -8.45 -3.95 -11.85 -0.5 -11.85 2.85 -11.85 5.3 -8.5 L5.3 -8.45 M6.0 -3.15 Q5.5 -5.45 4.3 -7.25 2.3 -10.05 -0.5 -10.05 -3.35 -10.05 -5.25 -7.25 -7.3 -4.35 -7.25 -0.25 -7.3 3.85 -5.25 6.65 -3.35 9.55 -0.5 9.55 2.3 9.55 4.3 6.65 5.5 4.9 6.0 2.6 L6.85 1.85 Q7.4 1.0 7.45 -0.25 7.4 -1.5 6.85 -2.4 L6.0 -3.15" fill="#0a6d13" fill-rule="evenodd" stroke="none"/>
    <path d="M3.75 -4.5 Q3.3 -4.0 2.95 -3.15 L3.0 -3.2 Q2.4 -2.0 2.4 -0.25 2.4 1.5 3.0 2.7 L2.95 2.6 3.75 4.0 2.9 5.5 2.9 5.55 Q1.55 7.45 -0.25 7.55 -2.1 7.45 -3.35 5.55 L-3.4 5.5 Q-5.05 3.15 -5.0 -0.25 -5.0 -3.7 -3.35 -6.1 -2.1 -8.0 -0.25 -8.05 1.55 -8.0 2.9 -6.1 L3.75 -4.5" fill="#0db71d" fill-rule="evenodd" stroke="none"/>
  </g>
</svg>
