<?xml version="1.0" encoding="UTF-8" standalone="no"?>
<svg xmlns:ffdec="https://www.free-decompiler.com/flash" xmlns:xlink="http://www.w3.org/1999/xlink" ffdec:objectType="shape" height="98.0px" width="104.75px" xmlns="http://www.w3.org/2000/svg">
  <g transform="matrix(5.0, 0.0, 0.0, 5.0, 171.5, 48.75)">
    <path d="M-34.3 -4.75 Q-34.3 -6.85 -32.85 -8.3 -31.35 -9.75 -29.3 -9.75 -27.25 -9.75 -25.75 -8.3 -24.3 -6.85 -24.3 -4.75 L-24.3 -4.15 Q-22.5 -4.15 -21.05 -3.55 L-20.35 -4.5 Q-19.4 -5.5 -18.0 -5.5 -16.6 -5.5 -15.65 -4.5 -14.65 -3.55 -14.65 -2.15 -14.65 -0.8 -15.65 0.2 -16.5 1.05 -17.6 1.15 -17.75 3.0 -19.55 4.35 -21.55 5.85 -24.3 5.85 -27.05 5.85 -29.05 4.35 -31.0 2.9 -31.0 0.85 L-30.9 0.0 -32.85 -1.25 Q-34.3 -2.7 -34.3 -4.75 M-13.35 6.05 Q-13.35 7.0 -14.0 7.65 -14.65 8.3 -15.6 8.3 -16.55 8.3 -17.2 7.65 -17.85 7.0 -17.85 6.05 -17.85 5.1 -17.2 4.45 -16.55 3.8 -15.6 3.8 -14.65 3.8 -14.0 4.45 -13.35 5.1 -13.35 6.05 M-28.35 7.6 Q-28.35 8.55 -29.0 9.2 -29.65 9.85 -30.6 9.85 -31.55 9.85 -32.2 9.2 -32.85 8.55 -32.85 7.6 -32.85 6.65 -32.2 6.0 -31.55 5.35 -30.6 5.35 -29.65 5.35 -29.0 6.0 -28.35 6.65 -28.35 7.6" fill="#000000" fill-opacity="0.5019608" fill-rule="evenodd" stroke="none"/>
  </g>
</svg>
