<?xml version="1.0" encoding="UTF-8" standalone="no"?>
<svg xmlns:ffdec="https://www.free-decompiler.com/flash" xmlns:xlink="http://www.w3.org/1999/xlink" ffdec:objectType="shape" height="104.5px" width="111.25px" xmlns="http://www.w3.org/2000/svg">
  <g transform="matrix(5.0, 0.0, 0.0, 5.0, 176.0, 53.25)">
    <path d="M-35.2 -4.75 Q-35.2 -7.2 -33.5 -8.95 -31.7 -10.65 -29.3 -10.65 -26.9 -10.65 -25.1 -8.95 -23.5 -7.3 -23.4 -5.0 L-21.15 -4.55 -20.8 -4.95 Q-19.6 -6.1 -18.0 -6.1 -16.4 -6.1 -15.15 -4.95 -14.05 -3.8 -14.05 -2.15 -14.05 -0.55 -15.15 0.65 L-16.45 1.5 Q-16.7 3.5 -18.65 5.0 -21.1 6.75 -24.3 6.75 -26.75 6.75 -28.7 5.75 -27.95 6.5 -27.95 7.6 -27.95 8.7 -28.7 9.5 -29.55 10.25 -30.6 10.25 -31.65 10.25 -32.45 9.5 -33.25 8.7 -33.25 7.6 -33.25 6.5 -32.45 5.75 -31.65 4.95 -30.6 4.95 L-29.85 5.05 -29.9 5.0 Q-32.2 3.25 -32.2 0.85 L-32.15 0.4 -33.5 -0.6 Q-35.2 -2.35 -35.2 -4.75 M-12.95 6.05 Q-12.95 7.15 -13.7 7.95 -14.55 8.7 -15.6 8.7 -16.65 8.7 -17.45 7.95 -18.25 7.15 -18.25 6.05 -18.25 4.95 -17.45 4.2 -16.65 3.4 -15.6 3.4 -14.55 3.4 -13.7 4.2 -12.95 4.95 -12.95 6.05" fill="#000000" fill-opacity="0.4745098" fill-rule="evenodd" stroke="none"/>
  </g>
</svg>
