<?xml version="1.0" encoding="UTF-8" standalone="no"?>
<svg xmlns:ffdec="https://www.free-decompiler.com/flash" xmlns:xlink="http://www.w3.org/1999/xlink" ffdec:objectType="shape" height="111.0px" width="117.75px" xmlns="http://www.w3.org/2000/svg">
  <g transform="matrix(5.0, 0.0, 0.0, 5.0, 180.5, 57.75)">
    <path d="M-34.1 -9.55 Q-32.1 -11.55 -29.3 -11.55 -26.5 -11.55 -24.5 -9.55 -22.9 -8.0 -22.55 -5.8 L-21.05 -5.5 Q-19.75 -6.7 -18.0 -6.7 -16.1 -6.7 -14.75 -5.35 -13.45 -4.05 -13.45 -2.15 -13.45 -0.3 -14.75 1.05 L-15.2 1.45 -15.65 3.0 -15.6 3.0 Q-14.35 3.0 -13.45 3.9 -12.55 4.75 -12.55 6.05 -12.55 7.3 -13.45 8.2 -14.35 9.1 -15.6 9.1 -16.85 9.1 -17.75 8.2 -18.6 7.35 -18.65 6.15 -21.1 7.65 -24.3 7.65 L-27.55 7.2 -27.55 7.6 Q-27.55 8.85 -28.45 9.75 -29.35 10.65 -30.6 10.65 -31.85 10.65 -32.75 9.75 -33.65 8.85 -33.65 7.6 -33.65 6.3 -32.75 5.45 L-31.7 4.75 Q-33.4 3.05 -33.4 0.85 L-33.4 0.65 -34.1 0.0 Q-36.1 -1.95 -36.1 -4.75 -36.1 -7.6 -34.1 -9.55" fill="#000000" fill-opacity="0.4509804" fill-rule="evenodd" stroke="none"/>
  </g>
</svg>
