<?xml version="1.0" encoding="UTF-8" standalone="no"?>
<svg xmlns:ffdec="https://www.free-decompiler.com/flash" xmlns:xlink="http://www.w3.org/1999/xlink" ffdec:objectType="shape" height="117.5px" width="124.25px" xmlns="http://www.w3.org/2000/svg">
  <g transform="matrix(5.0, 0.0, 0.0, 5.0, 185.0, 62.25)">
    <path d="M-34.75 -10.2 Q-32.45 -12.45 -29.3 -12.45 -26.15 -12.45 -23.85 -10.2 -22.3 -8.65 -21.8 -6.6 L-20.85 -6.4 Q-19.6 -7.3 -18.0 -7.3 -15.9 -7.3 -14.35 -5.8 -12.85 -4.3 -12.85 -2.15 -12.85 -0.3 -13.95 1.1 L-14.3 2.85 Q-13.7 3.1 -13.15 3.6 -12.15 4.6 -12.15 6.05 -12.15 7.45 -13.15 8.5 -14.2 9.5 -15.6 9.5 -17.0 9.5 -18.05 8.5 L-18.8 7.35 Q-21.25 8.55 -24.3 8.55 L-27.2 8.25 Q-27.4 9.25 -28.15 10.05 -29.2 11.05 -30.6 11.05 -32.0 11.05 -33.05 10.05 -34.05 9.0 -34.05 7.6 -34.05 6.15 -33.05 5.15 L-32.95 5.05 Q-34.6 3.2 -34.6 0.85 L-34.6 0.8 -34.75 0.65 Q-37.0 -1.6 -37.0 -4.75 -37.0 -7.95 -34.75 -10.2" fill="#000000" fill-opacity="0.42352942" fill-rule="evenodd" stroke="none"/>
  </g>
</svg>
