<?xml version="1.0" encoding="UTF-8" standalone="no"?>
<svg xmlns:ffdec="https://www.free-decompiler.com/flash" xmlns:xlink="http://www.w3.org/1999/xlink" ffdec:objectType="shape" height="124.0px" width="130.75px" xmlns="http://www.w3.org/2000/svg">
  <g transform="matrix(5.0, 0.0, 0.0, 5.0, 189.5, 66.75)">
    <path d="M-35.4 -10.85 Q-32.85 -13.35 -29.3 -13.35 -25.75 -13.35 -23.2 -10.85 -21.7 -9.35 -21.1 -7.4 L-20.55 -7.3 Q-19.4 -7.9 -18.0 -7.9 -15.65 -7.9 -13.9 -6.2 -12.25 -4.55 -12.25 -2.15 -12.25 -0.8 -12.8 0.3 L-12.75 0.85 Q-12.75 2.0 -13.15 3.05 L-12.85 3.3 Q-11.75 4.45 -11.75 6.05 -11.75 7.6 -12.85 8.75 -14.0 9.9 -15.6 9.9 -17.2 9.9 -18.35 8.75 L-18.7 8.35 Q-21.2 9.45 -24.3 9.45 L-27.05 9.2 -27.85 10.3 Q-29.0 11.45 -30.6 11.45 -32.2 11.45 -33.35 10.3 -34.45 9.15 -34.45 7.6 -34.45 6.45 -33.9 5.6 -35.8 3.5 -35.8 0.85 L-35.8 0.8 Q-37.9 -1.55 -37.9 -4.75 -37.9 -8.35 -35.4 -10.85" fill="#000000" fill-opacity="0.39607844" fill-rule="evenodd" stroke="none"/>
  </g>
</svg>
