<?xml version="1.0" encoding="UTF-8" standalone="no"?>
<svg xmlns:ffdec="https://www.free-decompiler.com/flash" xmlns:xlink="http://www.w3.org/1999/xlink" ffdec:objectType="shape" height="130.5px" width="137.5px" xmlns="http://www.w3.org/2000/svg">
  <g transform="matrix(5.0, 0.0, 0.0, 5.0, 194.0, 71.25)">
    <path d="M-29.3 -14.25 Q-25.4 -14.25 -22.6 -11.5 -21.1 -10.0 -20.4 -8.2 L-20.2 -8.15 -18.0 -8.5 Q-15.4 -8.5 -13.5 -6.65 -11.6 -4.8 -11.6 -2.15 -11.6 -1.5 -11.75 -0.85 L-11.55 0.8 Q-11.55 2.3 -12.1 3.6 -11.35 4.65 -11.3 6.05 -11.35 7.8 -12.6 9.05 -13.85 10.3 -15.6 10.3 -17.2 10.3 -18.4 9.25 -21.05 10.3 -24.3 10.3 L-27.15 10.1 -27.6 10.6 Q-28.85 11.85 -30.6 11.85 -32.35 11.85 -33.6 10.6 -34.85 9.35 -34.85 7.6 L-34.7 6.35 Q-37.05 3.95 -37.0 0.8 -38.8 -1.65 -38.8 -4.8 -38.8 -8.7 -36.05 -11.5 -33.2 -14.25 -29.3 -14.25" fill="#000000" fill-opacity="0.36862746" fill-rule="evenodd" stroke="none"/>
  </g>
</svg>
