<?xml version="1.0" encoding="UTF-8" standalone="no"?>
<svg xmlns:ffdec="https://www.free-decompiler.com/flash" xmlns:xlink="http://www.w3.org/1999/xlink" ffdec:objectType="shape" height="137.0px" width="146.75px" xmlns="http://www.w3.org/2000/svg">
  <g transform="matrix(5.0, 0.0, 0.0, 5.0, 198.5, 75.75)">
    <path d="M-36.65 -12.1 Q-33.6 -15.15 -29.3 -15.15 -25.0 -15.15 -21.95 -12.1 -20.5 -10.7 -19.75 -9.0 L-19.55 -8.95 -18.0 -9.1 Q-15.1 -9.1 -13.05 -7.05 -11.1 -5.15 -11.0 -2.45 -10.35 -0.95 -10.35 0.8 -10.35 2.75 -11.2 4.45 L-10.9 6.05 Q-10.95 7.95 -12.3 9.3 -13.65 10.7 -15.6 10.7 -16.9 10.7 -17.95 10.1 -20.8 11.2 -24.3 11.2 L-27.4 10.95 Q-28.75 12.25 -30.6 12.25 -32.55 12.25 -33.9 10.85 -35.25 9.5 -35.25 7.6 L-35.25 7.2 Q-38.25 4.45 -38.2 0.8 L-38.2 0.55 Q-39.7 -1.8 -39.7 -4.8 -39.7 -9.1 -36.65 -12.1" fill="#000000" fill-opacity="0.34509805" fill-rule="evenodd" stroke="none"/>
  </g>
</svg>
