<?xml version="1.0" encoding="UTF-8" standalone="no"?>
<svg xmlns:ffdec="https://www.free-decompiler.com/flash" xmlns:xlink="http://www.w3.org/1999/xlink" ffdec:objectType="shape" height="143.5px" width="157.25px" xmlns="http://www.w3.org/2000/svg">
  <g transform="matrix(5.0, 0.0, 0.0, 5.0, 203.0, 80.25)">
    <path d="M-29.3 -16.05 Q-24.65 -16.05 -21.3 -12.75 -19.95 -11.4 -19.15 -9.8 L-18.7 -9.7 -18.0 -9.7 Q-14.9 -9.7 -12.65 -7.5 -11.2 -6.05 -10.7 -4.2 -9.15 -1.95 -9.15 0.8 -9.15 3.45 -10.55 5.6 L-10.5 6.05 Q-10.5 8.15 -12.0 9.6 -13.5 11.1 -15.6 11.1 L-17.25 10.85 Q-20.45 12.1 -24.3 12.1 L-27.8 11.85 Q-29.05 12.65 -30.6 12.65 -32.7 12.65 -34.2 11.15 -35.4 9.95 -35.6 8.3 -39.45 5.15 -39.45 0.8 L-39.4 0.3 Q-40.6 -2.0 -40.6 -4.8 -40.6 -9.45 -37.3 -12.75 -33.95 -16.05 -29.3 -16.05" fill="#000000" fill-opacity="0.31764707" fill-rule="evenodd" stroke="none"/>
  </g>
</svg>
