<?xml version="1.0" encoding="UTF-8" standalone="no"?>
<svg xmlns:ffdec="https://www.free-decompiler.com/flash" xmlns:xlink="http://www.w3.org/1999/xlink" ffdec:objectType="shape" height="150.0px" width="167.75px" xmlns="http://www.w3.org/2000/svg">
  <g transform="matrix(5.0, 0.0, 0.0, 5.0, 207.5, 84.75)">
    <path d="M-41.5 -4.8 Q-41.5 -9.8 -37.95 -13.4 -34.3 -16.95 -29.3 -16.95 -24.25 -16.95 -20.7 -13.4 -19.4 -12.1 -18.55 -10.6 L-17.55 -10.3 Q-14.45 -10.2 -12.25 -7.95 -11.35 -7.05 -10.8 -6.05 -7.95 -3.05 -7.95 0.8 -7.95 4.25 -10.2 7.0 -10.5 8.65 -11.75 9.9 -13.35 11.5 -15.6 11.5 L-16.3 11.45 Q-19.85 13.0 -24.3 13.0 L-28.45 12.65 -30.6 13.05 Q-32.85 13.05 -34.45 11.45 -35.35 10.6 -35.7 9.55 L-35.9 9.4 Q-40.65 5.85 -40.65 0.8 L-40.6 -0.1 Q-41.5 -2.25 -41.5 -4.8" fill="#000000" fill-opacity="0.2901961" fill-rule="evenodd" stroke="none"/>
  </g>
</svg>
