<?xml version="1.0" encoding="UTF-8" standalone="no"?>
<svg xmlns:ffdec="https://www.free-decompiler.com/flash" xmlns:xlink="http://www.w3.org/1999/xlink" ffdec:objectType="shape" height="158.75px" width="178.25px" xmlns="http://www.w3.org/2000/svg">
  <g transform="matrix(5.0, 0.0, 0.0, 5.0, 212.0, 89.25)">
    <path d="M-42.4 -4.8 Q-42.4 -10.2 -38.6 -14.05 -34.7 -17.85 -29.3 -17.85 -23.9 -17.85 -20.05 -14.05 -18.8 -12.8 -17.95 -11.4 L-15.8 -10.65 Q-13.55 -10.1 -11.8 -8.35 -6.75 -4.55 -6.75 0.8 -6.75 5.35 -10.35 8.75 L-11.45 10.15 Q-12.95 11.65 -14.9 11.9 -19.05 13.9 -24.3 13.9 L-29.45 13.35 -30.6 13.45 Q-33.0 13.45 -34.75 11.7 L-35.45 10.9 -36.75 10.0 Q-41.85 6.2 -41.85 0.8 L-41.75 -0.6 Q-42.4 -2.6 -42.4 -4.8" fill="#000000" fill-opacity="0.2627451" fill-rule="evenodd" stroke="none"/>
  </g>
</svg>
