<?xml version="1.0" encoding="UTF-8" standalone="no"?>
<svg xmlns:ffdec="https://www.free-decompiler.com/flash" xmlns:xlink="http://www.w3.org/1999/xlink" ffdec:objectType="shape" height="168.0px" width="188.5px" xmlns="http://www.w3.org/2000/svg">
  <g transform="matrix(5.0, 0.0, 0.0, 5.0, 216.25, 94.0)">
    <path d="M-43.25 -4.8 Q-43.3 -10.55 -39.2 -14.65 -35.05 -18.8 -29.3 -18.8 -23.5 -18.8 -19.4 -14.65 -18.25 -13.5 -17.45 -12.25 -13.9 -11.25 -11.0 -9.05 -5.55 -4.95 -5.55 0.8 -5.55 6.6 -11.0 10.65 -16.5 14.8 -24.3 14.8 -28.05 14.8 -31.3 13.85 L-34.3 12.65 -37.55 10.65 Q-43.05 6.6 -43.0 0.8 L-42.85 -1.2 Q-43.25 -2.9 -43.25 -4.8" fill="#010101" fill-opacity="0.23921569" fill-rule="evenodd" stroke="none"/>
  </g>
</svg>
